<?xml version="1.0" encoding="utf-8"?>
<!-- Generator: Adobe Illustrator 17.0.0, SVG Export Plug-In . SVG Version: 6.00 Build 0)  -->
<!DOCTYPE svg PUBLIC "-//W3C//DTD SVG 1.1//EN" "http://www.w3.org/Graphics/SVG/1.1/DTD/svg11.dtd" [
	<!ENTITY ns_extend "http://ns.adobe.com/Extensibility/1.0/">
	<!ENTITY ns_ai "http://ns.adobe.com/AdobeIllustrator/10.0/">
	<!ENTITY ns_graphs "http://ns.adobe.com/Graphs/1.0/">
	<!ENTITY ns_vars "http://ns.adobe.com/Variables/1.0/">
	<!ENTITY ns_imrep "http://ns.adobe.com/ImageReplacement/1.0/">
	<!ENTITY ns_sfw "http://ns.adobe.com/SaveForWeb/1.0/">
	<!ENTITY ns_custom "http://ns.adobe.com/GenericCustomNamespace/1.0/">
	<!ENTITY ns_adobe_xpath "http://ns.adobe.com/XPath/1.0/">
]>
<svg version="1.1" id="Layer_1" xmlns:x="&ns_extend;" xmlns:i="&ns_ai;" xmlns:graph="&ns_graphs;"
	 xmlns="http://www.w3.org/2000/svg" xmlns:xlink="http://www.w3.org/1999/xlink" x="0px" y="0px" width="56px" height="56px"
	 viewBox="0 0 56 56" enable-background="new 0 0 56 56" xml:space="preserve">
<metadata>
	<sfw  xmlns="&ns_sfw;">
		<slices></slices>
		<sliceSourceBounds  y="-1161" width="132.083" height="753.917" x="216" bottomLeftOrigin="true"></sliceSourceBounds>
	</sfw>
</metadata>
<g>
	<circle fill="#9B182D" cx="-48.083" cy="725.917" r="28"/>
	<g>
		<g>
			<path fill="#FFFFFF" d="M-32.925,739.934h-30.316c-1.263,0-2.291-1.028-2.291-2.291v-19.756c0-1.263,1.028-2.291,2.291-2.291
				h7.172c0.557,0,1.01-0.453,1.01-1.01v-0.395c0-1.263,1.028-2.291,2.291-2.291h9.372c1.263,0,2.291,1.028,2.291,2.291v0.395
				c0,0.557,0.453,1.01,1.01,1.01h7.172c1.263,0,2.291,1.028,2.291,2.291v19.756C-30.634,738.906-31.662,739.934-32.925,739.934z
				 M-63.242,716.877c-0.557,0-1.01,0.453-1.01,1.01v19.756c0,0.557,0.453,1.01,1.01,1.01h30.316c0.557,0,1.01-0.453,1.01-1.01
				v-19.756c0-0.557-0.453-1.01-1.01-1.01h-7.172c-1.263,0-2.291-1.028-2.291-2.291v-0.395c0-0.557-0.453-1.01-1.01-1.01h-9.372
				c-0.557,0-1.01,0.453-1.01,1.01v0.395c0,1.263-1.028,2.291-2.291,2.291H-63.242z"/>
		</g>
		<g>
			<path fill="#FFFFFF" d="M-48.083,735.944c-4.817,0-8.737-3.919-8.737-8.737c0-4.817,3.919-8.737,8.737-8.737
				s8.737,3.919,8.737,8.737C-39.347,732.025-43.266,735.944-48.083,735.944z M-48.083,719.752c-4.111,0-7.456,3.345-7.456,7.456
				c0,4.111,3.345,7.456,7.456,7.456s7.456-3.345,7.456-7.456C-40.628,723.096-43.972,719.752-48.083,719.752z"/>
		</g>
		<g>
			<path fill="#FFFFFF" d="M-48.083,733.304c-3.362,0-6.097-2.735-6.097-6.097c0-0.354,0.287-0.64,0.64-0.64s0.64,0.287,0.64,0.64
				c0,2.655,2.16,4.816,4.816,4.816c0.354,0,0.64,0.287,0.64,0.64C-47.443,733.017-47.73,733.304-48.083,733.304z"/>
		</g>
		<g>
			<path fill="#FFFFFF" d="M-35.954,724.21c-1.582,0-2.87-1.287-2.87-2.87c0-1.582,1.287-2.87,2.87-2.87s2.87,1.287,2.87,2.87
				C-33.084,722.923-34.371,724.21-35.954,724.21z M-35.954,719.752c-0.876,0-1.589,0.713-1.589,1.589
				c0,0.876,0.713,1.589,1.589,1.589s1.589-0.713,1.589-1.589C-34.365,720.464-35.077,719.752-35.954,719.752z"/>
		</g>
		<g>
			<rect x="-51.853" y="714.716" fill="#FFFFFF" width="7.803" height="1.281"/>
		</g>
	</g>
</g>
<g>
	<circle fill="#9B182D" cx="28" cy="28" r="28"/>
	<g>
		<g>
			<path fill="#FFFFFF" d="M43.158,42.017H12.842c-1.263,0-2.291-1.028-2.291-2.291V19.97c0-1.263,1.028-2.291,2.291-2.291h7.172
				c0.557,0,1.01-0.453,1.01-1.01v-0.395c0-1.263,1.028-2.291,2.291-2.291h9.372c1.263,0,2.291,1.028,2.291,2.291v0.395
				c0,0.557,0.453,1.01,1.01,1.01h7.172c1.263,0,2.291,1.028,2.291,2.291v19.756C45.449,40.989,44.421,42.017,43.158,42.017z
				 M12.842,18.96c-0.557,0-1.01,0.453-1.01,1.01v19.756c0,0.557,0.453,1.01,1.01,1.01h30.316c0.557,0,1.01-0.453,1.01-1.01V19.97
				c0-0.557-0.453-1.01-1.01-1.01h-7.172c-1.263,0-2.291-1.028-2.291-2.291v-0.395c0-0.557-0.453-1.01-1.01-1.01h-9.372
				c-0.557,0-1.01,0.453-1.01,1.01v0.395c0,1.263-1.028,2.291-2.291,2.291H12.842z"/>
		</g>
		<g>
			<path fill="#FFFFFF" d="M28,38.027c-4.817,0-8.737-3.919-8.737-8.737c0-4.817,3.919-8.737,8.737-8.737s8.737,3.919,8.737,8.737
				C36.737,34.108,32.817,38.027,28,38.027z M28,21.835c-4.111,0-7.456,3.345-7.456,7.456c0,4.111,3.345,7.456,7.456,7.456
				s7.456-3.345,7.456-7.456C35.456,25.18,32.111,21.835,28,21.835z"/>
		</g>
		<g>
			<path fill="#FFFFFF" d="M28,35.387c-3.362,0-6.097-2.735-6.097-6.097c0-0.354,0.287-0.64,0.64-0.64c0.354,0,0.64,0.287,0.64,0.64
				c0,2.655,2.16,4.816,4.816,4.816c0.354,0,0.64,0.287,0.64,0.64C28.64,35.101,28.354,35.387,28,35.387z"/>
		</g>
		<g>
			<path fill="#FFFFFF" d="M40.13,26.294c-1.582,0-2.87-1.287-2.87-2.87c0-1.582,1.287-2.87,2.87-2.87c1.582,0,2.87,1.287,2.87,2.87
				C43,25.006,41.712,26.294,40.13,26.294z M40.13,21.835c-0.876,0-1.589,0.713-1.589,1.589c0,0.876,0.713,1.589,1.589,1.589
				c0.876,0,1.589-0.713,1.589-1.589C41.719,22.548,41.006,21.835,40.13,21.835z"/>
		</g>
		<g>
			<rect x="24.23" y="16.799" fill="#FFFFFF" width="7.803" height="1.281"/>
		</g>
	</g>
</g>
</svg>
