<?xml version="1.0" encoding="utf-8"?>
<!-- Generator: Adobe Illustrator 17.0.0, SVG Export Plug-In . SVG Version: 6.00 Build 0)  -->
<!DOCTYPE svg PUBLIC "-//W3C//DTD SVG 1.1//EN" "http://www.w3.org/Graphics/SVG/1.1/DTD/svg11.dtd" [
	<!ENTITY ns_extend "http://ns.adobe.com/Extensibility/1.0/">
	<!ENTITY ns_ai "http://ns.adobe.com/AdobeIllustrator/10.0/">
	<!ENTITY ns_graphs "http://ns.adobe.com/Graphs/1.0/">
	<!ENTITY ns_vars "http://ns.adobe.com/Variables/1.0/">
	<!ENTITY ns_imrep "http://ns.adobe.com/ImageReplacement/1.0/">
	<!ENTITY ns_sfw "http://ns.adobe.com/SaveForWeb/1.0/">
	<!ENTITY ns_custom "http://ns.adobe.com/GenericCustomNamespace/1.0/">
	<!ENTITY ns_adobe_xpath "http://ns.adobe.com/XPath/1.0/">
]>
<svg version="1.1" id="Layer_1" xmlns:x="&ns_extend;" xmlns:i="&ns_ai;" xmlns:graph="&ns_graphs;"
	 xmlns="http://www.w3.org/2000/svg" xmlns:xlink="http://www.w3.org/1999/xlink" x="0px" y="0px" width="56px" height="56px"
	 viewBox="0 0 56 56" enable-background="new 0 0 56 56" xml:space="preserve">
<metadata>
	<sfw  xmlns="&ns_sfw;">
		<slices></slices>
		<sliceSourceBounds  y="-448.5" width="56" height="56" x="270" bottomLeftOrigin="true"></sliceSourceBounds>
	</sfw>
</metadata>
<g>
	<g>
		<circle fill="#9B182D" cx="28" cy="28" r="28"/>
	</g>
	<g>
		<g>
			<path fill="#FFFFFF" d="M28,44.6c-9.153,0-16.6-7.446-16.6-16.6S18.847,11.4,28,11.4S44.6,18.847,44.6,28S37.153,44.6,28,44.6z
				 M28,12.6c-8.491,0-15.4,6.909-15.4,15.4S19.509,43.4,28,43.4S43.4,36.491,43.4,28S36.491,12.6,28,12.6z"/>
		</g>
		<g>
			<path fill="#FFFFFF" d="M28,32.1c-2.261,0-4.1-1.839-4.1-4.1s1.839-4.1,4.1-4.1s4.1,1.839,4.1,4.1S30.261,32.1,28,32.1z M28,25.1
				c-1.599,0-2.9,1.302-2.9,2.9s1.302,2.9,2.9,2.9s2.9-1.302,2.9-2.9S29.599,25.1,28,25.1z"/>
		</g>
		<g>
			<path fill="#FFFFFF" d="M28,25.136c-0.331,0-0.6-0.269-0.6-0.6V16.5c0-0.331,0.269-0.6,0.6-0.6s0.6,0.269,0.6,0.6v8.036
				C28.6,24.867,28.331,25.136,28,25.136z"/>
		</g>
		<g>
			<path fill="#FFFFFF" d="M34.5,35.1c-0.145,0-0.289-0.052-0.404-0.156l-4.22-3.848c-0.245-0.224-0.263-0.603-0.039-0.848
				s0.603-0.261,0.848-0.039l4.22,3.848c0.245,0.224,0.263,0.603,0.039,0.848C34.825,35.034,34.663,35.1,34.5,35.1z"/>
		</g>
		<g>
			<path fill="#FFFFFF" d="M28,15.1c-0.331,0-0.6-0.269-0.6-0.6v-1c0-0.331,0.269-0.6,0.6-0.6s0.6,0.269,0.6,0.6v1
				C28.6,14.831,28.331,15.1,28,15.1z"/>
		</g>
		<g>
			<path fill="#FFFFFF" d="M28.5,43.1c-0.331,0-0.6-0.269-0.6-0.6v-1c0-0.331,0.269-0.6,0.6-0.6s0.6,0.269,0.6,0.6v1
				C29.1,42.831,28.831,43.1,28.5,43.1z"/>
		</g>
		<g>
			<path fill="#FFFFFF" d="M14.5,28.6h-1c-0.331,0-0.6-0.269-0.6-0.6s0.269-0.6,0.6-0.6h1c0.331,0,0.6,0.269,0.6,0.6
				S14.831,28.6,14.5,28.6z"/>
		</g>
		<g>
			<path fill="#FFFFFF" d="M42.5,29.1h-1c-0.331,0-0.6-0.269-0.6-0.6s0.269-0.6,0.6-0.6h1c0.331,0,0.6,0.269,0.6,0.6
				S42.831,29.1,42.5,29.1z"/>
		</g>
	</g>
</g>
</svg>
