<?xml version="1.0" encoding="utf-8"?>
<!-- Generator: Adobe Illustrator 17.0.0, SVG Export Plug-In . SVG Version: 6.00 Build 0)  -->
<!DOCTYPE svg PUBLIC "-//W3C//DTD SVG 1.1//EN" "http://www.w3.org/Graphics/SVG/1.1/DTD/svg11.dtd" [
	<!ENTITY ns_extend "http://ns.adobe.com/Extensibility/1.0/">
	<!ENTITY ns_ai "http://ns.adobe.com/AdobeIllustrator/10.0/">
	<!ENTITY ns_graphs "http://ns.adobe.com/Graphs/1.0/">
	<!ENTITY ns_vars "http://ns.adobe.com/Variables/1.0/">
	<!ENTITY ns_imrep "http://ns.adobe.com/ImageReplacement/1.0/">
	<!ENTITY ns_sfw "http://ns.adobe.com/SaveForWeb/1.0/">
	<!ENTITY ns_custom "http://ns.adobe.com/GenericCustomNamespace/1.0/">
	<!ENTITY ns_adobe_xpath "http://ns.adobe.com/XPath/1.0/">
]>
<svg version="1.1" id="Layer_1" xmlns:x="&ns_extend;" xmlns:i="&ns_ai;" xmlns:graph="&ns_graphs;"
	 xmlns="http://www.w3.org/2000/svg" xmlns:xlink="http://www.w3.org/1999/xlink" x="0px" y="0px" width="20.942px"
	 height="21.391px" viewBox="0 0 20.942 21.391" enable-background="new 0 0 20.942 21.391" xml:space="preserve">
<metadata>
	<sfw  xmlns="&ns_sfw;">
		<slices></slices>
		<sliceSourceBounds  height="21.218" width="20.942" y="-430.867" x="287.003" bottomLeftOrigin="true"></sliceSourceBounds>
	</sfw>
</metadata>
<g>
	<g>
		<defs>
			<rect id="SVGID_3_" x="0.003" y="0.087" width="20.936" height="21.218"/>
		</defs>
		<clipPath id="SVGID_1_">
			<use xlink:href="#SVGID_3_"  overflow="visible"/>
		</clipPath>
		<path clip-path="url(#SVGID_1_)" fill="#758B98" d="M20.214,2.035h-2.191c-0.402,0-0.731,0.329-0.731,0.731
			c0,0.402,0.329,0.73,0.731,0.73h1.461v16.315H1.464V3.496h1.948c0.402,0,0.731-0.329,0.731-0.73c0-0.402-0.329-0.731-0.731-0.731
			H0.734c-0.402,0-0.731,0.329-0.731,0.731v17.776c0,0.402,0.329,0.73,0.731,0.73h19.481c0.402,0,0.731-0.329,0.731-0.73V2.765
			C20.945,2.364,20.616,2.035,20.214,2.035L20.214,2.035z M20.214,2.035"/>
	</g>
	<path fill="#758B98" d="M11.448,2.035h-2.07c-0.402,0-0.731,0.329-0.731,0.731c0,0.402,0.329,0.73,0.731,0.73h2.07
		c0.402,0,0.731-0.329,0.731-0.73C12.178,2.364,11.85,2.035,11.448,2.035L11.448,2.035z M11.448,2.035"/>
	<path fill="#758B98" d="M6.091,15.184H4.386c-0.402,0-0.731,0.329-0.731,0.731v1.217c0,0.402,0.329,0.731,0.731,0.731h1.704
		c0.402,0,0.731-0.329,0.731-0.731v-1.217C6.821,15.513,6.492,15.184,6.091,15.184L6.091,15.184z M6.091,15.184"/>
	<path fill="#758B98" d="M11.326,15.184H9.5c-0.402,0-0.731,0.329-0.731,0.731v1.217c0,0.402,0.329,0.731,0.731,0.731h1.826
		c0.402,0,0.73-0.329,0.73-0.731v-1.217C12.056,15.513,11.728,15.184,11.326,15.184L11.326,15.184z M11.326,15.184"/>
	<path fill="#758B98" d="M6.821,11.897c0-0.402-0.329-0.731-0.731-0.731H4.386c-0.402,0-0.731,0.329-0.731,0.731v1.217
		c0,0.402,0.329,0.731,0.731,0.731h1.704c0.402,0,0.731-0.329,0.731-0.731V11.897z M6.821,11.897"/>
	<path fill="#758B98" d="M12.056,11.897c0-0.402-0.329-0.731-0.73-0.731H9.5c-0.402,0-0.731,0.329-0.731,0.731v1.217
		c0,0.402,0.329,0.731,0.731,0.731h1.826c0.402,0,0.73-0.329,0.73-0.731V11.897z M12.056,11.897"/>
	<path fill="#758B98" d="M16.44,11.166h-1.705c-0.402,0-0.73,0.329-0.73,0.731v1.217c0,0.402,0.329,0.731,0.73,0.731h1.705
		c0.402,0,0.731-0.329,0.731-0.731v-1.217C17.17,11.495,16.842,11.166,16.44,11.166L16.44,11.166z M16.44,11.166"/>
	<path fill="#758B98" d="M3.656,7.757v1.217c0,0.402,0.329,0.731,0.731,0.731h1.704c0.402,0,0.731-0.329,0.731-0.731V7.757
		c0-0.402-0.329-0.731-0.731-0.731H4.386C3.984,7.027,3.656,7.355,3.656,7.757L3.656,7.757z M3.656,7.757"/>
	<path fill="#758B98" d="M12.056,7.757c0-0.402-0.329-0.731-0.73-0.731H9.5c-0.402,0-0.731,0.329-0.731,0.731v1.217
		c0,0.402,0.329,0.731,0.731,0.731h1.826c0.402,0,0.73-0.329,0.73-0.731V7.757z M12.056,7.757"/>
	<path fill="#758B98" d="M17.17,7.757c0-0.402-0.329-0.731-0.731-0.731h-1.705c-0.402,0-0.73,0.329-0.73,0.731v1.217
		c0,0.402,0.329,0.731,0.73,0.731h1.705c0.402,0,0.731-0.329,0.731-0.731V7.757z M17.17,7.757"/>
	<path fill="#758B98" d="M6.578,4.957c0.402,0,0.731-0.329,0.731-0.731V0.817c0-0.402-0.329-0.731-0.731-0.731h-0.73
		c-0.402,0-0.731,0.329-0.731,0.731v3.409c0,0.402,0.329,0.731,0.731,0.731H6.578z M6.578,4.957"/>
	<path fill="#758B98" d="M14.979,0.087h-0.731c-0.402,0-0.73,0.329-0.73,0.731v3.409c0,0.402,0.329,0.731,0.73,0.731h0.731
		c0.402,0,0.73-0.329,0.73-0.731V0.817C15.709,0.415,15.381,0.087,14.979,0.087L14.979,0.087z M14.979,0.087"/>
</g>
</svg>
