<?xml version="1.0" encoding="utf-8"?>
<!-- Generator: Adobe Illustrator 16.0.0, SVG Export Plug-In . SVG Version: 6.00 Build 0)  -->
<!DOCTYPE svg PUBLIC "-//W3C//DTD SVG 1.1//EN" "http://www.w3.org/Graphics/SVG/1.1/DTD/svg11.dtd">
<svg version="1.1" id="Layer_1" xmlns="http://www.w3.org/2000/svg" xmlns:xlink="http://www.w3.org/1999/xlink" x="0px" y="0px"
	 width="16.385px" height="14.337px" viewBox="0 0 16.385 14.337" enable-background="new 0 0 16.385 14.337" xml:space="preserve">
<path fill-rule="evenodd" clip-rule="evenodd" fill="#010101" d="M6.331,10.725c0-1.119-0.004-2.236,0.003-3.354
	c0.002-0.188-0.052-0.246-0.24-0.239C5.746,7.144,5.396,7.129,5.048,7.138C4.906,7.141,4.854,7.102,4.856,6.953
	c0.007-0.698,0.006-1.396,0.001-2.094C4.855,4.725,4.896,4.681,5.031,4.683c0.356,0.008,0.715-0.009,1.07,0.008
	C6.309,4.7,6.35,4.627,6.347,4.436c-0.013-0.53-0.013-1.062,0-1.594C6.359,2.194,6.534,1.589,6.92,1.061
	c0.489-0.668,1.183-0.973,1.986-1.009c0.823-0.037,1.648-0.016,2.474-0.025c0.114-0.002,0.149,0.041,0.147,0.152
	c-0.003,0.705-0.003,1.412,0.002,2.117c0,0.125-0.04,0.164-0.164,0.162c-0.396-0.006-0.792-0.004-1.189-0.002
	C9.648,2.458,9.332,2.729,9.298,3.251C9.272,3.67,9.292,4.092,9.283,4.512c-0.004,0.149,0.085,0.14,0.185,0.14
	c0.602-0.001,1.205,0.004,1.808-0.005c0.178-0.003,0.235,0.038,0.214,0.225c-0.075,0.701-0.141,1.403-0.2,2.106
	c-0.014,0.159-0.085,0.188-0.229,0.187c-0.476-0.009-0.952-0.006-1.428-0.002C9.291,7.164,9.324,7.111,9.324,7.46
	c-0.002,2.188-0.004,4.376,0.005,6.565c0.001,0.232-0.058,0.288-0.286,0.284c-0.816-0.014-1.633-0.015-2.45,0.001
	c-0.23,0.004-0.268-0.074-0.267-0.277C6.335,12.93,6.331,11.827,6.331,10.725"/>
</svg>
