<?xml version="1.0" encoding="utf-8"?>
<!-- Generator: Adobe Illustrator 16.0.0, SVG Export Plug-In . SVG Version: 6.00 Build 0)  -->
<!DOCTYPE svg PUBLIC "-//W3C//DTD SVG 1.1//EN" "http://www.w3.org/Graphics/SVG/1.1/DTD/svg11.dtd">
<svg version="1.1" id="Layer_1" xmlns="http://www.w3.org/2000/svg" xmlns:xlink="http://www.w3.org/1999/xlink" x="0px" y="0px"
	 width="42.454px" height="14.381px" viewBox="0 0 42.454 14.381" enable-background="new 0 0 42.454 14.381" xml:space="preserve">
<path fill="#D0E0EA" d="M0,14.404h2.973V8.578c0-0.556,0.452-1.008,1.007-1.008c0.556,0,1.007,0.452,1.007,1.008v5.826H7.96V8.578
	c0-2.194-1.785-3.981-3.98-3.981c-0.348,0-0.686,0.046-1.007,0.131V1.632c0-0.821-0.666-1.487-1.487-1.487
	C0.665,0.145,0,0.811,0,1.632v8.469v0.008V14.404z"/>
<path fill="#D0E0EA" d="M12.766,14.404V6.256c0-0.822-0.665-1.487-1.486-1.487c-0.822,0-1.487,0.665-1.487,1.487v8.148H12.766z"/>
<path fill="#D0E0EA" d="M21.349,5.69c-0.742-0.704-1.715-1.094-2.739-1.094c-0.581,0-1.132,0.127-1.63,0.353
	c-0.244-0.177-0.542-0.279-0.864-0.279c-0.822,0-1.487,0.666-1.487,1.486v3.944v0.006v4.299h2.973V8.578
	c0-0.556,0.452-1.007,1.008-1.007c0.259,0,0.505,0.098,0.692,0.275c0.596,0.565,1.536,0.541,2.102-0.054
	C21.969,7.197,21.945,6.256,21.349,5.69"/>
<path fill="#D0E0EA" d="M13.425,2.322c0.477-0.75,0.381-1.678-0.233-2.105c-0.598-0.417-1.471-0.213-2.016,0.447
	c-0.112,0.129-0.239,0.289-0.368,0.47c-0.154,0.215-0.281,0.418-0.369,0.583c-0.454,0.744-0.353,1.651,0.253,2.074
	c0.203,0.14,0.436,0.211,0.678,0.217c0.486,0.009,1.001-0.243,1.364-0.702c0.106-0.123,0.224-0.273,0.344-0.442
	C13.22,2.666,13.338,2.479,13.425,2.322"/>
<path fill="#D0E0EA" d="M31.222,5.618c-0.27-0.537-0.868-0.558-1.125-0.555h-2.336v7.935c0,0.638-0.406,1.179-0.975,1.383h9.164
	c-0.314-0.135-0.58-0.377-0.74-0.697C35.075,13.409,31.88,6.944,31.222,5.618"/>
<path fill="#D0E0EA" d="M30.021,2.122C31.093,2.11,32.952,2.4,33.88,4.36c0.357,0.756,1.625,3.313,2.631,5.336l3.22-6.619
	c0.354-0.729,1.235-1.034,1.966-0.68c0.377,0.185,0.639,0.508,0.758,0.877V1.647c0-0.82-0.666-1.484-1.486-1.484H23.556
	c-0.82,0-1.485,0.664-1.485,1.484v0.475H30.021z"/>
<path fill="#D0E0EA" d="M42.376,4.364l-4.525,9.308c-0.16,0.324-0.428,0.572-0.748,0.709h3.865c0.82,0,1.486-0.665,1.486-1.486
	V4.166C42.433,4.231,42.407,4.299,42.376,4.364"/>
<path fill="#D0E0EA" d="M24.819,12.997V5.063H22.07v7.831c0,0.821,0.665,1.486,1.485,1.486h2.236
	C25.225,14.177,24.819,13.636,24.819,12.997"/>
</svg>
