<?xml version="1.0" encoding="utf-8"?>
<!-- Generator: Adobe Illustrator 17.0.0, SVG Export Plug-In . SVG Version: 6.00 Build 0)  -->
<!DOCTYPE svg PUBLIC "-//W3C//DTD SVG 1.1//EN" "http://www.w3.org/Graphics/SVG/1.1/DTD/svg11.dtd" [
	<!ENTITY ns_extend "http://ns.adobe.com/Extensibility/1.0/">
	<!ENTITY ns_ai "http://ns.adobe.com/AdobeIllustrator/10.0/">
	<!ENTITY ns_graphs "http://ns.adobe.com/Graphs/1.0/">
	<!ENTITY ns_vars "http://ns.adobe.com/Variables/1.0/">
	<!ENTITY ns_imrep "http://ns.adobe.com/ImageReplacement/1.0/">
	<!ENTITY ns_sfw "http://ns.adobe.com/SaveForWeb/1.0/">
	<!ENTITY ns_custom "http://ns.adobe.com/GenericCustomNamespace/1.0/">
	<!ENTITY ns_adobe_xpath "http://ns.adobe.com/XPath/1.0/">
]>
<svg version="1.1" id="Layer_1" xmlns:x="&ns_extend;" xmlns:i="&ns_ai;" xmlns:graph="&ns_graphs;"
	 xmlns="http://www.w3.org/2000/svg" xmlns:xlink="http://www.w3.org/1999/xlink" x="0px" y="0px" width="36.774px"
	 height="36.775px" viewBox="0 0 36.774 36.775" enable-background="new 0 0 36.774 36.775" xml:space="preserve">
<metadata>
	<sfw  xmlns="&ns_sfw;">
		<slices></slices>
		<sliceSourceBounds  height="36.775" width="36.774" y="-440.355" x="278.805" bottomLeftOrigin="true"></sliceSourceBounds>
	</sfw>
</metadata>
<g>
	<circle fill="#DD4E40" cx="18.387" cy="18.387" r="18.387"/>
	<g>
		<g>
			<path fill="#FFFFFF" d="M17.969,9.372c0.165,0.102,0.349,0.251,0.554,0.447c0.197,0.204,0.39,0.456,0.578,0.753
				c0.181,0.281,0.342,0.612,0.482,0.995c0.115,0.382,0.172,0.829,0.172,1.34c-0.015,0.936-0.222,1.684-0.62,2.246
				c-0.194,0.272-0.4,0.523-0.619,0.753c-0.242,0.229-0.498,0.464-0.771,0.702c-0.157,0.161-0.3,0.344-0.433,0.549
				c-0.155,0.213-0.233,0.459-0.233,0.739c0,0.274,0.08,0.498,0.24,0.677c0.136,0.17,0.268,0.319,0.396,0.447l0.888,0.727
				c0.551,0.452,1.035,0.948,1.45,1.493c0.392,0.553,0.595,1.276,0.613,2.169c0,1.268-0.56,2.39-1.68,3.369
				c-1.159,1.013-2.835,1.535-5.024,1.569c-1.832-0.017-3.2-0.408-4.104-1.171c-0.911-0.714-1.368-1.567-1.368-2.56
				c0-0.484,0.148-1.024,0.446-1.618c0.287-0.593,0.808-1.116,1.563-1.566c0.846-0.483,1.737-0.807,2.669-0.968
				c0.924-0.135,1.69-0.212,2.3-0.229c-0.188-0.248-0.357-0.513-0.505-0.795c-0.172-0.274-0.258-0.604-0.258-0.987
				c0-0.231,0.032-0.425,0.097-0.577c0.058-0.164,0.112-0.312,0.16-0.45c-0.297,0.034-0.578,0.051-0.84,0.051
				c-1.393-0.018-2.454-0.456-3.185-1.315c-0.765-0.8-1.147-1.731-1.147-2.794c0-1.285,0.541-2.45,1.625-3.496
				c0.743-0.611,1.516-1.011,2.317-1.199c0.794-0.161,1.538-0.242,2.231-0.242h5.231l-1.615,0.943H17.969z M18.979,24.43
				c0-0.664-0.217-1.242-0.649-1.735c-0.458-0.467-1.174-1.042-2.149-1.723c-0.167-0.017-0.363-0.025-0.587-0.025
				c-0.133-0.016-0.475,0-1.024,0.05c-0.541,0.077-1.096,0.2-1.662,0.37c-0.133,0.051-0.32,0.128-0.561,0.231
				c-0.242,0.111-0.487,0.268-0.738,0.472c-0.242,0.212-0.445,0.476-0.612,0.791c-0.192,0.332-0.287,0.732-0.287,1.2
				c0,0.919,0.415,1.676,1.248,2.272c0.792,0.596,1.874,0.902,3.249,0.919c1.233-0.017,2.174-0.29,2.823-0.817
				C18.662,25.914,18.979,25.247,18.979,24.43z M15.332,16.762c0.689-0.026,1.262-0.274,1.721-0.743
				c0.222-0.332,0.364-0.673,0.427-1.023c0.038-0.349,0.057-0.643,0.057-0.882c0-1.031-0.264-2.072-0.791-3.12
				c-0.248-0.502-0.574-0.912-0.978-1.227c-0.413-0.297-0.886-0.456-1.422-0.473c-0.709,0.017-1.298,0.303-1.768,0.857
				c-0.397,0.58-0.586,1.228-0.568,1.944c0,0.946,0.276,1.929,0.83,2.953c0.269,0.477,0.613,0.882,1.038,1.214
				C14.302,16.596,14.787,16.762,15.332,16.762z"/>
			<polygon fill="#FFFFFF" points="28.284,11.286 25.539,11.286 25.539,8.541 24.209,8.541 24.209,11.286 21.465,11.286 
				21.465,12.616 24.209,12.616 24.209,15.36 25.539,15.36 25.539,12.616 28.284,12.616 			"/>
		</g>
	</g>
</g>
</svg>
