<?xml version="1.0" encoding="utf-8"?>
<!-- Generator: Adobe Illustrator 17.0.0, SVG Export Plug-In . SVG Version: 6.00 Build 0)  -->
<!DOCTYPE svg PUBLIC "-//W3C//DTD SVG 1.1//EN" "http://www.w3.org/Graphics/SVG/1.1/DTD/svg11.dtd" [
	<!ENTITY ns_extend "http://ns.adobe.com/Extensibility/1.0/">
	<!ENTITY ns_ai "http://ns.adobe.com/AdobeIllustrator/10.0/">
	<!ENTITY ns_graphs "http://ns.adobe.com/Graphs/1.0/">
	<!ENTITY ns_vars "http://ns.adobe.com/Variables/1.0/">
	<!ENTITY ns_imrep "http://ns.adobe.com/ImageReplacement/1.0/">
	<!ENTITY ns_sfw "http://ns.adobe.com/SaveForWeb/1.0/">
	<!ENTITY ns_custom "http://ns.adobe.com/GenericCustomNamespace/1.0/">
	<!ENTITY ns_adobe_xpath "http://ns.adobe.com/XPath/1.0/">
]>
<svg version="1.1" id="Layer_1" xmlns:x="&ns_extend;" xmlns:i="&ns_ai;" xmlns:graph="&ns_graphs;"
	 xmlns="http://www.w3.org/2000/svg" xmlns:xlink="http://www.w3.org/1999/xlink" x="0px" y="0px" width="36.774px"
	 height="36.775px" viewBox="0 0 36.774 36.775" enable-background="new 0 0 36.774 36.775" xml:space="preserve">
<metadata>
	<sfw  xmlns="&ns_sfw;">
		<slices></slices>
		<sliceSourceBounds  height="36.775" width="36.774" y="-440.355" x="278.805" bottomLeftOrigin="true"></sliceSourceBounds>
	</sfw>
</metadata>
<g>
	<circle fill="#B31217" cx="18.387" cy="18.387" r="18.387"/>
	<g>
		<path fill="#F1F2F2" d="M19.824,23.369c-1.346-0.104-1.911-0.772-2.967-1.412c-0.58,3.044-1.289,5.962-3.389,7.486
			c-0.649-4.601,0.951-8.056,1.695-11.724c-1.267-2.133,0.153-6.426,2.825-5.368c3.289,1.301-2.847,7.93,1.272,8.758
			c4.301,0.864,6.056-7.463,3.389-10.171c-3.853-3.91-11.217-0.089-10.312,5.509c0.221,1.369,1.635,1.784,0.565,3.673
			c-2.466-0.546-3.202-2.491-3.107-5.085c0.153-4.245,3.814-7.217,7.487-7.629c4.645-0.52,9.004,1.705,9.606,6.074
			C27.564,18.412,24.79,23.752,19.824,23.369L19.824,23.369z M19.824,23.369"/>
	</g>
</g>
</svg>
