<?xml version="1.0" encoding="utf-8"?>
<!-- Generator: Adobe Illustrator 17.0.0, SVG Export Plug-In . SVG Version: 6.00 Build 0)  -->
<!DOCTYPE svg PUBLIC "-//W3C//DTD SVG 1.1//EN" "http://www.w3.org/Graphics/SVG/1.1/DTD/svg11.dtd" [
	<!ENTITY ns_extend "http://ns.adobe.com/Extensibility/1.0/">
	<!ENTITY ns_ai "http://ns.adobe.com/AdobeIllustrator/10.0/">
	<!ENTITY ns_graphs "http://ns.adobe.com/Graphs/1.0/">
	<!ENTITY ns_vars "http://ns.adobe.com/Variables/1.0/">
	<!ENTITY ns_imrep "http://ns.adobe.com/ImageReplacement/1.0/">
	<!ENTITY ns_sfw "http://ns.adobe.com/SaveForWeb/1.0/">
	<!ENTITY ns_custom "http://ns.adobe.com/GenericCustomNamespace/1.0/">
	<!ENTITY ns_adobe_xpath "http://ns.adobe.com/XPath/1.0/">
]>
<svg version="1.1" id="Layer_1" xmlns:x="&ns_extend;" xmlns:i="&ns_ai;" xmlns:graph="&ns_graphs;"
	 xmlns="http://www.w3.org/2000/svg" xmlns:xlink="http://www.w3.org/1999/xlink" x="0px" y="0px" width="36.774px"
	 height="36.775px" viewBox="0 0 36.774 36.775" enable-background="new 0 0 36.774 36.775" xml:space="preserve">
<metadata>
	<sfw  xmlns="&ns_sfw;">
		<slices></slices>
		<sliceSourceBounds  height="36.775" width="36.774" y="-440.355" x="278.805" bottomLeftOrigin="true"></sliceSourceBounds>
	</sfw>
</metadata>
<g>
	<circle fill="#39475D" cx="18.387" cy="18.387" r="18.387"/>
	<path fill="#FFFFFF" d="M12.804,14.812v-0.703c0,0,0.032-0.543,0.543-0.607c0,0,1.406-0.32,2.268-1.981c0,0,0.671-1.31,0.703-1.981
		c0,0-0.256-0.927,0.799-0.895l2.141-0.001c0,0,0.703-0.191,0.607,0.832l0.009,3.738l2.962,0.032c0,0,0.415-0.224,0.415,0.767v2.46
		c0,0,0.192,0.543-0.543,0.511l-2.982,0.001v5.302c0,0,0.171,1.406,1.64,1.182l0.895-0.256c0,0,0.639-0.303,0.863,0.28l0.799,2.308
		c0,0,0.192,0.479-0.192,0.639c0,0-2.045,1.47-4.537,0.959c0,0-3.834-0.511-4.249-4.217v-6.166l-1.693-0.032
		c0,0-0.447,0.192-0.447-0.671V14.812z"/>
</g>
</svg>
