<?xml version="1.0" encoding="utf-8"?>
<!-- Generator: Adobe Illustrator 16.0.0, SVG Export Plug-In . SVG Version: 6.00 Build 0)  -->
<!DOCTYPE svg PUBLIC "-//W3C//DTD SVG 1.1//EN" "http://www.w3.org/Graphics/SVG/1.1/DTD/svg11.dtd">
<svg version="1.1" id="Layer_1" xmlns="http://www.w3.org/2000/svg" xmlns:xlink="http://www.w3.org/1999/xlink" x="0px" y="0px"
	 width="43.818px" height="20.077px" viewBox="0 0 43.818 20.077" enable-background="new 0 0 43.818 20.077" xml:space="preserve">
<path fill-rule="evenodd" clip-rule="evenodd" fill="#D0E0EA" d="M23.329,17.703c-0.33-0.22-0.318-0.258-0.776-0.258
	c-0.562,0-1.084,0.573-1.084,1.135v0.362c0,0.64,0.505,1.134,1.29,1.134c0.404,0,0.451-0.162,0.672-0.308v0.258h0.929
	c-0.063-1.634-0.052-1.971,0.012-3.614h-1.043V17.703z M22.897,18.263c0.27,0,0.486,0.219,0.486,0.487
	c0,0.271-0.217,0.489-0.486,0.489c-0.27,0-0.488-0.219-0.488-0.489C22.409,18.481,22.627,18.263,22.897,18.263"/>
<path fill-rule="evenodd" clip-rule="evenodd" fill="#D0E0EA" d="M26.269,16.464h-0.258v3.562h0.619c0-1.45-0.165-1.238,0.619-1.238
	c0.383,0,0.426,0.579,0.774,1.238h0.672c-0.018-0.202-0.19-0.481-0.281-0.7c-0.105-0.259-0.262-0.444-0.287-0.744
	c0.654-0.176,0.83-1.801-0.238-2.085C27.364,16.355,26.864,16.464,26.269,16.464 M26.636,16.984c0,0,0.631-0.018,0.785-0.014
	c0.153,0.004,0.563,0.174,0.548,0.701c-0.014,0.526-0.402,0.594-0.402,0.594l-0.955,0.01v-1.237L26.636,16.984z"/>
<path fill-rule="evenodd" clip-rule="evenodd" fill="#D0E0EA" d="M8.671,18.58v0.362c0,0.55,0.473,1.134,1.186,1.134
	c0.351,0,0.465-0.171,0.671-0.308l0.06,0.306c0.562,0.008,0.613-0.048,0.869-0.048l-0.002-0.825
	c-0.103-1.234,0.053-0.835,0.053-1.601c-0.163-0.078-0.572-0.155-0.825-0.155c-0.011,0.139-0.024,0.14-0.052,0.258
	c-0.329-0.22-0.317-0.258-0.774-0.258C9.149,17.445,8.671,18.036,8.671,18.58 M10.068,18.219c0.285,0,0.518,0.232,0.518,0.519
	s-0.233,0.517-0.518,0.517c-0.286,0-0.519-0.23-0.519-0.517S9.782,18.219,10.068,18.219"/>
<path fill-rule="evenodd" clip-rule="evenodd" fill="#D0E0EA" d="M33.651,16.516l0.051,1.29c-0.067-0.017-0.883-0.751-1.641,0.064
	c-0.589,0.633-0.438,2.207,0.866,2.207c0.388,0,0.545-0.207,0.774-0.361v0.31h0.619c0-0.651-0.063-1.135-0.054-1.808
	c0.004-0.315,0.056-0.5,0.054-0.875c0-0.311,0-0.621,0-0.93C34.077,16.413,33.807,16.439,33.651,16.516 M33.014,17.989
	c0.385,0,0.697,0.348,0.697,0.774c0,0.428-0.313,0.774-0.697,0.774s-0.695-0.347-0.695-0.774
	C32.319,18.337,32.629,17.989,33.014,17.989"/>
<path fill-rule="evenodd" clip-rule="evenodd" fill="#D0E0EA" d="M17.186,18.167l-0.057,1.502c-0.003,0.442-0.088,0.356,1.037,0.356
	c0-0.861-0.295-1.754,0.362-1.754c0.511,0,0.258,0.995,0.258,1.703c0.062,0.03,0.233,0.077,0.415,0.102h0.412
	c0.093-0.022,0.153-0.069,0.153-0.153v-1.858c0-0.534-0.51-0.62-0.929-0.62c-0.227,0-0.569,0.259-0.722,0.362
	c0-0.519,0.051-0.855,0.051-1.395h-1.032C17.134,17.068,17.186,17.532,17.186,18.167"/>
<path fill-rule="evenodd" clip-rule="evenodd" fill="#D0E0EA" d="M28.85,18.632v0.31c0,0.497,0.518,1.135,0.98,1.135
	c0.803,0,0.635-0.268,0.98-0.36c0.029,0.122,0.048,0.151,0.052,0.31c0.657,0,0.567,0.088,0.567-0.516
	c0-0.352-0.076-0.699-0.045-0.973c0.029-0.258,0.097-0.651,0.097-0.937c-0.587,0-0.56-0.047-0.567,0.257
	c-0.193-0.051-0.152-0.099-0.313-0.205C29.9,17.189,28.85,17.765,28.85,18.632 M30.113,18c0.385,0,0.696,0.348,0.696,0.773
	c0,0.428-0.312,0.776-0.696,0.776c-0.386,0-0.696-0.349-0.696-0.776C29.417,18.348,29.727,18,30.113,18"/>
<path fill-rule="evenodd" clip-rule="evenodd" fill="#D0E0EA" d="M5.935,19.147v0.879l1.238,0.051h0.021h0.019h0.021h0.02h0.02h0.02
	h0.021h0.019h0.021h0.02h0.02h0.02h0.02h0.021h0.02h0.02h0.02h0.021h0.019h0.021h0.02h0.02h0.02h0.02h0.02h0.021h0.019h0.021h0.02
	h0.02h0.02h0.021h0.019h0.021h0.02h0.02h0.02H7.94h0.019H7.98h0.019H8.02h0.02h0.02h0.021h0.02h0.02h0.02h0.021h0.019h0.021h0.02
	h0.02h0.02h0.021h0.019h0.021h0.02h0.02h0.02h0.02h0.02h0.021h0.019c0.044-0.524,0.052-0.295,0.052-0.981l-1.548,0.052l0.052-2.734
	H5.883C5.883,17.383,5.935,18.174,5.935,19.147"/>
<path fill-rule="evenodd" clip-rule="evenodd" fill="#D0E0EA" d="M11.87,17.6c0,0.402,0.104,0.757,0.104,1.238v1.188h0.928
	c0-0.94-0.179-1.755,0.413-1.755c0.53,0,0.199,1.273,0.31,1.755h0.929v-2.015c0-0.481-0.535-0.566-0.929-0.566
	c-0.287,0-0.478,0.245-0.723,0.309c-0.07-0.126-0.052-0.095-0.052-0.309C12.678,17.445,12.039,17.562,11.87,17.6"/>
<path fill-rule="evenodd" clip-rule="evenodd" fill="#D0E0EA" d="M35.714,18.632v0.31c0,0.613,0.536,1.136,1.343,1.136
	c0.563,0,1.133-0.576,1.133-1.136v-0.31c0-0.631-0.541-1.135-1.34-1.135C36.282,17.497,35.714,18.064,35.714,18.632 M36.958,17.988
	c0.385,0,0.697,0.347,0.697,0.773c0,0.428-0.313,0.775-0.697,0.775s-0.696-0.348-0.696-0.775
	C36.261,18.335,36.573,17.988,36.958,17.988"/>
<path fill-rule="evenodd" clip-rule="evenodd" fill="#D0E0EA" d="M14.812,18.684c0,0.494,0.032,0.681,0.347,0.994
	c0.382,0.384,0.499,0.399,0.997,0.399h0.024h0.026c0.913,0,0.56-0.386,0.515-0.929c-0.254,0.021-0.4,0.135-0.629,0.064
	c-0.485-0.146-0.435-0.768-0.051-0.904c0.208-0.073,0.388,0.046,0.628,0.064c0.057-0.244,0.156-0.488,0.156-0.773
	c-0.424-0.1-0.078-0.154-0.878-0.154C15.415,17.445,14.812,17.993,14.812,18.684"/>
<path fill-rule="evenodd" clip-rule="evenodd" fill="#D0E0EA" d="M20.076,17.65l0.056,1.188c-0.006,0.352-0.056,0.537-0.056,1.187
	h1.032c0-0.465-0.065-1.12-0.021-1.415c0.055-0.378,0.073-0.712,0.073-1.113c-0.231,0-0.385,0.037-0.521,0.041
	c-0.143,0.005-0.325-0.041-0.563-0.041V17.65z"/>
<path fill-rule="evenodd" clip-rule="evenodd" fill="#D0E0EA" d="M37.779,6.503c0,0.563-0.079,0.825,0.153,0.825h2.014
	c0.247,0,0.154-0.346,0.154-0.979h-2.168C37.814,6.349,37.779,6.386,37.779,6.503"/>
<path fill-rule="evenodd" clip-rule="evenodd" fill="#D0E0EA" d="M30.192,7.328h2.167c0.233,0,0.155-0.264,0.155-0.824
	c0-0.118-0.036-0.155-0.155-0.155h-2.167V7.328z"/>
<rect x="11.354" y="6.348" fill-rule="evenodd" clip-rule="evenodd" fill="#D0E0EA" width="2.271" height="0.98"/>
<rect x="3.871" y="6.348" fill-rule="evenodd" clip-rule="evenodd" fill="#D0E0EA" width="2.271" height="0.98"/>
<rect x="7.587" fill-rule="evenodd" clip-rule="evenodd" fill="#D0E0EA" width="2.322" height="0.93"/>
<rect x="33.908" fill-rule="evenodd" clip-rule="evenodd" fill="#D0E0EA" width="2.322" height="0.93"/>
<rect x="7.587" y="1.238" fill-rule="evenodd" clip-rule="evenodd" fill="#D0E0EA" width="2.322" height="0.93"/>
<rect x="33.908" y="1.238" fill-rule="evenodd" clip-rule="evenodd" fill="#D0E0EA" width="2.322" height="0.93"/>
<rect x="22.657" y="8.98" fill-rule="evenodd" clip-rule="evenodd" fill="#D0E0EA" width="2.322" height="0.929"/>
<rect x="7.587" y="8.98" fill-rule="evenodd" clip-rule="evenodd" fill="#D0E0EA" width="2.322" height="0.929"/>
<rect x="7.587" y="3.819" fill-rule="evenodd" clip-rule="evenodd" fill="#D0E0EA" width="2.322" height="0.929"/>
<rect x="33.908" y="3.819" fill-rule="evenodd" clip-rule="evenodd" fill="#D0E0EA" width="2.322" height="0.929"/>
<rect x="33.908" y="8.98" fill-rule="evenodd" clip-rule="evenodd" fill="#D0E0EA" width="2.322" height="0.929"/>
<rect x="7.587" y="10.271" fill-rule="evenodd" clip-rule="evenodd" fill="#D0E0EA" width="2.322" height="0.929"/>
<rect x="33.908" y="10.271" fill-rule="evenodd" clip-rule="evenodd" fill="#D0E0EA" width="2.322" height="0.929"/>
<rect x="7.587" y="5.161" fill-rule="evenodd" clip-rule="evenodd" fill="#D0E0EA" width="2.322" height="0.929"/>
<rect x="18.838" y="10.271" fill-rule="evenodd" clip-rule="evenodd" fill="#D0E0EA" width="2.322" height="0.929"/>
<rect x="22.657" y="10.271" fill-rule="evenodd" clip-rule="evenodd" fill="#D0E0EA" width="2.322" height="0.929"/>
<rect x="37.779" y="10.271" fill-rule="evenodd" clip-rule="evenodd" fill="#D0E0EA" width="2.321" height="0.929"/>
<rect x="7.587" y="12.852" fill-rule="evenodd" clip-rule="evenodd" fill="#D0E0EA" width="2.322" height="0.929"/>
<rect x="7.587" y="14.192" fill-rule="evenodd" clip-rule="evenodd" fill="#D0E0EA" width="2.322" height="0.929"/>
<rect x="33.908" y="12.852" fill-rule="evenodd" clip-rule="evenodd" fill="#D0E0EA" width="2.322" height="0.929"/>
<rect x="18.838" y="8.98" fill-rule="evenodd" clip-rule="evenodd" fill="#D0E0EA" width="2.322" height="0.929"/>
<rect x="37.779" y="8.98" fill-rule="evenodd" clip-rule="evenodd" fill="#D0E0EA" width="2.321" height="0.929"/>
<path fill-rule="evenodd" clip-rule="evenodd" fill="#D0E0EA" d="M33.908,7.174c0,0.119,0.036,0.154,0.153,0.154h2.014
	c0.243,0,0.154-0.315,0.154-0.927h-2.321V7.174z"/>
<path fill-rule="evenodd" clip-rule="evenodd" fill="#D0E0EA" d="M7.586,7.174c0,0.119,0.036,0.154,0.154,0.154h2.014
	c0.242,0,0.154-0.315,0.154-0.927H7.586V7.174z"/>
<path fill-rule="evenodd" clip-rule="evenodd" fill="#D0E0EA" d="M30.192,6.09h2.167c0.119,0,0.155-0.034,0.155-0.153V5.161h-2.322
	V6.09z"/>
<path fill-rule="evenodd" clip-rule="evenodd" fill="#D0E0EA" d="M33.908,5.936c0,0.119,0.036,0.154,0.153,0.154h2.168V5.162h-2.321
	V5.936z"/>
<path fill-rule="evenodd" clip-rule="evenodd" fill="#D0E0EA" d="M30.192,11.199h2.322v-0.772c0-0.12-0.036-0.156-0.155-0.156
	h-2.167V11.199z"/>
<path fill-rule="evenodd" clip-rule="evenodd" fill="#D0E0EA" d="M30.192,9.909h2.167c0.119,0,0.155-0.035,0.155-0.154V8.98h-2.322
	V9.909z"/>
<rect x="3.871" y="10.271" fill-rule="evenodd" clip-rule="evenodd" fill="#D0E0EA" width="2.271" height="0.929"/>
<rect x="11.354" y="5.161" fill-rule="evenodd" clip-rule="evenodd" fill="#D0E0EA" width="2.271" height="0.929"/>
<rect x="41.547" y="10.271" fill-rule="evenodd" clip-rule="evenodd" fill="#D0E0EA" width="2.271" height="0.929"/>
<rect x="3.871" y="8.98" fill-rule="evenodd" clip-rule="evenodd" fill="#D0E0EA" width="2.271" height="0.929"/>
<rect x="11.354" y="8.98" fill-rule="evenodd" clip-rule="evenodd" fill="#D0E0EA" width="2.271" height="0.929"/>
<rect x="11.354" y="10.271" fill-rule="evenodd" clip-rule="evenodd" fill="#D0E0EA" width="2.271" height="0.929"/>
<rect y="10.271" fill-rule="evenodd" clip-rule="evenodd" fill="#D0E0EA" width="2.271" height="0.929"/>
<path fill-rule="evenodd" clip-rule="evenodd" fill="#D0E0EA" d="M15.122,11.199h2.271v-0.772c0-0.12-0.037-0.156-0.155-0.156
	h-2.116V11.199z"/>
<path fill-rule="evenodd" clip-rule="evenodd" fill="#D0E0EA" d="M15.122,9.909h2.116c0.118,0,0.155-0.035,0.155-0.154V8.98h-2.271
	V9.909z"/>
<rect x="26.475" y="11.51" fill-rule="evenodd" clip-rule="evenodd" fill="#D0E0EA" width="2.22" height="0.929"/>
<rect x="26.475" y="8.98" fill-rule="evenodd" clip-rule="evenodd" fill="#D0E0EA" width="2.22" height="0.929"/>
<rect x="26.475" y="10.271" fill-rule="evenodd" clip-rule="evenodd" fill="#D0E0EA" width="2.22" height="0.929"/>
<rect x="7.587" y="7.742" fill-rule="evenodd" clip-rule="evenodd" fill="#D0E0EA" width="2.322" height="0.877"/>
<rect x="37.779" y="7.742" fill-rule="evenodd" clip-rule="evenodd" fill="#D0E0EA" width="2.321" height="0.877"/>
<rect x="30.192" y="7.742" fill-rule="evenodd" clip-rule="evenodd" fill="#D0E0EA" width="2.322" height="0.877"/>
<rect x="33.908" y="7.742" fill-rule="evenodd" clip-rule="evenodd" fill="#D0E0EA" width="2.322" height="0.877"/>
<rect x="33.908" y="14.193" fill-rule="evenodd" clip-rule="evenodd" fill="#D0E0EA" width="2.322" height="0.877"/>
<rect x="33.908" y="2.58" fill-rule="evenodd" clip-rule="evenodd" fill="#D0E0EA" width="2.322" height="0.878"/>
<rect x="33.908" y="11.561" fill-rule="evenodd" clip-rule="evenodd" fill="#D0E0EA" width="2.322" height="0.878"/>
<rect x="30.192" y="11.561" fill-rule="evenodd" clip-rule="evenodd" fill="#D0E0EA" width="2.322" height="0.878"/>
<rect x="22.657" y="11.561" fill-rule="evenodd" clip-rule="evenodd" fill="#D0E0EA" width="2.322" height="0.878"/>
<rect x="37.779" y="11.561" fill-rule="evenodd" clip-rule="evenodd" fill="#D0E0EA" width="2.321" height="0.878"/>
<rect x="7.587" y="11.561" fill-rule="evenodd" clip-rule="evenodd" fill="#D0E0EA" width="2.322" height="0.878"/>
<rect x="7.587" y="2.58" fill-rule="evenodd" clip-rule="evenodd" fill="#D0E0EA" width="2.322" height="0.878"/>
<rect x="18.838" y="11.561" fill-rule="evenodd" clip-rule="evenodd" fill="#D0E0EA" width="2.322" height="0.878"/>
<rect x="11.354" y="7.742" fill-rule="evenodd" clip-rule="evenodd" fill="#D0E0EA" width="2.271" height="0.877"/>
<rect x="15.122" y="7.742" fill-rule="evenodd" clip-rule="evenodd" fill="#D0E0EA" width="2.271" height="0.877"/>
<rect x="3.871" y="7.742" fill-rule="evenodd" clip-rule="evenodd" fill="#D0E0EA" width="2.271" height="0.877"/>
<rect x="11.354" y="11.561" fill-rule="evenodd" clip-rule="evenodd" fill="#D0E0EA" width="2.271" height="0.878"/>
<rect y="11.561" fill-rule="evenodd" clip-rule="evenodd" fill="#D0E0EA" width="2.271" height="0.878"/>
<rect x="15.122" y="11.561" fill-rule="evenodd" clip-rule="evenodd" fill="#D0E0EA" width="2.271" height="0.878"/>
<rect x="3.871" y="11.561" fill-rule="evenodd" clip-rule="evenodd" fill="#D0E0EA" width="2.271" height="0.878"/>
<rect x="41.547" y="11.561" fill-rule="evenodd" clip-rule="evenodd" fill="#D0E0EA" width="2.271" height="0.878"/>
<rect x="26.475" y="7.742" fill-rule="evenodd" clip-rule="evenodd" fill="#D0E0EA" width="2.22" height="0.877"/>
<path fill-rule="evenodd" clip-rule="evenodd" fill="#D0E0EA" d="M34.785,18.786c0,1.256-0.324,1.239,0.465,1.239
	c0.203,0,0.175-0.192,0.144-0.396c-0.069-0.457-0.041-1.513-0.041-2.03h-0.567V18.786z"/>
<path fill-rule="evenodd" clip-rule="evenodd" fill="#D0E0EA" d="M19.921,16.825v0.465c0.415,0,1.2-0.267,1.501-0.563
	c0.132-0.13,0.078,0.033,0.099-0.211c-0.337-0.078,0.007-0.103-0.671-0.103C20.631,16.413,20.226,16.755,19.921,16.825"/>
<path fill-rule="evenodd" clip-rule="evenodd" fill="#D0E0EA" d="M9.547,16.825v0.465c0.416,0,1.201-0.267,1.501-0.563
	c0.132-0.13,0.079,0.033,0.099-0.211c-0.336-0.078,0.007-0.103-0.671-0.103C10.257,16.413,9.852,16.755,9.547,16.825"/>
<path fill-rule="evenodd" clip-rule="evenodd" fill="#D0E0EA" d="M36.437,16.98c0,0.203,0.017,0.21,0.051,0.361
	c0.337-0.007,1.104-0.489,1.239-0.672c-0.124-0.185-0.167-0.154-0.361-0.257C37.144,16.561,36.709,16.917,36.437,16.98"/>
<path fill-rule="evenodd" clip-rule="evenodd" fill="#D0E0EA" d="M29.779,16.98c0,0.203,0.017,0.21,0.052,0.361
	c0.336-0.007,1.104-0.489,1.238-0.672c-0.124-0.185-0.166-0.154-0.361-0.257C30.486,16.561,30.051,16.917,29.779,16.98"/>
<path fill-rule="evenodd" clip-rule="evenodd" fill="#D0E0EA" d="M34.733,16.928c0,0.22,0.016,0.148,0.052,0.312
	c0.32,0.074,0.3,0.074,0.62,0C35.611,16.353,34.733,16.683,34.733,16.928"/>
</svg>
