<?xml version="1.0" encoding="utf-8"?>
<!-- Generator: Adobe Illustrator 16.0.0, SVG Export Plug-In . SVG Version: 6.00 Build 0)  -->
<!DOCTYPE svg PUBLIC "-//W3C//DTD SVG 1.1//EN" "http://www.w3.org/Graphics/SVG/1.1/DTD/svg11.dtd">
<svg version="1.1" id="Layer_1" xmlns="http://www.w3.org/2000/svg" xmlns:xlink="http://www.w3.org/1999/xlink" x="0px" y="0px"
	 width="65.023px" height="18.253px" viewBox="0 0 65.023 18.253" enable-background="new 0 0 65.023 18.253" xml:space="preserve">
<path fill="#010101" d="M38.604,1.207c0-0.299-0.039-0.513-0.117-0.643c-0.077-0.129-0.198-0.22-0.36-0.271l-0.418-0.039
	c-0.033-0.014-0.049-0.051-0.049-0.11c0-0.055,0.008-0.092,0.024-0.112s0.058-0.03,0.122-0.03h1.722
	c0.025,0,0.048,0.012,0.063,0.033c0.016,0.023,0.025,0.051,0.025,0.083s-0.01,0.058-0.025,0.072
	c-0.016,0.017-0.073,0.045-0.172,0.083c-0.199,0.079-0.338,0.181-0.418,0.306c-0.078,0.127-0.125,0.362-0.145,0.705v13.35h-1.504
	L34.916,1.305v12.063c0,0.331,0.037,0.563,0.108,0.695c0.069,0.133,0.187,0.226,0.351,0.277l0.437,0.039
	c0.032,0.02,0.049,0.06,0.049,0.121c0,0.055-0.008,0.09-0.024,0.106c-0.016,0.016-0.056,0.025-0.121,0.025h-1.713
	c-0.025,0-0.047-0.01-0.063-0.029c-0.018-0.017-0.023-0.042-0.023-0.074c0-0.031,0.006-0.054,0.023-0.069
	c0.016-0.017,0.072-0.043,0.17-0.08c0.201-0.078,0.339-0.179,0.413-0.302c0.075-0.123,0.122-0.362,0.142-0.721V0.254h-0.545
	c-0.033,0-0.061-0.013-0.082-0.035c-0.023-0.025-0.035-0.057-0.035-0.098c0-0.032,0.012-0.062,0.035-0.086
	c0.021-0.022,0.049-0.034,0.082-0.034h2.51l1.976,10.711V1.207z"/>
<path fill="#010101" d="M42.047,9.193V5.042c0-0.267-0.052-0.468-0.154-0.604c-0.07-0.097-0.177-0.146-0.318-0.146
	c-0.141,0-0.264,0.061-0.37,0.185c-0.106,0.123-0.159,0.312-0.159,0.565v4.151H42.047z M41.045,9.447v3.619
	c0,0.564,0.064,0.938,0.193,1.118c0.099,0.136,0.257,0.204,0.478,0.204c0.363,0,0.687-0.204,0.974-0.613
	c0.473-0.686,0.726-1.624,0.758-2.81c0.007-0.39,0.024-0.61,0.054-0.663c0.028-0.051,0.069-0.078,0.122-0.078
	c0.045,0,0.081,0.021,0.107,0.06c0.032,0.053,0.047,0.176,0.047,0.369c0,1.154-0.201,2.126-0.606,2.913
	c-0.406,0.789-0.952,1.184-1.64,1.184c-0.643,0-1.174-0.305-1.596-0.909c-0.422-0.608-0.632-1.922-0.632-3.946V8.466
	c0-1.551,0.285-2.729,0.854-3.533c0.41-0.571,0.902-0.855,1.48-0.855c0.686,0,1.217,0.366,1.59,1.1
	c0.373,0.732,0.56,1.625,0.56,2.675v1.596H41.045z"/>
<path fill="#010101" d="M46.016,14.379l0.232,0.021c0.033,0.019,0.05,0.054,0.05,0.107c0,0.038-0.032,0.08-0.097,0.127h-2.307
	c-0.064-0.047-0.097-0.089-0.097-0.127c0-0.039,0.032-0.081,0.097-0.128h0.381V4.446h-0.381c-0.064-0.039-0.097-0.078-0.097-0.116
	c0-0.046,0.032-0.092,0.097-0.137h2.121v0.779c0.232-0.352,0.447-0.587,0.643-0.71c0.194-0.123,0.451-0.187,0.768-0.187
	c0.357,0,0.628,0.074,0.813,0.219c0.186,0.146,0.342,0.421,0.473,0.822c0.207-0.408,0.408-0.683,0.603-0.826
	c0.194-0.142,0.462-0.215,0.798-0.215c0.461,0,0.801,0.11,1.016,0.326c0.219,0.217,0.326,0.528,0.326,0.93v9.047h0.322
	c0.038,0,0.071,0.013,0.096,0.035c0.027,0.022,0.041,0.054,0.041,0.093l-0.03,0.088c-0.032,0.024-0.068,0.039-0.106,0.039h-2.267
	c-0.065-0.047-0.097-0.089-0.097-0.127c0-0.039,0.031-0.081,0.096-0.128h0.205V4.973c0-0.111-0.027-0.198-0.082-0.264
	c-0.055-0.063-0.114-0.098-0.178-0.098c-0.143,0-0.28,0.108-0.416,0.322c-0.217,0.343-0.326,0.823-0.326,1.439v8.006h0.214
	l0.06,0.029c0.018,0.027,0.027,0.06,0.027,0.099c0,0.038-0.027,0.08-0.087,0.127h-2.188c-0.053-0.039-0.078-0.082-0.078-0.127
	c0-0.046,0.025-0.089,0.078-0.128h0.262V5.117c0-0.175-0.029-0.3-0.086-0.374c-0.06-0.075-0.127-0.111-0.207-0.111
	c-0.129,0-0.25,0.082-0.358,0.242c-0.222,0.337-0.331,0.707-0.331,1.109V14.379z"/>
<path fill="#010101" d="M52.538,4.193h4.047l-2.88,10.187h0.661c0.253,0,0.507-0.133,0.759-0.399
	c0.352-0.369,0.631-0.931,0.842-1.683s0.316-1.243,0.316-1.469v-0.478c0.052-0.07,0.104-0.106,0.154-0.106
	c0.047,0,0.096,0.036,0.147,0.106v4.281h-4.698l2.889-10.186h-0.408c-0.215,0-0.43,0.117-0.646,0.354
	c-0.219,0.238-0.428,0.694-0.629,1.368c-0.13,0.44-0.227,0.908-0.291,1.399l-0.029,0.613c-0.02,0.046-0.055,0.069-0.107,0.069
	c-0.032,0-0.063-0.012-0.088-0.035c-0.025-0.022-0.038-0.056-0.038-0.102V4.193z"/>
<path fill="#010101" d="M59.552,9.193V5.042c0-0.267-0.052-0.468-0.153-0.604c-0.072-0.097-0.178-0.146-0.32-0.146
	c-0.139,0-0.264,0.061-0.369,0.185C58.603,4.6,58.55,4.788,58.55,5.042v4.151H59.552z M58.55,9.447v3.619
	c0,0.564,0.063,0.938,0.194,1.118c0.098,0.136,0.256,0.204,0.477,0.204c0.363,0,0.688-0.204,0.973-0.613
	c0.474-0.686,0.727-1.624,0.758-2.81c0.008-0.39,0.025-0.61,0.055-0.663c0.029-0.051,0.068-0.078,0.122-0.078
	c0.045,0,0.081,0.021,0.106,0.06c0.032,0.053,0.049,0.176,0.049,0.369c0,1.154-0.203,2.126-0.608,2.913
	c-0.405,0.789-0.951,1.184-1.64,1.184c-0.642,0-1.172-0.305-1.594-0.909c-0.423-0.608-0.634-1.922-0.634-3.946V8.466
	c0-1.551,0.286-2.729,0.856-3.533c0.408-0.571,0.902-0.855,1.479-0.855c0.688,0,1.219,0.366,1.592,1.1
	c0.373,0.732,0.559,1.625,0.559,2.675v1.596H58.55z"/>
<path fill="#010101" d="M61.667,4.446H61.21c-0.06,0-0.104-0.013-0.138-0.038c-0.031-0.026-0.049-0.06-0.049-0.098
	c0-0.046,0.031-0.093,0.088-0.146c0.549-0.422,0.947-0.842,1.193-1.261c0.248-0.418,0.467-0.905,0.655-1.465
	c0.138-0.4,0.208-0.681,0.215-0.836l0.019-0.446c0.021-0.033,0.05-0.05,0.088-0.05c0.039,0,0.07,0.011,0.093,0.029
	c0.022,0.021,0.034,0.045,0.034,0.079v3.978h1.441c0.051,0,0.09,0.015,0.12,0.039c0.029,0.026,0.044,0.056,0.044,0.088
	c0,0.038-0.013,0.067-0.039,0.088C64.941,4.434,64.9,4.446,64.85,4.446h-1.441v9.059c0,0.279,0.039,0.47,0.115,0.574
	c0.052,0.077,0.129,0.115,0.232,0.115c0.219,0,0.412-0.126,0.579-0.38c0.251-0.375,0.377-0.953,0.377-1.73v-1.421
	c0-0.09,0.019-0.161,0.06-0.213c0.024-0.033,0.058-0.05,0.096-0.05c0.039,0,0.07,0.017,0.098,0.05
	c0.039,0.052,0.059,0.123,0.059,0.213v1.08c0,1.097-0.174,1.872-0.521,2.325s-0.78,0.682-1.299,0.682c-0.486,0-0.845-0.133-1.07-0.4
	c-0.312-0.354-0.467-0.862-0.467-1.517V4.446z"/>
<path fill="#010101" d="M0.749,0.253H0.176c-0.033,0-0.061-0.012-0.083-0.034C0.07,0.193,0.059,0.166,0.059,0.133
	c0-0.04,0.011-0.073,0.034-0.098C0.115,0.013,0.143,0,0.175,0h2.629L3.74,8.943L4.944,0h2.645C7.628,0,7.66,0.013,7.686,0.035
	C7.712,0.06,7.725,0.089,7.725,0.121c0,0.041-0.013,0.072-0.039,0.098C7.66,0.241,7.628,0.253,7.589,0.253H6.956V14.38h0.633
	c0.019,0,0.032,0.007,0.039,0.02c0.019,0.033,0.029,0.072,0.029,0.117c0,0.039-0.007,0.067-0.019,0.088
	c-0.014,0.019-0.03,0.028-0.049,0.028H4.388c-0.026,0-0.05-0.012-0.073-0.034c-0.023-0.023-0.034-0.053-0.034-0.092
	s0.011-0.07,0.034-0.094c0.023-0.021,0.047-0.033,0.073-0.033H5.06V0.886L3.343,14.291c-0.027,0.177-0.049,0.276-0.069,0.304
	c-0.019,0.024-0.048,0.038-0.087,0.038H2.553c-0.039,0-0.069-0.014-0.088-0.038c-0.02-0.027-0.039-0.127-0.059-0.304L1.003,1.022
	v12.318c0,0.337,0.033,0.572,0.101,0.709c0.069,0.137,0.187,0.232,0.356,0.291l0.437,0.039c0.033,0.02,0.049,0.061,0.049,0.12
	c0,0.056-0.008,0.091-0.024,0.107c-0.016,0.016-0.057,0.025-0.121,0.025H0.088c-0.026,0-0.047-0.01-0.064-0.028
	C0.009,14.586,0,14.562,0,14.529c0-0.031,0.009-0.054,0.024-0.07c0.017-0.016,0.074-0.043,0.171-0.079
	c0.2-0.078,0.337-0.179,0.408-0.302c0.098-0.169,0.146-0.409,0.146-0.721V0.253z"/>
<path fill="#010101" d="M18.49,4.446h-0.449c-0.066-0.038-0.099-0.08-0.099-0.126c0-0.038,0.033-0.081,0.098-0.127h2.607
	c0.032,0,0.06,0.015,0.083,0.039c0.023,0.026,0.033,0.056,0.033,0.088c0,0.038-0.01,0.069-0.033,0.093
	c-0.023,0.022-0.051,0.033-0.083,0.033H20.2l0.88,7.473l0.842-5.877c0.032-0.213,0.048-0.411,0.048-0.593
	c0-0.356-0.046-0.604-0.141-0.739c-0.094-0.137-0.232-0.217-0.413-0.243l-0.136-0.04c-0.019-0.026-0.029-0.058-0.029-0.096
	c0-0.046,0.008-0.08,0.024-0.104c0.016-0.021,0.04-0.033,0.072-0.033h1.469c0.039,0,0.07,0.015,0.093,0.039
	c0.022,0.026,0.034,0.06,0.034,0.099c0,0.03-0.008,0.057-0.024,0.077c-0.017,0.019-0.05,0.031-0.102,0.038
	c-0.091,0.026-0.169,0.096-0.233,0.204c-0.182,0.306-0.309,0.692-0.38,1.158l-1.458,10.235c-0.104,0.739-0.324,1.292-0.661,1.658
	c-0.338,0.366-0.682,0.551-1.033,0.551c-0.279,0-0.525-0.123-0.74-0.366c-0.214-0.244-0.321-0.562-0.321-0.959
	c0-0.336,0.083-0.597,0.248-0.783c0.166-0.184,0.358-0.276,0.579-0.276c0.214,0,0.401,0.084,0.56,0.254
	c0.158,0.168,0.238,0.375,0.238,0.622c0,0.383-0.169,0.681-0.506,0.895c-0.091,0.06-0.137,0.117-0.137,0.175
	c0,0.039,0.019,0.073,0.054,0.104c0.036,0.028,0.09,0.043,0.161,0.043c0.239,0,0.473-0.133,0.699-0.399
	c0.303-0.362,0.52-0.942,0.649-1.742l0.212-1.185L19.7,14.632L18.49,4.446z"/>
<path fill="#010101" d="M28.317,4.446h-0.408c-0.039,0-0.071-0.011-0.093-0.033c-0.022-0.023-0.034-0.055-0.034-0.093
	s0.012-0.069,0.034-0.094c0.022-0.021,0.054-0.033,0.093-0.033h2.12v1.284c0.221-0.584,0.427-0.964,0.618-1.137
	c0.191-0.176,0.394-0.264,0.608-0.264c0.291,0,0.554,0.146,0.789,0.437c0.297,0.377,0.447,0.852,0.447,1.421
	c0,0.487-0.1,0.855-0.297,1.105c-0.198,0.25-0.417,0.375-0.657,0.375c-0.195,0-0.357-0.085-0.487-0.254
	c-0.174-0.228-0.262-0.552-0.262-0.974c0-0.415,0.123-0.813,0.37-1.196c0.123-0.193,0.184-0.326,0.184-0.398
	c0-0.059-0.022-0.109-0.068-0.151c-0.045-0.043-0.101-0.063-0.165-0.063c-0.123,0-0.24,0.058-0.35,0.174
	c-0.188,0.196-0.357,0.547-0.506,1.057s-0.224,1.089-0.224,1.736v7.034h0.496c0.046,0,0.081,0.013,0.107,0.039
	c0.026,0.024,0.039,0.054,0.039,0.088l-0.029,0.087c-0.039,0.026-0.078,0.04-0.117,0.04h-2.616c-0.033,0-0.061-0.012-0.083-0.036
	c-0.023-0.021-0.034-0.052-0.034-0.091s0.011-0.071,0.034-0.093c0.022-0.023,0.05-0.034,0.083-0.034h0.408V4.446z"/>
<path fill="#010101" d="M10.425,12.346c0,0.578-0.126,1.07-0.378,1.479c-0.13,0.22-0.248,0.331-0.351,0.331
	c-0.071,0-0.131-0.033-0.18-0.097c-0.049-0.065-0.073-0.166-0.073-0.304V9.642c0-0.355,0.061-0.615,0.18-0.777
	c0.12-0.162,0.387-0.325,0.802-0.487V12.346z M12.612,13.182v0.358v0.007c0,0.557-0.05,0.806-0.237,0.806
	c-0.127,0-0.181-0.134-0.2-0.476l-0.007-0.394v-0.295v-7.71c0-0.409-0.155-0.745-0.463-1.008c-0.308-0.264-0.812-0.394-1.513-0.394
	c-0.778,0-1.378,0.188-1.8,0.564C7.97,5.019,7.76,5.485,7.76,6.041c0,0.377,0.087,0.661,0.263,0.853
	c0.175,0.19,0.415,0.286,0.72,0.286c0.305,0,0.548-0.094,0.729-0.28C9.654,6.71,9.745,6.46,9.745,6.149
	c0-0.306-0.089-0.552-0.268-0.739C9.299,5.221,9.08,5.127,8.821,5.127c-0.072,0-0.149,0.008-0.234,0.025
	C8.503,5.168,8.415,5.193,8.324,5.226c0.279-0.584,0.704-0.875,1.274-0.875c0.247,0,0.447,0.079,0.599,0.241
	s0.228,0.391,0.228,0.683v2.802c-0.252,0.129-0.567,0.258-0.943,0.389C8.638,8.744,8.132,8.978,7.96,9.164
	c-0.172,0.19-0.258,0.481-0.258,0.876v3.668c0,0.313,0.098,0.563,0.297,0.754c0.197,0.192,0.481,0.287,0.85,0.287
	c0.306,0,0.57-0.073,0.793-0.218c0.225-0.147,0.486-0.44,0.783-0.881c0.098,0.409,0.243,0.693,0.434,0.855s0.462,0.243,0.812,0.243
	c0.409,0,0.82-0.07,1.05-0.38c0.018-0.023,0.034-0.05,0.048-0.078c0.102-0.177,0.143-0.434,0.143-0.744v-0.365
	c0,0-0.021-0.11-0.146-0.11C12.636,13.071,12.612,13.182,12.612,13.182"/>
<path fill="#010101" d="M17.177,17.144c-0.438,0.343-1.007,0.515-1.704,0.515c-0.685,0-1.211-0.147-1.579-0.442
	c-0.368-0.295-0.552-0.612-0.552-0.948c0-0.175,0.043-0.351,0.129-0.526c0.086-0.175,0.215-0.347,0.387-0.515
	c0.459,0.071,1.012,0.106,1.659,0.106h0.397c0.745,0,1.24,0.084,1.486,0.254c0.18,0.129,0.271,0.33,0.271,0.603
	C17.671,16.553,17.507,16.869,17.177,17.144 M15.043,5.06c0-0.292,0.046-0.495,0.138-0.608c0.092-0.112,0.21-0.17,0.354-0.17
	c0.017,0,0.032,0.002,0.047,0.004c0.127,0.011,0.229,0.06,0.302,0.151c0.047,0.06,0.08,0.155,0.1,0.283
	c0.014,0.094,0.023,0.207,0.023,0.34v6.752c0,0.259-0.042,0.441-0.123,0.544c-0.082,0.104-0.188,0.157-0.319,0.157
	c-0.145,0-0.259-0.06-0.345-0.176c-0.117-0.162-0.177-0.435-0.177-0.817V5.06z M17.473,14.165c-0.347-0.344-0.898-0.516-1.655-0.516
	h-1.543c-0.279,0-0.483-0.046-0.613-0.135c-0.089-0.065-0.135-0.15-0.135-0.254c0-0.11,0.083-0.224,0.248-0.34
	c0.166-0.117,0.446-0.177,0.842-0.177c0.331,0,0.535,0.004,0.613,0.011c0.129,0.008,0.236,0.01,0.32,0.01
	c0.552,0,1.022-0.272,1.411-0.816c0.526-0.738,0.788-1.876,0.788-3.411c0-1.762-0.306-3.033-0.92-3.817
	c-0.104-0.159-0.231-0.278-0.362-0.368c-0.004-0.003-0.008-0.005-0.011-0.007c-0.011-0.163-0.005-0.298,0.019-0.403
	c0.031-0.134,0.086-0.222,0.166-0.265c0.057-0.03,0.11-0.035,0.16-0.019c0.049,0.019,0.1,0.074,0.151,0.172
	c0.019,0.034,0.039,0.079,0.061,0.134l0.05,0.096c0.086,0.16,0.187,0.261,0.306,0.304c0.119,0.044,0.238,0.033,0.358-0.029
	c0.109-0.059,0.178-0.163,0.207-0.315c0.029-0.153-0.013-0.335-0.126-0.548c-0.132-0.248-0.295-0.408-0.49-0.479
	c-0.195-0.068-0.392-0.051-0.592,0.056c-0.188,0.099-0.326,0.26-0.415,0.479c-0.073,0.184-0.11,0.41-0.113,0.677
	c-0.132-0.057-0.269-0.093-0.412-0.11c-0.039-0.005-0.074-0.01-0.103-0.013c-0.033-0.003-0.065-0.005-0.1-0.005
	c-0.61,0-1.104,0.268-1.481,0.799c-0.52,0.727-0.779,1.9-0.779,3.521c0,1.135,0.126,2.059,0.379,2.773
	c0.181,0.505,0.47,0.942,0.866,1.313c-0.571,0.079-0.97,0.232-1.197,0.462c-0.227,0.23-0.34,0.561-0.34,0.988
	c0,0.246,0.053,0.464,0.161,0.656c0.106,0.19,0.263,0.354,0.471,0.491c-0.262,0.207-0.461,0.434-0.595,0.677
	c-0.135,0.243-0.202,0.504-0.202,0.782c0,0.447,0.212,0.846,0.639,1.191c0.426,0.348,1.053,0.522,1.88,0.522
	c0.82,0,1.46-0.224,1.919-0.667c0.459-0.444,0.689-1.057,0.689-1.834C17.993,15.037,17.82,14.51,17.473,14.165"/>
<path fill="#010101" d="M25.313,12.346c0,0.578-0.126,1.07-0.379,1.479c-0.13,0.22-0.247,0.331-0.35,0.331
	c-0.071,0-0.132-0.033-0.181-0.097c-0.048-0.065-0.072-0.166-0.072-0.304V9.642c0-0.355,0.06-0.615,0.18-0.777
	c0.12-0.162,0.387-0.325,0.802-0.487V12.346z M27.5,13.182v0.358v0.007c-0.001,0.557-0.051,0.806-0.237,0.806
	c-0.128,0-0.181-0.134-0.2-0.476l-0.008-0.394v-0.295v-7.71c0-0.409-0.155-0.745-0.462-1.008c-0.309-0.264-0.813-0.394-1.513-0.394
	c-0.778,0-1.379,0.188-1.8,0.564c-0.422,0.377-0.633,0.844-0.633,1.399c0,0.377,0.088,0.661,0.263,0.853
	c0.176,0.19,0.415,0.286,0.72,0.286c0.306,0,0.549-0.094,0.73-0.28c0.181-0.189,0.273-0.439,0.273-0.75
	c0-0.306-0.09-0.552-0.268-0.739c-0.178-0.189-0.397-0.283-0.657-0.283c-0.071,0-0.149,0.008-0.233,0.025
	c-0.084,0.016-0.172,0.041-0.263,0.073c0.279-0.584,0.704-0.875,1.274-0.875c0.246,0,0.447,0.079,0.599,0.241
	s0.228,0.391,0.228,0.683v2.802c-0.252,0.129-0.567,0.258-0.943,0.389c-0.844,0.279-1.351,0.513-1.523,0.699
	c-0.172,0.19-0.257,0.481-0.257,0.876v3.668c0,0.313,0.098,0.563,0.296,0.754c0.198,0.192,0.481,0.287,0.851,0.287
	c0.305,0,0.57-0.073,0.793-0.218c0.224-0.147,0.485-0.44,0.783-0.881c0.098,0.409,0.242,0.693,0.433,0.855
	c0.192,0.162,0.462,0.243,0.813,0.243c0.409,0,0.819-0.07,1.05-0.38c0.018-0.023,0.034-0.05,0.048-0.078
	c0.102-0.177,0.142-0.434,0.142-0.744v-0.365c0,0-0.02-0.11-0.146-0.11C27.524,13.071,27.5,13.182,27.5,13.182"/>
</svg>
