<?xml version="1.0" encoding="utf-8"?>
<!-- Generator: Adobe Illustrator 17.0.0, SVG Export Plug-In . SVG Version: 6.00 Build 0)  -->
<!DOCTYPE svg PUBLIC "-//W3C//DTD SVG 1.1//EN" "http://www.w3.org/Graphics/SVG/1.1/DTD/svg11.dtd" [
	<!ENTITY ns_extend "http://ns.adobe.com/Extensibility/1.0/">
	<!ENTITY ns_ai "http://ns.adobe.com/AdobeIllustrator/10.0/">
	<!ENTITY ns_graphs "http://ns.adobe.com/Graphs/1.0/">
	<!ENTITY ns_vars "http://ns.adobe.com/Variables/1.0/">
	<!ENTITY ns_imrep "http://ns.adobe.com/ImageReplacement/1.0/">
	<!ENTITY ns_sfw "http://ns.adobe.com/SaveForWeb/1.0/">
	<!ENTITY ns_custom "http://ns.adobe.com/GenericCustomNamespace/1.0/">
	<!ENTITY ns_adobe_xpath "http://ns.adobe.com/XPath/1.0/">
]>
<svg version="1.1" id="Layer_1" xmlns:x="&ns_extend;" xmlns:i="&ns_ai;" xmlns:graph="&ns_graphs;"
	 xmlns="http://www.w3.org/2000/svg" xmlns:xlink="http://www.w3.org/1999/xlink" x="0px" y="0px" width="286.653px"
	 height="82.729px" viewBox="0 0 286.653 82.729" enable-background="new 0 0 286.653 82.729" xml:space="preserve">
<metadata>
	<sfw  xmlns="&ns_sfw;">
		<slices></slices>
		<sliceSourceBounds  width="286.653" height="82.729" y="-462.778" x="154.399" bottomLeftOrigin="true"></sliceSourceBounds>
	</sfw>
</metadata>
<g>
	<defs>
		<rect id="SVGID_3_" x="0" y="0" width="286.653" height="82.729"/>
	</defs>
	<clipPath id="SVGID_1_">
		<use xlink:href="#SVGID_3_"  overflow="visible"/>
	</clipPath>
	<path clip-path="url(#SVGID_1_)" fill="#010202" d="M170.184,5.468c0-1.352-0.172-2.322-0.515-2.91
		c-0.343-0.588-0.873-0.999-1.587-1.235l-1.844-0.177c-0.143-0.06-0.214-0.229-0.214-0.504c0-0.245,0.035-0.413,0.107-0.505
		C166.202,0.046,166.381,0,166.667,0h7.591c0.114,0,0.207,0.052,0.279,0.155c0.071,0.103,0.107,0.228,0.107,0.375
		c0,0.147-0.036,0.257-0.107,0.331c-0.072,0.073-0.322,0.198-0.751,0.374c-0.886,0.353-1.501,0.815-1.844,1.388
		c-0.343,0.574-0.557,1.638-0.643,3.195v60.506h-6.63l-10.74-60.414v54.685c0,1.499,0.157,2.549,0.472,3.151
		c0.314,0.602,0.829,1.021,1.544,1.255l1.93,0.177c0.142,0.092,0.214,0.275,0.214,0.55c0,0.245-0.036,0.406-0.107,0.482
		c-0.071,0.076-0.25,0.114-0.534,0.114h-7.554c-0.114,0-0.207-0.042-0.277-0.127c-0.072-0.085-0.107-0.198-0.107-0.34
		c0-0.141,0.035-0.247,0.107-0.318c0.071-0.071,0.322-0.191,0.751-0.361c0.886-0.353,1.493-0.808,1.823-1.367
		c0.328-0.558,0.536-1.646,0.622-3.263V1.147h-2.402c-0.144,0-0.265-0.053-0.365-0.161c-0.1-0.107-0.15-0.252-0.15-0.435
		c0-0.153,0.049-0.283,0.15-0.39c0.1-0.107,0.221-0.161,0.364-0.161h11.069l8.704,48.552V5.468z"/>
	<path clip-path="url(#SVGID_1_)" fill="#010202" d="M185.362,41.673V22.85c0-1.207-0.227-2.121-0.68-2.74
		c-0.312-0.442-0.779-0.663-1.402-0.663c-0.623,0-1.168,0.28-1.635,0.84c-0.468,0.559-0.701,1.414-0.701,2.563v18.823H185.362z
		 M180.944,42.82v16.405c0,2.557,0.285,4.249,0.858,5.071c0.428,0.617,1.129,0.926,2.102,0.926c1.6,0,3.03-0.926,4.289-2.778
		c2.087-3.116,3.201-7.364,3.345-12.745c0.028-1.764,0.107-2.763,0.236-2.998c0.129-0.235,0.307-0.353,0.536-0.353
		c0.2,0,0.357,0.088,0.472,0.265c0.143,0.236,0.214,0.794,0.214,1.676c0,5.233-0.894,9.635-2.681,13.207
		c-1.787,3.573-4.196,5.358-7.227,5.358c-2.831,0-5.176-1.374-7.034-4.123c-1.859-2.748-2.788-8.709-2.788-17.882v-6.482
		c0-7.027,1.258-12.362,3.774-16.008c1.802-2.586,3.974-3.881,6.519-3.881c3.03,0,5.368,1.661,7.012,4.983
		c1.644,3.323,2.466,7.364,2.466,12.127v7.232H180.944z"/>
	<path clip-path="url(#SVGID_1_)" fill="#010202" d="M202.858,65.177l1.029,0.088c0.143,0.089,0.214,0.25,0.214,0.485
		c0,0.177-0.143,0.368-0.429,0.574h-10.165c-0.286-0.205-0.429-0.397-0.429-0.574c0-0.176,0.143-0.367,0.429-0.573h1.673V20.153
		h-1.673c-0.286-0.177-0.429-0.353-0.429-0.529c0-0.205,0.143-0.411,0.429-0.618h9.35v3.528c1.029-1.588,1.973-2.66,2.831-3.22
		c0.858-0.558,1.987-0.838,3.388-0.838c1.572,0,2.766,0.33,3.582,0.992c0.814,0.661,1.507,1.904,2.08,3.726
		c0.914-1.852,1.801-3.101,2.659-3.748c0.857-0.646,2.029-0.97,3.517-0.97c2.029,0,3.524,0.492,4.482,1.477
		c0.958,0.986,1.437,2.389,1.437,4.211v41.012h1.415c0.172,0,0.314,0.051,0.429,0.155c0.113,0.103,0.171,0.242,0.171,0.418
		l-0.129,0.397c-0.144,0.118-0.302,0.177-0.473,0.177h-9.989c-0.287-0.205-0.431-0.397-0.431-0.574c0-0.176,0.142-0.367,0.428-0.573
		h0.901V22.534c0-0.499-0.12-0.896-0.361-1.191c-0.241-0.294-0.503-0.441-0.785-0.441c-0.624,0-1.233,0.485-1.827,1.455
		c-0.964,1.559-1.444,3.734-1.444,6.527v36.293h0.943l0.258,0.132c0.086,0.118,0.128,0.265,0.128,0.441
		c0,0.177-0.128,0.368-0.386,0.574h-9.65c-0.229-0.177-0.343-0.367-0.343-0.574c0-0.205,0.114-0.397,0.343-0.573h1.158V23.196
		c0-0.794-0.128-1.359-0.386-1.698c-0.257-0.338-0.558-0.507-0.901-0.507c-0.572,0-1.101,0.368-1.587,1.103
		c-0.972,1.529-1.458,3.205-1.458,5.027V65.177z"/>
	<path clip-path="url(#SVGID_1_)" fill="#010202" d="M231.61,19.006h17.842l-12.695,46.171h2.916c1.115,0,2.23-0.602,3.345-1.808
		c1.544-1.676,2.781-4.218,3.71-7.629c0.929-3.41,1.394-5.63,1.394-6.659v-2.161c0.228-0.323,0.457-0.485,0.686-0.485
		c0.2,0,0.414,0.162,0.643,0.485v19.404h-20.715l12.738-46.171h-1.802c-0.944,0-1.894,0.537-2.853,1.61
		c-0.958,1.074-1.88,3.138-2.766,6.196c-0.572,2-1.001,4.117-1.286,6.35l-0.129,2.778c-0.086,0.206-0.243,0.309-0.472,0.309
		c-0.143,0-0.272-0.051-0.386-0.155c-0.115-0.102-0.172-0.257-0.172-0.463V19.006z"/>
	<path clip-path="url(#SVGID_1_)" fill="#010202" d="M262.531,41.673V22.85c0-1.207-0.227-2.121-0.68-2.74
		c-0.312-0.442-0.779-0.663-1.402-0.663c-0.623,0-1.168,0.28-1.635,0.84c-0.468,0.559-0.701,1.414-0.701,2.563v18.823H262.531z
		 M258.114,42.82v16.405c0,2.557,0.285,4.249,0.858,5.071c0.428,0.617,1.129,0.926,2.102,0.926c1.6,0,3.03-0.926,4.289-2.778
		c2.087-3.116,3.202-7.364,3.345-12.745c0.028-1.764,0.107-2.763,0.236-2.998c0.129-0.235,0.307-0.353,0.536-0.353
		c0.2,0,0.357,0.088,0.472,0.265c0.143,0.236,0.214,0.794,0.214,1.676c0,5.233-0.894,9.635-2.681,13.207
		c-1.787,3.573-4.196,5.358-7.227,5.358c-2.831,0-5.176-1.374-7.034-4.123c-1.859-2.748-2.788-8.709-2.788-17.882v-6.482
		c0-7.027,1.258-12.362,3.774-16.008c1.801-2.586,3.974-3.881,6.519-3.881c3.03,0,5.368,1.661,7.012,4.983
		c1.644,3.323,2.466,7.364,2.466,12.127v7.232H258.114z"/>
	<path clip-path="url(#SVGID_1_)" fill="#010202" d="M271.857,20.153h-2.016c-0.257,0-0.457-0.058-0.6-0.177
		c-0.144-0.117-0.215-0.265-0.215-0.441c0-0.205,0.129-0.425,0.388-0.661c2.413-1.911,4.165-3.814,5.256-5.711
		c1.091-1.896,2.054-4.108,2.886-6.636c0.603-1.823,0.919-3.087,0.948-3.793l0.087-2.028c0.086-0.147,0.214-0.221,0.386-0.221
		s0.307,0.044,0.407,0.132c0.1,0.089,0.151,0.206,0.151,0.353v18.036h6.352c0.226,0,0.404,0.059,0.532,0.177
		c0.128,0.118,0.192,0.25,0.192,0.397c0,0.176-0.057,0.309-0.17,0.397c-0.143,0.118-0.328,0.177-0.554,0.177h-6.352v41.056
		c0,1.264,0.17,2.132,0.51,2.601c0.227,0.353,0.568,0.53,1.022,0.53c0.965,0,1.816-0.574,2.554-1.72
		c1.107-1.705,1.661-4.322,1.661-7.85v-6.439c0-0.411,0.086-0.734,0.257-0.97c0.114-0.146,0.257-0.22,0.429-0.22
		c0.172,0,0.314,0.074,0.429,0.22c0.171,0.236,0.257,0.559,0.257,0.97v4.895c0,4.968-0.765,8.482-2.295,10.539
		c-1.529,2.059-3.438,3.087-5.725,3.087c-2.144,0-3.717-0.602-4.718-1.808c-1.373-1.616-2.059-3.91-2.059-6.88V20.153z"/>
	<path clip-path="url(#SVGID_1_)" fill="#010202" d="M3.302,1.147H0.772c-0.143,0-0.265-0.053-0.365-0.161
		c-0.101-0.107-0.15-0.237-0.15-0.39c0-0.183,0.049-0.328,0.15-0.436C0.507,0.053,0.628,0,0.77,0h11.589l4.128,40.536L21.795,0
		h11.659c0.171,0,0.313,0.054,0.428,0.161c0.114,0.108,0.172,0.237,0.172,0.39c0,0.183-0.058,0.328-0.172,0.435
		c-0.114,0.108-0.257,0.161-0.429,0.161h-2.788v64.031h2.788c0.086,0,0.143,0.03,0.172,0.088c0.086,0.147,0.128,0.324,0.128,0.529
		c0,0.177-0.029,0.309-0.086,0.397c-0.058,0.088-0.129,0.132-0.214,0.132h-14.11c-0.114,0-0.222-0.051-0.322-0.154
		c-0.101-0.103-0.15-0.242-0.15-0.419c0-0.177,0.049-0.315,0.15-0.419c0.1-0.103,0.207-0.154,0.322-0.154h2.96V4.011l-7.566,60.77
		c-0.115,0.794-0.216,1.25-0.302,1.367c-0.086,0.118-0.214,0.176-0.386,0.176h-2.795c-0.172,0-0.302-0.058-0.387-0.176
		c-0.086-0.117-0.172-0.574-0.258-1.367L4.418,4.629v55.837c0,1.527,0.15,2.598,0.45,3.214c0.3,0.617,0.822,1.057,1.565,1.321
		l1.93,0.177c0.143,0.092,0.214,0.275,0.214,0.55c0,0.245-0.035,0.406-0.106,0.482s-0.25,0.114-0.534,0.114H0.384
		c-0.114,0-0.207-0.042-0.277-0.127C0.036,66.112,0,65.999,0,65.857c0-0.141,0.036-0.247,0.107-0.318
		c0.071-0.071,0.322-0.191,0.751-0.361c0.886-0.353,1.486-0.808,1.801-1.367c0.429-0.764,0.643-1.852,0.643-3.264V1.147z"/>
	<path clip-path="url(#SVGID_1_)" fill="#010202" d="M81.514,20.153H79.53c-0.287-0.177-0.431-0.367-0.431-0.573
		c0-0.177,0.143-0.367,0.429-0.574h11.494c0.142,0,0.264,0.059,0.365,0.177c0.1,0.118,0.15,0.25,0.15,0.397
		c0,0.176-0.051,0.316-0.15,0.419c-0.101,0.103-0.222,0.154-0.365,0.154h-1.973l3.881,33.868l3.71-26.635
		c0.142-0.97,0.214-1.867,0.214-2.69c0-1.616-0.208-2.734-0.622-3.352c-0.415-0.618-1.022-0.984-1.823-1.103l-0.6-0.176
		c-0.086-0.117-0.129-0.265-0.129-0.441c0-0.205,0.036-0.36,0.107-0.463c0.071-0.103,0.178-0.154,0.322-0.154h6.476
		c0.172,0,0.307,0.059,0.408,0.177c0.1,0.118,0.15,0.265,0.15,0.441c0,0.147-0.036,0.265-0.107,0.353
		c-0.072,0.089-0.222,0.148-0.45,0.177c-0.401,0.118-0.744,0.427-1.03,0.926c-0.8,1.383-1.357,3.131-1.671,5.248l-6.427,46.391
		c-0.458,3.352-1.431,5.858-2.918,7.52c-1.488,1.66-3.004,2.492-4.549,2.492c-1.23,0-2.318-0.551-3.262-1.654
		c-0.944-1.102-1.416-2.551-1.416-4.343c0-1.529,0.365-2.712,1.094-3.55c0.729-0.838,1.579-1.257,2.552-1.257
		c0.944,0,1.765,0.382,2.466,1.147c0.7,0.764,1.051,1.704,1.051,2.822c0,1.735-0.743,3.087-2.23,4.057
		c-0.401,0.265-0.601,0.529-0.601,0.794c0,0.176,0.078,0.33,0.236,0.463c0.157,0.132,0.393,0.198,0.707,0.198
		c1.058,0,2.086-0.603,3.083-1.808c1.337-1.647,2.292-4.278,2.862-7.894l0.932-5.38l-4.618-0.004L81.514,20.153z"/>
	<path clip-path="url(#SVGID_1_)" fill="#010202" d="M124.835,20.153h-1.802c-0.171,0-0.307-0.051-0.407-0.154
		c-0.101-0.103-0.15-0.243-0.15-0.419c0-0.177,0.049-0.316,0.15-0.419c0.1-0.103,0.236-0.154,0.407-0.154h9.35v5.821
		c0.972-2.646,1.88-4.366,2.723-5.159c0.843-0.794,1.737-1.191,2.681-1.191c1.287,0,2.444,0.662,3.474,1.984
		c1.315,1.705,1.973,3.852,1.973,6.439c0,2.205-0.436,3.874-1.308,5.006c-0.872,1.131-1.838,1.698-2.895,1.698
		c-0.857,0-1.573-0.382-2.144-1.147c-0.772-1.028-1.158-2.499-1.158-4.41c0-1.881,0.543-3.689,1.63-5.424
		c0.543-0.882,0.815-1.484,0.815-1.808c0-0.265-0.101-0.492-0.301-0.684c-0.2-0.191-0.443-0.286-0.729-0.286
		c-0.543,0-1.058,0.265-1.544,0.794c-0.83,0.882-1.573,2.477-2.23,4.785c-0.658,2.308-0.986,4.932-0.986,7.872v31.883h2.187
		c0.2,0,0.357,0.059,0.472,0.177c0.114,0.118,0.172,0.25,0.172,0.397l-0.128,0.397c-0.172,0.118-0.343,0.177-0.515,0.177h-11.537
		c-0.143,0-0.265-0.051-0.365-0.155c-0.101-0.102-0.15-0.242-0.15-0.418c0-0.177,0.049-0.316,0.15-0.419
		c0.1-0.103,0.221-0.155,0.365-0.155h1.802V20.153z"/>
	<path clip-path="url(#SVGID_1_)" fill="#010202" d="M45.962,55.961c0,2.617-0.558,4.851-1.673,6.703
		c-0.572,1-1.087,1.499-1.544,1.499c-0.315,0-0.579-0.147-0.794-0.441c-0.214-0.293-0.322-0.75-0.322-1.367V43.701
		c0-1.616,0.265-2.792,0.794-3.528c0.529-0.735,1.708-1.47,3.539-2.205V55.961z M55.6,59.749v1.624v0.032
		c-0.002,2.518-0.222,3.647-1.046,3.647c-0.561,0-0.797-0.605-0.879-2.152l-0.037-1.79v-1.334V24.827
		c0-1.852-0.679-3.374-2.037-4.564c-1.359-1.191-3.581-1.786-6.669-1.786c-3.431,0-6.076,0.853-7.934,2.557
		c-1.859,1.705-2.788,3.822-2.788,6.351c0,1.705,0.386,2.992,1.158,3.858c0.772,0.867,1.829,1.301,3.174,1.301
		c1.344,0,2.416-0.426,3.217-1.279c0.8-0.852,1.201-1.984,1.201-3.396c0-1.382-0.393-2.499-1.18-3.352
		c-0.786-0.852-1.751-1.279-2.895-1.279c-0.315,0-0.658,0.037-1.03,0.11c-0.372,0.073-0.758,0.184-1.158,0.33
		c1.229-2.646,3.102-3.969,5.619-3.969c1.086,0,1.965,0.368,2.638,1.103c0.671,0.735,1.008,1.764,1.008,3.086v12.701
		c-1.115,0.588-2.502,1.176-4.16,1.764c-3.717,1.264-5.955,2.323-6.712,3.175c-0.758,0.854-1.136,2.176-1.136,3.969v16.625
		c0,1.411,0.436,2.551,1.308,3.418c0.871,0.867,2.123,1.301,3.753,1.301c1.344,0,2.509-0.331,3.496-0.992
		c0.986-0.662,2.137-1.992,3.452-3.991c0.429,1.852,1.065,3.146,1.908,3.881c0.843,0.734,2.038,1.103,3.581,1.103
		c1.802,0,3.612-0.318,4.632-1.72c0.077-0.107,0.145-0.229,0.209-0.358c0.449-0.803,0.626-1.968,0.626-3.37v-1.656
		c0,0-0.087-0.507-0.641-0.507C55.707,59.242,55.6,59.749,55.6,59.749"/>
	<path clip-path="url(#SVGID_1_)" fill="#010202" d="M72.448,19.622c0.048,0.032,0.096,0.066,0.144,0.099
		C72.543,19.686,72.495,19.654,72.448,19.622"/>
	<path clip-path="url(#SVGID_1_)" fill="#010202" d="M71.992,19.346c0.046,0.026,0.092,0.051,0.138,0.078
		C72.084,19.398,72.038,19.372,71.992,19.346"/>
	<path clip-path="url(#SVGID_1_)" fill="#010202" d="M68.697,18.477c0.147,0,0.292,0.011,0.437,0.02
		C68.863,18.475,68.697,18.477,68.697,18.477"/>
	<path clip-path="url(#SVGID_1_)" fill="#010202" d="M72.13,19.424c0.106,0.061,0.212,0.128,0.317,0.197
		C72.343,19.553,72.237,19.487,72.13,19.424"/>
	<path clip-path="url(#SVGID_1_)" fill="#010202" d="M75.724,77.702c-1.936,1.558-4.441,2.337-7.515,2.337
		c-3.017,0-5.338-0.669-6.96-2.006c-1.623-1.338-2.434-2.772-2.434-4.3c0-0.794,0.189-1.587,0.568-2.381
		c0.379-0.794,0.947-1.573,1.705-2.337c2.024,0.323,4.463,0.485,7.315,0.485h1.754c3.28,0,5.462,0.381,6.546,1.147
		c0.798,0.587,1.197,1.499,1.197,2.734C77.901,75.026,77.175,76.467,75.724,77.702 M66.321,22.927c0-1.322,0.202-2.239,0.606-2.753
		c0.404-0.514,0.924-0.771,1.56-0.771c0.074,0,0.139,0.014,0.21,0.02c0.56,0.047,1.007,0.268,1.328,0.685
		c0.207,0.27,0.353,0.7,0.441,1.279c0.066,0.43,0.101,0.939,0.101,1.54v30.611c0,1.175-0.181,1.997-0.541,2.467
		c-0.361,0.47-0.83,0.705-1.408,0.705c-0.636,0-1.141-0.264-1.516-0.793c-0.52-0.734-0.78-1.967-0.78-3.699V22.927z M77.026,64.207
		c-1.527-1.558-3.958-2.337-7.296-2.337h-6.805c-1.227,0-2.125-0.205-2.696-0.617c-0.399-0.294-0.599-0.676-0.599-1.147
		c0-0.499,0.365-1.014,1.094-1.543c0.729-0.53,1.965-0.794,3.71-0.794c1.458,0,2.359,0.015,2.702,0.045
		c0.571,0.03,1.043,0.044,1.415,0.044c2.43,0,4.503-1.233,6.219-3.699c2.316-3.348,3.474-8.5,3.474-15.459
		c0-7.986-1.352-13.757-4.055-17.311c-0.461-0.72-1.018-1.259-1.598-1.667c-0.016-0.011-0.032-0.022-0.048-0.033
		c-0.048-0.737-0.023-1.349,0.084-1.825c0.137-0.607,0.38-1.007,0.731-1.199c0.251-0.137,0.486-0.165,0.704-0.085
		c0.219,0.08,0.442,0.341,0.67,0.782c0.081,0.156,0.169,0.358,0.265,0.605l0.222,0.428c0.376,0.727,0.825,1.189,1.348,1.385
		c0.522,0.197,1.049,0.151,1.579-0.139c0.48-0.262,0.784-0.738,0.913-1.429c0.129-0.69-0.057-1.518-0.557-2.485
		c-0.581-1.123-1.301-1.843-2.159-2.161c-0.858-0.318-1.728-0.236-2.608,0.246c-0.831,0.454-1.441,1.18-1.83,2.174
		c-0.325,0.832-0.486,1.863-0.503,3.071c-0.58-0.257-1.184-0.422-1.809-0.505c-0.173-0.025-0.33-0.044-0.459-0.055
		c-0.145-0.009-0.29-0.02-0.437-0.02c-2.693,0-4.87,1.206-6.531,3.616c-2.292,3.293-3.437,8.614-3.437,15.964
		c0,5.145,0.557,9.334,1.673,12.568c0.8,2.293,2.073,4.277,3.817,5.953c-2.516,0.353-4.275,1.052-5.275,2.095
		c-1.001,1.044-1.501,2.536-1.501,4.477c0,1.118,0.236,2.109,0.708,2.977c0.472,0.867,1.165,1.61,2.08,2.227
		c-1.158,0.94-2.034,1.962-2.626,3.065c-0.594,1.102-0.89,2.285-0.89,3.549c0,2.029,0.939,3.829,2.82,5.402
		c1.879,1.572,4.642,2.36,8.289,2.36c3.617,0,6.437-1.008,8.459-3.021c2.023-2.014,3.034-4.785,3.034-8.313
		C79.316,68.161,78.553,65.766,77.026,64.207"/>
	<path clip-path="url(#SVGID_1_)" fill="#010202" d="M111.592,55.961c0,2.617-0.558,4.851-1.673,6.703
		c-0.572,1-1.087,1.499-1.544,1.499c-0.315,0-0.579-0.147-0.794-0.441c-0.214-0.293-0.322-0.75-0.322-1.367V43.701
		c0-1.616,0.265-2.792,0.794-3.528c0.529-0.735,1.708-1.47,3.539-2.205V55.961z M121.231,59.749v1.624v0.032
		c-0.002,2.518-0.222,3.647-1.046,3.647c-0.561,0-0.797-0.605-0.879-2.152l-0.037-1.79v-1.334V24.827
		c0-1.852-0.679-3.374-2.037-4.564c-1.359-1.191-3.581-1.786-6.669-1.786c-3.431,0-6.076,0.853-7.934,2.557
		c-1.859,1.705-2.788,3.822-2.788,6.351c0,1.705,0.386,2.992,1.158,3.858c0.772,0.867,1.829,1.301,3.174,1.301
		c1.344,0,2.416-0.426,3.217-1.279c0.8-0.852,1.201-1.984,1.201-3.396c0-1.382-0.393-2.499-1.18-3.352
		c-0.786-0.852-1.752-1.279-2.895-1.279c-0.315,0-0.658,0.037-1.03,0.11c-0.372,0.073-0.758,0.184-1.158,0.33
		c1.229-2.646,3.102-3.969,5.619-3.969c1.086,0,1.965,0.368,2.638,1.103c0.671,0.735,1.008,1.764,1.008,3.086v12.701
		c-1.115,0.588-2.502,1.176-4.16,1.764c-3.717,1.264-5.955,2.323-6.712,3.175c-0.758,0.854-1.136,2.176-1.136,3.969v16.625
		c0,1.411,0.436,2.551,1.308,3.418c0.871,0.867,2.123,1.301,3.753,1.301c1.344,0,2.509-0.331,3.496-0.992
		c0.986-0.662,2.137-1.992,3.452-3.991c0.429,1.852,1.065,3.146,1.908,3.881c0.843,0.734,2.038,1.103,3.581,1.103
		c1.802,0,3.612-0.318,4.632-1.72c0.077-0.107,0.145-0.229,0.209-0.358c0.449-0.803,0.626-1.968,0.626-3.37v-1.656
		c0,0-0.087-0.507-0.641-0.507C121.338,59.242,121.231,59.749,121.231,59.749"/>
</g>
</svg>
