<?xml version="1.0" encoding="utf-8"?>
<!-- Generator: Adobe Illustrator 17.0.0, SVG Export Plug-In . SVG Version: 6.00 Build 0)  -->
<!DOCTYPE svg PUBLIC "-//W3C//DTD SVG 1.1//EN" "http://www.w3.org/Graphics/SVG/1.1/DTD/svg11.dtd" [
	<!ENTITY ns_extend "http://ns.adobe.com/Extensibility/1.0/">
	<!ENTITY ns_ai "http://ns.adobe.com/AdobeIllustrator/10.0/">
	<!ENTITY ns_graphs "http://ns.adobe.com/Graphs/1.0/">
	<!ENTITY ns_vars "http://ns.adobe.com/Variables/1.0/">
	<!ENTITY ns_imrep "http://ns.adobe.com/ImageReplacement/1.0/">
	<!ENTITY ns_sfw "http://ns.adobe.com/SaveForWeb/1.0/">
	<!ENTITY ns_custom "http://ns.adobe.com/GenericCustomNamespace/1.0/">
	<!ENTITY ns_adobe_xpath "http://ns.adobe.com/XPath/1.0/">
]>
<svg version="1.1" id="Layer_1" xmlns:x="&ns_extend;" xmlns:i="&ns_ai;" xmlns:graph="&ns_graphs;"
	 xmlns="http://www.w3.org/2000/svg" xmlns:xlink="http://www.w3.org/1999/xlink" x="0px" y="0px" width="142.601px"
	 height="41.121px" viewBox="0 0 142.601 41.121" enable-background="new 0 0 142.601 41.121" xml:space="preserve">
<metadata>
	<sfw  xmlns="&ns_sfw;">
		<slices></slices>
		<sliceSourceBounds  height="41.121" width="142.601" y="-441.746" x="227.177" bottomLeftOrigin="true"></sliceSourceBounds>
	</sfw>
</metadata>
<g>
	<defs>
		<rect id="SVGID_3_" x="0" y="0" width="142.601" height="41.121"/>
	</defs>
	<clipPath id="SVGID_1_">
		<use xlink:href="#SVGID_3_"  overflow="visible"/>
	</clipPath>
	<path clip-path="url(#SVGID_1_)" fill="#FFFFFF" d="M84.661,2.718c0-0.672-0.085-1.154-0.256-1.447
		c-0.171-0.292-0.434-0.496-0.789-0.614L82.699,0.57c-0.071-0.03-0.107-0.114-0.107-0.251c0-0.122,0.017-0.205,0.053-0.251
		C82.681,0.023,82.77,0,82.912,0h3.776c0.057,0,0.103,0.026,0.139,0.077c0.035,0.051,0.053,0.113,0.053,0.186
		c0,0.073-0.018,0.128-0.053,0.164c-0.036,0.036-0.16,0.099-0.373,0.186c-0.441,0.175-0.747,0.405-0.917,0.69
		c-0.171,0.285-0.277,0.814-0.32,1.588v30.075h-3.298l-5.343-30.03v27.182c0,0.745,0.078,1.267,0.235,1.566
		c0.156,0.299,0.412,0.508,0.768,0.624l0.96,0.088c0.071,0.046,0.107,0.137,0.107,0.274c0,0.122-0.018,0.202-0.053,0.24
		c-0.035,0.038-0.124,0.057-0.265,0.057h-3.758c-0.057,0-0.103-0.021-0.138-0.063c-0.036-0.042-0.053-0.098-0.053-0.169
		c0-0.07,0.017-0.123,0.053-0.158c0.035-0.035,0.16-0.095,0.373-0.179c0.441-0.175,0.743-0.402,0.907-0.68
		c0.163-0.277,0.267-0.818,0.309-1.622V0.57h-1.195c-0.072,0-0.132-0.026-0.182-0.08c-0.05-0.053-0.074-0.125-0.074-0.216
		c0-0.076,0.025-0.14,0.074-0.194C74.694,0.027,74.754,0,74.825,0h5.506l4.33,24.134V2.718z"/>
	<path clip-path="url(#SVGID_1_)" fill="#FFFFFF" d="M92.212,20.714v-9.356c0-0.6-0.113-1.054-0.338-1.362
		c-0.155-0.22-0.387-0.33-0.697-0.33c-0.31,0-0.581,0.139-0.813,0.418c-0.233,0.278-0.349,0.703-0.349,1.274v9.356H92.212z
		 M90.014,21.284v8.154c0,1.271,0.142,2.112,0.427,2.521c0.213,0.307,0.561,0.46,1.045,0.46c0.796,0,1.507-0.46,2.134-1.381
		c1.038-1.549,1.593-3.66,1.664-6.335c0.014-0.877,0.053-1.373,0.117-1.49c0.064-0.117,0.153-0.175,0.267-0.175
		c0.099,0,0.178,0.044,0.235,0.131c0.071,0.117,0.107,0.394,0.107,0.833c0,2.601-0.445,4.789-1.334,6.565
		c-0.889,1.776-2.088,2.663-3.595,2.663c-1.408,0-2.575-0.683-3.499-2.05c-0.925-1.366-1.387-4.329-1.387-8.888V19.07
		c0-3.493,0.626-6.145,1.878-7.957c0.896-1.285,1.977-1.929,3.243-1.929c1.507,0,2.67,0.826,3.488,2.477
		c0.818,1.652,1.227,3.66,1.227,6.028v3.595H90.014z"/>
	<path clip-path="url(#SVGID_1_)" fill="#FFFFFF" d="M100.916,32.397l0.512,0.044c0.071,0.044,0.107,0.124,0.107,0.241
		c0,0.088-0.071,0.183-0.213,0.285h-5.057c-0.142-0.102-0.213-0.197-0.213-0.285c0-0.087,0.071-0.182,0.213-0.285h0.832v-22.38
		h-0.832c-0.142-0.088-0.213-0.175-0.213-0.263c0-0.102,0.071-0.204,0.213-0.307h4.651v1.754c0.512-0.789,0.981-1.322,1.408-1.6
		c0.427-0.277,0.989-0.416,1.685-0.416c0.782,0,1.376,0.164,1.782,0.493c0.405,0.329,0.75,0.946,1.035,1.852
		c0.455-0.92,0.896-1.541,1.323-1.863c0.427-0.321,1.01-0.482,1.75-0.482c1.01,0,1.753,0.245,2.229,0.734
		c0.477,0.49,0.715,1.188,0.715,2.093v20.385h0.704c0.085,0,0.156,0.026,0.213,0.077c0.056,0.051,0.085,0.12,0.085,0.208
		l-0.064,0.197c-0.072,0.058-0.15,0.088-0.235,0.088h-4.969c-0.143-0.102-0.214-0.197-0.214-0.285c0-0.087,0.071-0.182,0.213-0.285
		h0.448V11.201c0-0.248-0.06-0.446-0.18-0.592c-0.12-0.146-0.25-0.219-0.39-0.219c-0.31,0-0.613,0.241-0.909,0.723
		c-0.479,0.775-0.718,1.856-0.718,3.244v18.04h0.469l0.128,0.066c0.043,0.059,0.064,0.132,0.064,0.219
		c0,0.088-0.064,0.183-0.192,0.285h-4.801c-0.114-0.088-0.171-0.183-0.171-0.285c0-0.102,0.057-0.197,0.171-0.285h0.576V11.53
		c0-0.394-0.064-0.676-0.192-0.844c-0.128-0.168-0.278-0.252-0.448-0.252c-0.285,0-0.548,0.183-0.789,0.548
		c-0.484,0.76-0.725,1.593-0.725,2.499V32.397z"/>
	<path clip-path="url(#SVGID_1_)" fill="#FFFFFF" d="M115.219,9.447h8.876l-6.315,22.95h1.451c0.555,0,1.11-0.299,1.664-0.899
		c0.768-0.833,1.383-2.097,1.846-3.792c0.462-1.695,0.693-2.798,0.693-3.31v-1.074c0.114-0.16,0.227-0.241,0.341-0.241
		c0.099,0,0.206,0.081,0.32,0.241v9.645H113.79l6.337-22.95h-0.896c-0.469,0-0.942,0.267-1.419,0.8
		c-0.477,0.534-0.935,1.56-1.376,3.08c-0.285,0.994-0.498,2.046-0.64,3.156l-0.064,1.381c-0.043,0.102-0.121,0.153-0.235,0.153
		c-0.071,0-0.135-0.025-0.192-0.077c-0.057-0.051-0.085-0.128-0.085-0.23V9.447z"/>
	<path clip-path="url(#SVGID_1_)" fill="#FFFFFF" d="M130.601,20.714v-9.356c0-0.6-0.113-1.054-0.338-1.362
		c-0.155-0.22-0.387-0.33-0.697-0.33s-0.581,0.139-0.813,0.418c-0.233,0.278-0.349,0.703-0.349,1.274v9.356H130.601z
		 M128.404,21.284v8.154c0,1.271,0.142,2.112,0.427,2.521c0.213,0.307,0.561,0.46,1.045,0.46c0.796,0,1.507-0.46,2.134-1.381
		c1.038-1.549,1.593-3.66,1.664-6.335c0.014-0.877,0.053-1.373,0.117-1.49c0.064-0.117,0.153-0.175,0.267-0.175
		c0.099,0,0.178,0.044,0.235,0.131c0.071,0.117,0.107,0.394,0.107,0.833c0,2.601-0.445,4.789-1.334,6.565
		c-0.889,1.776-2.088,2.663-3.595,2.663c-1.408,0-2.575-0.683-3.499-2.05c-0.925-1.366-1.387-4.329-1.387-8.888V19.07
		c0-3.493,0.626-6.145,1.878-7.957c0.896-1.285,1.977-1.929,3.243-1.929c1.507,0,2.67,0.826,3.488,2.477
		c0.818,1.652,1.227,3.66,1.227,6.028v3.595H128.404z"/>
	<path clip-path="url(#SVGID_1_)" fill="#FFFFFF" d="M135.24,10.017h-1.003c-0.128,0-0.228-0.029-0.299-0.088
		c-0.072-0.058-0.107-0.131-0.107-0.219c0-0.102,0.064-0.211,0.193-0.329c1.2-0.95,2.072-1.896,2.615-2.839
		c0.543-0.942,1.022-2.042,1.436-3.299c0.3-0.906,0.457-1.534,0.471-1.885l0.043-1.008c0.043-0.073,0.106-0.11,0.192-0.11
		c0.085,0,0.153,0.022,0.203,0.066c0.05,0.044,0.075,0.103,0.075,0.175v8.965h3.16c0.113,0,0.201,0.03,0.265,0.088
		c0.064,0.059,0.096,0.124,0.096,0.197c0,0.087-0.028,0.153-0.085,0.197c-0.071,0.059-0.163,0.088-0.276,0.088h-3.16v20.407
		c0,0.628,0.085,1.06,0.254,1.293c0.113,0.175,0.282,0.263,0.508,0.263c0.48,0,0.903-0.285,1.27-0.855
		c0.551-0.847,0.826-2.148,0.826-3.902v-3.2c0-0.204,0.043-0.365,0.128-0.482c0.057-0.073,0.128-0.109,0.213-0.109
		c0.085,0,0.156,0.037,0.213,0.109c0.085,0.117,0.128,0.278,0.128,0.482v2.433c0,2.47-0.381,4.216-1.142,5.239
		c-0.761,1.023-1.71,1.534-2.848,1.534c-1.067,0-1.849-0.299-2.347-0.899c-0.683-0.803-1.024-1.943-1.024-3.42V10.017z"/>
	<path clip-path="url(#SVGID_1_)" fill="#FFFFFF" d="M1.643,0.57H0.384c-0.071,0-0.132-0.026-0.181-0.08
		c-0.05-0.053-0.075-0.118-0.075-0.194c0-0.091,0.025-0.163,0.074-0.217C0.252,0.027,0.312,0,0.383,0h5.765l2.054,20.149L10.842,0
		h5.8c0.085,0,0.156,0.027,0.213,0.08c0.057,0.053,0.085,0.118,0.085,0.194c0,0.091-0.029,0.163-0.085,0.216
		c-0.057,0.053-0.128,0.08-0.213,0.08h-1.387v31.827h1.387c0.043,0,0.071,0.015,0.085,0.044c0.043,0.073,0.064,0.161,0.064,0.263
		c0,0.088-0.014,0.153-0.043,0.197c-0.029,0.044-0.064,0.066-0.107,0.066h-7.02c-0.057,0-0.11-0.025-0.16-0.077
		c-0.05-0.051-0.075-0.12-0.075-0.208s0.025-0.157,0.075-0.208c0.05-0.051,0.103-0.077,0.16-0.077h1.472V1.994L7.331,32.2
		c-0.057,0.394-0.107,0.621-0.15,0.68c-0.043,0.058-0.107,0.087-0.192,0.087h-1.39c-0.086,0-0.15-0.029-0.193-0.087
		c-0.043-0.058-0.085-0.285-0.128-0.68L2.198,2.301v27.754c0,0.759,0.075,1.291,0.224,1.598C2.571,31.96,2.83,32.178,3.2,32.309
		l0.96,0.088c0.071,0.046,0.107,0.137,0.107,0.274c0,0.122-0.017,0.202-0.053,0.24c-0.035,0.038-0.124,0.057-0.265,0.057H0.191
		c-0.057,0-0.103-0.021-0.138-0.063C0.018,32.862,0,32.805,0,32.735c0-0.07,0.018-0.123,0.053-0.158
		c0.035-0.035,0.16-0.095,0.373-0.179c0.441-0.176,0.739-0.402,0.896-0.68c0.213-0.38,0.32-0.921,0.32-1.622V0.57z"/>
	<path clip-path="url(#SVGID_1_)" fill="#FFFFFF" d="M40.551,10.017h-0.987c-0.143-0.088-0.214-0.183-0.214-0.285
		c0-0.088,0.071-0.183,0.213-0.285h5.718c0.071,0,0.131,0.03,0.181,0.088c0.05,0.059,0.075,0.124,0.075,0.197
		c0,0.087-0.025,0.157-0.075,0.208c-0.05,0.051-0.111,0.077-0.181,0.077h-0.982l1.931,16.834l1.846-13.239
		c0.071-0.482,0.107-0.928,0.107-1.337c0-0.803-0.103-1.359-0.31-1.666c-0.206-0.307-0.509-0.489-0.907-0.548l-0.299-0.087
		c-0.043-0.058-0.064-0.131-0.064-0.219c0-0.102,0.018-0.179,0.053-0.23c0.035-0.051,0.089-0.077,0.16-0.077h3.222
		c0.085,0,0.153,0.03,0.203,0.088c0.05,0.059,0.075,0.131,0.075,0.219c0,0.073-0.018,0.131-0.053,0.175
		c-0.036,0.044-0.111,0.074-0.224,0.088c-0.199,0.058-0.37,0.212-0.512,0.46c-0.398,0.687-0.675,1.556-0.831,2.609l-3.197,23.059
		c-0.228,1.666-0.712,2.912-1.452,3.738c-0.74,0.825-1.495,1.239-2.263,1.239c-0.612,0-1.153-0.274-1.623-0.822
		c-0.47-0.548-0.704-1.268-0.704-2.159c0-0.76,0.181-1.348,0.544-1.764c0.363-0.417,0.786-0.625,1.269-0.625
		c0.469,0,0.878,0.19,1.227,0.57c0.348,0.38,0.523,0.847,0.523,1.403c0,0.862-0.37,1.534-1.109,2.017
		c-0.199,0.131-0.299,0.263-0.299,0.395c0,0.087,0.039,0.164,0.117,0.23c0.078,0.066,0.195,0.099,0.352,0.099
		c0.526,0,1.038-0.3,1.534-0.899c0.665-0.819,1.14-2.126,1.424-3.924l0.463-2.674l-2.297-0.002L40.551,10.017z"/>
	<path clip-path="url(#SVGID_1_)" fill="#FFFFFF" d="M62.102,10.017h-0.896c-0.085,0-0.153-0.025-0.203-0.077
		c-0.05-0.051-0.075-0.121-0.075-0.208c0-0.088,0.025-0.157,0.075-0.208c0.05-0.051,0.117-0.077,0.203-0.077h4.651v2.893
		c0.483-1.315,0.935-2.17,1.355-2.565c0.419-0.394,0.864-0.592,1.334-0.592c0.64,0,1.216,0.329,1.728,0.986
		c0.654,0.848,0.981,1.915,0.981,3.2c0,1.096-0.217,1.925-0.651,2.488c-0.434,0.562-0.914,0.844-1.44,0.844
		c-0.427,0-0.782-0.19-1.067-0.57c-0.384-0.511-0.576-1.242-0.576-2.192c0-0.935,0.27-1.834,0.811-2.696
		c0.27-0.438,0.406-0.738,0.406-0.899c0-0.131-0.05-0.245-0.15-0.34c-0.1-0.095-0.221-0.142-0.363-0.142
		c-0.27,0-0.526,0.131-0.768,0.394c-0.413,0.438-0.783,1.231-1.11,2.378c-0.327,1.147-0.491,2.452-0.491,3.913v15.848h1.088
		c0.1,0,0.178,0.03,0.235,0.088c0.057,0.058,0.085,0.124,0.085,0.197l-0.064,0.197c-0.085,0.059-0.171,0.088-0.256,0.088h-5.739
		c-0.071,0-0.132-0.025-0.181-0.077c-0.05-0.051-0.075-0.12-0.075-0.208c0-0.088,0.025-0.157,0.075-0.208
		c0.05-0.051,0.11-0.077,0.181-0.077h0.896V10.017z"/>
	<path clip-path="url(#SVGID_1_)" fill="#FFFFFF" d="M22.865,27.816c0,1.301-0.278,2.411-0.832,3.332
		c-0.285,0.497-0.541,0.745-0.768,0.745c-0.157,0-0.288-0.073-0.395-0.219c-0.107-0.146-0.16-0.373-0.16-0.68v-9.272
		c0-0.803,0.132-1.388,0.395-1.753c0.263-0.365,0.85-0.731,1.76-1.096V27.816z M27.66,29.699v0.807v0.016
		c-0.001,1.251-0.11,1.813-0.52,1.813c-0.279,0-0.397-0.301-0.437-1.07l-0.018-0.89v-0.663V12.341c0-0.921-0.338-1.677-1.013-2.269
		c-0.676-0.592-1.781-0.888-3.318-0.888c-1.707,0-3.023,0.424-3.947,1.271c-0.925,0.848-1.387,1.9-1.387,3.157
		c0,0.848,0.192,1.487,0.576,1.918c0.384,0.431,0.91,0.647,1.579,0.647c0.668,0,1.202-0.212,1.6-0.636
		c0.398-0.424,0.597-0.986,0.597-1.688c0-0.687-0.196-1.242-0.587-1.666c-0.391-0.424-0.871-0.636-1.44-0.636
		c-0.157,0-0.328,0.018-0.512,0.055c-0.185,0.036-0.377,0.091-0.576,0.164c0.611-1.315,1.543-1.973,2.795-1.973
		c0.54,0,0.978,0.183,1.312,0.548c0.334,0.365,0.501,0.877,0.501,1.534v6.313c-0.555,0.292-1.245,0.585-2.07,0.877
		c-1.849,0.628-2.962,1.155-3.339,1.578c-0.377,0.424-0.565,1.082-0.565,1.973v8.263c0,0.701,0.217,1.268,0.651,1.699
		c0.433,0.431,1.056,0.647,1.867,0.647c0.668,0,1.248-0.164,1.739-0.493c0.491-0.329,1.063-0.99,1.717-1.984
		c0.213,0.921,0.53,1.564,0.949,1.929c0.419,0.365,1.014,0.548,1.782,0.548c0.896,0,1.797-0.158,2.304-0.855
		c0.038-0.053,0.072-0.114,0.104-0.178c0.223-0.399,0.312-0.978,0.312-1.675v-0.823c0,0-0.043-0.252-0.319-0.252
		C27.713,29.447,27.66,29.699,27.66,29.699"/>
	<path clip-path="url(#SVGID_1_)" fill="#231F20" d="M36.04,9.753c0.024,0.016,0.048,0.033,0.072,0.049
		C36.088,9.785,36.064,9.769,36.04,9.753"/>
	<path clip-path="url(#SVGID_1_)" fill="#231F20" d="M35.814,9.616c0.023,0.013,0.046,0.025,0.069,0.039
		C35.86,9.642,35.837,9.629,35.814,9.616"/>
	<path clip-path="url(#SVGID_1_)" fill="#231F20" d="M34.175,9.184c0.073,0,0.145,0.005,0.218,0.01
		C34.257,9.183,34.175,9.184,34.175,9.184"/>
	<path clip-path="url(#SVGID_1_)" fill="#231F20" d="M35.883,9.655c0.053,0.031,0.105,0.064,0.158,0.098
		C35.988,9.719,35.936,9.686,35.883,9.655"/>
	<path clip-path="url(#SVGID_1_)" fill="#FFFFFF" d="M37.67,38.622c-0.963,0.774-2.209,1.162-3.739,1.162
		c-1.501,0-2.655-0.332-3.462-0.997c-0.807-0.665-1.211-1.378-1.211-2.137c0-0.394,0.094-0.789,0.283-1.183
		c0.189-0.395,0.471-0.782,0.848-1.162c1.007,0.16,2.22,0.241,3.639,0.241h0.872c1.632,0,2.717,0.189,3.256,0.57
		c0.397,0.292,0.596,0.745,0.596,1.359C38.753,37.292,38.392,38.009,37.67,38.622 M32.992,11.396c0-0.657,0.1-1.113,0.302-1.368
		c0.201-0.255,0.46-0.383,0.776-0.383c0.037,0,0.069,0.007,0.104,0.01c0.279,0.023,0.501,0.133,0.661,0.341
		c0.103,0.134,0.175,0.348,0.219,0.636c0.033,0.214,0.05,0.467,0.05,0.765v15.216c0,0.584-0.09,0.993-0.269,1.226
		c-0.18,0.234-0.413,0.35-0.7,0.35c-0.316,0-0.568-0.131-0.754-0.394c-0.259-0.365-0.388-0.978-0.388-1.839V11.396z M38.318,31.915
		c-0.759-0.774-1.969-1.162-3.63-1.162h-3.385c-0.61,0-1.057-0.102-1.341-0.307c-0.199-0.146-0.298-0.336-0.298-0.57
		c0-0.248,0.181-0.504,0.544-0.767c0.363-0.263,0.978-0.395,1.845-0.395c0.725,0,1.173,0.008,1.344,0.022
		c0.284,0.015,0.519,0.022,0.704,0.022c1.209,0,2.24-0.613,3.094-1.839c1.152-1.664,1.728-4.225,1.728-7.684
		c0-3.969-0.673-6.838-2.017-8.605c-0.229-0.358-0.507-0.626-0.795-0.829c-0.008-0.006-0.016-0.011-0.024-0.016
		c-0.024-0.367-0.011-0.67,0.042-0.907c0.068-0.302,0.189-0.5,0.364-0.596c0.125-0.068,0.242-0.082,0.35-0.042
		c0.109,0.04,0.22,0.17,0.333,0.389c0.04,0.077,0.084,0.178,0.132,0.301l0.11,0.213c0.187,0.361,0.41,0.591,0.671,0.689
		c0.26,0.098,0.522,0.075,0.786-0.069c0.239-0.13,0.39-0.367,0.454-0.71c0.064-0.343-0.028-0.755-0.277-1.235
		c-0.289-0.558-0.647-0.916-1.074-1.074c-0.427-0.158-0.86-0.117-1.298,0.122c-0.413,0.226-0.717,0.586-0.91,1.081
		c-0.162,0.413-0.242,0.926-0.25,1.527c-0.289-0.128-0.589-0.21-0.9-0.251c-0.086-0.013-0.164-0.022-0.228-0.027
		c-0.072-0.004-0.144-0.01-0.218-0.01c-1.34,0-2.423,0.599-3.249,1.797c-1.14,1.637-1.71,4.282-1.71,7.935
		c0,2.557,0.277,4.64,0.832,6.247c0.398,1.14,1.031,2.126,1.899,2.959c-1.252,0.175-2.127,0.523-2.624,1.041
		c-0.498,0.519-0.747,1.261-0.747,2.225c0,0.555,0.117,1.049,0.352,1.48c0.235,0.431,0.579,0.8,1.035,1.107
		c-0.576,0.467-1.012,0.975-1.307,1.524c-0.295,0.548-0.443,1.136-0.443,1.764c0,1.008,0.467,1.903,1.403,2.685
		c0.935,0.782,2.309,1.173,4.123,1.173c1.8,0,3.202-0.501,4.208-1.501c1.006-1.001,1.509-2.378,1.509-4.132
		C39.457,33.88,39.078,32.69,38.318,31.915"/>
	<path clip-path="url(#SVGID_1_)" fill="#FFFFFF" d="M55.514,27.816c0,1.301-0.278,2.411-0.832,3.332
		c-0.285,0.497-0.541,0.745-0.768,0.745c-0.157,0-0.288-0.073-0.395-0.219c-0.107-0.146-0.16-0.373-0.16-0.68v-9.272
		c0-0.803,0.132-1.388,0.395-1.753c0.263-0.365,0.85-0.731,1.76-1.096V27.816z M60.309,29.699v0.807v0.016
		c-0.001,1.251-0.11,1.813-0.52,1.813c-0.279,0-0.397-0.301-0.437-1.07l-0.018-0.89v-0.663V12.341c0-0.921-0.338-1.677-1.013-2.269
		c-0.676-0.592-1.781-0.888-3.318-0.888c-1.707,0-3.023,0.424-3.947,1.271c-0.925,0.848-1.387,1.9-1.387,3.157
		c0,0.848,0.192,1.487,0.576,1.918c0.384,0.431,0.91,0.647,1.579,0.647c0.668,0,1.202-0.212,1.6-0.636
		c0.398-0.424,0.597-0.986,0.597-1.688c0-0.687-0.196-1.242-0.587-1.666c-0.391-0.424-0.871-0.636-1.44-0.636
		c-0.157,0-0.327,0.018-0.512,0.055c-0.185,0.036-0.377,0.091-0.576,0.164c0.611-1.315,1.543-1.973,2.795-1.973
		c0.54,0,0.978,0.183,1.312,0.548c0.334,0.365,0.501,0.877,0.501,1.534v6.313c-0.555,0.292-1.245,0.585-2.07,0.877
		c-1.849,0.628-2.962,1.155-3.339,1.578c-0.377,0.424-0.565,1.082-0.565,1.973v8.263c0,0.701,0.217,1.268,0.651,1.699
		c0.433,0.431,1.056,0.647,1.867,0.647c0.668,0,1.248-0.164,1.739-0.493c0.491-0.329,1.063-0.99,1.717-1.984
		c0.213,0.921,0.53,1.564,0.949,1.929c0.419,0.365,1.014,0.548,1.782,0.548c0.896,0,1.797-0.158,2.304-0.855
		c0.038-0.053,0.072-0.114,0.104-0.178c0.223-0.399,0.312-0.978,0.312-1.675v-0.823c0,0-0.043-0.252-0.319-0.252
		C60.362,29.447,60.309,29.699,60.309,29.699"/>
</g>
</svg>
