<?xml version="1.0" encoding="utf-8"?>
<!-- Generator: Adobe Illustrator 21.1.0, SVG Export Plug-In . SVG Version: 6.00 Build 0)  -->
<svg version="1.1" id="Layer_1" xmlns="http://www.w3.org/2000/svg" xmlns:xlink="http://www.w3.org/1999/xlink" x="0px" y="0px"
	 viewBox="0 0 70 70" style="enable-background:new 0 0 70 70;" xml:space="preserve">
<style type="text/css">
	.st0{fill:#758C98;}
	.st1{fill:#CAE3EF;}
</style>
<g>
	<g>
		<circle class="st0" cx="35" cy="35" r="35"/>
	</g>
	<g>
		<g>
			<path class="st1" d="M54.5,53h-39c-1.6,0-2.9-1.3-2.9-2.9V24.7c0-1.6,1.3-2.9,2.9-2.9h9.2c0.7,0,1.3-0.6,1.3-1.3v-0.5
				c0-1.6,1.3-2.9,2.9-2.9h12c1.6,0,2.9,1.3,2.9,2.9v0.5c0,0.7,0.6,1.3,1.3,1.3h9.2c1.6,0,2.9,1.3,2.9,2.9v25.4
				C57.4,51.7,56.1,53,54.5,53z M15.5,23.4c-0.7,0-1.3,0.6-1.3,1.3v25.4c0,0.7,0.6,1.3,1.3,1.3h39c0.7,0,1.3-0.6,1.3-1.3V24.7
				c0-0.7-0.6-1.3-1.3-1.3h-9.2c-1.6,0-2.9-1.3-2.9-2.9v-0.5c0-0.7-0.6-1.3-1.3-1.3H29c-0.7,0-1.3,0.6-1.3,1.3v0.5
				c0,1.6-1.3,2.9-2.9,2.9H15.5z"/>
		</g>
		<g>
			<path class="st1" d="M35,47.9c-6.2,0-11.2-5-11.2-11.2c0-6.2,5-11.2,11.2-11.2s11.2,5,11.2,11.2C46.2,42.9,41.2,47.9,35,47.9z
				 M35,27.1c-5.3,0-9.6,4.3-9.6,9.6c0,5.3,4.3,9.6,9.6,9.6s9.6-4.3,9.6-9.6C44.6,31.4,40.3,27.1,35,27.1z"/>
		</g>
		<g>
			<path class="st1" d="M35,44.5c-4.3,0-7.8-3.5-7.8-7.8c0-0.5,0.4-0.8,0.8-0.8c0.5,0,0.8,0.4,0.8,0.8c0,3.4,2.8,6.2,6.2,6.2
				c0.5,0,0.8,0.4,0.8,0.8C35.8,44.1,35.5,44.5,35,44.5z"/>
		</g>
		<g>
			<path class="st1" d="M50.6,32.8c-2,0-3.7-1.7-3.7-3.7s1.7-3.7,3.7-3.7c2,0,3.7,1.7,3.7,3.7S52.6,32.8,50.6,32.8z M50.6,27.1
				c-1.1,0-2,0.9-2,2s0.9,2,2,2s2-0.9,2-2S51.7,27.1,50.6,27.1z"/>
		</g>
		<g>
			<rect x="30.2" y="20.6" class="st1" width="10" height="1.6"/>
		</g>
	</g>
</g>
</svg>
