<?xml version="1.0" encoding="utf-8"?>
<!-- Generator: Adobe Illustrator 17.0.0, SVG Export Plug-In . SVG Version: 6.00 Build 0)  -->
<!DOCTYPE svg PUBLIC "-//W3C//DTD SVG 1.1//EN" "http://www.w3.org/Graphics/SVG/1.1/DTD/svg11.dtd" [
	<!ENTITY ns_extend "http://ns.adobe.com/Extensibility/1.0/">
	<!ENTITY ns_ai "http://ns.adobe.com/AdobeIllustrator/10.0/">
	<!ENTITY ns_graphs "http://ns.adobe.com/Graphs/1.0/">
	<!ENTITY ns_vars "http://ns.adobe.com/Variables/1.0/">
	<!ENTITY ns_imrep "http://ns.adobe.com/ImageReplacement/1.0/">
	<!ENTITY ns_sfw "http://ns.adobe.com/SaveForWeb/1.0/">
	<!ENTITY ns_custom "http://ns.adobe.com/GenericCustomNamespace/1.0/">
	<!ENTITY ns_adobe_xpath "http://ns.adobe.com/XPath/1.0/">
]>
<svg version="1.1" id="Layer_1" xmlns:x="&ns_extend;" xmlns:i="&ns_ai;" xmlns:graph="&ns_graphs;"
	 xmlns="http://www.w3.org/2000/svg" xmlns:xlink="http://www.w3.org/1999/xlink" x="0px" y="0px" width="70px" height="70px"
	 viewBox="0 0 70 70" enable-background="new 0 0 70 70" xml:space="preserve">
<metadata>
	<sfw  xmlns="&ns_sfw;">
		<slices></slices>
		<sliceSourceBounds  y="-456.074" width="70" height="70" x="262.875" bottomLeftOrigin="true"></sliceSourceBounds>
	</sfw>
</metadata>
<g>
	<g>
		<circle fill="#768C98" cx="35" cy="35" r="35"/>
	</g>
	<g>
		<g>
			<g>
				<path fill="#CAE4EF" d="M35.727,41.645c-0.295,1.059-0.984,1.945-1.945,2.49l-13.469,7.619c-0.68,0.386-1.46,0.567-2.239,0.53
					c-1.423-0.068-2.694-0.855-3.39-2.088l-2.384-4.215c-0.544-0.953-0.681-2.073-0.386-3.133c0.296-1.066,0.984-1.951,1.945-2.496
					l13.469-7.62c0.689-0.386,1.46-0.568,2.239-0.53c1.399,0.067,2.648,0.832,3.359,2.035l-3.267,1.846
					c-0.099-0.114-0.235-0.143-0.273-0.143c-0.076,0-0.151,0.015-0.212,0.053l-13.469,7.619c-0.114,0.068-0.165,0.159-0.182,0.234
					c-0.022,0.068-0.029,0.174,0.038,0.289l2.377,4.214c0.097,0.173,0.272,0.197,0.325,0.197c0.068,0,0.143-0.016,0.204-0.053
					l13.469-7.62c0.112-0.067,0.166-0.158,0.182-0.234c0.015-0.052,0.015-0.136-0.016-0.226l3.269-1.846
					C35.885,39.512,36.014,40.601,35.727,41.645z"/>
			</g>
		</g>
		<g>
			<g>
				<path fill="#CAE4EF" d="M57.027,30.984l-13.469,7.62c-0.681,0.385-1.453,0.567-2.24,0.53c-1.399-0.069-2.648-0.833-3.352-2.036
					l3.269-1.846c0.099,0.114,0.228,0.136,0.272,0.143c0.077,0,0.145-0.015,0.213-0.053l13.467-7.619
					c0.182-0.106,0.25-0.34,0.145-0.53l-2.384-4.207c-0.099-0.174-0.264-0.197-0.318-0.197c-0.076-0.007-0.143,0.016-0.204,0.053
					l-13.476,7.62c-0.114,0.068-0.16,0.159-0.181,0.235c-0.015,0.052-0.015,0.135,0.014,0.225l-3.26,1.847
					c-0.516-0.946-0.652-2.036-0.364-3.079c0.294-1.059,0.992-1.944,1.952-2.49l13.468-7.62c0.681-0.385,1.452-0.575,2.24-0.529
					c1.421,0.067,2.685,0.847,3.39,2.087l2.382,4.215C59.712,27.337,59.009,29.865,57.027,30.984z"/>
			</g>
		</g>
		<g>
			<g>
				<path fill="#CAE4EF" d="M29.217,41.187c-0.287,0.163-0.611,0.24-0.941,0.223c-0.597-0.031-1.129-0.359-1.425-0.88
					c-0.47-0.832-0.176-1.893,0.655-2.365l14.167-8.016c0.287-0.163,0.613-0.24,0.941-0.223c0.6,0.03,1.132,0.359,1.424,0.88
					c0.471,0.833,0.177,1.892-0.655,2.365l-14.165,8.016H29.217z"/>
			</g>
		</g>
	</g>
</g>
</svg>
