<?xml version="1.0" encoding="utf-8"?>
<!-- Generator: Adobe Illustrator 21.1.0, SVG Export Plug-In . SVG Version: 6.00 Build 0)  -->
<svg version="1.1" id="Layer_1" xmlns="http://www.w3.org/2000/svg" xmlns:xlink="http://www.w3.org/1999/xlink" x="0px" y="0px"
	 viewBox="0 0 70 70" style="enable-background:new 0 0 70 70;" xml:space="preserve">
<style type="text/css">
	.st0{fill:#758C98;}
	.st1{fill:#CAE3EF;}
</style>
<g>
	<g>
		<circle class="st0" cx="35" cy="35" r="35"/>
	</g>
	<g>
		<g>
			<path class="st1" d="M43.9,23.7v-6.4c0-4.9-4-8.9-8.9-8.9s-8.9,4-8.9,8.9v6.4H43.9z"/>
			<path class="st1" d="M26.1,27v8c0,4.9,4,8.9,8.9,8.9s8.9-4,8.9-8.9v-8H26.1z"/>
		</g>
		<path class="st1" d="M48.8,27.1c-0.6,0-1,0.4-1,1v6.5c0,7-5.7,12.8-12.8,12.8c-7,0-12.8-5.7-12.8-12.8v-6.5c0-0.6-0.4-1-1-1
			s-1,0.4-1,1v6.5c0,7.8,6.1,14.2,13.8,14.7v7h-7.7c-0.6,0-1,0.4-1,1s0.4,1,1,1h17.4c0.6,0,1-0.4,1-1s-0.4-1-1-1H36v-7
			c7.7-0.5,13.8-6.9,13.8-14.7v-6.5C49.8,27.5,49.3,27.1,48.8,27.1z"/>
	</g>
</g>
</svg>
