<?xml version="1.0" encoding="utf-8"?>
<!-- Generator: Adobe Illustrator 17.0.0, SVG Export Plug-In . SVG Version: 6.00 Build 0)  -->
<!DOCTYPE svg PUBLIC "-//W3C//DTD SVG 1.1//EN" "http://www.w3.org/Graphics/SVG/1.1/DTD/svg11.dtd" [
	<!ENTITY ns_extend "http://ns.adobe.com/Extensibility/1.0/">
	<!ENTITY ns_ai "http://ns.adobe.com/AdobeIllustrator/10.0/">
	<!ENTITY ns_graphs "http://ns.adobe.com/Graphs/1.0/">
	<!ENTITY ns_vars "http://ns.adobe.com/Variables/1.0/">
	<!ENTITY ns_imrep "http://ns.adobe.com/ImageReplacement/1.0/">
	<!ENTITY ns_sfw "http://ns.adobe.com/SaveForWeb/1.0/">
	<!ENTITY ns_custom "http://ns.adobe.com/GenericCustomNamespace/1.0/">
	<!ENTITY ns_adobe_xpath "http://ns.adobe.com/XPath/1.0/">
]>
<svg version="1.1" id="Layer_1" xmlns:x="&ns_extend;" xmlns:i="&ns_ai;" xmlns:graph="&ns_graphs;"
	 xmlns="http://www.w3.org/2000/svg" xmlns:xlink="http://www.w3.org/1999/xlink" x="0px" y="0px" width="15px" height="15px"
	 viewBox="0 0 15 15" enable-background="new 0 0 15 15" xml:space="preserve">
<metadata>
	<sfw  xmlns="&ns_sfw;">
		<slices></slices>
		<sliceSourceBounds  height="13.786" width="13.786" y="-427.747" x="290.482" bottomLeftOrigin="true"></sliceSourceBounds>
	</sfw>
</metadata>
<g>
	<path fill-rule="evenodd" clip-rule="evenodd" fill="#758B96" d="M13.008,14.387c-0.378,0-0.758-0.009-1.136,0.004
		c-0.182,0.006-0.233-0.051-0.237-0.232c-0.041-2.131-0.642-4.095-1.836-5.859C7.988,5.622,5.47,4.02,2.279,3.484
		C1.791,3.402,1.297,3.366,0.802,3.364C0.648,3.364,0.607,3.307,0.608,3.16c0.006-0.788,0.007-1.577,0.001-2.365
		c-0.001-0.161,0.06-0.19,0.204-0.187c6.17,0.099,11.462,4.257,13.084,10.122c0.312,1.129,0.47,2.281,0.495,3.452
		c0.003,0.162-0.038,0.214-0.202,0.21C13.797,14.38,13.402,14.387,13.008,14.387z"/>
	<path fill-rule="evenodd" clip-rule="evenodd" fill="#758B96" d="M8.403,14.389c-0.371,0-0.742-0.009-1.113,0.004
		c-0.174,0.006-0.215-0.047-0.221-0.219c-0.111-2.879-2.076-5.318-4.863-6.042C1.74,8.01,1.266,7.946,0.786,7.934
		c-0.127-0.003-0.179-0.03-0.178-0.166c0.005-0.781,0.008-1.562-0.001-2.342C0.605,5.251,0.7,5.267,0.812,5.269
		c1.415,0.021,2.758,0.351,4,1.023c2.771,1.497,4.382,3.822,4.854,6.934c0.05,0.328,0.07,0.66,0.069,0.994
		c0,0.133-0.044,0.173-0.173,0.171C9.176,14.384,8.789,14.388,8.403,14.389L8.403,14.389z"/>
	<path fill-rule="evenodd" clip-rule="evenodd" fill="#758B96" d="M0.611,12.516c-0.003-1.048,0.833-1.893,1.875-1.897
		c1.038-0.003,1.893,0.844,1.897,1.882c0.004,1.043-0.837,1.888-1.882,1.889C1.446,14.391,0.614,13.566,0.611,12.516z"/>
</g>
</svg>
