<?xml version="1.0" encoding="utf-8"?>
<!-- Generator: Adobe Illustrator 17.0.0, SVG Export Plug-In . SVG Version: 6.00 Build 0)  -->
<!DOCTYPE svg PUBLIC "-//W3C//DTD SVG 1.1//EN" "http://www.w3.org/Graphics/SVG/1.1/DTD/svg11.dtd" [
	<!ENTITY ns_extend "http://ns.adobe.com/Extensibility/1.0/">
	<!ENTITY ns_ai "http://ns.adobe.com/AdobeIllustrator/10.0/">
	<!ENTITY ns_graphs "http://ns.adobe.com/Graphs/1.0/">
	<!ENTITY ns_vars "http://ns.adobe.com/Variables/1.0/">
	<!ENTITY ns_imrep "http://ns.adobe.com/ImageReplacement/1.0/">
	<!ENTITY ns_sfw "http://ns.adobe.com/SaveForWeb/1.0/">
	<!ENTITY ns_custom "http://ns.adobe.com/GenericCustomNamespace/1.0/">
	<!ENTITY ns_adobe_xpath "http://ns.adobe.com/XPath/1.0/">
]>
<svg version="1.1" id="Layer_1" xmlns:x="&ns_extend;" xmlns:i="&ns_ai;" xmlns:graph="&ns_graphs;"
	 xmlns="http://www.w3.org/2000/svg" xmlns:xlink="http://www.w3.org/1999/xlink" x="0px" y="0px" width="16.612px"
	 height="16.469px" viewBox="0 0 16.612 16.469" enable-background="new 0 0 16.612 16.469" xml:space="preserve">
<metadata>
	<sfw  xmlns="&ns_sfw;">
		<slices></slices>
		<sliceSourceBounds  width="16.429" height="16.428" y="-429.368" x="314.502" bottomLeftOrigin="true"></sliceSourceBounds>
	</sfw>
</metadata>
<g>
	<path fill-rule="evenodd" clip-rule="evenodd" fill="#010202" d="M14.906,16.467c-0.451,0-0.903-0.011-1.354,0.005
		c-0.217,0.008-0.278-0.061-0.282-0.277c-0.049-2.539-0.765-4.88-2.187-6.982c-2.159-3.191-5.16-5.101-8.962-5.74
		c-0.582-0.098-1.17-0.14-1.76-0.142C0.177,3.33,0.128,3.263,0.129,3.086C0.137,2.147,0.138,1.207,0.13,0.268
		C0.128,0.076,0.201,0.042,0.373,0.045c7.353,0.118,13.659,5.073,15.592,12.062c0.372,1.345,0.56,2.718,0.59,4.113
		c0.004,0.193-0.045,0.255-0.241,0.25C15.846,16.458,15.376,16.466,14.906,16.467z"/>
	<path fill-rule="evenodd" clip-rule="evenodd" fill="#010202" d="M9.418,16.468c-0.442,0-0.885-0.011-1.326,0.005
		c-0.207,0.007-0.256-0.056-0.264-0.261c-0.132-3.431-2.474-6.337-5.795-7.201C1.478,8.867,0.912,8.79,0.341,8.776
		C0.19,8.772,0.128,8.74,0.129,8.579c0.006-0.93,0.009-1.861-0.001-2.791C0.125,5.579,0.239,5.598,0.372,5.6
		c1.687,0.025,3.286,0.419,4.767,1.219c3.303,1.784,5.222,4.554,5.785,8.263c0.059,0.391,0.083,0.787,0.083,1.184
		c0,0.159-0.052,0.206-0.206,0.204c-0.461-0.008-0.922-0.003-1.382-0.003V16.468z"/>
	<path fill-rule="evenodd" clip-rule="evenodd" fill="#010202" d="M0.133,14.236c-0.004-1.248,0.993-2.256,2.234-2.261
		c1.237-0.004,2.256,1.006,2.261,2.242c0.005,1.243-0.998,2.25-2.242,2.251C1.128,16.471,0.136,15.488,0.133,14.236z"/>
</g>
</svg>
