<?xml version="1.0" encoding="utf-8"?>
<!-- Generator: Adobe Illustrator 16.0.0, SVG Export Plug-In . SVG Version: 6.00 Build 0)  -->
<!DOCTYPE svg PUBLIC "-//W3C//DTD SVG 1.1//EN" "http://www.w3.org/Graphics/SVG/1.1/DTD/svg11.dtd">
<svg version="1.1" id="Layer_1" xmlns="http://www.w3.org/2000/svg" xmlns:xlink="http://www.w3.org/1999/xlink" x="0px" y="0px"
	 width="16.385px" height="14.337px" viewBox="0 0 16.385 14.337" enable-background="new 0 0 16.385 14.337" xml:space="preserve">
<path fill="#010101" d="M0.867,14.337c0,0-0.232-3.028,0.621-3.807c0.855-0.775,2.253-1.164,3.029-1.397
	C5.295,8.9,5.605,8.667,5.682,8.59C5.761,8.512,6.46,8.278,6.46,8.045V7.113L5.994,6.026c0,0-0.078,0.155-0.233-0.078
	C5.605,5.716,5.527,5.249,5.372,5.018C5.217,4.782,5.061,4.161,5.217,4.084c0.155-0.076,0.388-0.076,0.388-0.076
	s-0.388-1.011-0.31-1.633c0.077-0.62,0.232-1.165,0.543-1.476c0.311-0.31,0.544-0.232,0.544-0.232S6.692,0.2,7.236,0.045
	c0.543-0.154,2.719,0.077,3.262,0.854c0.543,0.778,0.932,1.709,0.621,3.108c0.078,0,0.39,0.076,0.232,0.543
	c-0.154,0.467-0.232,0.854-0.232,1.01c0,0.155-0.154,0.466-0.311,0.466c-0.154,0-0.232-0.078-0.232-0.078s0,0.466-0.155,0.854
	c-0.156,0.389-0.234,0.545-0.234,0.545v0.543c0,0,0.622,0.467,0.778,0.621c0.154,0.155,2.174,1.01,2.484,1.088
	c0.312,0.078,1.166,0.388,1.477,0.776s0.621,1.398,0.621,1.632c0,0.231-0.077,2.329-0.077,2.329H0.867z"/>
</svg>
