<?xml version="1.0" encoding="utf-8"?>
<!-- Generator: Adobe Illustrator 17.0.0, SVG Export Plug-In . SVG Version: 6.00 Build 0)  -->
<!DOCTYPE svg PUBLIC "-//W3C//DTD SVG 1.1//EN" "http://www.w3.org/Graphics/SVG/1.1/DTD/svg11.dtd" [
	<!ENTITY ns_extend "http://ns.adobe.com/Extensibility/1.0/">
	<!ENTITY ns_ai "http://ns.adobe.com/AdobeIllustrator/10.0/">
	<!ENTITY ns_graphs "http://ns.adobe.com/Graphs/1.0/">
	<!ENTITY ns_vars "http://ns.adobe.com/Variables/1.0/">
	<!ENTITY ns_imrep "http://ns.adobe.com/ImageReplacement/1.0/">
	<!ENTITY ns_sfw "http://ns.adobe.com/SaveForWeb/1.0/">
	<!ENTITY ns_custom "http://ns.adobe.com/GenericCustomNamespace/1.0/">
	<!ENTITY ns_adobe_xpath "http://ns.adobe.com/XPath/1.0/">
]>
<svg version="1.1" id="Layer_1" xmlns:x="&ns_extend;" xmlns:i="&ns_ai;" xmlns:graph="&ns_graphs;"
	 xmlns="http://www.w3.org/2000/svg" xmlns:xlink="http://www.w3.org/1999/xlink" x="0px" y="0px" width="18.917px"
	 height="18.323px" viewBox="0 0 18.917 18.323" enable-background="new 0 0 18.917 18.323" xml:space="preserve">
<metadata>
	<sfw  xmlns="&ns_sfw;">
		<slices></slices>
		<sliceSourceBounds  height="17.937" width="17.937" y="-430.057" x="288.073" bottomLeftOrigin="true"></sliceSourceBounds>
	</sfw>
</metadata>
<g>
	<path fill="#F9B03D" d="M9.433,18.13H9.331c-0.248,0-0.466-0.166-0.531-0.405l-0.34-1.247c-0.346-0.053-0.693-0.133-1.038-0.238
		l-0.826,1.018c-0.154,0.19-0.416,0.255-0.641,0.16l-0.094-0.04c-0.228-0.096-0.364-0.334-0.331-0.579l0.176-1.323
		c-0.262-0.162-0.518-0.345-0.768-0.548l-1.185,0.651c-0.214,0.118-0.481,0.08-0.654-0.093l-0.072-0.072
		c-0.175-0.175-0.211-0.446-0.088-0.662l0.68-1.19c-0.193-0.263-0.37-0.544-0.532-0.842L1.71,12.862
		c-0.243,0.025-0.474-0.113-0.566-0.339l-0.039-0.094c-0.094-0.23-0.022-0.494,0.175-0.645l1.109-0.848
		c-0.069-0.285-0.121-0.579-0.155-0.879L0.886,9.664C0.652,9.596,0.49,9.38,0.49,9.136V9.034c0-0.248,0.166-0.466,0.405-0.531
		l1.355-0.37c0.046-0.319,0.113-0.637,0.201-0.951L1.363,6.299c-0.19-0.154-0.255-0.415-0.16-0.641l0.04-0.094
		C1.338,5.336,1.576,5.2,1.821,5.233l1.383,0.184C3.357,5.159,3.526,4.91,3.71,4.672L3.042,3.455
		c-0.118-0.214-0.08-0.481,0.093-0.654l0.072-0.072c0.176-0.175,0.447-0.211,0.662-0.089l1.192,0.681
		c0.265-0.204,0.545-0.39,0.838-0.557L5.758,1.413C5.732,1.17,5.871,0.939,6.097,0.846l0.094-0.038
		c0.23-0.093,0.494-0.022,0.645,0.175l0.81,1.058c0.267-0.072,0.537-0.129,0.807-0.17L8.8,0.598
		c0.065-0.239,0.283-0.405,0.531-0.405h0.102c0.245,0,0.46,0.162,0.528,0.396l0.362,1.245c0.367,0.036,0.723,0.097,1.065,0.182
		l0.786-1.003c0.153-0.195,0.418-0.264,0.647-0.168l0.094,0.04c0.225,0.095,0.361,0.327,0.333,0.57l-0.144,1.244
		c0.308,0.167,0.6,0.353,0.872,0.555l1.073-0.613c0.215-0.123,0.486-0.087,0.662,0.089l0.072,0.072
		c0.173,0.173,0.211,0.44,0.093,0.654l-0.586,1.067c0.243,0.298,0.462,0.614,0.654,0.943L17.14,5.32
		c0.247-0.031,0.482,0.109,0.576,0.338l0.039,0.094c0.093,0.227,0.024,0.487-0.168,0.639l-0.933,0.739
		c0.1,0.348,0.175,0.702,0.223,1.06l1.145,0.312c0.239,0.065,0.405,0.283,0.405,0.531v0.102c0,0.245-0.162,0.46-0.396,0.528
		l-1.137,0.331c-0.043,0.393-0.116,0.778-0.219,1.152l0.932,0.73c0.196,0.153,0.264,0.419,0.167,0.647l-0.04,0.094
		c-0.095,0.225-0.326,0.36-0.57,0.332l-1.182-0.137c-0.178,0.313-0.378,0.613-0.598,0.896l0.595,1.042
		c0.123,0.215,0.087,0.487-0.089,0.662l-0.072,0.072c-0.173,0.173-0.44,0.211-0.654,0.093L14.1,14.994
		c-0.298,0.233-0.615,0.443-0.948,0.628l0.148,1.221c0.03,0.246-0.109,0.482-0.339,0.576l-0.094,0.038
		c-0.227,0.092-0.487,0.024-0.638-0.168l-0.774-0.977c-0.367,0.096-0.748,0.164-1.138,0.202l-0.355,1.219
		C9.893,17.968,9.677,18.13,9.433,18.13z"/>
</g>
</svg>
