<?xml version="1.0" encoding="UTF-8"?>
<svg xmlns="http://www.w3.org/2000/svg" xmlns:xlink="http://www.w3.org/1999/xlink" version="1.2" >
<font id="Publico Headline Medium">
<font-face  font-family="Publico Headline" units-per-em="1000" ascent="801" descent="-199" font-style="normal" font-weight="500" font-stretch="normal" cap-height="693" x-height="515" underline-position="-75" underline-thickness="50" />
<missing-glyph  horiz-adv-x="500" d="" />
<glyph glyph-name="NULL" d="" />
<glyph glyph-name="CR" unicode="&#xd;" horiz-adv-x="250" d="" />
<glyph glyph-name="space" unicode="&#x20;" horiz-adv-x="214" d="" />
<glyph glyph-name="exclam" unicode="&#x21;" horiz-adv-x="275" d="M138 -6 C178 -6 214 28 214 67 C214 110 178 141 138 141 C98 141 64 110 64 67 C64 28 98 -6 138 -6 L138 -6 Z M125 206 L153 206 L218 591 C234 668 192 702 138 702 C85 702 44 668 60 591 L125 206 Z " />
<glyph glyph-name="quotedbl" unicode="&#x22;" horiz-adv-x="363" d="M90 460 L109 460 L156 617 C176 682 137 706 99 706 C60 706 20 681 41 617 L90 460 Z M254 460 L273 460 L322 617 C343 681 303 706 264 706 C225 706 186 681 207 617 L254 460 Z " />
<glyph glyph-name="numbersign" unicode="&#x23;" horiz-adv-x="523" d="M86 0 L134 0 L170 187 L291 187 L254 0 L302 0 L338 187 L433 187 L449 280 L357 280 L384 417 L478 417 L495 510 L403 510 L439 693 L392 693 L355 510 L235 510 L271 693 L224 693 L187 510 L94 510 L78 417 L168 417 L141 280 L48 280 L31 187 L123 187 L86 0 Z M189 280 L216 417 L336 417 L309 280 L189 280 Z " />
<glyph glyph-name="dollar" unicode="&#x24;" horiz-adv-x="510" d="M11 109 C11 40 75 -8 227 -12 L227 -110 L267 -110 L267 -12 C395 -4 483 84 483 194 C483 297 429 356 273 422 L273 669 C320 667 331 655 335 620 C341 557 360 533 406 533 C443 533 470 557 470 592 C470 644 414 700 273 703 L273 766 L233 766 L233 701 C114 691 29 612 29 507 C29 412 79 347 227 289 L227 22 C158 25 146 41 143 81 C137 149 115 167 72 167 C39 167 11 148 11 109 L11 109 Z M368 143 C368 76 336 30 267 23 L267 272 C343 236 368 197 368 143 L368 143 Z M136 561 C136 617 170 659 233 667 L233 440 C159 475 136 507 136 561 L136 561 Z " />
<glyph glyph-name="percent" unicode="&#x25;" horiz-adv-x="756" d="M197 346 C273 346 371 402 371 527 C371 647 279 704 201 704 C130 704 27 649 27 519 C27 401 115 346 197 346 L197 346 Z M199 376 C153 376 133 413 133 528 C133 642 156 674 199 674 C244 674 266 638 266 519 C266 411 246 376 199 376 L199 376 Z M554 -13 C631 -13 729 44 729 169 C729 288 636 345 558 345 C487 345 385 290 385 161 C385 42 473 -13 554 -13 L554 -13 Z M557 17 C510 17 490 54 490 170 C490 284 513 315 557 315 C601 315 623 279 623 160 C623 53 603 17 557 17 L557 17 Z M82 -50 L137 -50 L655 714 L600 714 L82 -50 Z " />
<glyph glyph-name="ampersand" unicode="&#x26;" horiz-adv-x="709" d="M269 -13 C342 -13 399 14 442 47 C455 32 472 13 485 0 L685 0 L685 24 L654 32 C636 36 622 49 608 64 C587 84 556 119 532 147 C559 191 578 235 593 265 C620 314 636 336 667 345 L694 352 L694 376 L480 376 L480 352 L510 345 C532 339 545 330 545 304 C545 276 533 226 505 178 C447 249 386 331 337 401 C429 442 508 490 508 569 C508 655 430 705 334 705 C234 705 140 630 140 523 C140 472 159 427 193 376 C103 335 23 278 23 178 C23 82 87 -13 269 -13 L269 -13 Z M304 36 C215 36 161 103 161 206 C161 268 177 314 211 348 C269 258 344 159 416 75 C392 54 354 36 304 36 L304 36 Z M320 425 C282 477 259 525 259 580 C259 634 287 669 334 669 C376 669 407 637 407 566 C407 496 376 460 320 425 L320 425 Z " />
<glyph glyph-name="quotesingle" unicode="&#x27;" horiz-adv-x="196" d="M88 460 L107 460 L155 617 C176 681 137 706 98 706 C59 706 19 681 40 617 L88 460 Z " />
<glyph glyph-name="parenleft" unicode="&#x28;" horiz-adv-x="317" d="M286 -141 L307 -122 C215 -23 150 107 150 322 C150 486 215 635 307 726 L286 745 C177 665 39 504 39 302 C39 81 177 -61 286 -141 L286 -141 Z " />
<glyph glyph-name="parenright" unicode="&#x29;" horiz-adv-x="317" d="M31 -141 C140 -61 279 93 279 302 C279 515 140 665 31 745 L11 726 C102 635 167 493 167 297 C167 114 102 -23 11 -122 L31 -141 Z " />
<glyph glyph-name="asterisk" unicode="&#x2a;" horiz-adv-x="358" d="M84 419 C106 404 138 409 150 450 L177 538 L204 450 C216 408 249 405 270 419 C291 435 300 468 262 492 L187 544 L278 544 C322 542 333 571 325 596 C318 621 289 640 255 612 L184 557 L213 642 C229 686 204 705 178 705 C152 705 126 686 142 642 L171 557 L100 612 C65 640 37 622 30 598 C21 573 33 543 77 545 L168 544 L92 493 C54 468 63 435 84 419 L84 419 Z " />
<glyph glyph-name="plus" unicode="&#x2b;" horiz-adv-x="464" d="M202 131 L262 131 L262 313 L428 313 L428 364 L262 364 L262 546 L202 546 L202 364 L36 364 L36 313 L202 313 L202 131 Z " />
<glyph glyph-name="comma" unicode="&#x2c;" horiz-adv-x="228" d="M30 -116 C136 -92 193 -33 193 48 C193 108 153 141 109 141 C68 141 35 115 35 75 C35 36 61 11 97 11 C110 11 121 16 125 20 C126 -25 94 -64 23 -96 L30 -116 Z " />
<glyph glyph-name="hyphen" unicode="&#x2d;" horiz-adv-x="273" d="M24 245 L238 245 L249 334 L34 334 L24 245 Z " />
<glyph glyph-name="period" unicode="&#x2e;" horiz-adv-x="220" d="M110 -6 C150 -6 185 27 185 67 C185 109 150 141 110 141 C69 141 36 109 36 67 C36 27 69 -6 110 -6 L110 -6 Z " />
<glyph glyph-name="slash" unicode="&#x2f;" horiz-adv-x="378" d="M0 -130 L52 -130 L360 734 L308 734 L0 -130 Z " />
<glyph glyph-name="zero" unicode="0" horiz-adv-x="658" d="M326 -12 C462 -12 625 94 625 352 C625 599 470 705 332 705 C206 705 34 602 34 337 C34 91 182 -12 326 -12 L326 -12 Z M329 25 C234 25 190 110 190 353 C190 596 239 668 329 668 C423 668 469 588 469 335 C469 106 426 25 329 25 L329 25 Z " />
<glyph glyph-name="one" unicode="1" horiz-adv-x="373" d="M26 0 L348 0 L348 24 L303 32 C272 38 265 43 265 100 L265 696 L243 701 C193 643 121 609 26 589 L26 564 L114 560 L114 100 C114 43 105 38 74 32 L26 24 L26 0 Z " />
<glyph glyph-name="two" unicode="2" horiz-adv-x="521" d="M15 0 L476 0 L491 190 L467 190 C434 120 427 112 375 112 L124 112 L124 116 C316 235 489 361 489 505 C489 639 388 705 248 705 C108 705 31 651 31 591 C31 556 52 530 95 530 C143 530 167 554 171 619 C174 654 185 668 234 668 C292 668 339 633 339 520 C339 407 297 347 225 266 C171 205 101 139 15 69 L15 0 Z " />
<glyph glyph-name="three" unicode="3" horiz-adv-x="523" d="M216 -12 C403 -12 491 82 491 191 C491 298 410 355 290 366 L290 369 C413 396 465 464 465 539 C465 638 382 705 239 705 C128 705 36 666 36 597 C36 565 56 540 99 540 C147 540 164 564 170 625 C174 661 187 668 221 668 C287 668 321 624 321 527 C321 422 284 380 195 380 L153 380 L153 341 L204 341 C299 341 336 301 336 195 C336 95 305 25 218 25 C161 25 159 36 147 86 C138 142 115 159 76 159 C33 159 11 134 11 100 C11 29 83 -12 216 -12 L216 -12 Z " />
<glyph glyph-name="four" unicode="4" horiz-adv-x="570" d="M225 0 L527 0 L527 24 L485 32 C454 38 447 43 447 100 L447 198 L541 198 L552 263 L447 263 L447 693 L359 693 L15 246 L15 198 L302 198 L302 100 C302 43 294 38 264 32 L225 24 L225 0 Z M81 263 L81 266 L299 549 L302 549 L302 263 L81 263 Z " />
<glyph glyph-name="five" unicode="5" horiz-adv-x="520" d="M216 -12 C374 -12 489 87 489 227 C489 377 378 449 237 449 C181 449 145 440 125 433 L142 583 L453 583 L472 746 L447 746 C424 699 418 693 388 693 L110 693 L69 321 L79 314 C102 322 141 330 192 330 C290 330 362 290 362 181 C362 78 315 25 224 25 C177 25 170 34 164 75 C156 139 134 155 90 155 C47 155 26 128 26 96 C26 29 99 -12 216 -12 L216 -12 Z " />
<glyph glyph-name="six" unicode="6" horiz-adv-x="580" d="M299 -12 C448 -12 552 77 552 213 C552 347 464 418 339 418 C269 418 218 394 184 370 C193 598 276 668 357 668 C389 668 396 658 402 627 C410 575 428 554 475 554 C518 554 538 578 538 613 C538 673 471 705 374 705 C210 705 28 591 28 305 C28 91 152 -12 299 -12 L299 -12 Z M301 25 C198 25 182 135 182 306 C182 322 182 322 183 336 C212 355 245 365 288 365 C364 365 402 318 402 202 C402 83 382 25 301 25 L301 25 Z " />
<glyph glyph-name="seven" unicode="7" horiz-adv-x="497" d="M106 0 L263 0 C293 252 352 440 487 630 L487 693 L36 693 L19 507 L44 507 C70 573 75 582 115 582 L417 582 C287 431 162 251 106 0 L106 0 Z " />
<glyph glyph-name="eight" unicode="8" horiz-adv-x="554" d="M276 -13 C422 -13 528 82 528 192 C528 280 471 334 370 387 L370 391 C438 428 502 479 502 546 C502 654 395 705 285 705 C162 705 56 630 56 516 C56 442 100 381 178 338 L178 335 C92 294 26 237 26 162 C26 46 141 -13 276 -13 L276 -13 Z M283 26 C189 26 139 78 139 173 C139 248 176 290 207 321 C336 258 415 220 415 144 C415 69 362 26 283 26 L283 26 Z M339 406 C238 452 164 497 164 565 C164 628 208 667 279 667 C353 667 395 626 395 542 C395 475 367 436 339 406 L339 406 Z " />
<glyph glyph-name="nine" unicode="9" horiz-adv-x="580" d="M213 -12 C396 -12 551 107 551 388 C551 602 431 705 281 705 C133 705 28 615 28 477 C28 345 117 273 242 273 C309 273 361 298 396 322 C389 94 327 25 228 25 C196 25 189 36 182 66 C172 119 153 140 109 140 C64 140 45 117 45 81 C45 20 113 -12 213 -12 L213 -12 Z M290 327 C215 327 178 375 178 488 C178 609 200 668 279 668 C382 668 397 558 397 387 L397 356 C368 338 332 327 290 327 L290 327 Z " />
<glyph glyph-name="colon" unicode="&#x3a;" horiz-adv-x="227" d="M114 -6 C154 -6 188 27 188 67 C188 108 154 141 114 141 C73 141 39 108 39 67 C39 27 73 -6 114 -6 L114 -6 Z M114 281 C154 281 188 314 188 354 C188 395 154 428 114 428 C73 428 39 395 39 354 C39 314 73 281 114 281 L114 281 Z " />
<glyph glyph-name="semicolon" unicode="&#x3b;" horiz-adv-x="229" d="M32 -116 C138 -92 195 -33 195 48 C195 108 155 141 111 141 C71 141 37 115 37 75 C37 36 63 11 99 11 C113 11 123 16 127 20 C128 -25 97 -64 25 -96 L32 -116 Z M114 281 C154 281 188 314 188 354 C188 395 154 428 114 428 C73 428 39 395 39 354 C39 314 73 281 114 281 L114 281 Z " />
<glyph glyph-name="less" unicode="&#x3c;" horiz-adv-x="464" d="M426 129 L426 188 L97 330 L426 473 L426 531 L34 354 L34 305 L426 129 Z " />
<glyph glyph-name="equal" unicode="&#x3d;" horiz-adv-x="505" d="M36 238 L469 238 L469 289 L36 289 L36 238 Z M36 388 L469 388 L469 439 L36 439 L36 388 Z " />
<glyph glyph-name="greater" unicode="&#x3e;" horiz-adv-x="464" d="M430 305 L430 354 L38 531 L38 473 L367 330 L38 188 L38 129 L430 305 Z " />
<glyph glyph-name="question" unicode="&#x3f;" horiz-adv-x="456" d="M149 206 L196 206 L196 293 C325 326 421 396 421 517 C421 637 339 705 199 705 C101 705 26 670 26 608 C26 579 44 551 85 551 C131 551 152 574 159 625 C164 659 171 667 202 667 C250 667 293 641 293 548 C293 444 218 405 149 380 L149 206 Z M172 -6 C212 -6 248 28 248 67 C248 110 212 141 172 141 C131 141 98 110 98 67 C98 28 131 -6 172 -6 L172 -6 Z " />
<glyph glyph-name="at" unicode="&#x40;" horiz-adv-x="864" d="M409 -141 C512 -141 620 -107 667 -77 L667 -46 C600 -77 522 -98 433 -98 C213 -98 113 39 113 237 C113 470 273 629 478 629 C667 629 765 503 765 325 C765 154 691 80 628 80 C586 80 580 115 592 182 L627 372 C643 450 654 482 654 482 L640 489 L597 456 L594 456 C564 477 531 493 481 493 C363 493 219 357 219 167 C219 81 262 37 324 37 C382 37 435 82 471 139 L475 139 C472 82 491 35 577 35 C690 35 836 125 836 357 C836 539 695 664 479 664 C238 664 28 463 28 212 C28 -12 187 -141 409 -141 L409 -141 Z M380 108 C352 108 338 126 338 179 C338 319 408 460 474 460 C501 460 513 446 519 428 L474 190 C444 144 413 108 380 108 L380 108 Z " />
<glyph glyph-name="A" unicode="A" horiz-adv-x="669" d="M-3 0 L199 0 L199 24 L169 31 C141 38 130 47 130 73 C130 88 134 111 144 139 L174 230 L381 230 L413 139 C423 111 431 85 431 68 C431 49 422 38 396 31 L368 24 L368 0 L669 0 L669 24 L645 30 C618 38 606 54 579 126 L372 693 L290 693 L91 133 C60 48 53 39 23 31 L-3 24 L-3 0 Z M273 529 L278 529 L368 269 L187 269 L273 529 Z " />
<glyph glyph-name="B" unicode="B" horiz-adv-x="635" d="M20 0 L347 0 C513 0 611 68 611 195 C611 302 537 352 400 366 L400 371 C513 389 576 438 576 529 C576 645 487 693 319 693 L20 693 L20 669 L59 661 C86 655 95 650 95 593 L95 100 C95 43 86 37 59 32 L20 24 L20 0 Z M331 40 C255 40 244 48 244 110 L244 342 L320 342 C416 342 453 300 453 189 C453 80 408 40 331 40 L331 40 Z M244 381 L244 647 C257 650 283 653 310 653 C391 653 428 621 428 511 C428 424 392 381 309 381 L244 381 Z " />
<glyph glyph-name="C" unicode="C" horiz-adv-x="618" d="M358 -12 C455 -12 532 10 578 30 L589 222 L564 222 C541 164 520 123 493 83 C466 45 439 27 368 27 C248 27 190 107 190 360 C190 582 247 666 374 666 C432 666 459 651 482 618 C505 585 532 535 556 478 L584 478 L573 681 C531 694 462 705 385 705 C195 705 30 603 30 341 C30 98 170 -12 358 -12 L358 -12 Z " />
<glyph glyph-name="D" unicode="D" horiz-adv-x="711" d="M20 0 L335 0 C544 0 681 126 681 356 C681 600 540 693 340 693 L20 693 L20 669 L59 661 C86 655 95 650 95 593 L95 100 C95 43 86 38 59 32 L20 24 L20 0 Z M326 39 C255 39 245 52 245 131 L245 645 C258 650 286 654 324 654 C464 654 524 565 524 335 C524 149 473 39 326 39 L326 39 Z " />
<glyph glyph-name="E" unicode="E" horiz-adv-x="603" d="M20 0 L567 0 L581 226 L553 226 C529 165 508 119 491 95 C459 49 444 40 359 40 C248 40 245 50 245 147 L245 340 L284 340 C363 340 378 336 391 309 C404 282 411 261 419 229 L446 229 L446 488 L419 488 C411 455 404 434 391 410 C378 386 357 379 284 379 L245 379 L245 644 C262 648 290 653 350 653 C427 653 447 648 478 603 C491 583 507 555 531 502 L557 502 L547 693 L20 693 L20 669 L59 661 C86 655 95 650 95 593 L95 100 C95 43 86 38 59 32 L20 24 L20 0 Z " />
<glyph glyph-name="F" unicode="F" horiz-adv-x="575" d="M20 0 L332 0 L332 24 L282 33 C250 39 245 43 245 100 L245 329 L270 329 C356 329 368 325 382 299 C395 272 404 248 413 213 L439 213 L439 479 L413 479 C404 444 395 421 382 398 C368 376 353 368 270 368 L245 368 L245 645 C263 649 293 653 343 653 C422 653 439 647 468 603 C484 579 499 552 523 494 L551 494 L541 693 L20 693 L20 669 L59 661 C86 655 95 650 95 593 L95 100 C95 43 86 37 59 32 L20 24 L20 0 Z " />
<glyph glyph-name="G" unicode="G" horiz-adv-x="682" d="M380 -12 C467 -12 559 5 615 23 L615 199 C615 256 621 261 647 268 L676 275 L676 299 L394 299 L394 275 L434 266 C462 260 470 256 470 199 L470 49 C448 38 419 27 376 27 C237 27 188 124 188 362 C188 575 251 666 383 666 C455 666 474 654 505 608 C525 579 546 542 572 478 L599 478 L588 684 C541 696 481 705 395 705 C199 705 30 606 30 343 C30 107 157 -12 380 -12 L380 -12 Z " />
<glyph glyph-name="H" unicode="H" horiz-adv-x="746" d="M20 0 L320 0 L320 24 L281 32 C251 39 245 43 245 100 L245 333 L501 333 L501 100 C501 43 495 39 465 32 L427 24 L427 0 L726 0 L726 24 L688 32 C659 38 652 43 652 100 L652 593 C652 650 660 655 688 661 L726 669 L726 693 L427 693 L427 669 L465 661 C495 654 501 650 501 593 L501 374 L245 374 L245 593 C245 650 252 654 281 661 L320 669 L320 693 L20 693 L20 669 L59 661 C86 655 95 650 95 593 L95 100 C95 43 86 37 59 32 L20 24 L20 0 Z " />
<glyph glyph-name="I" unicode="I" horiz-adv-x="347" d="M20 0 L327 0 L327 24 L285 32 C255 38 249 43 249 100 L249 593 C249 650 255 655 285 661 L327 669 L327 693 L20 693 L20 669 L62 661 C90 656 98 650 98 593 L98 100 C98 43 90 37 62 32 L20 24 L20 0 Z " />
<glyph glyph-name="J" unicode="J" horiz-adv-x="340" d="M20 -176 C164 -176 245 -77 245 62 L245 593 C245 650 253 655 281 661 L320 669 L320 693 L19 693 L19 669 L59 661 C88 654 95 650 95 593 L95 -48 C95 -113 74 -137 48 -137 C33 -137 31 -135 26 -115 C15 -59 -3 -37 -49 -37 C-89 -37 -111 -61 -111 -96 C-111 -141 -68 -176 20 -176 L20 -176 Z " />
<glyph glyph-name="K" unicode="K" horiz-adv-x="684" d="M485 0 L684 0 L684 24 L653 31 C638 35 634 38 621 54 C549 145 447 296 383 420 L528 582 C581 641 595 654 630 663 L655 669 L655 693 L425 693 L425 669 L455 661 C477 655 490 644 490 627 C490 613 482 593 462 570 L273 351 L273 335 C331 219 408 98 485 0 L485 0 Z M20 0 L320 0 L320 24 L281 32 C251 39 245 43 245 100 L245 593 C245 650 251 654 281 661 L320 669 L320 693 L20 693 L20 669 L59 661 C86 655 95 650 95 593 L95 100 C95 43 86 37 59 32 L20 24 L20 0 Z " />
<glyph glyph-name="L" unicode="L" horiz-adv-x="578" d="M20 0 L552 0 L566 233 L538 233 C513 164 491 121 473 93 C444 49 425 40 342 40 C249 40 245 52 245 131 L245 593 C245 650 252 654 281 660 L326 669 L326 693 L20 693 L20 669 L59 661 C86 655 95 650 95 593 L95 100 C95 43 86 37 59 32 L20 24 L20 0 Z " />
<glyph glyph-name="M" unicode="M" horiz-adv-x="857" d="M20 0 L219 0 L219 24 L185 31 C149 38 141 43 141 112 L141 608 L145 608 L353 16 L407 16 L608 608 L612 608 L612 100 C612 43 606 39 576 32 L540 24 L540 0 L837 0 L837 24 L799 32 C770 38 763 43 763 100 L763 593 C763 650 771 655 799 661 L837 669 L837 693 L589 693 L433 233 L429 233 L268 693 L20 693 L20 669 L59 661 C86 655 95 650 95 593 L95 110 C95 43 83 37 52 31 L20 24 L20 0 Z " />
<glyph glyph-name="N" unicode="N" horiz-adv-x="689" d="M540 -2 L599 -2 L599 583 C599 650 611 656 641 662 L674 669 L674 693 L466 693 L466 669 L508 662 C545 655 552 650 552 581 L552 245 L548 245 L252 693 L20 693 L20 669 L59 661 C86 655 95 650 95 593 L95 110 C95 43 83 37 52 31 L20 24 L20 0 L224 0 L224 24 L186 31 C149 38 141 43 141 112 L141 589 L145 589 L540 -2 Z " />
<glyph glyph-name="O" unicode="O" horiz-adv-x="712" d="M352 -12 C513 -12 683 90 683 353 C683 593 533 705 360 705 C199 705 29 599 29 337 C29 102 179 -12 352 -12 L352 -12 Z M358 27 C227 27 186 154 186 357 C186 584 241 666 353 666 C484 666 526 536 526 333 C526 106 473 27 358 27 L358 27 Z " />
<glyph glyph-name="P" unicode="P" horiz-adv-x="611" d="M20 0 L331 0 L331 24 L282 33 C249 39 245 44 245 100 L245 646 C257 650 288 653 319 653 C406 653 439 615 439 484 C439 353 391 313 276 315 L276 288 C285 284 309 277 346 277 C507 277 593 374 593 493 C593 627 502 693 328 693 L20 693 L20 669 L64 659 C87 654 95 650 95 593 L95 100 C95 43 86 37 59 32 L20 24 L20 0 Z " />
<glyph glyph-name="Q" unicode="Q" horiz-adv-x="712" d="M590 -171 C676 -171 726 -133 751 -108 L751 -84 C734 -91 704 -103 674 -103 C634 -103 593 -92 543 -62 C513 -43 478 -17 452 7 L452 10 C581 45 683 147 683 353 C683 593 533 706 360 706 C199 706 29 599 29 337 C29 147 127 34 265 1 C318 -46 362 -82 406 -111 C467 -153 516 -171 590 -171 L590 -171 Z M358 26 C227 26 186 154 186 357 C186 584 241 666 353 666 C484 666 526 536 526 333 C526 106 473 26 358 26 L358 26 Z " />
<glyph glyph-name="R" unicode="R" horiz-adv-x="673" d="M20 0 L319 0 L319 24 L280 32 C251 38 245 43 245 100 L245 311 L306 311 C350 212 420 85 483 0 L677 0 L677 24 L659 29 C639 35 630 41 619 55 C563 128 490 252 444 342 L444 345 C542 374 589 432 589 513 C589 632 512 693 331 693 L20 693 L20 669 L59 661 C86 655 95 650 95 593 L95 100 C95 43 86 37 59 32 L20 24 L20 0 Z M296 347 C270 347 248 350 245 351 L245 646 C258 650 285 653 321 653 C404 653 436 619 436 501 C436 387 394 347 296 347 L296 347 Z " />
<glyph glyph-name="S" unicode="S" horiz-adv-x="519" d="M237 -13 C401 -13 490 89 490 214 C490 308 431 366 280 429 C166 476 143 507 143 566 C143 631 184 666 258 666 C317 666 335 654 361 620 C386 588 399 567 424 514 L451 514 L440 682 C406 695 354 706 270 706 C128 706 34 621 34 505 C34 404 83 345 217 290 C336 241 372 205 372 141 C372 73 334 27 247 27 C184 27 154 39 124 83 C98 121 79 158 55 209 L26 209 L38 21 C78 3 149 -13 237 -13 L237 -13 Z " />
<glyph glyph-name="T" unicode="T" horiz-adv-x="619" d="M155 0 L463 0 L463 24 L422 32 C389 38 385 43 385 100 L385 654 L398 654 C477 654 486 650 516 604 C538 570 552 538 576 474 L605 474 L596 693 L23 693 L14 474 L43 474 C67 538 81 570 103 604 C131 649 143 654 220 654 L234 654 L234 100 C234 43 228 38 197 32 L155 24 L155 0 Z " />
<glyph glyph-name="U" unicode="U" horiz-adv-x="692" d="M361 -12 C534 -12 608 89 608 212 L608 583 C608 650 620 656 649 662 L682 669 L682 693 L473 693 L473 669 L516 662 C554 655 561 650 561 581 L561 219 C561 111 515 46 402 46 C283 46 236 97 236 207 L236 593 C236 650 242 654 272 661 L309 669 L309 693 L11 693 L11 669 L49 661 C77 655 85 650 85 593 L85 223 C85 53 197 -12 361 -12 L361 -12 Z " />
<glyph glyph-name="V" unicode="V" horiz-adv-x="658" d="M296 0 L377 0 L573 560 C599 635 606 654 635 662 L662 669 L662 693 L462 693 L462 669 L494 662 C520 657 532 646 532 622 C532 605 526 580 518 554 L391 165 L386 165 L251 554 C241 583 233 609 233 625 C233 645 243 656 268 662 L296 669 L296 693 L-4 693 L-4 669 L20 663 C53 654 61 633 86 567 L296 0 Z " />
<glyph glyph-name="W" unicode="W" horiz-adv-x="977" d="M273 0 L356 0 L497 422 L500 422 L634 0 L718 0 L887 551 C910 627 921 655 953 663 L979 669 L979 693 L783 693 L783 669 L815 663 C838 658 849 645 849 624 C849 605 843 579 836 554 L729 174 L724 174 L605 554 C597 580 591 606 591 623 C591 645 601 657 622 662 L655 669 L655 693 L364 693 L364 669 L389 663 C417 655 429 639 447 581 L475 495 L369 174 L364 174 L245 554 C237 581 229 607 229 625 C229 646 240 657 262 663 L290 669 L290 693 L-2 693 L-2 669 L24 663 C53 656 61 641 84 572 L273 0 Z " />
<glyph glyph-name="X" unicode="X" horiz-adv-x="676" d="M13 0 L214 0 L214 24 L185 29 C168 33 157 43 157 60 C157 74 166 94 182 121 L286 298 L289 298 L391 121 C408 94 417 73 417 59 C417 43 409 33 387 29 L354 24 L354 0 L664 0 L664 24 L641 29 C616 36 607 50 572 106 L411 373 L535 576 C575 639 587 655 614 663 L640 669 L640 693 L437 693 L437 669 L468 663 C487 659 499 650 499 634 C499 620 494 602 480 576 L387 410 L384 410 L292 570 C274 600 268 618 268 632 C268 647 278 658 295 662 L331 669 L331 693 L16 693 L16 669 L40 662 C71 653 79 637 107 590 L263 333 L122 114 C80 49 66 37 35 29 L13 24 L13 0 Z " />
<glyph glyph-name="Y" unicode="Y" horiz-adv-x="629" d="M172 0 L480 0 L480 24 L439 32 C406 38 402 43 402 100 L402 290 L532 563 C565 632 581 652 612 663 L633 669 L633 693 L427 693 L427 669 L456 662 C486 655 496 643 496 623 C496 608 493 591 480 564 L377 337 L373 337 L256 568 C243 592 237 611 237 624 C237 645 248 656 276 663 L304 669 L304 693 L-4 693 L-4 669 L18 663 C45 654 56 640 91 576 L251 283 L251 100 C251 43 245 38 214 32 L172 24 L172 0 Z " />
<glyph glyph-name="Z" unicode="Z" horiz-adv-x="567" d="M21 0 L534 0 L549 229 L520 229 C492 160 475 123 449 88 C418 47 393 39 238 39 L187 39 L187 43 L549 654 L549 693 L61 693 L50 484 L77 484 C104 546 118 575 142 609 C170 650 189 655 337 655 L385 655 L385 651 L21 39 L21 0 Z " />
<glyph glyph-name="bracketleft" unicode="&#x5b;" horiz-adv-x="340" d="M92 -130 L315 -130 L315 -106 L239 -97 C196 -92 189 -85 189 -27 L189 632 C189 690 196 696 239 701 L315 710 L315 734 L92 734 L92 -130 Z " />
<glyph glyph-name="backslash" unicode="&#x5c;" horiz-adv-x="378" d="M326 -130 L378 -130 L70 734 L18 734 L326 -130 Z " />
<glyph glyph-name="bracketright" unicode="&#x5d;" horiz-adv-x="340" d="M25 -130 L248 -130 L248 734 L25 734 L25 710 L101 701 C144 696 152 690 152 632 L152 -27 C152 -85 144 -92 101 -97 L25 -106 L25 -130 Z " />
<glyph glyph-name="asciicircum" unicode="&#x5e;" horiz-adv-x="437" d="M67 456 L218 588 L371 456 L385 471 L241 699 L196 699 L52 471 L67 456 Z " />
<glyph glyph-name="underscore" unicode="&#x5f;" horiz-adv-x="346" d="M-2 -171 L348 -171 L348 -120 L-2 -120 L-2 -171 Z " />
<glyph glyph-name="grave" unicode="&#x60;" horiz-adv-x="497" d="M356 578 L364 594 L222 713 C206 727 190 733 175 733 C147 733 126 707 126 680 C126 660 138 637 169 628 L356 578 Z " />
<glyph glyph-name="a" unicode="a" horiz-adv-x="515" d="M169 -13 C230 -13 279 15 304 48 L309 48 C318 11 349 -12 404 -12 C452 -12 491 5 508 18 L508 39 C491 39 473 42 461 48 C442 58 436 73 436 106 L436 395 C436 489 372 530 250 530 C134 530 44 499 44 435 C44 402 64 379 105 379 C154 379 168 406 173 457 C176 486 186 494 222 494 C289 494 302 464 302 387 L302 294 L184 265 C91 243 19 205 19 120 C19 35 76 -13 169 -13 L169 -13 Z M230 49 C183 49 152 76 152 138 C152 211 187 236 244 241 L302 247 L302 86 C291 66 266 49 230 49 L230 49 Z " />
<glyph glyph-name="b" unicode="b" horiz-adv-x="587" d="M271 -12 C438 -12 560 83 560 284 C560 469 459 529 364 529 C296 529 238 499 197 465 L193 465 C193 465 195 506 195 557 L195 630 C195 704 199 749 199 749 L189 756 L-8 737 L-8 717 L31 698 C56 686 61 682 61 637 L61 36 C119 3 182 -12 271 -12 L271 -12 Z M282 25 C245 25 217 39 195 61 L195 431 C214 439 242 454 288 454 C373 454 421 398 421 255 C421 76 375 25 282 25 L282 25 Z " />
<glyph glyph-name="c" unicode="c" horiz-adv-x="484" d="M266 -12 C367 -12 439 39 468 71 L468 102 C433 84 381 63 318 63 C206 63 159 143 159 294 C159 451 223 493 290 493 C323 493 331 486 336 445 C341 407 355 377 402 377 C441 377 467 404 467 440 C467 497 414 530 317 530 C185 530 23 465 23 254 C23 95 109 -12 266 -12 L266 -12 Z " />
<glyph glyph-name="d" unicode="d" horiz-adv-x="600" d="M223 -12 C291 -12 350 16 392 50 L396 50 L394 -5 L404 -12 L589 14 L589 33 L557 48 C530 59 526 65 526 113 L526 630 C526 704 529 749 529 749 L520 756 L320 737 L320 717 L362 696 C386 684 392 681 392 637 L392 592 C392 556 394 518 394 518 C373 524 344 529 311 529 C161 529 27 444 27 241 C27 55 126 -12 223 -12 L223 -12 Z M294 57 C211 57 165 113 165 268 C165 436 221 492 306 492 C346 492 373 471 392 451 L392 84 C373 75 343 57 294 57 L294 57 Z " />
<glyph glyph-name="e" unicode="e" horiz-adv-x="515" d="M276 -12 C375 -12 447 40 479 72 L479 102 C441 84 395 63 327 63 C225 63 160 115 158 280 L492 280 C490 461 409 530 276 530 C145 530 23 429 23 261 C23 94 107 -12 276 -12 L276 -12 Z M270 495 C336 495 353 446 353 325 L158 315 C163 442 209 495 270 495 L270 495 Z " />
<glyph glyph-name="f" unicode="f" horiz-adv-x="332" d="M15 0 L288 0 L288 23 L244 32 C217 37 213 43 213 90 L213 463 L315 463 L327 515 L213 515 L213 614 C213 699 251 724 290 724 C302 724 306 719 309 697 C313 654 332 636 373 636 C409 636 429 657 429 689 C429 733 390 759 317 759 C173 759 79 680 79 550 L79 516 L9 485 L9 463 L79 463 L79 86 C79 45 74 39 47 31 L15 23 L15 0 Z " />
<glyph glyph-name="g" unicode="g" horiz-adv-x="511" d="M209 -208 C409 -208 492 -105 492 -5 C492 98 425 127 334 127 L164 127 C125 127 109 141 109 163 C109 183 123 201 135 211 C164 200 197 194 232 194 C339 194 439 250 439 366 C439 420 409 462 369 485 L369 489 C394 501 416 503 426 483 C435 463 445 449 474 449 C506 449 520 473 520 501 C520 535 494 553 460 553 C417 553 378 531 348 505 C314 521 276 529 232 529 C125 529 25 470 25 355 C25 294 60 248 107 225 L107 221 C73 198 30 160 30 108 C30 62 60 30 108 18 L108 14 C32 -5 -13 -42 -13 -90 C-13 -163 67 -208 209 -208 L209 -208 Z M228 -173 C135 -173 96 -136 96 -72 C96 -26 124 0 147 9 L314 9 C379 9 404 -18 404 -62 C404 -133 336 -173 228 -173 L228 -173 Z M232 228 C180 228 153 262 153 366 C153 461 179 495 232 495 C284 495 310 460 310 355 C310 260 285 228 232 228 L232 228 Z " />
<glyph glyph-name="h" unicode="h" horiz-adv-x="608" d="M15 0 L274 0 L274 23 L243 31 C217 38 213 41 213 86 L213 431 C238 437 282 449 323 449 C376 449 399 428 399 364 L399 86 C399 41 395 38 369 31 L338 23 L338 0 L597 0 L597 23 L565 31 C539 38 533 44 533 86 L533 396 C533 486 492 529 401 529 C332 529 266 498 214 463 L210 463 C210 463 213 506 213 557 L213 630 C213 697 217 749 217 749 L207 756 L10 737 L10 717 L49 698 C74 686 79 682 79 637 L79 86 C79 45 74 39 47 31 L15 23 L15 0 Z " />
<glyph glyph-name="i" unicode="i" horiz-adv-x="288" d="M15 0 L277 0 L277 23 L245 31 C218 38 213 43 213 86 L213 417 C213 466 216 505 217 523 L208 529 L13 506 L13 489 L48 468 C74 452 79 449 79 407 L79 86 C79 45 74 39 47 31 L15 23 L15 0 Z M142 590 C184 590 218 622 218 663 C218 704 184 736 142 736 C99 736 65 704 65 663 C65 622 99 590 142 590 L142 590 Z " />
<glyph glyph-name="j" unicode="j" horiz-adv-x="282" d="M12 -210 C126 -210 213 -143 213 3 L213 417 C213 465 216 505 217 523 L208 529 L13 506 L13 489 L48 468 C74 452 79 449 79 407 L79 -110 C79 -154 63 -174 37 -174 C27 -174 23 -171 20 -144 C15 -97 0 -77 -44 -77 C-78 -77 -102 -97 -102 -130 C-102 -174 -66 -210 12 -210 L12 -210 Z M140 590 C183 590 217 622 217 663 C217 704 183 736 140 736 C98 736 64 704 64 663 C64 622 98 590 140 590 L140 590 Z " />
<glyph glyph-name="k" unicode="k" horiz-adv-x="564" d="M398 0 L569 0 L569 23 L547 30 C534 34 524 41 514 54 C457 121 385 229 330 320 L429 423 C472 467 487 477 514 485 L539 492 L539 515 L338 515 L338 492 L352 488 C375 481 385 474 385 461 C385 446 378 427 342 387 L229 261 L229 248 C279 165 331 83 398 0 L398 0 Z M15 0 L272 0 L272 23 L242 31 C217 38 213 42 213 86 L213 630 C213 697 217 749 217 749 L207 756 L10 737 L10 717 L49 698 C74 686 79 682 79 637 L79 86 C79 45 74 39 47 31 L15 23 L15 0 Z " />
<glyph glyph-name="l" unicode="l" horiz-adv-x="291" d="M15 0 L279 0 L279 23 L247 31 C219 39 214 43 214 86 L214 630 C214 697 218 749 218 749 L208 756 L10 737 L10 717 L49 698 C75 685 80 682 80 637 L80 86 C80 45 75 39 47 31 L15 23 L15 0 Z " />
<glyph glyph-name="m" unicode="m" horiz-adv-x="901" d="M15 0 L272 0 L272 23 L242 31 C217 38 213 41 213 86 L213 431 C238 437 277 449 317 449 C369 449 385 425 385 363 L385 86 C385 41 380 38 356 31 L326 23 L326 0 L578 0 L578 23 L548 31 C525 38 519 43 519 86 L519 391 C519 409 518 421 517 429 C543 438 583 449 624 449 C675 449 691 426 691 363 L691 86 C691 41 687 38 662 31 L632 23 L632 0 L889 0 L889 23 L857 31 C831 38 825 44 825 86 L825 395 C825 485 785 529 703 529 C629 529 569 496 515 460 L511 460 C493 505 458 529 393 529 C326 529 264 497 213 461 L208 461 L210 522 L201 529 L13 506 L13 489 L48 468 C74 452 79 449 79 407 L79 86 C79 45 74 39 47 31 L15 23 L15 0 Z " />
<glyph glyph-name="n" unicode="n" horiz-adv-x="608" d="M15 0 L274 0 L274 23 L243 31 C217 38 213 41 213 86 L213 431 C238 437 282 449 323 449 C376 449 399 428 399 364 L399 86 C399 41 395 38 369 31 L338 23 L338 0 L597 0 L597 23 L565 31 C539 38 533 44 533 86 L533 396 C533 486 492 529 401 529 C332 529 264 497 213 461 L208 461 L210 523 L201 529 L13 506 L13 489 L48 468 C74 452 79 449 79 407 L79 86 C79 45 74 39 47 31 L15 23 L15 0 Z " />
<glyph glyph-name="o" unicode="o" horiz-adv-x="569" d="M284 -13 C418 -13 546 78 546 263 C546 443 427 530 284 530 C152 530 23 442 23 257 C23 77 141 -13 284 -13 L284 -13 Z M288 23 C205 23 166 79 166 273 C166 439 207 494 281 494 C361 494 403 443 403 251 C403 73 360 23 288 23 L288 23 Z " />
<glyph glyph-name="p" unicode="p" horiz-adv-x="605" d="M15 -203 L287 -203 L287 -180 L244 -171 C217 -165 213 -160 213 -116 L213 -63 C213 -28 212 -1 212 -1 C236 -8 268 -12 292 -12 C460 -12 578 83 578 284 C578 469 476 529 382 529 C313 529 256 499 213 464 L209 464 L210 523 L201 529 L13 506 L13 489 L48 468 C74 452 79 449 79 407 L79 -116 C79 -158 74 -164 47 -171 L15 -180 L15 -203 Z M299 25 C261 25 235 39 213 61 L213 431 C232 439 260 454 306 454 C391 454 439 398 439 255 C439 76 392 25 299 25 L299 25 Z " />
<glyph glyph-name="q" unicode="q" horiz-adv-x="592" d="M318 -203 L590 -203 L590 -180 L558 -171 C531 -164 526 -158 526 -116 L526 524 L510 530 L471 489 L465 489 C425 513 382 529 311 529 C161 529 27 444 27 241 C27 55 126 -12 223 -12 C291 -12 350 16 391 50 L395 50 C395 50 392 18 392 -24 L392 -116 C392 -160 388 -165 361 -171 L318 -180 L318 -203 Z M294 57 C211 57 165 113 165 268 C165 436 221 492 306 492 C346 492 373 473 392 454 L392 84 C373 75 343 57 294 57 L294 57 Z " />
<glyph glyph-name="r" unicode="r" horiz-adv-x="438" d="M15 0 L283 0 L283 23 L243 31 C218 36 213 41 213 86 L213 418 C228 434 261 451 279 451 C288 451 293 448 298 436 C313 409 325 394 367 394 C401 394 429 418 429 461 C429 506 402 530 357 530 C303 530 245 490 213 456 L208 456 L210 522 L201 529 L13 506 L13 489 L48 468 C74 452 79 449 79 407 L79 86 C79 45 74 39 47 31 L15 23 L15 0 Z " />
<glyph glyph-name="s" unicode="s" horiz-adv-x="422" d="M185 -12 C321 -12 399 61 399 162 C399 239 347 284 239 324 C158 355 132 383 132 424 C132 468 162 494 213 494 C247 494 267 489 290 461 C310 438 326 413 344 378 L367 378 L362 510 C331 522 285 530 229 530 C106 530 27 463 27 369 C27 286 84 242 172 208 C257 175 290 152 290 102 C290 53 251 24 199 24 C152 24 131 36 111 65 C88 96 70 123 51 162 L26 162 L31 10 C72 -3 128 -12 185 -12 L185 -12 Z " />
<glyph glyph-name="t" unicode="t" horiz-adv-x="348" d="M196 -12 C272 -12 320 23 342 42 L342 67 C323 62 293 56 267 56 C219 56 202 75 202 122 L202 463 L326 463 L338 515 L202 515 L202 643 L159 643 C131 564 75 511 2 485 L2 463 L68 463 L68 112 C68 23 117 -12 196 -12 L196 -12 Z " />
<glyph glyph-name="u" unicode="u" horiz-adv-x="604" d="M208 -12 C281 -12 344 23 396 60 L401 60 L399 -5 L408 -12 L594 14 L594 33 L561 48 C534 59 530 65 530 113 L530 520 L519 529 L330 509 L330 491 L367 471 C393 458 396 454 396 415 L396 91 C367 81 327 66 286 66 C235 66 210 92 210 151 L210 520 L199 529 L10 509 L10 491 L47 471 C73 457 76 454 76 415 L76 120 C76 34 127 -12 208 -12 L208 -12 Z " />
<glyph glyph-name="v" unicode="v" horiz-adv-x="535" d="M236 0 L306 0 L461 401 C483 460 492 478 518 486 L541 492 L541 515 L365 515 L365 492 L392 485 C412 480 421 469 421 450 C421 438 417 420 408 395 L318 144 L313 144 L221 395 C213 418 208 435 208 448 C208 469 215 479 237 485 L264 492 L264 515 L-6 515 L-6 492 L15 486 C42 477 51 463 72 412 L236 0 Z " />
<glyph glyph-name="w" unicode="w" horiz-adv-x="808" d="M223 0 L292 0 L407 316 L410 316 L520 0 L590 0 L734 401 C756 460 765 478 791 486 L814 492 L814 515 L638 515 L638 492 L665 485 C686 480 694 469 694 451 C694 438 690 422 682 395 L602 144 L597 144 L513 395 C505 418 501 437 501 450 C501 469 507 480 526 485 L553 492 L553 515 L303 515 L303 492 L324 486 C346 479 356 465 375 412 L386 378 L305 144 L300 144 L218 395 C210 421 204 441 204 455 C204 471 209 480 229 486 L253 492 L253 515 L-6 515 L-6 492 L15 486 C42 477 53 464 72 412 L223 0 Z " />
<glyph glyph-name="x" unicode="x" horiz-adv-x="565" d="M12 0 L204 0 L204 23 L185 27 C159 32 151 40 151 54 C151 68 159 85 178 117 L236 213 L239 213 L311 106 C326 83 336 66 336 53 C336 40 329 31 310 27 L286 23 L286 0 L558 0 L558 23 L545 26 C513 35 504 49 469 100 L344 279 L426 408 C458 459 476 477 509 486 L532 492 L532 515 L342 515 L342 492 L368 487 C386 482 395 474 395 460 C395 447 389 429 372 399 L322 310 L319 310 L252 413 C238 434 231 449 231 461 C231 475 240 484 258 488 L280 492 L280 515 L8 515 L8 492 L23 488 C50 481 57 473 98 415 L215 243 L118 103 C85 55 69 38 37 29 L12 23 L12 0 Z " />
<glyph glyph-name="y" unicode="y" horiz-adv-x="535" d="M111 -207 C209 -207 246 -137 282 -46 L462 401 C487 463 492 477 516 485 L541 492 L541 515 L365 515 L365 492 L393 485 C413 480 423 473 423 454 C423 440 418 420 409 395 L318 148 L314 148 L219 395 C210 418 205 436 205 450 C205 471 214 480 234 485 L261 492 L261 515 L-4 515 L-4 492 L17 486 C40 478 45 471 71 411 L248 -11 L235 -41 C201 -123 176 -150 155 -150 C144 -150 140 -146 136 -131 C127 -101 111 -84 74 -84 C39 -84 16 -104 16 -139 C16 -179 52 -207 111 -207 L111 -207 Z " />
<glyph glyph-name="z" unicode="z" horiz-adv-x="476" d="M15 0 L441 0 L455 177 L431 177 C413 139 393 108 370 76 C346 44 328 37 231 37 L168 37 L168 41 L460 483 L460 515 L51 515 L42 347 L65 347 C91 394 105 419 129 448 C151 473 165 478 240 478 L306 478 L306 474 L15 34 L15 0 Z " />
<glyph glyph-name="braceleft" unicode="&#x7b;" horiz-adv-x="358" d="M328 -130 L328 -104 C230 -91 215 -82 215 -19 C215 54 239 143 239 199 C239 256 213 286 108 302 L108 306 C204 323 239 353 239 410 C239 466 215 552 215 625 C215 687 230 696 328 710 L328 735 C155 726 108 687 108 618 C108 565 155 421 155 381 C155 351 136 325 43 320 L43 288 C137 283 155 258 155 228 C155 189 108 41 108 -12 C108 -82 155 -120 328 -130 L328 -130 Z " />
<glyph glyph-name="bar" unicode="&#x7c;" horiz-adv-x="224" d="M87 -130 L137 -130 L137 734 L87 734 L87 -130 Z " />
<glyph glyph-name="braceright" unicode="&#x7d;" horiz-adv-x="358" d="M38 -130 C211 -120 258 -82 258 -12 C258 41 211 187 211 227 C211 257 230 283 323 288 L323 320 C229 325 211 350 211 380 C211 419 258 565 258 618 C258 687 211 726 38 735 L38 710 C136 696 151 687 151 625 C151 552 127 465 127 409 C127 352 153 322 258 306 L258 302 C162 285 127 255 127 198 C127 142 151 54 151 -19 C151 -82 136 -91 38 -104 L38 -130 Z " />
<glyph glyph-name="asciitilde" unicode="&#x7e;" horiz-adv-x="379" d="M51 230 C70 261 82 273 102 273 C144 273 211 240 257 240 C303 240 323 285 352 354 L330 364 C311 333 298 321 278 321 C236 321 170 355 124 355 C79 355 58 310 29 241 L51 230 Z " />
<glyph glyph-name="uni00A0" unicode="&#xa0;" horiz-adv-x="214" d="" />
<glyph glyph-name="exclamdown" unicode="&#xa1;" horiz-adv-x="275" d="M136 472 C176 472 211 503 211 545 C211 585 176 619 136 619 C96 619 61 585 61 545 C61 503 96 472 136 472 L136 472 Z M136 -90 C190 -90 230 -55 215 21 L150 406 L121 406 L57 21 C41 -55 82 -90 136 -90 L136 -90 Z " />
<glyph glyph-name="cent" unicode="&#xa2;" horiz-adv-x="485" d="M260 526 C142 508 23 435 23 258 C23 100 109 -6 260 -12 L260 -110 L300 -110 L300 -10 C386 -2 444 42 470 71 L470 102 C435 84 386 61 317 61 L300 61 L300 493 C328 491 338 481 344 443 C349 405 361 378 408 378 C446 378 470 404 470 440 C470 497 417 530 318 530 C312 530 306 530 300 529 L300 596 L260 596 L260 526 Z M161 294 C161 427 206 476 260 489 L260 70 C191 94 161 168 161 294 L161 294 Z " />
<glyph glyph-name="sterling" unicode="&#xa3;" horiz-adv-x="529" d="M39 338 L112 338 C120 302 128 269 128 243 C128 167 91 121 19 76 L19 0 L481 0 L503 187 L478 187 C448 115 437 108 396 108 L114 108 L114 114 C195 162 242 219 242 303 C242 313 241 325 241 338 L396 338 L396 379 L239 379 C236 432 232 492 232 532 C232 632 267 668 322 668 C353 668 357 665 367 623 C379 572 396 545 442 545 C477 545 504 567 504 605 C504 667 441 705 329 705 C177 705 83 621 83 500 C83 463 92 420 102 379 L39 379 L39 338 Z " />
<glyph glyph-name="yen" unicode="&#xa5;" horiz-adv-x="609" d="M58 303 L235 303 L235 230 L58 230 L58 189 L235 189 L235 100 C235 43 229 38 198 32 L157 24 L157 0 L465 0 L465 24 L423 32 C390 38 386 43 386 100 L386 189 L561 189 L561 230 L386 230 L386 303 L561 303 L561 344 L397 344 L504 563 C537 633 549 653 578 663 L599 669 L599 693 L402 693 L402 669 L427 663 C456 654 467 644 467 624 C467 609 461 590 450 564 L362 366 L357 366 L258 568 C246 594 240 611 240 624 C240 645 251 657 279 663 L305 669 L305 693 L3 693 L3 669 L25 663 C50 655 58 640 94 576 L220 344 L58 344 L58 303 Z " />
<glyph glyph-name="brokenbar" unicode="&#xa6;" horiz-adv-x="224" d="M87 -130 L137 -130 L137 256 L87 256 L87 -130 Z M87 326 L137 326 L137 734 L87 734 L87 326 Z " />
<glyph glyph-name="section" unicode="&#xa7;" horiz-adv-x="558" d="M251 -204 C366 -204 445 -136 445 -34 C445 -7 438 17 426 39 C487 77 537 124 537 193 C537 275 493 320 369 413 C244 507 216 531 216 587 C216 638 247 668 293 668 C330 668 340 660 344 629 C350 578 364 558 405 558 C442 558 464 583 464 612 C464 665 409 702 309 702 C189 702 116 631 116 535 C116 505 123 480 137 455 C73 422 22 375 22 301 C22 219 76 169 188 85 C313 -9 344 -35 344 -91 C344 -142 314 -170 267 -170 C225 -170 217 -161 212 -124 C207 -76 189 -56 149 -56 C112 -56 92 -77 92 -110 C92 -165 147 -204 251 -204 L251 -204 Z M407 67 C376 108 324 147 260 196 C150 279 115 309 115 355 C115 390 127 412 154 429 C185 389 234 349 297 303 C413 216 443 187 443 142 C443 109 431 85 407 67 L407 67 Z " />
<glyph glyph-name="dieresis" unicode="&#xa8;" horiz-adv-x="500" d="M150 581 C189 581 219 610 219 648 C219 687 189 715 150 715 C113 715 82 687 82 648 C82 610 113 581 150 581 L150 581 Z M350 581 C387 581 418 610 418 648 C418 687 387 715 350 715 C311 715 281 687 281 648 C281 610 311 581 350 581 L350 581 Z " />
<glyph glyph-name="copyright" unicode="&#xa9;" horiz-adv-x="788" d="M398 132 C460 132 506 145 534 156 L541 280 L520 280 C503 243 492 217 476 193 C460 169 441 161 411 161 C339 161 305 210 305 357 C305 480 333 534 404 534 C441 534 453 526 469 505 C487 480 496 461 514 425 L535 425 L531 547 C505 554 465 563 409 563 C291 563 190 502 190 342 C190 197 279 132 398 132 L398 132 Z M393 -16 C594 -16 751 146 751 344 C751 542 594 702 393 702 C191 702 37 542 37 344 C37 146 191 -16 393 -16 L393 -16 Z M393 22 C210 22 81 167 81 344 C81 521 210 665 393 665 C575 665 705 521 705 344 C705 167 575 22 393 22 L393 22 Z " />
<glyph glyph-name="ordfeminine" unicode="&#xaa;" horiz-adv-x="431" d="M143 265 C193 265 231 288 251 313 L254 313 C262 284 286 265 335 265 C378 265 408 280 425 290 L425 310 C411 310 396 313 386 318 C370 325 367 337 367 364 L367 584 C367 665 306 700 207 700 C110 700 39 670 39 618 C39 590 57 570 91 570 C132 570 143 593 149 635 C153 658 156 668 185 668 C238 668 249 645 249 578 L249 513 L154 489 C76 470 21 439 21 371 C21 303 67 265 143 265 L143 265 Z M193 319 C157 319 137 336 137 385 C137 444 157 462 202 467 L249 472 L249 347 C240 332 220 319 193 319 L193 319 Z " />
<glyph glyph-name="guillemotleft" unicode="&#xab;" horiz-adv-x="448" d="M207 45 L239 45 L146 253 L239 460 L207 460 L35 262 L35 243 L207 45 Z M381 45 L413 45 L320 253 L413 460 L381 460 L209 262 L209 243 L381 45 Z " />
<glyph glyph-name="registered" unicode="&#xae;" horiz-adv-x="394" d="M197 336 C297 336 375 418 375 518 C375 619 297 700 197 700 C96 700 20 619 20 518 C20 418 96 336 197 336 L197 336 Z M197 360 C108 360 48 431 48 518 C48 606 108 676 197 676 C285 676 347 606 347 518 C347 431 285 360 197 360 L197 360 Z M103 425 L197 425 L197 438 L185 441 C176 443 175 444 175 458 L175 505 L194 505 C204 480 219 450 237 425 L299 425 L299 438 L291 440 C287 441 281 444 279 448 C264 468 250 493 238 518 L238 520 C263 527 276 542 276 566 C276 600 253 618 195 618 L104 618 L104 604 L115 602 C123 600 125 598 125 583 L125 458 C125 444 123 443 115 441 L103 438 L103 425 Z M175 521 L175 600 C176 601 190 601 193 601 C215 601 226 590 226 562 C226 535 217 521 190 521 L175 521 Z " />
<glyph glyph-name="macron" unicode="&#xaf;" horiz-adv-x="500" d="M125 605 L375 605 L375 675 L125 675 L125 605 Z " />
<glyph glyph-name="degree" unicode="&#xb0;" horiz-adv-x="304" d="M152 456 C223 456 275 513 275 580 C275 646 223 703 152 703 C81 703 29 646 29 580 C29 513 81 456 152 456 L152 456 Z M152 492 C104 492 72 532 72 580 C72 627 104 667 152 667 C200 667 232 627 232 580 C232 532 200 492 152 492 L152 492 Z " />
<glyph glyph-name="plusminus" unicode="&#xb1;" horiz-adv-x="464" d="M36 0 L428 0 L428 51 L36 51 L36 0 Z M202 154 L262 154 L262 326 L428 326 L428 378 L262 378 L262 550 L202 550 L202 378 L36 378 L36 326 L202 326 L202 154 Z " />
<glyph glyph-name="twosuperior" unicode="&#xb2;" horiz-adv-x="318" d="M13 315 L289 315 L297 440 L275 440 C258 401 254 393 227 393 L95 393 L95 396 C228 464 300 525 300 591 C300 663 239 700 150 700 C68 700 17 665 17 627 C17 603 34 587 60 587 C95 587 108 603 113 643 C116 667 118 672 139 672 C172 672 191 656 191 602 C191 550 170 511 133 471 C97 432 65 405 13 365 L13 315 Z " />
<glyph glyph-name="threesuperior" unicode="&#xb3;" horiz-adv-x="323" d="M138 309 C253 309 304 356 304 420 C304 482 254 512 187 516 L187 518 C260 531 287 569 287 610 C287 668 235 700 152 700 C77 700 26 676 26 636 C26 616 41 600 66 600 C99 600 110 618 114 648 C117 669 122 673 143 673 C171 673 188 652 188 602 C188 547 167 528 120 528 L96 528 L96 496 L124 496 C170 496 197 483 197 420 C197 367 181 335 139 335 C111 335 106 341 101 367 C95 404 78 415 51 415 C27 415 11 403 11 377 C11 336 55 309 138 309 L138 309 Z " />
<glyph glyph-name="acute" unicode="&#xb4;" horiz-adv-x="500" d="M142 578 L330 628 C361 637 372 660 372 680 C372 707 351 733 323 733 C308 733 293 727 277 713 L135 594 L142 578 Z " />
<glyph glyph-name="paragraph" unicode="&#xb6;" horiz-adv-x="531" d="M255 -100 L303 -100 L303 654 L388 654 L388 -100 L437 -100 L437 593 C437 650 445 655 473 661 L511 669 L511 693 L219 693 C88 693 21 621 21 519 C21 412 81 336 220 336 C234 336 246 337 255 338 L255 -100 Z " />
<glyph glyph-name="periodcentered" unicode="&#xb7;" horiz-adv-x="221" d="M112 264 C151 264 187 298 187 337 C187 379 151 411 112 411 C71 411 37 379 37 337 C37 298 71 264 112 264 L112 264 Z " />
<glyph glyph-name="cedilla" unicode="&#xb8;" horiz-adv-x="500" d="M166 -204 C266 -196 331 -167 331 -112 C331 -76 298 -53 246 -48 L278 0 L239 0 L194 -90 L199 -98 C231 -101 251 -109 251 -129 C251 -153 226 -171 166 -185 L166 -204 Z " />
<glyph glyph-name="onesuperior" unicode="&#xb9;" horiz-adv-x="240" d="M15 315 L226 315 L226 338 L204 342 C181 346 176 348 176 384 L176 694 L156 698 C125 662 74 635 16 625 L16 602 L65 597 L65 384 C65 348 62 346 38 342 L15 338 L15 315 Z " />
<glyph glyph-name="ordmasculine" unicode="&#xba;" horiz-adv-x="474" d="M237 266 C344 266 451 338 451 486 C451 630 350 700 237 700 C131 700 23 630 23 482 C23 337 124 266 237 266 L237 266 Z M239 299 C173 299 146 341 146 494 C146 625 175 667 235 667 C300 667 329 629 329 477 C329 336 298 299 239 299 L239 299 Z " />
<glyph glyph-name="guillemotright" unicode="&#xbb;" horiz-adv-x="448" d="M35 45 L68 45 L240 243 L240 262 L68 460 L35 460 L128 253 L35 45 Z M209 45 L242 45 L414 243 L414 262 L242 460 L209 460 L302 253 L209 45 Z " />
<glyph glyph-name="onequarter" unicode="&#xbc;" horiz-adv-x="720" d="M16 315 L227 315 L227 338 L205 342 C182 346 177 348 177 384 L177 694 L157 698 C126 662 75 635 17 625 L17 602 L66 597 L66 384 C66 348 63 346 39 342 L16 338 L16 315 Z M66 -50 L121 -50 L640 714 L585 714 L66 -50 Z M500 0 L700 0 L700 22 L681 26 C659 30 654 33 654 69 L654 104 L704 104 L710 145 L654 145 L654 378 L586 378 L385 136 L385 104 L546 104 L546 69 C546 33 542 31 519 26 L500 22 L500 0 Z M432 145 L432 148 L545 285 L546 285 L546 145 L432 145 Z " />
<glyph glyph-name="onehalf" unicode="&#xbd;" horiz-adv-x="728" d="M16 315 L227 315 L227 338 L205 342 C182 346 177 348 177 384 L177 694 L157 698 C126 662 75 635 17 625 L17 602 L66 597 L66 384 C66 348 63 346 39 342 L16 338 L16 315 Z M49 -50 L104 -50 L622 714 L567 714 L49 -50 Z M421 0 L698 0 L706 124 L684 124 C667 86 662 77 635 77 L503 77 L503 80 C636 149 708 209 708 275 C708 348 648 385 559 385 C477 385 426 350 426 311 C426 287 442 272 469 272 C503 272 517 288 522 327 C525 351 527 357 548 357 C581 357 600 341 600 287 C600 235 579 195 542 155 C506 116 474 89 421 49 L421 0 Z " />
<glyph glyph-name="threequarters" unicode="&#xbe;" horiz-adv-x="766" d="M150 309 C265 309 316 356 316 420 C316 482 266 512 199 516 L199 518 C272 531 299 569 299 610 C299 668 247 700 164 700 C89 700 38 676 38 636 C38 616 53 600 78 600 C111 600 122 618 126 648 C129 669 134 673 155 673 C183 673 200 652 200 602 C200 547 179 528 132 528 L108 528 L108 496 L136 496 C182 496 209 483 209 420 C209 367 193 335 151 335 C123 335 118 341 113 367 C107 404 90 415 63 415 C39 415 23 403 23 377 C23 336 67 309 150 309 L150 309 Z M118 -50 L174 -50 L692 714 L637 714 L118 -50 Z M546 0 L746 0 L746 22 L727 26 C705 30 700 33 700 69 L700 104 L750 104 L756 145 L700 145 L700 378 L632 378 L431 136 L431 104 L593 104 L593 69 C593 33 588 31 565 26 L546 22 L546 0 Z M478 145 L478 148 L591 285 L593 285 L593 145 L478 145 Z " />
<glyph glyph-name="questiondown" unicode="&#xbf;" horiz-adv-x="456" d="M258 -89 C356 -89 431 -54 431 8 C431 37 412 65 371 65 C326 65 305 42 298 -9 C293 -43 286 -51 254 -51 C206 -51 163 -25 163 68 C163 172 238 211 308 236 L308 410 L260 410 L260 323 C131 290 35 220 35 99 C35 -21 118 -89 258 -89 L258 -89 Z M284 475 C325 475 358 506 358 548 C358 588 325 622 284 622 C245 622 209 588 209 548 C209 506 245 475 284 475 L284 475 Z " />
<glyph glyph-name="Agrave" unicode="&#xc0;" horiz-adv-x="669" d="M-3 0 L199 0 L199 24 L169 31 C141 38 130 47 130 73 C130 88 134 111 144 139 L174 230 L381 230 L413 139 C423 111 431 85 431 68 C431 49 422 38 396 31 L368 24 L368 0 L669 0 L669 24 L645 30 C618 38 606 54 579 126 L372 693 L290 693 L91 133 C60 48 53 39 23 31 L-3 24 L-3 0 Z M273 529 L278 529 L368 269 L187 269 L273 529 Z M446 740 L291 852 C276 863 262 869 247 869 C219 869 198 843 198 814 C198 792 210 772 244 765 L440 724 L446 740 Z " />
<glyph glyph-name="Aacute" unicode="&#xc1;" horiz-adv-x="669" d="M-3 0 L199 0 L199 24 L169 31 C141 38 130 47 130 73 C130 88 134 111 144 139 L174 230 L381 230 L413 139 C423 111 431 85 431 68 C431 49 422 38 396 31 L368 24 L368 0 L669 0 L669 24 L645 30 C618 38 606 54 579 126 L372 693 L290 693 L91 133 C60 48 53 39 23 31 L-3 24 L-3 0 Z M273 529 L278 529 L368 269 L187 269 L273 529 Z M227 724 L423 765 C457 772 469 792 469 814 C469 843 448 869 420 869 C405 869 391 863 376 852 L221 740 L227 724 Z " />
<glyph glyph-name="Acircumflex" unicode="&#xc2;" horiz-adv-x="669" d="M-3 0 L199 0 L199 24 L169 31 C141 38 130 47 130 73 C130 88 134 111 144 139 L174 230 L381 230 L413 139 C423 111 431 85 431 68 C431 49 422 38 396 31 L368 24 L368 0 L669 0 L669 24 L645 30 C618 38 606 54 579 126 L372 693 L290 693 L91 133 C60 48 53 39 23 31 L-3 24 L-3 0 Z M273 529 L278 529 L368 269 L187 269 L273 529 Z M189 720 L330 773 L471 720 L481 735 L352 864 L307 864 L179 735 L189 720 Z " />
<glyph glyph-name="Atilde" unicode="&#xc3;" horiz-adv-x="669" d="M-3 0 L199 0 L199 24 L169 31 C141 38 130 47 130 73 C130 88 134 111 144 139 L174 230 L381 230 L413 139 C423 111 431 85 431 68 C431 49 422 38 396 31 L368 24 L368 0 L669 0 L669 24 L645 30 C618 38 606 54 579 126 L372 693 L290 693 L91 133 C60 48 53 39 23 31 L-3 24 L-3 0 Z M186 719 C205 750 217 762 238 762 C281 762 356 739 401 739 C448 739 466 784 495 854 L474 865 C455 834 442 822 422 822 C379 822 304 845 259 845 C213 845 194 799 165 730 L186 719 Z M273 529 L278 529 L368 269 L187 269 L273 529 Z " />
<glyph glyph-name="Adieresis" unicode="&#xc4;" horiz-adv-x="669" d="M-3 0 L199 0 L199 24 L169 31 C141 38 130 47 130 73 C130 88 134 111 144 139 L174 230 L381 230 L413 139 C423 111 431 85 431 68 C431 49 422 38 396 31 L368 24 L368 0 L669 0 L669 24 L645 30 C618 38 606 54 579 126 L372 693 L290 693 L91 133 C60 48 53 39 23 31 L-3 24 L-3 0 Z M273 529 L278 529 L368 269 L187 269 L273 529 Z M222 728 C261 728 291 757 291 795 C291 833 261 862 222 862 C185 862 154 833 154 795 C154 757 185 728 222 728 L222 728 Z M438 728 C475 728 506 757 506 795 C506 833 475 862 438 862 C399 862 369 833 369 795 C369 757 399 728 438 728 L438 728 Z " />
<glyph glyph-name="Aring" unicode="&#xc5;" horiz-adv-x="669" d="M-3 0 L199 0 L199 24 L169 31 C141 38 130 47 130 73 C130 88 134 111 144 139 L174 230 L381 230 L413 139 C423 111 431 85 431 68 C431 49 422 38 396 31 L368 24 L368 0 L669 0 L669 24 L645 30 C618 38 606 54 579 126 L372 693 L290 693 L91 133 C60 48 53 39 23 31 L-3 24 L-3 0 Z M330 720 C385 720 426 760 426 811 C426 864 385 903 330 903 C275 903 234 864 234 811 C234 760 273 720 330 720 L330 720 Z M273 529 L278 529 L368 269 L187 269 L273 529 Z M330 752 C297 752 275 777 275 811 C275 846 298 871 330 871 C363 871 385 846 385 811 C385 777 363 752 330 752 L330 752 Z " />
<glyph glyph-name="AE" unicode="&#xc6;" horiz-adv-x="917" d="M-4 0 L205 0 L205 24 L176 31 C153 37 144 46 145 62 C145 81 157 108 174 139 L217 219 L425 219 L425 100 C425 43 414 38 387 32 L349 24 L349 0 L881 0 L895 226 L867 226 C844 165 823 119 806 95 C775 49 760 40 676 40 C574 40 569 50 569 147 L569 340 L600 340 C679 340 694 336 707 309 C719 282 727 261 735 229 L761 229 L761 488 L735 488 C727 455 719 434 707 410 C694 386 672 379 600 379 L569 379 L569 644 C586 649 616 653 668 653 C742 653 763 648 793 603 C806 583 822 555 845 502 L872 502 L861 693 L335 693 L335 669 L375 661 C388 658 400 655 408 647 L115 133 C67 48 53 39 22 31 L-4 24 L-4 0 Z M422 593 L425 593 L425 257 L238 257 L422 593 Z " />
<glyph glyph-name="Ccedilla" unicode="&#xc7;" horiz-adv-x="618" d="M252 -204 C352 -196 417 -167 417 -112 C417 -76 384 -53 332 -48 L356 -12 L358 -12 C455 -12 532 10 578 30 L589 222 L564 222 C541 164 520 123 493 83 C466 45 439 27 368 27 C248 27 190 107 190 360 C190 582 247 666 374 666 C432 666 459 651 482 618 C505 585 532 535 556 478 L584 478 L573 681 C531 694 462 705 385 705 C195 705 30 603 30 341 C30 114 151 3 320 -10 L280 -90 L285 -98 C317 -101 337 -109 337 -129 C337 -153 312 -171 252 -185 L252 -204 Z " />
<glyph glyph-name="Egrave" unicode="&#xc8;" horiz-adv-x="603" d="M432 740 L277 852 C262 863 248 869 233 869 C205 869 184 843 184 814 C184 792 196 772 230 765 L426 724 L432 740 Z M20 0 L567 0 L581 226 L553 226 C529 165 508 119 491 95 C459 49 444 40 359 40 C248 40 245 50 245 147 L245 340 L284 340 C363 340 378 336 391 309 C404 282 411 261 419 229 L446 229 L446 488 L419 488 C411 455 404 434 391 410 C378 386 357 379 284 379 L245 379 L245 644 C262 648 290 653 350 653 C427 653 447 648 478 603 C491 583 507 555 531 502 L557 502 L547 693 L20 693 L20 669 L59 661 C86 655 95 650 95 593 L95 100 C95 43 86 38 59 32 L20 24 L20 0 Z " />
<glyph glyph-name="Eacute" unicode="&#xc9;" horiz-adv-x="603" d="M213 724 L409 765 C443 772 455 792 455 814 C455 843 434 869 406 869 C391 869 377 863 362 852 L207 740 L213 724 Z M20 0 L567 0 L581 226 L553 226 C529 165 508 119 491 95 C459 49 444 40 359 40 C248 40 245 50 245 147 L245 340 L284 340 C363 340 378 336 391 309 C404 282 411 261 419 229 L446 229 L446 488 L419 488 C411 455 404 434 391 410 C378 386 357 379 284 379 L245 379 L245 644 C262 648 290 653 350 653 C427 653 447 648 478 603 C491 583 507 555 531 502 L557 502 L547 693 L20 693 L20 669 L59 661 C86 655 95 650 95 593 L95 100 C95 43 86 38 59 32 L20 24 L20 0 Z " />
<glyph glyph-name="Ecircumflex" unicode="&#xca;" horiz-adv-x="603" d="M175 720 L316 773 L457 720 L467 735 L338 864 L293 864 L165 735 L175 720 Z M20 0 L567 0 L581 226 L553 226 C529 165 508 119 491 95 C459 49 444 40 359 40 C248 40 245 50 245 147 L245 340 L284 340 C363 340 378 336 391 309 C404 282 411 261 419 229 L446 229 L446 488 L419 488 C411 455 404 434 391 410 C378 386 357 379 284 379 L245 379 L245 644 C262 648 290 653 350 653 C427 653 447 648 478 603 C491 583 507 555 531 502 L557 502 L547 693 L20 693 L20 669 L59 661 C86 655 95 650 95 593 L95 100 C95 43 86 38 59 32 L20 24 L20 0 Z " />
<glyph glyph-name="Edieresis" unicode="&#xcb;" horiz-adv-x="603" d="M20 0 L567 0 L581 226 L553 226 C529 165 508 119 491 95 C459 49 444 40 359 40 C248 40 245 50 245 147 L245 340 L284 340 C363 340 378 336 391 309 C404 282 411 261 419 229 L446 229 L446 488 L419 488 C411 455 404 434 391 410 C378 386 357 379 284 379 L245 379 L245 644 C262 648 290 653 350 653 C427 653 447 648 478 603 C491 583 507 555 531 502 L557 502 L547 693 L20 693 L20 669 L59 661 C86 655 95 650 95 593 L95 100 C95 43 86 38 59 32 L20 24 L20 0 Z M208 728 C247 728 277 757 277 795 C277 833 247 862 208 862 C171 862 140 833 140 795 C140 757 171 728 208 728 L208 728 Z M424 728 C461 728 492 757 492 795 C492 833 461 862 424 862 C385 862 355 833 355 795 C355 757 385 728 424 728 L424 728 Z " />
<glyph glyph-name="Igrave" unicode="&#xcc;" horiz-adv-x="347" d="M20 0 L327 0 L327 24 L285 32 C255 38 249 43 249 100 L249 593 C249 650 255 655 285 661 L327 669 L327 693 L20 693 L20 669 L62 661 C90 656 98 650 98 593 L98 100 C98 43 90 37 62 32 L20 24 L20 0 Z M289 740 L134 852 C119 863 105 869 90 869 C62 869 41 843 41 814 C41 792 53 772 87 765 L283 724 L289 740 Z " />
<glyph glyph-name="Iacute" unicode="&#xcd;" horiz-adv-x="347" d="M20 0 L327 0 L327 24 L285 32 C255 38 249 43 249 100 L249 593 C249 650 255 655 285 661 L327 669 L327 693 L20 693 L20 669 L62 661 C90 656 98 650 98 593 L98 100 C98 43 90 37 62 32 L20 24 L20 0 Z M71 724 L267 765 C301 772 313 792 313 814 C313 843 292 869 264 869 C249 869 235 863 220 852 L65 740 L71 724 Z " />
<glyph glyph-name="Icircumflex" unicode="&#xce;" horiz-adv-x="347" d="M20 0 L327 0 L327 24 L285 32 C255 38 249 43 249 100 L249 593 C249 650 255 655 285 661 L327 669 L327 693 L20 693 L20 669 L62 661 C90 656 98 650 98 593 L98 100 C98 43 90 37 62 32 L20 24 L20 0 Z M33 720 L174 773 L315 720 L325 735 L196 864 L151 864 L23 735 L33 720 Z " />
<glyph glyph-name="Idieresis" unicode="&#xcf;" horiz-adv-x="347" d="M20 0 L327 0 L327 24 L285 32 C255 38 249 43 249 100 L249 593 C249 650 255 655 285 661 L327 669 L327 693 L20 693 L20 669 L62 661 C90 656 98 650 98 593 L98 100 C98 43 90 37 62 32 L20 24 L20 0 Z M66 728 C105 728 135 757 135 795 C135 833 105 862 66 862 C29 862 -2 833 -2 795 C-2 757 29 728 66 728 L66 728 Z M282 728 C319 728 350 757 350 795 C350 833 319 862 282 862 C243 862 213 833 213 795 C213 757 243 728 282 728 L282 728 Z " />
<glyph glyph-name="Eth" unicode="&#xd0;" horiz-adv-x="711" d="M27 330 L95 330 L95 100 C95 43 86 38 59 32 L20 24 L20 0 L335 0 C544 0 681 126 681 356 C681 600 540 693 340 693 L20 693 L20 669 L59 661 C86 655 95 650 95 593 L95 368 L27 368 L27 330 Z M326 39 C255 39 245 52 245 131 L245 330 L397 330 L397 368 L245 368 L245 645 C258 650 286 654 324 654 C464 654 524 565 524 335 C524 149 473 39 326 39 L326 39 Z " />
<glyph glyph-name="Ntilde" unicode="&#xd1;" horiz-adv-x="689" d="M221 719 C240 750 252 762 273 762 C316 762 391 739 436 739 C483 739 501 784 530 854 L509 865 C490 834 477 822 457 822 C414 822 339 845 294 845 C248 845 229 799 200 730 L221 719 Z M540 -2 L599 -2 L599 583 C599 650 611 656 641 662 L674 669 L674 693 L466 693 L466 669 L508 662 C545 655 552 650 552 581 L552 245 L548 245 L252 693 L20 693 L20 669 L59 661 C86 655 95 650 95 593 L95 110 C95 43 83 37 52 31 L20 24 L20 0 L224 0 L224 24 L186 31 C149 38 141 43 141 112 L141 589 L145 589 L540 -2 Z " />
<glyph glyph-name="Ograve" unicode="&#xd2;" horiz-adv-x="712" d="M471 740 L316 852 C301 863 287 869 272 869 C244 869 223 843 223 814 C223 792 235 772 269 765 L465 724 L471 740 Z M352 -12 C513 -12 683 90 683 353 C683 593 533 705 360 705 C199 705 29 599 29 337 C29 102 179 -12 352 -12 L352 -12 Z M358 27 C227 27 186 154 186 357 C186 584 241 666 353 666 C484 666 526 536 526 333 C526 106 473 27 358 27 L358 27 Z " />
<glyph glyph-name="Oacute" unicode="&#xd3;" horiz-adv-x="712" d="M253 724 L449 765 C483 772 495 792 495 814 C495 843 474 869 446 869 C431 869 417 863 402 852 L247 740 L253 724 Z M352 -12 C513 -12 683 90 683 353 C683 593 533 705 360 705 C199 705 29 599 29 337 C29 102 179 -12 352 -12 L352 -12 Z M358 27 C227 27 186 154 186 357 C186 584 241 666 353 666 C484 666 526 536 526 333 C526 106 473 27 358 27 L358 27 Z " />
<glyph glyph-name="Ocircumflex" unicode="&#xd4;" horiz-adv-x="712" d="M215 720 L356 773 L497 720 L507 735 L378 864 L333 864 L205 735 L215 720 Z M352 -12 C513 -12 683 90 683 353 C683 593 533 705 360 705 C199 705 29 599 29 337 C29 102 179 -12 352 -12 L352 -12 Z M358 27 C227 27 186 154 186 357 C186 584 241 666 353 666 C484 666 526 536 526 333 C526 106 473 27 358 27 L358 27 Z " />
<glyph glyph-name="Otilde" unicode="&#xd5;" horiz-adv-x="712" d="M212 719 C231 750 243 762 264 762 C307 762 382 739 427 739 C474 739 492 784 521 854 L500 865 C481 834 468 822 448 822 C405 822 330 845 285 845 C239 845 220 799 191 730 L212 719 Z M352 -12 C513 -12 683 90 683 353 C683 593 533 705 360 705 C199 705 29 599 29 337 C29 102 179 -12 352 -12 L352 -12 Z M358 27 C227 27 186 154 186 357 C186 584 241 666 353 666 C484 666 526 536 526 333 C526 106 473 27 358 27 L358 27 Z " />
<glyph glyph-name="Odieresis" unicode="&#xd6;" horiz-adv-x="712" d="M248 728 C287 728 317 757 317 795 C317 833 287 862 248 862 C211 862 180 833 180 795 C180 757 211 728 248 728 L248 728 Z M464 728 C501 728 532 757 532 795 C532 833 501 862 464 862 C425 862 395 833 395 795 C395 757 425 728 464 728 L464 728 Z M352 -12 C513 -12 683 90 683 353 C683 593 533 705 360 705 C199 705 29 599 29 337 C29 102 179 -12 352 -12 L352 -12 Z M358 27 C227 27 186 154 186 357 C186 584 241 666 353 666 C484 666 526 536 526 333 C526 106 473 27 358 27 L358 27 Z " />
<glyph glyph-name="multiply" unicode="&#xd7;" horiz-adv-x="438" d="M80 151 L219 299 L359 151 L398 189 L257 338 L395 485 L357 523 L219 378 L83 523 L43 485 L182 338 L40 189 L80 151 Z " />
<glyph glyph-name="Oslash" unicode="&#xd8;" horiz-adv-x="712" d="M72 -64 L120 -64 L181 32 C231 3 290 -12 352 -12 C513 -12 683 90 683 353 C683 486 636 580 564 637 L623 730 L575 730 L531 660 C480 690 421 705 360 705 C199 705 29 599 29 337 C29 207 76 113 148 55 L72 -64 Z M358 27 C295 27 253 52 226 103 L504 542 C519 489 526 420 526 333 C526 106 473 27 358 27 L358 27 Z M186 357 C186 584 241 666 353 666 C416 666 458 640 485 589 L207 150 C192 202 186 271 186 357 L186 357 Z " />
<glyph glyph-name="Ugrave" unicode="&#xd9;" horiz-adv-x="692" d="M505 740 L350 852 C335 863 321 869 306 869 C278 869 257 843 257 814 C257 792 269 772 303 765 L499 724 L505 740 Z M361 -12 C534 -12 608 89 608 212 L608 583 C608 650 620 656 649 662 L682 669 L682 693 L473 693 L473 669 L516 662 C554 655 561 650 561 581 L561 219 C561 111 515 46 402 46 C283 46 236 97 236 207 L236 593 C236 650 242 654 272 661 L309 669 L309 693 L11 693 L11 669 L49 661 C77 655 85 650 85 593 L85 223 C85 53 197 -12 361 -12 L361 -12 Z " />
<glyph glyph-name="Uacute" unicode="&#xda;" horiz-adv-x="692" d="M287 724 L483 765 C517 772 529 792 529 814 C529 843 508 869 480 869 C465 869 451 863 436 852 L281 740 L287 724 Z M361 -12 C534 -12 608 89 608 212 L608 583 C608 650 620 656 649 662 L682 669 L682 693 L473 693 L473 669 L516 662 C554 655 561 650 561 581 L561 219 C561 111 515 46 402 46 C283 46 236 97 236 207 L236 593 C236 650 242 654 272 661 L309 669 L309 693 L11 693 L11 669 L49 661 C77 655 85 650 85 593 L85 223 C85 53 197 -12 361 -12 L361 -12 Z " />
<glyph glyph-name="Ucircumflex" unicode="&#xdb;" horiz-adv-x="692" d="M249 720 L390 773 L531 720 L541 735 L412 864 L367 864 L239 735 L249 720 Z M361 -12 C534 -12 608 89 608 212 L608 583 C608 650 620 656 649 662 L682 669 L682 693 L473 693 L473 669 L516 662 C554 655 561 650 561 581 L561 219 C561 111 515 46 402 46 C283 46 236 97 236 207 L236 593 C236 650 242 654 272 661 L309 669 L309 693 L11 693 L11 669 L49 661 C77 655 85 650 85 593 L85 223 C85 53 197 -12 361 -12 L361 -12 Z " />
<glyph glyph-name="Udieresis" unicode="&#xdc;" horiz-adv-x="692" d="M361 -12 C534 -12 608 89 608 212 L608 583 C608 650 620 656 649 662 L682 669 L682 693 L473 693 L473 669 L516 662 C554 655 561 650 561 581 L561 219 C561 111 515 46 402 46 C283 46 236 97 236 207 L236 593 C236 650 242 654 272 661 L309 669 L309 693 L11 693 L11 669 L49 661 C77 655 85 650 85 593 L85 223 C85 53 197 -12 361 -12 L361 -12 Z M282 728 C321 728 351 757 351 795 C351 833 321 862 282 862 C245 862 214 833 214 795 C214 757 245 728 282 728 L282 728 Z M498 728 C535 728 566 757 566 795 C566 833 535 862 498 862 C459 862 429 833 429 795 C429 757 459 728 498 728 L498 728 Z " />
<glyph glyph-name="Yacute" unicode="&#xdd;" horiz-adv-x="629" d="M172 0 L480 0 L480 24 L439 32 C406 38 402 43 402 100 L402 290 L532 563 C565 632 581 652 612 663 L633 669 L633 693 L427 693 L427 669 L456 662 C486 655 496 643 496 623 C496 608 493 591 480 564 L377 337 L373 337 L256 568 C243 592 237 611 237 624 C237 645 248 656 276 663 L304 669 L304 693 L-4 693 L-4 669 L18 663 C45 654 56 640 91 576 L251 283 L251 100 C251 43 245 38 214 32 L172 24 L172 0 Z M255 724 L451 765 C485 772 497 792 497 814 C497 843 476 869 448 869 C433 869 419 863 404 852 L249 740 L255 724 Z " />
<glyph glyph-name="Thorn" unicode="&#xde;" horiz-adv-x="613" d="M20 0 L332 0 L332 24 L282 33 C252 39 245 43 245 100 L245 510 C257 513 284 517 318 517 C400 517 440 481 440 356 C440 229 391 191 276 194 L276 168 C285 164 309 158 346 158 C507 158 593 247 593 364 C593 492 499 555 326 555 L245 555 L245 593 C245 650 252 654 281 661 L322 669 L322 693 L20 693 L20 669 L59 661 C86 655 95 650 95 593 L95 100 C95 43 86 37 59 32 L20 24 L20 0 Z " />
<glyph glyph-name="germandbls" unicode="&#xdf;" horiz-adv-x="633" d="M425 -9 C536 -9 614 53 614 154 C614 223 581 267 491 321 C392 381 371 397 371 420 C371 470 522 526 522 631 C522 698 458 759 320 759 C202 759 79 695 79 532 L79 516 L9 485 L9 463 L79 463 L79 86 C79 45 74 39 47 31 L15 23 L15 0 L261 0 L261 23 L235 29 C215 34 213 40 213 83 L213 588 C213 687 251 725 314 725 C380 725 407 677 407 616 C407 508 295 435 295 350 C295 301 322 268 407 215 C486 164 513 141 513 95 C513 54 485 27 439 27 C405 27 397 34 392 68 C388 105 375 128 334 128 C298 128 277 105 277 73 C277 22 324 -9 425 -9 L425 -9 Z " />
<glyph glyph-name="agrave" unicode="&#xe0;" horiz-adv-x="515" d="M169 -13 C230 -13 279 15 304 48 L309 48 C318 11 349 -12 404 -12 C452 -12 491 5 508 18 L508 39 C491 39 473 42 461 48 C442 58 436 73 436 106 L436 395 C436 489 372 530 250 530 C134 530 44 499 44 435 C44 402 64 379 105 379 C154 379 168 406 173 457 C176 486 186 494 222 494 C289 494 302 464 302 387 L302 294 L184 265 C91 243 19 205 19 120 C19 35 76 -13 169 -13 L169 -13 Z M230 49 C183 49 152 76 152 138 C152 211 187 236 244 241 L302 247 L302 86 C291 66 266 49 230 49 L230 49 Z M346 578 L354 594 L212 713 C196 727 180 733 165 733 C137 733 116 707 116 680 C116 660 128 637 159 628 L346 578 Z " />
<glyph glyph-name="aacute" unicode="&#xe1;" horiz-adv-x="515" d="M169 -13 C230 -13 279 15 304 48 L309 48 C318 11 349 -12 404 -12 C452 -12 491 5 508 18 L508 39 C491 39 473 42 461 48 C442 58 436 73 436 106 L436 395 C436 489 372 530 250 530 C134 530 44 499 44 435 C44 402 64 379 105 379 C154 379 168 406 173 457 C176 486 186 494 222 494 C289 494 302 464 302 387 L302 294 L184 265 C91 243 19 205 19 120 C19 35 76 -13 169 -13 L169 -13 Z M230 49 C183 49 152 76 152 138 C152 211 187 236 244 241 L302 247 L302 86 C291 66 266 49 230 49 L230 49 Z M158 578 L346 628 C377 637 388 660 388 680 C388 707 367 733 339 733 C324 733 309 727 293 713 L151 594 L158 578 Z " />
<glyph glyph-name="acircumflex" unicode="&#xe2;" horiz-adv-x="515" d="M169 -13 C230 -13 279 15 304 48 L309 48 C318 11 349 -12 404 -12 C452 -12 491 5 508 18 L508 39 C491 39 473 42 461 48 C442 58 436 73 436 106 L436 395 C436 489 372 530 250 530 C134 530 44 499 44 435 C44 402 64 379 105 379 C154 379 168 406 173 457 C176 486 186 494 222 494 C289 494 302 464 302 387 L302 294 L184 265 C91 243 19 205 19 120 C19 35 76 -13 169 -13 L169 -13 Z M230 49 C183 49 152 76 152 138 C152 211 187 236 244 241 L302 247 L302 86 C291 66 266 49 230 49 L230 49 Z M113 573 L248 637 L383 573 L393 588 L270 728 L225 728 L103 588 L113 573 Z " />
<glyph glyph-name="atilde" unicode="&#xe3;" horiz-adv-x="515" d="M169 -13 C230 -13 279 15 304 48 L309 48 C318 11 349 -12 404 -12 C452 -12 491 5 508 18 L508 39 C491 39 473 42 461 48 C442 58 436 73 436 106 L436 395 C436 489 372 530 250 530 C134 530 44 499 44 435 C44 402 64 379 105 379 C154 379 168 406 173 457 C176 486 186 494 222 494 C289 494 302 464 302 387 L302 294 L184 265 C91 243 19 205 19 120 C19 35 76 -13 169 -13 L169 -13 Z M230 49 C183 49 152 76 152 138 C152 211 187 236 244 241 L302 247 L302 86 C291 66 266 49 230 49 L230 49 Z M108 572 C127 603 139 615 160 615 C202 615 270 592 315 592 C363 592 381 637 410 707 L388 718 C369 687 356 675 336 675 C293 675 226 698 181 698 C135 698 116 653 86 583 L108 572 Z " />
<glyph glyph-name="adieresis" unicode="&#xe4;" horiz-adv-x="515" d="M169 -13 C230 -13 279 15 304 48 L309 48 C318 11 349 -12 404 -12 C452 -12 491 5 508 18 L508 39 C491 39 473 42 461 48 C442 58 436 73 436 106 L436 395 C436 489 372 530 250 530 C134 530 44 499 44 435 C44 402 64 379 105 379 C154 379 168 406 173 457 C176 486 186 494 222 494 C289 494 302 464 302 387 L302 294 L184 265 C91 243 19 205 19 120 C19 35 76 -13 169 -13 L169 -13 Z M230 49 C183 49 152 76 152 138 C152 211 187 236 244 241 L302 247 L302 86 C291 66 266 49 230 49 L230 49 Z M148 581 C187 581 217 610 217 648 C217 687 187 715 148 715 C111 715 80 687 80 648 C80 610 111 581 148 581 L148 581 Z M348 581 C385 581 416 610 416 648 C416 687 385 715 348 715 C309 715 279 687 279 648 C279 610 309 581 348 581 L348 581 Z " />
<glyph glyph-name="aring" unicode="&#xe5;" horiz-adv-x="515" d="M169 -13 C230 -13 279 15 304 48 L309 48 C318 11 349 -12 404 -12 C452 -12 491 5 508 18 L508 39 C491 39 473 42 461 48 C442 58 436 73 436 106 L436 395 C436 489 372 530 250 530 C134 530 44 499 44 435 C44 402 64 379 105 379 C154 379 168 406 173 457 C176 486 186 494 222 494 C289 494 302 464 302 387 L302 294 L184 265 C91 243 19 205 19 120 C19 35 76 -13 169 -13 L169 -13 Z M230 49 C183 49 152 76 152 138 C152 211 187 236 244 241 L302 247 L302 86 C291 66 266 49 230 49 L230 49 Z M248 573 C303 573 344 613 344 664 C344 717 303 756 248 756 C193 756 152 717 152 664 C152 613 191 573 248 573 L248 573 Z M248 605 C215 605 193 630 193 664 C193 699 216 724 248 724 C281 724 303 699 303 664 C303 630 281 605 248 605 L248 605 Z " />
<glyph glyph-name="ae" unicode="&#xe6;" horiz-adv-x="775" d="M543 -12 C639 -12 709 40 740 72 L740 102 C703 84 659 63 592 63 C498 63 434 113 429 271 L753 271 C753 457 673 530 545 530 C483 530 431 505 393 464 C369 505 321 530 242 530 C134 530 42 499 42 436 C42 402 63 379 104 379 C152 379 166 406 171 457 C175 486 185 494 221 494 C288 494 300 460 300 387 L300 296 L184 268 C89 246 19 205 19 119 C19 34 76 -13 172 -13 C247 -13 304 15 349 72 C389 18 453 -12 543 -12 L543 -12 Z M537 495 C602 495 617 441 617 316 L429 306 C432 440 475 495 537 495 L537 495 Z M230 49 C183 49 152 75 152 137 C152 210 187 239 244 244 L300 250 C301 198 309 153 325 116 C304 76 273 49 230 49 L230 49 Z " />
<glyph glyph-name="ccedilla" unicode="&#xe7;" horiz-adv-x="484" d="M151 -204 C251 -196 316 -167 316 -112 C316 -76 283 -53 231 -48 L255 -12 L266 -12 C367 -12 439 39 468 71 L468 102 C433 84 381 63 318 63 C206 63 159 143 159 294 C159 451 223 493 290 493 C323 493 331 486 336 445 C341 407 355 377 402 377 C441 377 467 404 467 440 C467 497 414 530 317 530 C185 530 23 465 23 254 C23 111 92 11 219 -8 L179 -90 L184 -98 C216 -101 236 -109 236 -129 C236 -153 211 -171 151 -185 L151 -204 Z " />
<glyph glyph-name="egrave" unicode="&#xe8;" horiz-adv-x="515" d="M276 -12 C375 -12 447 40 479 72 L479 102 C441 84 395 63 327 63 C225 63 160 115 158 280 L492 280 C490 461 409 530 276 530 C145 530 23 429 23 261 C23 94 107 -12 276 -12 L276 -12 Z M270 495 C336 495 353 446 353 325 L158 315 C163 442 209 495 270 495 L270 495 Z M372 578 L380 594 L238 713 C222 727 206 733 191 733 C163 733 142 707 142 680 C142 660 154 637 185 628 L372 578 Z " />
<glyph glyph-name="eacute" unicode="&#xe9;" horiz-adv-x="515" d="M276 -12 C375 -12 447 40 479 72 L479 102 C441 84 395 63 327 63 C225 63 160 115 158 280 L492 280 C490 461 409 530 276 530 C145 530 23 429 23 261 C23 94 107 -12 276 -12 L276 -12 Z M270 495 C336 495 353 446 353 325 L158 315 C163 442 209 495 270 495 L270 495 Z M185 578 L373 628 C404 637 415 660 415 680 C415 707 394 733 366 733 C351 733 336 727 320 713 L178 594 L185 578 Z " />
<glyph glyph-name="ecircumflex" unicode="&#xea;" horiz-adv-x="515" d="M276 -12 C375 -12 447 40 479 72 L479 102 C441 84 395 63 327 63 C225 63 160 115 158 280 L492 280 C490 461 409 530 276 530 C145 530 23 429 23 261 C23 94 107 -12 276 -12 L276 -12 Z M270 495 C336 495 353 446 353 325 L158 315 C163 442 209 495 270 495 L270 495 Z M139 573 L274 637 L409 573 L419 588 L296 728 L251 728 L129 588 L139 573 Z " />
<glyph glyph-name="edieresis" unicode="&#xeb;" horiz-adv-x="515" d="M276 -12 C375 -12 447 40 479 72 L479 102 C441 84 395 63 327 63 C225 63 160 115 158 280 L492 280 C490 461 409 530 276 530 C145 530 23 429 23 261 C23 94 107 -12 276 -12 L276 -12 Z M270 495 C336 495 353 446 353 325 L158 315 C163 442 209 495 270 495 L270 495 Z M374 581 C411 581 442 610 442 648 C442 687 411 715 374 715 C335 715 305 687 305 648 C305 610 335 581 374 581 L374 581 Z M174 581 C213 581 243 610 243 648 C243 687 213 715 174 715 C137 715 106 687 106 648 C106 610 137 581 174 581 L174 581 Z " />
<glyph glyph-name="igrave" unicode="&#xec;" horiz-adv-x="288" d="M15 0 L277 0 L277 26 L245 34 C220 40 213 43 213 71 L213 417 C213 448 215 481 217 522 L208 529 L13 506 L13 489 L48 469 C74 454 79 449 79 420 L79 71 C79 45 69 40 47 34 L15 26 L15 0 Z M242 578 L250 594 L108 713 C92 727 76 733 61 733 C33 733 12 707 12 680 C12 660 24 637 55 628 L242 578 Z " />
<glyph glyph-name="iacute" unicode="&#xed;" horiz-adv-x="288" d="M56 578 L244 628 C275 637 286 660 286 680 C286 707 265 733 237 733 C222 733 207 727 191 713 L49 594 L56 578 Z M15 0 L277 0 L277 26 L245 34 C220 40 213 43 213 71 L213 417 C213 448 215 481 217 522 L208 529 L13 506 L13 489 L48 469 C74 454 79 449 79 420 L79 71 C79 45 69 40 47 34 L15 26 L15 0 Z " />
<glyph glyph-name="icircumflex" unicode="&#xee;" horiz-adv-x="288" d="M10 573 L145 637 L280 573 L290 588 L167 728 L122 728 L0 588 L10 573 Z M15 0 L277 0 L277 26 L245 34 C220 40 213 43 213 71 L213 417 C213 448 215 481 217 522 L208 529 L13 506 L13 489 L48 469 C74 454 79 449 79 420 L79 71 C79 45 69 40 47 34 L15 26 L15 0 Z " />
<glyph glyph-name="idieresis" unicode="&#xef;" horiz-adv-x="288" d="M45 581 C84 581 114 610 114 648 C114 687 84 715 45 715 C8 715 -23 687 -23 648 C-23 610 8 581 45 581 L45 581 Z M245 581 C282 581 313 610 313 648 C313 687 282 715 245 715 C206 715 176 687 176 648 C176 610 206 581 245 581 L245 581 Z M15 0 L277 0 L277 26 L245 34 C220 40 213 43 213 71 L213 417 C213 448 215 481 217 522 L208 529 L13 506 L13 489 L48 469 C74 454 79 449 79 420 L79 71 C79 45 69 40 47 34 L15 26 L15 0 Z " />
<glyph glyph-name="eth" unicode="&#xf0;" horiz-adv-x="570" d="M158 577 L279 633 C324 589 355 541 372 494 C347 515 317 525 274 525 C158 525 23 440 23 255 C23 75 141 -13 284 -13 C415 -13 547 63 547 298 C547 455 483 578 351 666 L448 711 L433 743 L315 689 C263 718 203 743 133 763 L123 739 C172 716 215 688 250 659 L144 610 L158 577 Z M287 23 C206 23 166 76 166 271 C166 436 207 489 281 489 C361 489 403 441 403 249 C403 71 359 23 287 23 L287 23 Z " />
<glyph glyph-name="ntilde" unicode="&#xf1;" horiz-adv-x="608" d="M15 0 L274 0 L274 23 L243 31 C217 38 213 41 213 86 L213 431 C238 437 282 449 323 449 C376 449 399 428 399 364 L399 86 C399 41 395 38 369 31 L338 23 L338 0 L597 0 L597 23 L565 31 C539 38 533 44 533 86 L533 396 C533 486 492 529 401 529 C332 529 264 497 213 461 L208 461 L210 523 L201 529 L13 506 L13 489 L48 468 C74 452 79 449 79 407 L79 86 C79 45 74 39 47 31 L15 23 L15 0 Z M168 572 C187 603 199 615 220 615 C262 615 330 592 375 592 C423 592 441 637 470 707 L448 718 C429 687 416 675 396 675 C353 675 286 698 241 698 C195 698 176 653 146 583 L168 572 Z " />
<glyph glyph-name="ograve" unicode="&#xf2;" horiz-adv-x="569" d="M284 -13 C418 -13 546 78 546 263 C546 443 427 530 284 530 C152 530 23 442 23 257 C23 77 141 -13 284 -13 L284 -13 Z M288 23 C205 23 166 79 166 273 C166 439 207 494 281 494 C361 494 403 443 403 251 C403 73 360 23 288 23 L288 23 Z M381 578 L389 594 L247 713 C231 727 215 733 200 733 C172 733 151 707 151 680 C151 660 163 637 194 628 L381 578 Z " />
<glyph glyph-name="oacute" unicode="&#xf3;" horiz-adv-x="569" d="M195 578 L383 628 C414 637 425 660 425 680 C425 707 404 733 376 733 C361 733 346 727 330 713 L188 594 L195 578 Z M284 -13 C418 -13 546 78 546 263 C546 443 427 530 284 530 C152 530 23 442 23 257 C23 77 141 -13 284 -13 L284 -13 Z M288 23 C205 23 166 79 166 273 C166 439 207 494 281 494 C361 494 403 443 403 251 C403 73 360 23 288 23 L288 23 Z " />
<glyph glyph-name="ocircumflex" unicode="&#xf4;" horiz-adv-x="569" d="M149 573 L284 637 L419 573 L429 588 L306 728 L261 728 L139 588 L149 573 Z M284 -13 C418 -13 546 78 546 263 C546 443 427 530 284 530 C152 530 23 442 23 257 C23 77 141 -13 284 -13 L284 -13 Z M288 23 C205 23 166 79 166 273 C166 439 207 494 281 494 C361 494 403 443 403 251 C403 73 360 23 288 23 L288 23 Z " />
<glyph glyph-name="otilde" unicode="&#xf5;" horiz-adv-x="569" d="M284 -13 C418 -13 546 78 546 263 C546 443 427 530 284 530 C152 530 23 442 23 257 C23 77 141 -13 284 -13 L284 -13 Z M288 23 C205 23 166 79 166 273 C166 439 207 494 281 494 C361 494 403 443 403 251 C403 73 360 23 288 23 L288 23 Z M144 572 C163 603 175 615 196 615 C238 615 306 592 351 592 C399 592 417 637 446 707 L424 718 C405 687 392 675 372 675 C329 675 262 698 217 698 C171 698 152 653 122 583 L144 572 Z " />
<glyph glyph-name="odieresis" unicode="&#xf6;" horiz-adv-x="569" d="M184 581 C223 581 253 610 253 648 C253 687 223 715 184 715 C147 715 116 687 116 648 C116 610 147 581 184 581 L184 581 Z M384 581 C421 581 452 610 452 648 C452 687 421 715 384 715 C345 715 315 687 315 648 C315 610 345 581 384 581 L384 581 Z M284 -13 C418 -13 546 78 546 263 C546 443 427 530 284 530 C152 530 23 442 23 257 C23 77 141 -13 284 -13 L284 -13 Z M288 23 C205 23 166 79 166 273 C166 439 207 494 281 494 C361 494 403 443 403 251 C403 73 360 23 288 23 L288 23 Z " />
<glyph glyph-name="divide" unicode="&#xf7;" horiz-adv-x="464" d="M232 110 C269 110 300 141 300 177 C300 216 269 245 232 245 C194 245 164 216 164 177 C164 141 194 110 232 110 L232 110 Z M232 432 C269 432 300 463 300 499 C300 538 269 567 232 567 C194 567 164 538 164 499 C164 463 194 432 232 432 L232 432 Z M36 313 L428 313 L428 364 L36 364 L36 313 Z " />
<glyph glyph-name="oslash" unicode="&#xf8;" horiz-adv-x="569" d="M54 -64 L99 -64 L152 17 C191 -3 236 -13 284 -13 C418 -13 546 78 546 263 C546 364 509 435 451 479 L514 576 L469 576 L419 499 C379 519 333 530 284 530 C152 530 23 442 23 257 C23 155 61 81 120 37 L54 -64 Z M163 256 C162 434 207 494 281 494 C326 494 360 483 380 440 L174 121 C166 154 163 198 163 256 L163 256 Z M288 23 C242 23 210 35 189 75 L395 393 C402 361 405 320 406 266 C407 82 361 23 288 23 L288 23 Z " />
<glyph glyph-name="ugrave" unicode="&#xf9;" horiz-adv-x="604" d="M208 -12 C281 -12 344 23 396 60 L401 60 L399 -5 L408 -12 L594 14 L594 33 L561 48 C534 59 530 65 530 113 L530 520 L519 529 L330 509 L330 491 L367 471 C393 458 396 454 396 415 L396 91 C367 81 327 66 286 66 C235 66 210 92 210 151 L210 520 L199 529 L10 509 L10 491 L47 471 C73 457 76 454 76 415 L76 120 C76 34 127 -12 208 -12 L208 -12 Z M404 578 L412 594 L270 713 C254 727 238 733 223 733 C195 733 174 707 174 680 C174 660 186 637 217 628 L404 578 Z " />
<glyph glyph-name="uacute" unicode="&#xfa;" horiz-adv-x="604" d="M218 578 L406 628 C437 637 448 660 448 680 C448 707 427 733 399 733 C384 733 369 727 353 713 L211 594 L218 578 Z M208 -12 C281 -12 344 23 396 60 L401 60 L399 -5 L408 -12 L594 14 L594 33 L561 48 C534 59 530 65 530 113 L530 520 L519 529 L330 509 L330 491 L367 471 C393 458 396 454 396 415 L396 91 C367 81 327 66 286 66 C235 66 210 92 210 151 L210 520 L199 529 L10 509 L10 491 L47 471 C73 457 76 454 76 415 L76 120 C76 34 127 -12 208 -12 L208 -12 Z " />
<glyph glyph-name="ucircumflex" unicode="&#xfb;" horiz-adv-x="604" d="M171 573 L306 637 L441 573 L451 588 L328 728 L283 728 L161 588 L171 573 Z M208 -12 C281 -12 344 23 396 60 L401 60 L399 -5 L408 -12 L594 14 L594 33 L561 48 C534 59 530 65 530 113 L530 520 L519 529 L330 509 L330 491 L367 471 C393 458 396 454 396 415 L396 91 C367 81 327 66 286 66 C235 66 210 92 210 151 L210 520 L199 529 L10 509 L10 491 L47 471 C73 457 76 454 76 415 L76 120 C76 34 127 -12 208 -12 L208 -12 Z " />
<glyph glyph-name="udieresis" unicode="&#xfc;" horiz-adv-x="604" d="M206 581 C245 581 275 610 275 648 C275 687 245 715 206 715 C169 715 138 687 138 648 C138 610 169 581 206 581 L206 581 Z M406 581 C443 581 474 610 474 648 C474 687 443 715 406 715 C367 715 337 687 337 648 C337 610 367 581 406 581 L406 581 Z M208 -12 C281 -12 344 23 396 60 L401 60 L399 -5 L408 -12 L594 14 L594 33 L561 48 C534 59 530 65 530 113 L530 520 L519 529 L330 509 L330 491 L367 471 C393 458 396 454 396 415 L396 91 C367 81 327 66 286 66 C235 66 210 92 210 151 L210 520 L199 529 L10 509 L10 491 L47 471 C73 457 76 454 76 415 L76 120 C76 34 127 -12 208 -12 L208 -12 Z " />
<glyph glyph-name="yacute" unicode="&#xfd;" horiz-adv-x="535" d="M111 -207 C209 -207 246 -137 282 -46 L462 401 C487 463 492 477 516 485 L541 492 L541 515 L365 515 L365 492 L393 485 C413 480 423 473 423 454 C423 440 418 420 409 395 L318 148 L314 148 L219 395 C210 418 205 436 205 450 C205 471 214 480 234 485 L261 492 L261 515 L-4 515 L-4 492 L17 486 C40 478 45 471 71 411 L248 -11 L235 -41 C201 -123 176 -150 155 -150 C144 -150 140 -146 136 -131 C127 -101 111 -84 74 -84 C39 -84 16 -104 16 -139 C16 -179 52 -207 111 -207 L111 -207 Z M216 578 L404 628 C435 637 446 660 446 680 C446 707 425 733 397 733 C382 733 367 727 351 713 L209 594 L216 578 Z " />
<glyph glyph-name="thorn" unicode="&#xfe;" horiz-adv-x="591" d="M1 -203 L273 -203 L273 -180 L230 -171 C203 -165 199 -160 199 -116 L199 -63 C199 -28 198 -1 198 -1 C222 -8 255 -12 278 -12 C446 -12 564 83 564 284 C564 469 463 529 368 529 C300 529 242 499 201 465 L197 465 C197 465 199 505 199 556 L199 630 C199 704 203 749 203 749 L194 756 L-4 737 L-4 717 L35 698 C60 686 65 682 65 637 L65 -116 C65 -158 61 -164 33 -171 L1 -180 L1 -203 Z M285 25 C248 25 221 39 199 61 L199 431 C218 439 247 454 292 454 C377 454 426 398 426 255 C426 76 378 25 285 25 L285 25 Z " />
<glyph glyph-name="ydieresis" unicode="&#xff;" horiz-adv-x="535" d="M111 -207 C209 -207 246 -137 282 -46 L462 401 C487 463 492 477 516 485 L541 492 L541 515 L365 515 L365 492 L393 485 C413 480 423 473 423 454 C423 440 418 420 409 395 L318 148 L314 148 L219 395 C210 418 205 436 205 450 C205 471 214 480 234 485 L261 492 L261 515 L-4 515 L-4 492 L17 486 C40 478 45 471 71 411 L248 -11 L235 -41 C201 -123 176 -150 155 -150 C144 -150 140 -146 136 -131 C127 -101 111 -84 74 -84 C39 -84 16 -104 16 -139 C16 -179 52 -207 111 -207 L111 -207 Z M205 581 C244 581 274 610 274 648 C274 687 244 715 205 715 C168 715 137 687 137 648 C137 610 168 581 205 581 L205 581 Z M405 581 C442 581 473 610 473 648 C473 687 442 715 405 715 C366 715 336 687 336 648 C336 610 366 581 405 581 L405 581 Z " />
<glyph glyph-name="Amacron" unicode="&#x100;" horiz-adv-x="669" d="M-3 0 L199 0 L199 24 L169 31 C141 38 130 47 130 73 C130 88 134 111 144 139 L174 230 L381 230 L413 139 C423 111 431 85 431 68 C431 49 422 38 396 31 L368 24 L368 0 L669 0 L669 24 L645 30 C618 38 606 54 579 126 L372 693 L290 693 L91 133 C60 48 53 39 23 31 L-3 24 L-3 0 Z M273 529 L278 529 L368 269 L187 269 L273 529 Z M194 746 L466 746 L466 816 L194 816 L194 746 Z " />
<glyph glyph-name="amacron" unicode="&#x101;" horiz-adv-x="515" d="M169 -13 C230 -13 279 15 304 48 L309 48 C318 11 349 -12 404 -12 C452 -12 491 5 508 18 L508 39 C491 39 473 42 461 48 C442 58 436 73 436 106 L436 395 C436 489 372 530 250 530 C134 530 44 499 44 435 C44 402 64 379 105 379 C154 379 168 406 173 457 C176 486 186 494 222 494 C289 494 302 464 302 387 L302 294 L184 265 C91 243 19 205 19 120 C19 35 76 -13 169 -13 L169 -13 Z M230 49 C183 49 152 76 152 138 C152 211 187 236 244 241 L302 247 L302 86 C291 66 266 49 230 49 L230 49 Z M123 605 L373 605 L373 675 L123 675 L123 605 Z " />
<glyph glyph-name="Abreve" unicode="&#x102;" horiz-adv-x="669" d="M-3 0 L199 0 L199 24 L169 31 C141 38 130 47 130 73 C130 88 134 111 144 139 L174 230 L381 230 L413 139 C423 111 431 85 431 68 C431 49 422 38 396 31 L368 24 L368 0 L669 0 L669 24 L645 30 C618 38 606 54 579 126 L372 693 L290 693 L91 133 C60 48 53 39 23 31 L-3 24 L-3 0 Z M273 529 L278 529 L368 269 L187 269 L273 529 Z M330 726 C412 726 461 792 469 866 L447 872 C429 833 393 808 330 808 C264 808 230 836 213 872 L191 866 C200 792 248 726 330 726 L330 726 Z " />
<glyph glyph-name="abreve" unicode="&#x103;" horiz-adv-x="515" d="M169 -13 C230 -13 279 15 304 48 L309 48 C318 11 349 -12 404 -12 C452 -12 491 5 508 18 L508 39 C491 39 473 42 461 48 C442 58 436 73 436 106 L436 395 C436 489 372 530 250 530 C134 530 44 499 44 435 C44 402 64 379 105 379 C154 379 168 406 173 457 C176 486 186 494 222 494 C289 494 302 464 302 387 L302 294 L184 265 C91 243 19 205 19 120 C19 35 76 -13 169 -13 L169 -13 Z M230 49 C183 49 152 76 152 138 C152 211 187 236 244 241 L302 247 L302 86 C291 66 266 49 230 49 L230 49 Z M249 576 C321 576 366 642 374 716 L352 722 C334 683 303 658 249 658 C193 658 163 686 145 722 L123 716 C132 642 178 576 249 576 L249 576 Z " />
<glyph glyph-name="Aogonek" unicode="&#x104;" horiz-adv-x="669" d="M460 5 C386 -32 327 -69 327 -127 C327 -176 366 -203 421 -203 C461 -203 491 -189 507 -179 L507 -158 C477 -158 464 -157 452 -152 C438 -147 427 -134 427 -105 C427 -55 462 0 568 0 L669 0 L669 24 L645 30 C618 38 606 54 579 126 L372 693 L290 693 L91 133 C60 48 53 39 23 31 L-3 24 L-3 0 L199 0 L199 24 L169 31 C141 38 130 47 130 73 C130 88 134 111 144 139 L173 230 L382 230 L460 5 Z M273 529 L278 529 L368 269 L187 269 L273 529 Z " />
<glyph glyph-name="aogonek" unicode="&#x105;" horiz-adv-x="515" d="M404 -203 C445 -203 474 -189 489 -179 L489 -158 C459 -158 447 -157 435 -152 C420 -147 410 -135 410 -109 C410 -44 457 -9 508 18 L508 39 C491 39 473 42 461 48 C442 58 436 73 436 106 L436 395 C436 489 372 530 250 530 C134 530 44 499 44 435 C44 402 64 379 105 379 C154 379 168 406 173 457 C176 486 186 494 222 494 C289 494 302 464 302 387 L302 294 L184 265 C91 243 19 205 19 120 C19 35 76 -13 169 -13 C230 -13 279 15 304 48 L309 48 C321 8 354 -13 413 -12 C358 -40 310 -80 310 -126 C310 -175 350 -203 404 -203 L404 -203 Z M230 49 C183 49 152 76 152 138 C152 211 187 236 244 241 L302 247 L302 86 C291 66 266 49 230 49 L230 49 Z " />
<glyph glyph-name="Cacute" unicode="&#x106;" horiz-adv-x="618" d="M358 -12 C455 -12 532 10 578 30 L589 222 L564 222 C541 164 520 123 493 83 C466 45 439 27 368 27 C248 27 190 107 190 360 C190 582 247 666 374 666 C432 666 459 651 482 618 C505 585 532 535 556 478 L584 478 L573 681 C531 694 462 705 385 705 C195 705 30 603 30 341 C30 98 170 -12 358 -12 L358 -12 Z M257 724 L453 765 C487 772 499 792 499 814 C499 843 478 869 450 869 C435 869 421 863 406 852 L251 740 L257 724 Z " />
<glyph glyph-name="cacute" unicode="&#x107;" horiz-adv-x="484" d="M193 578 L381 628 C412 637 423 660 423 680 C423 707 402 733 374 733 C359 733 344 727 328 713 L186 594 L193 578 Z M266 -12 C367 -12 439 39 468 71 L468 102 C433 84 381 63 318 63 C206 63 159 143 159 294 C159 451 223 493 290 493 C323 493 331 486 336 445 C341 407 355 377 402 377 C441 377 467 404 467 440 C467 497 414 530 317 530 C185 530 23 465 23 254 C23 95 109 -12 266 -12 L266 -12 Z " />
<glyph glyph-name="Ccircumflex" unicode="&#x108;" horiz-adv-x="618" d="M219 720 L360 773 L501 720 L511 735 L382 864 L337 864 L209 735 L219 720 Z M358 -12 C455 -12 532 10 578 30 L589 222 L564 222 C541 164 520 123 493 83 C466 45 439 27 368 27 C248 27 190 107 190 360 C190 582 247 666 374 666 C432 666 459 651 482 618 C505 585 532 535 556 478 L584 478 L573 681 C531 694 462 705 385 705 C195 705 30 603 30 341 C30 98 170 -12 358 -12 L358 -12 Z " />
<glyph glyph-name="ccircumflex" unicode="&#x109;" horiz-adv-x="484" d="M147 573 L282 637 L417 573 L427 588 L304 728 L259 728 L137 588 L147 573 Z M266 -12 C367 -12 439 39 468 71 L468 102 C433 84 381 63 318 63 C206 63 159 143 159 294 C159 451 223 493 290 493 C323 493 331 486 336 445 C341 407 355 377 402 377 C441 377 467 404 467 440 C467 497 414 530 317 530 C185 530 23 465 23 254 C23 95 109 -12 266 -12 L266 -12 Z " />
<glyph glyph-name="Cdotaccent" unicode="&#x10a;" horiz-adv-x="618" d="M358 -12 C455 -12 532 10 578 30 L589 222 L564 222 C541 164 520 123 493 83 C466 45 439 27 368 27 C248 27 190 107 190 360 C190 582 247 666 374 666 C432 666 459 651 482 618 C505 585 532 535 556 478 L584 478 L573 681 C531 694 462 705 385 705 C195 705 30 603 30 341 C30 98 170 -12 358 -12 L358 -12 Z M360 726 C400 726 432 756 432 794 C432 833 400 862 360 862 C321 862 289 833 289 794 C289 756 321 726 360 726 L360 726 Z " />
<glyph glyph-name="cdotaccent" unicode="&#x10b;" horiz-adv-x="484" d="M266 -12 C367 -12 439 39 468 71 L468 102 C433 84 381 63 318 63 C206 63 159 143 159 294 C159 451 223 493 290 493 C323 493 331 486 336 445 C341 407 355 377 402 377 C441 377 467 404 467 440 C467 497 414 530 317 530 C185 530 23 465 23 254 C23 95 109 -12 266 -12 L266 -12 Z M282 575 C322 575 354 605 354 643 C354 682 322 711 282 711 C243 711 211 682 211 643 C211 605 243 575 282 575 L282 575 Z " />
<glyph glyph-name="Ccaron" unicode="&#x10c;" horiz-adv-x="618" d="M338 727 L382 727 L505 860 L495 874 L360 818 L225 874 L215 860 L338 727 Z M358 -12 C455 -12 532 10 578 30 L589 222 L564 222 C541 164 520 123 493 83 C466 45 439 27 368 27 C248 27 190 107 190 360 C190 582 247 666 374 666 C432 666 459 651 482 618 C505 585 532 535 556 478 L584 478 L573 681 C531 694 462 705 385 705 C195 705 30 603 30 341 C30 98 170 -12 358 -12 L358 -12 Z " />
<glyph glyph-name="ccaron" unicode="&#x10d;" horiz-adv-x="484" d="M260 580 L304 580 L427 720 L417 734 L282 671 L147 734 L137 720 L260 580 Z M266 -12 C367 -12 439 39 468 71 L468 102 C433 84 381 63 318 63 C206 63 159 143 159 294 C159 451 223 493 290 493 C323 493 331 486 336 445 C341 407 355 377 402 377 C441 377 467 404 467 440 C467 497 414 530 317 530 C185 530 23 465 23 254 C23 95 109 -12 266 -12 L266 -12 Z " />
<glyph glyph-name="Dcaron" unicode="&#x10e;" horiz-adv-x="711" d="M328 727 L372 727 L495 860 L485 874 L350 818 L215 874 L205 860 L328 727 Z M20 0 L335 0 C544 0 681 126 681 356 C681 600 540 693 340 693 L20 693 L20 669 L59 661 C86 655 95 650 95 593 L95 100 C95 43 86 38 59 32 L20 24 L20 0 Z M326 39 C255 39 245 52 245 131 L245 645 C258 650 286 654 324 654 C464 654 524 565 524 335 C524 149 473 39 326 39 L326 39 Z " />
<glyph glyph-name="dcaron" unicode="&#x10f;" horiz-adv-x="600" d="M587 557 L664 675 C674 688 676 702 676 711 C676 738 654 756 626 756 C591 756 578 733 577 704 L571 562 L587 557 Z M223 -12 C291 -12 350 16 392 50 L396 50 L394 -5 L404 -12 L589 14 L589 33 L557 48 C530 59 526 65 526 113 L526 630 C526 704 529 749 529 749 L520 756 L320 737 L320 717 L362 696 C386 684 392 681 392 637 L392 592 C392 556 394 518 394 518 C373 524 344 529 311 529 C161 529 27 444 27 241 C27 55 126 -12 223 -12 L223 -12 Z M294 57 C211 57 165 113 165 268 C165 436 221 492 306 492 C346 492 373 471 392 451 L392 84 C373 75 343 57 294 57 L294 57 Z " />
<glyph glyph-name="Dcroat" unicode="&#x110;" horiz-adv-x="711" d="M27 330 L95 330 L95 100 C95 43 86 38 59 32 L20 24 L20 0 L335 0 C544 0 681 126 681 356 C681 600 540 693 340 693 L20 693 L20 669 L59 661 C86 655 95 650 95 593 L95 368 L27 368 L27 330 Z M326 39 C255 39 245 52 245 131 L245 330 L397 330 L397 368 L245 368 L245 645 C258 650 286 654 324 654 C464 654 524 565 524 335 C524 149 473 39 326 39 L326 39 Z " />
<glyph glyph-name="dcroat" unicode="&#x111;" horiz-adv-x="600" d="M235 600 L392 600 L392 592 C392 556 394 518 394 518 C373 524 344 529 311 529 C161 529 27 444 27 241 C27 55 126 -12 223 -12 C291 -12 350 16 392 50 L396 50 L394 -5 L404 -12 L589 14 L589 33 L557 48 C530 59 526 65 526 113 L526 600 L589 600 L589 642 L526 642 C526 708 529 749 529 749 L520 756 L320 737 L320 717 L362 696 C385 684 391 681 392 642 L235 642 L235 600 Z M294 57 C211 57 165 113 165 268 C165 436 221 492 306 492 C346 492 373 471 392 451 L392 84 C373 75 343 57 294 57 L294 57 Z " />
<glyph glyph-name="Emacron" unicode="&#x112;" horiz-adv-x="603" d="M20 0 L567 0 L581 226 L553 226 C529 165 508 119 491 95 C459 49 444 40 359 40 C248 40 245 50 245 147 L245 340 L284 340 C363 340 378 336 391 309 C404 282 411 261 419 229 L446 229 L446 488 L419 488 C411 455 404 434 391 410 C378 386 357 379 284 379 L245 379 L245 644 C262 648 290 653 350 653 C427 653 447 648 478 603 C491 583 507 555 531 502 L557 502 L547 693 L20 693 L20 669 L59 661 C86 655 95 650 95 593 L95 100 C95 43 86 38 59 32 L20 24 L20 0 Z M181 746 L453 746 L453 816 L181 816 L181 746 Z " />
<glyph glyph-name="emacron" unicode="&#x113;" horiz-adv-x="515" d="M276 -12 C375 -12 447 40 479 72 L479 102 C441 84 395 63 327 63 C225 63 160 115 158 280 L492 280 C490 461 409 530 276 530 C145 530 23 429 23 261 C23 94 107 -12 276 -12 L276 -12 Z M270 495 C336 495 353 446 353 325 L158 315 C163 442 209 495 270 495 L270 495 Z M149 605 L399 605 L399 675 L149 675 L149 605 Z " />
<glyph glyph-name="Ebreve" unicode="&#x114;" horiz-adv-x="603" d="M20 0 L567 0 L581 226 L553 226 C529 165 508 119 491 95 C459 49 444 40 359 40 C248 40 245 50 245 147 L245 340 L284 340 C363 340 378 336 391 309 C404 282 411 261 419 229 L446 229 L446 488 L419 488 C411 455 404 434 391 410 C378 386 357 379 284 379 L245 379 L245 644 C262 648 290 653 350 653 C427 653 447 648 478 603 C491 583 507 555 531 502 L557 502 L547 693 L20 693 L20 669 L59 661 C86 655 95 650 95 593 L95 100 C95 43 86 38 59 32 L20 24 L20 0 Z M317 726 C399 726 448 792 456 866 L434 872 C416 833 380 808 317 808 C251 808 217 836 200 872 L178 866 C187 792 235 726 317 726 L317 726 Z " />
<glyph glyph-name="ebreve" unicode="&#x115;" horiz-adv-x="515" d="M276 -12 C375 -12 447 40 479 72 L479 102 C441 84 395 63 327 63 C225 63 160 115 158 280 L492 280 C490 461 409 530 276 530 C145 530 23 429 23 261 C23 94 107 -12 276 -12 L276 -12 Z M270 495 C336 495 353 446 353 325 L158 315 C163 442 209 495 270 495 L270 495 Z M274 576 C346 576 391 642 399 716 L377 722 C359 683 328 658 274 658 C218 658 188 686 170 722 L148 716 C157 642 203 576 274 576 L274 576 Z " />
<glyph glyph-name="Edotaccent" unicode="&#x116;" horiz-adv-x="603" d="M316 726 C356 726 388 756 388 794 C388 833 356 862 316 862 C277 862 245 833 245 794 C245 756 277 726 316 726 L316 726 Z M20 0 L567 0 L581 226 L553 226 C529 165 508 119 491 95 C459 49 444 40 359 40 C248 40 245 50 245 147 L245 340 L284 340 C363 340 378 336 391 309 C404 282 411 261 419 229 L446 229 L446 488 L419 488 C411 455 404 434 391 410 C378 386 357 379 284 379 L245 379 L245 644 C262 648 290 653 350 653 C427 653 447 648 478 603 C491 583 507 555 531 502 L557 502 L547 693 L20 693 L20 669 L59 661 C86 655 95 650 95 593 L95 100 C95 43 86 38 59 32 L20 24 L20 0 Z " />
<glyph glyph-name="edotaccent" unicode="&#x117;" horiz-adv-x="515" d="M276 -12 C375 -12 447 40 479 72 L479 102 C441 84 395 63 327 63 C225 63 160 115 158 280 L492 280 C490 461 409 530 276 530 C145 530 23 429 23 261 C23 94 107 -12 276 -12 L276 -12 Z M270 495 C336 495 353 446 353 325 L158 315 C163 442 209 495 270 495 L270 495 Z M274 575 C314 575 346 605 346 643 C346 682 314 711 274 711 C235 711 203 682 203 643 C203 605 235 575 274 575 L274 575 Z " />
<glyph glyph-name="Eogonek" unicode="&#x118;" horiz-adv-x="603" d="M20 0 L440 0 C386 -28 322 -73 322 -126 C322 -175 363 -203 418 -203 C458 -203 487 -189 502 -179 L502 -158 C472 -158 460 -157 448 -152 C433 -147 423 -135 423 -109 C423 -67 444 -32 472 0 L567 0 L581 226 L553 226 C529 165 508 119 491 95 C459 49 444 40 359 40 C248 40 245 50 245 147 L245 340 L284 340 C363 340 378 336 391 309 C404 282 411 261 419 229 L446 229 L446 488 L419 488 C411 455 404 434 391 410 C378 386 357 379 284 379 L245 379 L245 644 C262 648 290 653 350 653 C427 653 447 648 478 603 C491 583 507 555 531 502 L557 502 L547 693 L20 693 L20 669 L59 661 C86 655 95 650 95 593 L95 100 C95 43 86 38 59 32 L20 24 L20 0 Z " />
<glyph glyph-name="eogonek" unicode="&#x119;" horiz-adv-x="515" d="M23 261 C23 94 107 -12 273 -12 C300 -12 322 -8 343 -2 C286 -31 223 -75 223 -126 C223 -175 263 -203 318 -203 C358 -203 387 -189 402 -179 L402 -158 C372 -158 360 -157 348 -152 C333 -147 323 -135 323 -109 C323 -67 353 -27 393 4 C418 23 456 49 479 72 L479 102 C441 84 395 63 327 63 C226 63 161 116 158 280 L492 280 C490 461 409 530 276 530 C145 530 23 429 23 261 L23 261 Z M270 495 C336 495 353 446 353 325 L158 314 C164 443 210 495 270 495 L270 495 Z " />
<glyph glyph-name="Ecaron" unicode="&#x11a;" horiz-adv-x="603" d="M294 727 L338 727 L461 860 L451 874 L316 818 L181 874 L171 860 L294 727 Z M20 0 L567 0 L581 226 L553 226 C529 165 508 119 491 95 C459 49 444 40 359 40 C248 40 245 50 245 147 L245 340 L284 340 C363 340 378 336 391 309 C404 282 411 261 419 229 L446 229 L446 488 L419 488 C411 455 404 434 391 410 C378 386 357 379 284 379 L245 379 L245 644 C262 648 290 653 350 653 C427 653 447 648 478 603 C491 583 507 555 531 502 L557 502 L547 693 L20 693 L20 669 L59 661 C86 655 95 650 95 593 L95 100 C95 43 86 38 59 32 L20 24 L20 0 Z " />
<glyph glyph-name="ecaron" unicode="&#x11b;" horiz-adv-x="515" d="M276 -12 C375 -12 447 40 479 72 L479 102 C441 84 395 63 327 63 C225 63 160 115 158 280 L492 280 C490 461 409 530 276 530 C145 530 23 429 23 261 C23 94 107 -12 276 -12 L276 -12 Z M270 495 C336 495 353 446 353 325 L158 315 C163 442 209 495 270 495 L270 495 Z M252 580 L296 580 L419 720 L409 734 L274 671 L139 734 L129 720 L252 580 Z " />
<glyph glyph-name="Gcircumflex" unicode="&#x11c;" horiz-adv-x="682" d="M232 720 L373 773 L514 720 L524 735 L395 864 L350 864 L222 735 L232 720 Z M380 -12 C467 -12 559 5 615 23 L615 199 C615 256 621 261 647 268 L676 275 L676 299 L394 299 L394 275 L434 266 C462 260 470 256 470 199 L470 49 C448 38 419 27 376 27 C237 27 188 124 188 362 C188 575 251 666 383 666 C455 666 474 654 505 608 C525 579 546 542 572 478 L599 478 L588 684 C541 696 481 705 395 705 C199 705 30 606 30 343 C30 107 157 -12 380 -12 L380 -12 Z " />
<glyph glyph-name="gcircumflex" unicode="&#x11d;" horiz-adv-x="511" d="M105 573 L240 637 L375 573 L385 588 L262 728 L217 728 L95 588 L105 573 Z M209 -208 C409 -208 492 -105 492 -5 C492 98 425 127 334 127 L164 127 C125 127 109 141 109 163 C109 183 123 201 135 211 C164 200 197 194 232 194 C339 194 439 250 439 366 C439 420 409 462 369 485 L369 489 C394 501 416 503 426 483 C435 463 445 449 474 449 C506 449 520 473 520 501 C520 535 494 553 460 553 C417 553 378 531 348 505 C314 521 276 529 232 529 C125 529 25 470 25 355 C25 294 60 248 107 225 L107 221 C73 198 30 160 30 108 C30 62 60 30 108 18 L108 14 C32 -5 -13 -42 -13 -90 C-13 -163 67 -208 209 -208 L209 -208 Z M228 -173 C135 -173 96 -136 96 -72 C96 -26 124 0 147 9 L314 9 C379 9 404 -18 404 -62 C404 -133 336 -173 228 -173 L228 -173 Z M232 228 C180 228 153 262 153 366 C153 461 179 495 232 495 C284 495 310 460 310 355 C310 260 285 228 232 228 L232 228 Z " />
<glyph glyph-name="Gbreve" unicode="&#x11e;" horiz-adv-x="682" d="M374 726 C456 726 505 792 513 866 L491 872 C473 833 437 808 374 808 C308 808 274 836 257 872 L235 866 C244 792 292 726 374 726 L374 726 Z M380 -12 C467 -12 559 5 615 23 L615 199 C615 256 621 261 647 268 L676 275 L676 299 L394 299 L394 275 L434 266 C462 260 470 256 470 199 L470 49 C448 38 419 27 376 27 C237 27 188 124 188 362 C188 575 251 666 383 666 C455 666 474 654 505 608 C525 579 546 542 572 478 L599 478 L588 684 C541 696 481 705 395 705 C199 705 30 606 30 343 C30 107 157 -12 380 -12 L380 -12 Z " />
<glyph glyph-name="gbreve" unicode="&#x11f;" horiz-adv-x="511" d="M209 -208 C409 -208 492 -105 492 -5 C492 98 425 127 334 127 L164 127 C125 127 109 141 109 163 C109 183 123 201 135 211 C164 200 197 194 232 194 C339 194 439 250 439 366 C439 420 409 462 369 485 L369 489 C394 501 416 503 426 483 C435 463 445 449 474 449 C506 449 520 473 520 501 C520 535 494 553 460 553 C417 553 378 531 348 505 C314 521 276 529 232 529 C125 529 25 470 25 355 C25 294 60 248 107 225 L107 221 C73 198 30 160 30 108 C30 62 60 30 108 18 L108 14 C32 -5 -13 -42 -13 -90 C-13 -163 67 -208 209 -208 L209 -208 Z M228 -173 C135 -173 96 -136 96 -72 C96 -26 124 0 147 9 L314 9 C379 9 404 -18 404 -62 C404 -133 336 -173 228 -173 L228 -173 Z M232 228 C180 228 153 262 153 366 C153 461 179 495 232 495 C284 495 310 460 310 355 C310 260 285 228 232 228 L232 228 Z M240 576 C312 576 357 642 365 716 L343 722 C325 683 294 658 240 658 C184 658 154 686 136 722 L114 716 C123 642 169 576 240 576 L240 576 Z " />
<glyph glyph-name="Gdotaccent" unicode="&#x120;" horiz-adv-x="682" d="M373 726 C413 726 445 756 445 794 C445 833 413 862 373 862 C334 862 302 833 302 794 C302 756 334 726 373 726 L373 726 Z M380 -12 C467 -12 559 5 615 23 L615 199 C615 256 621 261 647 268 L676 275 L676 299 L394 299 L394 275 L434 266 C462 260 470 256 470 199 L470 49 C448 38 419 27 376 27 C237 27 188 124 188 362 C188 575 251 666 383 666 C455 666 474 654 505 608 C525 579 546 542 572 478 L599 478 L588 684 C541 696 481 705 395 705 C199 705 30 606 30 343 C30 107 157 -12 380 -12 L380 -12 Z " />
<glyph glyph-name="gdotaccent" unicode="&#x121;" horiz-adv-x="511" d="M209 -208 C409 -208 492 -105 492 -5 C492 98 425 127 334 127 L164 127 C125 127 109 141 109 163 C109 183 123 201 135 211 C164 200 197 194 232 194 C339 194 439 250 439 366 C439 420 409 462 369 485 L369 489 C394 501 416 503 426 483 C435 463 445 449 474 449 C506 449 520 473 520 501 C520 535 494 553 460 553 C417 553 378 531 348 505 C314 521 276 529 232 529 C125 529 25 470 25 355 C25 294 60 248 107 225 L107 221 C73 198 30 160 30 108 C30 62 60 30 108 18 L108 14 C32 -5 -13 -42 -13 -90 C-13 -163 67 -208 209 -208 L209 -208 Z M228 -173 C135 -173 96 -136 96 -72 C96 -26 124 0 147 9 L314 9 C379 9 404 -18 404 -62 C404 -133 336 -173 228 -173 L228 -173 Z M232 228 C180 228 153 262 153 366 C153 461 179 495 232 495 C284 495 310 460 310 355 C310 260 285 228 232 228 L232 228 Z M239 575 C279 575 311 605 311 643 C311 682 279 711 239 711 C200 711 168 682 168 643 C168 605 200 575 239 575 L239 575 Z " />
<glyph glyph-name="Gcommaaccent" unicode="&#x122;" horiz-adv-x="682" d="M298 -248 C397 -236 436 -182 436 -126 C436 -78 403 -50 362 -50 C325 -50 297 -75 297 -104 C297 -134 317 -155 350 -155 C361 -155 370 -151 374 -148 C375 -181 358 -209 292 -227 L298 -248 Z M380 -12 C467 -12 559 5 615 23 L615 199 C615 256 621 261 647 268 L676 275 L676 299 L394 299 L394 275 L434 266 C462 260 470 256 470 199 L470 49 C448 38 419 27 376 27 C237 27 188 124 188 362 C188 575 251 666 383 666 C455 666 474 654 505 608 C525 579 546 542 572 478 L599 478 L588 684 C541 696 481 705 395 705 C199 705 30 606 30 343 C30 107 157 -12 380 -12 L380 -12 Z " />
<glyph glyph-name="gcommaaccent" unicode="&#x123;" horiz-adv-x="511" d="M308 775 C208 762 169 709 169 653 C169 604 202 576 244 576 C281 576 309 602 309 631 C309 661 288 682 256 682 C245 682 236 678 231 674 C231 707 248 736 314 754 L308 775 Z M209 -208 C409 -208 492 -105 492 -5 C492 98 425 127 334 127 L164 127 C125 127 109 141 109 163 C109 183 123 201 135 211 C164 200 197 194 232 194 C339 194 439 250 439 366 C439 420 409 462 369 485 L369 489 C394 501 416 503 426 483 C435 463 445 449 474 449 C506 449 520 473 520 501 C520 535 494 553 460 553 C417 553 378 531 348 505 C314 521 276 529 232 529 C125 529 25 470 25 355 C25 294 60 248 107 225 L107 221 C73 198 30 160 30 108 C30 62 60 30 108 18 L108 14 C32 -5 -13 -42 -13 -90 C-13 -163 67 -208 209 -208 L209 -208 Z M228 -173 C135 -173 96 -136 96 -72 C96 -26 124 0 147 9 L314 9 C379 9 404 -18 404 -62 C404 -133 336 -173 228 -173 L228 -173 Z M232 228 C180 228 153 262 153 366 C153 461 179 495 232 495 C284 495 310 460 310 355 C310 260 285 228 232 228 L232 228 Z " />
<glyph glyph-name="Hcircumflex" unicode="&#x124;" horiz-adv-x="746" d="M20 0 L320 0 L320 24 L281 32 C251 39 245 43 245 100 L245 333 L501 333 L501 100 C501 43 495 39 465 32 L427 24 L427 0 L726 0 L726 24 L688 32 C659 38 652 43 652 100 L652 593 C652 650 660 655 688 661 L726 669 L726 693 L427 693 L427 669 L465 661 C495 654 501 650 501 593 L501 374 L245 374 L245 593 C245 650 252 654 281 661 L320 669 L320 693 L20 693 L20 669 L59 661 C86 655 95 650 95 593 L95 100 C95 43 86 37 59 32 L20 24 L20 0 Z M232 720 L373 773 L514 720 L524 735 L395 864 L350 864 L222 735 L232 720 Z " />
<glyph glyph-name="hcircumflex" unicode="&#x125;" horiz-adv-x="608" d="M15 0 L274 0 L274 23 L243 31 C217 38 213 41 213 86 L213 431 C238 437 282 449 323 449 C376 449 399 428 399 364 L399 86 C399 41 395 38 369 31 L338 23 L338 0 L597 0 L597 23 L565 31 C539 38 533 44 533 86 L533 396 C533 486 492 529 401 529 C332 529 266 498 214 463 L210 463 C210 463 213 506 213 557 L213 630 C213 697 217 749 217 749 L207 756 L10 737 L10 717 L49 698 C74 686 79 682 79 637 L79 86 C79 45 74 39 47 31 L15 23 L15 0 Z M169 784 L310 837 L451 784 L461 799 L332 928 L287 928 L159 799 L169 784 Z " />
<glyph glyph-name="Hbar" unicode="&#x126;" horiz-adv-x="746" d="M13 493 L95 493 L95 100 C95 43 86 37 59 32 L20 24 L20 0 L320 0 L320 24 L281 32 C251 39 245 43 245 100 L245 333 L501 333 L501 100 C501 43 495 39 465 32 L427 24 L427 0 L726 0 L726 24 L688 32 C659 38 652 43 652 100 L652 493 L733 493 L733 532 L652 532 L652 593 C652 650 660 655 688 661 L726 669 L726 693 L427 693 L427 669 L465 661 C495 654 501 650 501 593 L501 532 L245 532 L245 593 C245 650 252 654 281 661 L320 669 L320 693 L20 693 L20 669 L59 661 C86 655 95 650 95 593 L95 532 L13 532 L13 493 Z M245 374 L245 493 L501 493 L501 374 L245 374 Z " />
<glyph glyph-name="hbar" unicode="&#x127;" horiz-adv-x="608" d="M3 600 L79 600 L79 86 C79 45 74 39 47 31 L15 23 L15 0 L274 0 L274 23 L243 31 C217 38 213 41 213 86 L213 431 C238 437 282 449 323 449 C376 449 399 428 399 364 L399 86 C399 41 395 38 369 31 L338 23 L338 0 L597 0 L597 23 L565 31 C539 38 533 44 533 86 L533 396 C533 486 492 529 401 529 C332 529 266 498 214 463 L210 463 C210 463 213 506 213 557 L213 600 L366 600 L366 642 L213 642 C213 703 217 749 217 749 L207 756 L10 737 L10 717 L49 698 C73 686 78 682 79 642 L3 642 L3 600 Z " />
<glyph glyph-name="Itilde" unicode="&#x128;" horiz-adv-x="347" d="M20 0 L327 0 L327 24 L285 32 C255 38 249 43 249 100 L249 593 C249 650 255 655 285 661 L327 669 L327 693 L20 693 L20 669 L62 661 C90 656 98 650 98 593 L98 100 C98 43 90 37 62 32 L20 24 L20 0 Z M30 719 C49 750 61 762 82 762 C125 762 200 739 245 739 C292 739 310 784 339 854 L318 865 C299 834 286 822 266 822 C223 822 148 845 103 845 C57 845 38 799 9 730 L30 719 Z " />
<glyph glyph-name="itilde" unicode="&#x129;" horiz-adv-x="288" d="M15 0 L277 0 L277 26 L245 34 C220 40 213 43 213 71 L213 417 C213 448 215 481 217 522 L208 529 L13 506 L13 489 L48 469 C74 454 79 449 79 420 L79 71 C79 45 69 40 47 34 L15 26 L15 0 Z M5 572 C24 603 36 615 57 615 C99 615 167 592 212 592 C260 592 278 637 307 707 L285 718 C266 687 253 675 233 675 C190 675 123 698 78 698 C32 698 13 653 -17 583 L5 572 Z " />
<glyph glyph-name="Imacron" unicode="&#x12a;" horiz-adv-x="347" d="M20 0 L327 0 L327 24 L285 32 C255 38 249 43 249 100 L249 593 C249 650 255 655 285 661 L327 669 L327 693 L20 693 L20 669 L62 661 C90 656 98 650 98 593 L98 100 C98 43 90 37 62 32 L20 24 L20 0 Z M38 746 L310 746 L310 816 L38 816 L38 746 Z " />
<glyph glyph-name="imacron" unicode="&#x12b;" horiz-adv-x="288" d="M15 0 L277 0 L277 26 L245 34 C220 40 213 43 213 71 L213 417 C213 448 215 481 217 522 L208 529 L13 506 L13 489 L48 469 C74 454 79 449 79 420 L79 71 C79 45 69 40 47 34 L15 26 L15 0 Z M19 605 L269 605 L269 675 L19 675 L19 605 Z " />
<glyph glyph-name="Ibreve" unicode="&#x12c;" horiz-adv-x="347" d="M20 0 L327 0 L327 24 L285 32 C255 38 249 43 249 100 L249 593 C249 650 255 655 285 661 L327 669 L327 693 L20 693 L20 669 L62 661 C90 656 98 650 98 593 L98 100 C98 43 90 37 62 32 L20 24 L20 0 Z M174 726 C256 726 305 792 313 866 L291 872 C273 833 237 808 174 808 C108 808 74 836 57 872 L35 866 C44 792 92 726 174 726 L174 726 Z " />
<glyph glyph-name="ibreve" unicode="&#x12d;" horiz-adv-x="288" d="M15 0 L277 0 L277 26 L245 34 C220 40 213 43 213 71 L213 417 C213 448 215 481 217 522 L208 529 L13 506 L13 489 L48 469 C74 454 79 449 79 420 L79 71 C79 45 69 40 47 34 L15 26 L15 0 Z M145 576 C217 576 262 642 270 716 L248 722 C230 683 199 658 145 658 C89 658 59 686 41 722 L19 716 C28 642 74 576 145 576 L145 576 Z " />
<glyph glyph-name="Iogonek" unicode="&#x12e;" horiz-adv-x="347" d="M20 0 L203 0 C154 -28 93 -71 93 -124 C93 -173 134 -203 188 -203 C229 -203 258 -189 273 -179 L273 -158 C243 -158 231 -157 219 -152 C204 -147 194 -133 194 -107 C194 -65 213 -32 235 0 L327 0 L327 24 L285 32 C255 38 249 43 249 100 L249 593 C249 650 255 655 285 661 L327 669 L327 693 L20 693 L20 669 L62 661 C90 656 98 650 98 593 L98 100 C98 43 90 37 62 32 L20 24 L20 0 Z " />
<glyph glyph-name="iogonek" unicode="&#x12f;" horiz-adv-x="288" d="M15 0 L174 0 C125 -28 62 -71 62 -124 C62 -173 102 -203 156 -203 C196 -203 225 -189 241 -179 L241 -158 C211 -158 199 -157 187 -152 C172 -147 162 -133 162 -107 C162 -65 181 -32 203 0 L277 0 L277 23 L245 31 C218 38 213 43 213 86 L213 417 C213 466 216 505 217 523 L208 529 L13 506 L13 489 L48 468 C74 452 79 449 79 407 L79 86 C79 45 74 39 47 31 L15 23 L15 0 Z M142 590 C184 590 218 622 218 663 C218 704 184 736 142 736 C99 736 65 704 65 663 C65 622 99 590 142 590 L142 590 Z " />
<glyph glyph-name="Idotaccent" unicode="&#x130;" horiz-adv-x="347" d="M20 0 L327 0 L327 24 L285 32 C255 38 249 43 249 100 L249 593 C249 650 255 655 285 661 L327 669 L327 693 L20 693 L20 669 L62 661 C90 656 98 650 98 593 L98 100 C98 43 90 37 62 32 L20 24 L20 0 Z M173 726 C213 726 245 756 245 794 C245 833 213 862 173 862 C134 862 102 833 102 794 C102 756 134 726 173 726 L173 726 Z " />
<glyph glyph-name="dotlessi" unicode="&#x131;" horiz-adv-x="288" d="M15 0 L277 0 L277 26 L245 34 C220 40 213 43 213 71 L213 417 C213 448 215 481 217 522 L208 529 L13 506 L13 489 L48 469 C74 454 79 449 79 420 L79 71 C79 45 69 40 47 34 L15 26 L15 0 Z " />
<glyph glyph-name="IJ" unicode="&#x132;" horiz-adv-x="687" d="M20 0 L327 0 L327 24 L285 32 C255 38 249 43 249 100 L249 593 C249 650 255 655 285 661 L327 669 L327 693 L20 693 L20 669 L62 661 C90 656 98 650 98 593 L98 100 C98 43 90 37 62 32 L20 24 L20 0 Z M367 -176 C511 -176 592 -77 592 62 L592 593 C592 650 600 655 628 661 L667 669 L667 693 L366 693 L366 669 L406 661 C435 654 442 650 442 593 L442 -48 C442 -113 421 -137 395 -137 C380 -137 378 -135 373 -115 C362 -59 344 -37 298 -37 C258 -37 236 -61 236 -96 C236 -141 279 -176 367 -176 L367 -176 Z " />
<glyph glyph-name="ij" unicode="&#x133;" horiz-adv-x="558" d="M15 0 L277 0 L277 23 L245 31 C218 38 213 43 213 86 L213 417 C213 466 216 505 217 523 L208 529 L13 506 L13 489 L48 468 C74 452 79 449 79 407 L79 86 C79 45 74 39 47 31 L15 23 L15 0 Z M142 590 C184 590 218 622 218 663 C218 704 184 736 142 736 C99 736 65 704 65 663 C65 622 99 590 142 590 L142 590 Z M292 -210 C406 -210 493 -143 493 3 L493 417 C493 465 496 505 497 523 L488 529 L293 506 L293 489 L328 468 C354 452 359 449 359 407 L359 -110 C359 -154 343 -174 317 -174 C307 -174 303 -171 300 -144 C295 -97 280 -77 236 -77 C202 -77 178 -97 178 -130 C178 -174 214 -210 292 -210 L292 -210 Z M420 590 C463 590 497 622 497 663 C497 704 463 736 420 736 C378 736 344 704 344 663 C344 622 378 590 420 590 L420 590 Z " />
<glyph glyph-name="Jcircumflex" unicode="&#x134;" horiz-adv-x="340" d="M29 720 L170 773 L311 720 L321 735 L192 864 L147 864 L19 735 L29 720 Z M20 -176 C164 -176 245 -77 245 62 L245 593 C245 650 253 655 281 661 L320 669 L320 693 L19 693 L19 669 L59 661 C88 654 95 650 95 593 L95 -48 C95 -113 74 -137 48 -137 C33 -137 31 -135 26 -115 C15 -59 -3 -37 -49 -37 C-89 -37 -111 -61 -111 -96 C-111 -141 -68 -176 20 -176 L20 -176 Z " />
<glyph glyph-name="jcircumflex" unicode="&#x135;" horiz-adv-x="282" d="M12 -210 C126 -210 213 -143 213 3 L213 417 C213 465 216 505 217 523 L208 529 L13 506 L13 489 L48 468 C74 452 79 449 79 407 L79 -110 C79 -154 63 -174 37 -174 C27 -174 23 -171 20 -144 C15 -97 0 -77 -44 -77 C-78 -77 -102 -97 -102 -130 C-102 -174 -66 -210 12 -210 L12 -210 Z M8 573 L143 637 L278 573 L288 588 L165 728 L120 728 L-2 588 L8 573 Z " />
<glyph glyph-name="Kcommaaccent" unicode="&#x136;" horiz-adv-x="684" d="M290 -248 C389 -236 428 -182 428 -126 C428 -78 395 -50 354 -50 C317 -50 289 -75 289 -104 C289 -134 309 -155 342 -155 C353 -155 362 -151 366 -148 C367 -181 350 -209 284 -227 L290 -248 Z M485 0 L684 0 L684 24 L653 31 C638 35 634 38 621 54 C549 145 447 296 383 420 L528 582 C581 641 595 654 630 663 L655 669 L655 693 L425 693 L425 669 L455 661 C477 655 490 644 490 627 C490 613 482 593 462 570 L273 351 L273 335 C331 219 408 98 485 0 L485 0 Z M20 0 L320 0 L320 24 L281 32 C251 39 245 43 245 100 L245 593 C245 650 251 654 281 661 L320 669 L320 693 L20 693 L20 669 L59 661 C86 655 95 650 95 593 L95 100 C95 43 86 37 59 32 L20 24 L20 0 Z " />
<glyph glyph-name="kcommaaccent" unicode="&#x137;" horiz-adv-x="564" d="M233 -248 C332 -236 371 -182 371 -126 C371 -78 338 -50 297 -50 C260 -50 232 -75 232 -104 C232 -134 252 -155 285 -155 C296 -155 305 -151 309 -148 C310 -181 293 -209 227 -227 L233 -248 Z M398 0 L569 0 L569 23 L547 30 C534 34 524 41 514 54 C457 121 385 229 330 320 L429 423 C472 467 487 477 514 485 L539 492 L539 515 L338 515 L338 492 L352 488 C375 481 385 474 385 461 C385 446 378 427 342 387 L229 261 L229 248 C279 165 331 83 398 0 L398 0 Z M15 0 L272 0 L272 23 L242 31 C217 38 213 42 213 86 L213 630 C213 697 217 749 217 749 L207 756 L10 737 L10 717 L49 698 C74 686 79 682 79 637 L79 86 C79 45 74 39 47 31 L15 23 L15 0 Z " />
<glyph glyph-name="Lacute" unicode="&#x139;" horiz-adv-x="578" d="M68 724 L264 765 C298 772 310 792 310 814 C310 843 289 869 261 869 C246 869 232 863 217 852 L62 740 L68 724 Z M20 0 L552 0 L566 233 L538 233 C513 164 491 121 473 93 C444 49 425 40 342 40 C249 40 245 52 245 131 L245 593 C245 650 252 654 281 660 L326 669 L326 693 L20 693 L20 669 L59 661 C86 655 95 650 95 593 L95 100 C95 43 86 37 59 32 L20 24 L20 0 Z " />
<glyph glyph-name="lacute" unicode="&#x13a;" horiz-adv-x="291" d="M41 782 L237 823 C271 830 283 850 283 872 C283 901 262 927 234 927 C219 927 205 921 190 910 L35 798 L41 782 Z M15 0 L279 0 L279 23 L247 31 C219 39 214 43 214 86 L214 630 C214 697 218 749 218 749 L208 756 L10 737 L10 717 L49 698 C75 685 80 682 80 637 L80 86 C80 45 75 39 47 31 L15 23 L15 0 Z " />
<glyph glyph-name="Lcommaaccent" unicode="&#x13b;" horiz-adv-x="578" d="M238 -248 C337 -236 376 -182 376 -126 C376 -78 343 -50 302 -50 C265 -50 237 -75 237 -104 C237 -134 257 -155 290 -155 C301 -155 310 -151 314 -148 C315 -181 298 -209 232 -227 L238 -248 Z M20 0 L552 0 L566 233 L538 233 C513 164 491 121 473 93 C444 49 425 40 342 40 C249 40 245 52 245 131 L245 593 C245 650 252 654 281 660 L326 669 L326 693 L20 693 L20 669 L59 661 C86 655 95 650 95 593 L95 100 C95 43 86 37 59 32 L20 24 L20 0 Z " />
<glyph glyph-name="lcommaaccent" unicode="&#x13c;" horiz-adv-x="291" d="M77 -248 C176 -236 215 -182 215 -126 C215 -78 182 -50 141 -50 C104 -50 76 -75 76 -104 C76 -134 96 -155 129 -155 C140 -155 149 -151 153 -148 C154 -181 137 -209 71 -227 L77 -248 Z M15 0 L279 0 L279 23 L247 31 C219 39 214 43 214 86 L214 630 C214 697 218 749 218 749 L208 756 L10 737 L10 717 L49 698 C75 685 80 682 80 637 L80 86 C80 45 75 39 47 31 L15 23 L15 0 Z " />
<glyph glyph-name="Lcaron" unicode="&#x13d;" horiz-adv-x="578" d="M394 503 L475 625 C485 638 489 652 489 664 C489 692 466 711 436 711 C398 711 385 687 384 656 L377 508 L394 503 Z M20 0 L552 0 L566 233 L538 233 C513 164 491 121 473 93 C444 49 425 40 342 40 C249 40 245 52 245 131 L245 593 C245 650 252 654 281 660 L326 669 L326 693 L20 693 L20 669 L59 661 C86 655 95 650 95 593 L95 100 C95 43 86 37 59 32 L20 24 L20 0 Z " />
<glyph glyph-name="lcaron" unicode="&#x13e;" horiz-adv-x="291" d="M275 557 L352 675 C362 688 364 702 364 711 C364 738 342 756 314 756 C279 756 266 733 265 704 L259 562 L275 557 Z M15 0 L279 0 L279 23 L247 31 C219 39 214 43 214 86 L214 630 C214 697 218 749 218 749 L208 756 L10 737 L10 717 L49 698 C75 685 80 682 80 637 L80 86 C80 45 75 39 47 31 L15 23 L15 0 Z " />
<glyph glyph-name="Ldot" unicode="&#x13f;" horiz-adv-x="578" d="M20 0 L552 0 L566 222 L538 222 C513 156 491 115 473 89 C444 48 425 40 342 40 C249 40 245 52 245 131 L245 593 C245 650 252 654 281 660 L326 669 L326 693 L20 693 L20 669 L59 661 C86 655 95 650 95 593 L95 100 C95 43 86 37 59 32 L20 24 L20 0 Z M488 299 C528 299 564 333 564 373 C564 415 528 446 488 446 C448 446 414 415 414 373 C414 333 448 299 488 299 L488 299 Z " />
<glyph glyph-name="ldot" unicode="&#x140;" horiz-adv-x="344" d="M15 0 L279 0 L279 23 L247 31 C219 39 214 43 214 86 L214 630 C214 697 218 749 218 749 L208 756 L10 737 L10 717 L49 698 C75 685 80 682 80 637 L80 86 C80 45 75 39 47 31 L15 23 L15 0 Z M318 280 C351 280 381 309 381 341 C381 376 351 403 318 403 C284 403 256 376 256 341 C256 309 284 280 318 280 L318 280 Z " />
<glyph glyph-name="Lslash" unicode="&#x141;" horiz-adv-x="578" d="M9 240 L95 272 L95 100 C95 43 86 37 59 32 L20 24 L20 0 L552 0 L566 233 L538 233 C513 164 491 121 473 93 C444 49 425 40 342 40 C249 40 245 52 245 131 L245 327 L440 400 L440 443 L245 370 L245 593 C245 650 252 654 281 660 L326 669 L326 693 L20 693 L20 669 L59 661 C86 655 95 650 95 593 L95 314 L9 282 L9 240 Z " />
<glyph glyph-name="lslash" unicode="&#x142;" horiz-adv-x="291" d="M6 279 L80 318 L80 86 C80 45 75 39 47 31 L15 23 L15 0 L279 0 L279 23 L247 31 C219 39 214 43 214 86 L214 388 L289 428 L289 472 L214 432 L214 630 C214 697 218 749 218 749 L208 756 L10 737 L10 717 L49 698 C75 685 80 682 80 637 L80 362 L6 323 L6 279 Z " />
<glyph glyph-name="Nacute" unicode="&#x143;" horiz-adv-x="689" d="M262 724 L458 765 C492 772 504 792 504 814 C504 843 483 869 455 869 C440 869 426 863 411 852 L256 740 L262 724 Z M540 -2 L599 -2 L599 583 C599 650 611 656 641 662 L674 669 L674 693 L466 693 L466 669 L508 662 C545 655 552 650 552 581 L552 245 L548 245 L252 693 L20 693 L20 669 L59 661 C86 655 95 650 95 593 L95 110 C95 43 83 37 52 31 L20 24 L20 0 L224 0 L224 24 L186 31 C149 38 141 43 141 112 L141 589 L145 589 L540 -2 Z " />
<glyph glyph-name="nacute" unicode="&#x144;" horiz-adv-x="608" d="M220 578 L408 628 C439 637 450 660 450 680 C450 707 429 733 401 733 C386 733 371 727 355 713 L213 594 L220 578 Z M15 0 L274 0 L274 23 L243 31 C217 38 213 41 213 86 L213 431 C238 437 282 449 323 449 C376 449 399 428 399 364 L399 86 C399 41 395 38 369 31 L338 23 L338 0 L597 0 L597 23 L565 31 C539 38 533 44 533 86 L533 396 C533 486 492 529 401 529 C332 529 264 497 213 461 L208 461 L210 523 L201 529 L13 506 L13 489 L48 468 C74 452 79 449 79 407 L79 86 C79 45 74 39 47 31 L15 23 L15 0 Z " />
<glyph glyph-name="Ncommaaccent" unicode="&#x145;" horiz-adv-x="689" d="M275 -248 C374 -236 413 -182 413 -126 C413 -78 380 -50 339 -50 C302 -50 274 -75 274 -104 C274 -134 294 -155 327 -155 C338 -155 347 -151 351 -148 C352 -181 335 -209 269 -227 L275 -248 Z M540 -2 L599 -2 L599 583 C599 650 611 656 641 662 L674 669 L674 693 L466 693 L466 669 L508 662 C545 655 552 650 552 581 L552 245 L548 245 L252 693 L20 693 L20 669 L59 661 C86 655 95 650 95 593 L95 110 C95 43 83 37 52 31 L20 24 L20 0 L224 0 L224 24 L186 31 C149 38 141 43 141 112 L141 589 L145 589 L540 -2 Z " />
<glyph glyph-name="ncommaaccent" unicode="&#x146;" horiz-adv-x="608" d="M241 -248 C340 -236 379 -182 379 -126 C379 -78 346 -50 305 -50 C268 -50 240 -75 240 -104 C240 -134 260 -155 293 -155 C304 -155 313 -151 317 -148 C318 -181 301 -209 235 -227 L241 -248 Z M15 0 L274 0 L274 23 L243 31 C217 38 213 41 213 86 L213 431 C238 437 282 449 323 449 C376 449 399 428 399 364 L399 86 C399 41 395 38 369 31 L338 23 L338 0 L597 0 L597 23 L565 31 C539 38 533 44 533 86 L533 396 C533 486 492 529 401 529 C332 529 264 497 213 461 L208 461 L210 523 L201 529 L13 506 L13 489 L48 468 C74 452 79 449 79 407 L79 86 C79 45 74 39 47 31 L15 23 L15 0 Z " />
<glyph glyph-name="Ncaron" unicode="&#x147;" horiz-adv-x="689" d="M343 727 L387 727 L510 860 L500 874 L365 818 L230 874 L220 860 L343 727 Z M540 -2 L599 -2 L599 583 C599 650 611 656 641 662 L674 669 L674 693 L466 693 L466 669 L508 662 C545 655 552 650 552 581 L552 245 L548 245 L252 693 L20 693 L20 669 L59 661 C86 655 95 650 95 593 L95 110 C95 43 83 37 52 31 L20 24 L20 0 L224 0 L224 24 L186 31 C149 38 141 43 141 112 L141 589 L145 589 L540 -2 Z " />
<glyph glyph-name="ncaron" unicode="&#x148;" horiz-adv-x="608" d="M286 580 L330 580 L453 720 L443 734 L308 671 L173 734 L163 720 L286 580 Z M15 0 L274 0 L274 23 L243 31 C217 38 213 41 213 86 L213 431 C238 437 282 449 323 449 C376 449 399 428 399 364 L399 86 C399 41 395 38 369 31 L338 23 L338 0 L597 0 L597 23 L565 31 C539 38 533 44 533 86 L533 396 C533 486 492 529 401 529 C332 529 264 497 213 461 L208 461 L210 523 L201 529 L13 506 L13 489 L48 468 C74 452 79 449 79 407 L79 86 C79 45 74 39 47 31 L15 23 L15 0 Z " />
<glyph glyph-name="napostrophe" unicode="&#x149;" horiz-adv-x="671" d="M-63 469 C31 491 80 545 80 620 C80 675 42 706 1 706 C-36 706 -67 682 -67 645 C-67 609 -43 585 -11 585 C1 585 11 590 15 593 C16 552 -10 517 -70 489 L-63 469 Z M77 0 L336 0 L336 23 L305 31 C279 38 275 41 275 86 L275 431 C300 437 344 449 385 449 C438 449 461 428 461 364 L461 86 C461 41 457 38 431 31 L400 23 L400 0 L659 0 L659 23 L627 31 C601 38 595 44 595 86 L595 396 C595 486 554 529 463 529 C394 529 326 497 275 461 L270 461 L272 523 L263 529 L75 506 L75 489 L110 468 C136 452 141 449 141 407 L141 86 C141 45 136 39 109 31 L77 23 L77 0 Z " />
<glyph glyph-name="Eng" unicode="&#x14a;" horiz-adv-x="689" d="M488 -137 C472 -137 468 -134 463 -114 C450 -62 438 -41 394 -41 C356 -41 335 -63 335 -95 C335 -138 372 -176 457 -176 C559 -176 599 -93 599 -1 L599 583 C599 650 611 656 641 662 L674 669 L674 693 L466 693 L466 669 L508 662 C545 655 552 650 552 581 L552 245 L548 245 L252 693 L20 693 L20 669 L59 661 C86 655 95 650 95 593 L95 110 C95 43 83 37 52 31 L20 24 L20 0 L224 0 L224 24 L186 31 C149 38 141 43 141 112 L141 589 L145 589 L548 -15 C546 -103 522 -137 488 -137 L488 -137 Z " />
<glyph glyph-name="eng" unicode="&#x14b;" horiz-adv-x="594" d="M332 -210 C445 -210 533 -143 533 3 L533 396 C533 486 492 529 401 529 C332 529 264 497 213 461 L208 461 L210 523 L201 529 L13 506 L13 489 L48 468 C74 452 79 449 79 407 L79 86 C79 45 74 39 47 31 L15 23 L15 0 L276 0 L276 23 L244 31 C217 37 213 41 213 86 L213 431 C238 437 282 449 323 449 C376 449 399 428 399 364 L399 -110 C399 -154 383 -174 357 -174 C347 -174 343 -171 339 -145 C334 -99 320 -79 277 -79 C243 -79 219 -99 219 -131 C219 -175 255 -210 332 -210 L332 -210 Z " />
<glyph glyph-name="Omacron" unicode="&#x14c;" horiz-adv-x="712" d="M220 746 L492 746 L492 816 L220 816 L220 746 Z M352 -12 C513 -12 683 90 683 353 C683 593 533 705 360 705 C199 705 29 599 29 337 C29 102 179 -12 352 -12 L352 -12 Z M358 27 C227 27 186 154 186 357 C186 584 241 666 353 666 C484 666 526 536 526 333 C526 106 473 27 358 27 L358 27 Z " />
<glyph glyph-name="omacron" unicode="&#x14d;" horiz-adv-x="569" d="M159 605 L409 605 L409 675 L159 675 L159 605 Z M284 -13 C418 -13 546 78 546 263 C546 443 427 530 284 530 C152 530 23 442 23 257 C23 77 141 -13 284 -13 L284 -13 Z M288 23 C205 23 166 79 166 273 C166 439 207 494 281 494 C361 494 403 443 403 251 C403 73 360 23 288 23 L288 23 Z " />
<glyph glyph-name="Obreve" unicode="&#x14e;" horiz-adv-x="712" d="M356 726 C438 726 487 792 495 866 L473 872 C455 833 419 808 356 808 C290 808 256 836 239 872 L217 866 C226 792 274 726 356 726 L356 726 Z M352 -12 C513 -12 683 90 683 353 C683 593 533 705 360 705 C199 705 29 599 29 337 C29 102 179 -12 352 -12 L352 -12 Z M358 27 C227 27 186 154 186 357 C186 584 241 666 353 666 C484 666 526 536 526 333 C526 106 473 27 358 27 L358 27 Z " />
<glyph glyph-name="obreve" unicode="&#x14f;" horiz-adv-x="569" d="M284 -13 C418 -13 546 78 546 263 C546 443 427 530 284 530 C152 530 23 442 23 257 C23 77 141 -13 284 -13 L284 -13 Z M288 23 C205 23 166 79 166 273 C166 439 207 494 281 494 C361 494 403 443 403 251 C403 73 360 23 288 23 L288 23 Z M284 576 C356 576 401 642 409 716 L387 722 C369 683 338 658 284 658 C228 658 198 686 180 722 L158 716 C167 642 213 576 284 576 L284 576 Z " />
<glyph glyph-name="Ohungarumlaut" unicode="&#x150;" horiz-adv-x="712" d="M259 721 L373 786 C400 801 407 818 407 836 C407 862 377 885 355 885 C340 885 327 875 315 853 L243 737 L259 721 Z M427 721 L544 789 C570 804 576 819 576 835 C576 861 545 885 523 885 C507 885 495 875 482 853 L410 737 L427 721 Z M352 -12 C513 -12 683 90 683 353 C683 593 533 705 360 705 C199 705 29 599 29 337 C29 102 179 -12 352 -12 L352 -12 Z M358 27 C227 27 186 154 186 357 C186 584 241 666 353 666 C484 666 526 536 526 333 C526 106 473 27 358 27 L358 27 Z " />
<glyph glyph-name="ohungarumlaut" unicode="&#x151;" horiz-adv-x="569" d="M183 574 L307 648 C333 663 341 681 341 699 C341 725 311 748 289 748 C274 748 261 738 247 716 L167 590 L183 574 Z M351 574 L478 651 C503 666 510 682 510 698 C510 724 479 748 457 748 C441 748 428 738 415 716 L334 590 L351 574 Z M284 -13 C418 -13 546 78 546 263 C546 443 427 530 284 530 C152 530 23 442 23 257 C23 77 141 -13 284 -13 L284 -13 Z M288 23 C205 23 166 79 166 273 C166 439 207 494 281 494 C361 494 403 443 403 251 C403 73 360 23 288 23 L288 23 Z " />
<glyph glyph-name="OE" unicode="&#x152;" horiz-adv-x="982" d="M376 0 L945 0 L960 226 L931 226 C908 165 887 119 870 95 C838 49 823 40 737 40 C627 40 624 50 624 147 L624 340 L663 340 C742 340 757 336 770 309 C783 282 790 261 798 229 L825 229 L825 488 L798 488 C790 455 783 434 770 410 C757 386 736 379 663 379 L624 379 L624 644 C641 648 668 653 728 653 C806 653 826 648 857 603 C870 583 886 555 909 502 L936 502 L925 693 L382 693 C186 693 29 581 29 339 C29 86 187 0 376 0 L376 0 Z M385 36 C237 36 186 125 186 360 C186 559 233 657 380 657 C462 657 473 637 473 565 L473 135 C473 57 460 36 385 36 L385 36 Z " />
<glyph glyph-name="oe" unicode="&#x153;" horiz-adv-x="888" d="M280 -13 C353 -13 420 18 464 75 C500 21 559 -12 649 -12 C748 -12 820 40 852 72 L852 102 C815 84 768 63 700 63 C598 63 535 115 533 280 L865 280 C863 461 782 530 653 530 C578 530 514 495 471 438 C429 497 364 530 283 530 C150 530 23 442 23 257 C23 77 139 -13 280 -13 L280 -13 Z M286 23 C203 23 166 79 166 273 C166 439 205 494 280 494 C359 494 398 443 398 251 C398 73 358 23 286 23 L286 23 Z M643 495 C709 495 726 446 726 325 L533 315 C538 442 582 495 643 495 L643 495 Z " />
<glyph glyph-name="Racute" unicode="&#x154;" horiz-adv-x="673" d="M20 0 L319 0 L319 24 L280 32 C251 38 245 43 245 100 L245 311 L306 311 C350 212 420 85 483 0 L677 0 L677 24 L659 29 C639 35 630 41 619 55 C563 128 490 252 444 342 L444 345 C542 374 589 432 589 513 C589 632 512 693 331 693 L20 693 L20 669 L59 661 C86 655 95 650 95 593 L95 100 C95 43 86 37 59 32 L20 24 L20 0 Z M296 347 C270 347 248 350 245 351 L245 646 C258 650 285 653 321 653 C404 653 436 619 436 501 C436 387 394 347 296 347 L296 347 Z M220 724 L416 765 C450 772 462 792 462 814 C462 843 441 869 413 869 C398 869 384 863 369 852 L214 740 L220 724 Z " />
<glyph glyph-name="racute" unicode="&#x155;" horiz-adv-x="438" d="M158 578 L346 628 C377 637 388 660 388 680 C388 707 367 733 339 733 C324 733 309 727 293 713 L151 594 L158 578 Z M15 0 L283 0 L283 23 L243 31 C218 36 213 41 213 86 L213 418 C228 434 261 451 279 451 C288 451 293 448 298 436 C313 409 325 394 367 394 C401 394 429 418 429 461 C429 506 402 530 357 530 C303 530 245 490 213 456 L208 456 L210 522 L201 529 L13 506 L13 489 L48 468 C74 452 79 449 79 407 L79 86 C79 45 74 39 47 31 L15 23 L15 0 Z " />
<glyph glyph-name="Rcommaaccent" unicode="&#x156;" horiz-adv-x="673" d="M20 0 L319 0 L319 24 L280 32 C251 38 245 43 245 100 L245 311 L306 311 C350 212 420 85 483 0 L677 0 L677 24 L659 29 C639 35 630 41 619 55 C563 128 490 252 444 342 L444 345 C542 374 589 432 589 513 C589 632 512 693 331 693 L20 693 L20 669 L59 661 C86 655 95 650 95 593 L95 100 C95 43 86 37 59 32 L20 24 L20 0 Z M296 347 C270 347 248 350 245 351 L245 646 C258 650 285 653 321 653 C404 653 436 619 436 501 C436 387 394 347 296 347 L296 347 Z M292 -248 C391 -236 430 -182 430 -126 C430 -78 397 -50 356 -50 C319 -50 291 -75 291 -104 C291 -134 311 -155 344 -155 C355 -155 364 -151 368 -148 C369 -181 352 -209 286 -227 L292 -248 Z " />
<glyph glyph-name="rcommaaccent" unicode="&#x157;" horiz-adv-x="438" d="M73 -248 C172 -236 211 -182 211 -126 C211 -78 178 -50 137 -50 C100 -50 72 -75 72 -104 C72 -134 92 -155 125 -155 C136 -155 145 -151 149 -148 C150 -181 133 -209 67 -227 L73 -248 Z M15 0 L283 0 L283 23 L243 31 C218 36 213 41 213 86 L213 418 C228 434 261 451 279 451 C288 451 293 448 298 436 C313 409 325 394 367 394 C401 394 429 418 429 461 C429 506 402 530 357 530 C303 530 245 490 213 456 L208 456 L210 522 L201 529 L13 506 L13 489 L48 468 C74 452 79 449 79 407 L79 86 C79 45 74 39 47 31 L15 23 L15 0 Z " />
<glyph glyph-name="Rcaron" unicode="&#x158;" horiz-adv-x="673" d="M20 0 L319 0 L319 24 L280 32 C251 38 245 43 245 100 L245 311 L306 311 C350 212 420 85 483 0 L677 0 L677 24 L659 29 C639 35 630 41 619 55 C563 128 490 252 444 342 L444 345 C542 374 589 432 589 513 C589 632 512 693 331 693 L20 693 L20 669 L59 661 C86 655 95 650 95 593 L95 100 C95 43 86 37 59 32 L20 24 L20 0 Z M296 347 C270 347 248 350 245 351 L245 646 C258 650 285 653 321 653 C404 653 436 619 436 501 C436 387 394 347 296 347 L296 347 Z M301 727 L345 727 L468 860 L458 874 L323 818 L188 874 L178 860 L301 727 Z " />
<glyph glyph-name="rcaron" unicode="&#x159;" horiz-adv-x="438" d="M226 580 L270 580 L393 720 L383 734 L248 671 L113 734 L103 720 L226 580 Z M15 0 L283 0 L283 23 L243 31 C218 36 213 41 213 86 L213 418 C228 434 261 451 279 451 C288 451 293 448 298 436 C313 409 325 394 367 394 C401 394 429 418 429 461 C429 506 402 530 357 530 C303 530 245 490 213 456 L208 456 L210 522 L201 529 L13 506 L13 489 L48 468 C74 452 79 449 79 407 L79 86 C79 45 74 39 47 31 L15 23 L15 0 Z " />
<glyph glyph-name="Sacute" unicode="&#x15a;" horiz-adv-x="519" d="M237 -13 C401 -13 490 89 490 214 C490 308 431 366 280 429 C166 476 143 507 143 566 C143 631 184 666 258 666 C317 666 335 654 361 620 C386 588 399 567 424 514 L451 514 L440 682 C406 695 354 706 270 706 C128 706 34 621 34 505 C34 404 83 345 217 290 C336 241 372 205 372 141 C372 73 334 27 247 27 C184 27 154 39 124 83 C98 121 79 158 55 209 L26 209 L38 21 C78 3 149 -13 237 -13 L237 -13 Z M165 724 L361 765 C395 772 407 792 407 814 C407 843 386 869 358 869 C343 869 329 863 314 852 L159 740 L165 724 Z " />
<glyph glyph-name="sacute" unicode="&#x15b;" horiz-adv-x="422" d="M126 578 L314 628 C345 637 356 660 356 680 C356 707 335 733 307 733 C292 733 277 727 261 713 L119 594 L126 578 Z M185 -12 C321 -12 399 61 399 162 C399 239 347 284 239 324 C158 355 132 383 132 424 C132 468 162 494 213 494 C247 494 267 489 290 461 C310 438 326 413 344 378 L367 378 L362 510 C331 522 285 530 229 530 C106 530 27 463 27 369 C27 286 84 242 172 208 C257 175 290 152 290 102 C290 53 251 24 199 24 C152 24 131 36 111 65 C88 96 70 123 51 162 L26 162 L31 10 C72 -3 128 -12 185 -12 L185 -12 Z " />
<glyph glyph-name="Scircumflex" unicode="&#x15c;" horiz-adv-x="519" d="M127 720 L268 773 L409 720 L419 735 L290 864 L245 864 L117 735 L127 720 Z M237 -13 C401 -13 490 89 490 214 C490 308 431 366 280 429 C166 476 143 507 143 566 C143 631 184 666 258 666 C317 666 335 654 361 620 C386 588 399 567 424 514 L451 514 L440 682 C406 695 354 706 270 706 C128 706 34 621 34 505 C34 404 83 345 217 290 C336 241 372 205 372 141 C372 73 334 27 247 27 C184 27 154 39 124 83 C98 121 79 158 55 209 L26 209 L38 21 C78 3 149 -13 237 -13 L237 -13 Z " />
<glyph glyph-name="scircumflex" unicode="&#x15d;" horiz-adv-x="422" d="M80 573 L215 637 L350 573 L360 588 L237 728 L192 728 L70 588 L80 573 Z M185 -12 C321 -12 399 61 399 162 C399 239 347 284 239 324 C158 355 132 383 132 424 C132 468 162 494 213 494 C247 494 267 489 290 461 C310 438 326 413 344 378 L367 378 L362 510 C331 522 285 530 229 530 C106 530 27 463 27 369 C27 286 84 242 172 208 C257 175 290 152 290 102 C290 53 251 24 199 24 C152 24 131 36 111 65 C88 96 70 123 51 162 L26 162 L31 10 C72 -3 128 -12 185 -12 L185 -12 Z " />
<glyph glyph-name="Scedilla" unicode="&#x15e;" horiz-adv-x="519" d="M147 -204 C247 -196 312 -167 312 -112 C312 -76 279 -53 227 -48 L250 -13 C406 -7 490 92 490 214 C490 308 431 366 280 429 C166 476 143 507 143 566 C143 631 184 666 258 666 C317 666 335 654 361 620 C386 588 399 567 424 514 L451 514 L440 682 C406 695 354 706 270 706 C128 706 34 621 34 505 C34 404 83 345 217 290 C336 241 372 205 372 141 C372 73 334 27 247 27 C184 27 154 39 124 83 C98 121 79 158 55 209 L26 209 L38 21 C74 4 136 -10 213 -12 L175 -90 L180 -98 C212 -101 232 -109 232 -129 C232 -153 207 -171 147 -185 L147 -204 Z " />
<glyph glyph-name="scedilla" unicode="&#x15f;" horiz-adv-x="422" d="M100 -204 C200 -196 265 -167 265 -112 C265 -76 232 -53 180 -48 L204 -11 C328 -5 399 66 399 162 C399 239 347 284 239 324 C158 355 132 383 132 424 C132 468 162 494 213 494 C247 494 267 489 290 461 C310 438 326 413 344 378 L367 378 L362 510 C331 522 285 530 229 530 C106 530 27 463 27 369 C27 286 84 242 172 208 C257 175 290 152 290 102 C290 53 251 24 199 24 C152 24 131 36 111 65 C88 96 70 123 51 162 L26 162 L31 10 C67 -1 116 -10 167 -12 L128 -90 L133 -98 C165 -101 185 -109 185 -129 C185 -153 160 -171 100 -185 L100 -204 Z " />
<glyph glyph-name="Scaron" unicode="&#x160;" horiz-adv-x="519" d="M246 727 L290 727 L413 860 L403 874 L268 818 L133 874 L123 860 L246 727 Z M237 -13 C401 -13 490 89 490 214 C490 308 431 366 280 429 C166 476 143 507 143 566 C143 631 184 666 258 666 C317 666 335 654 361 620 C386 588 399 567 424 514 L451 514 L440 682 C406 695 354 706 270 706 C128 706 34 621 34 505 C34 404 83 345 217 290 C336 241 372 205 372 141 C372 73 334 27 247 27 C184 27 154 39 124 83 C98 121 79 158 55 209 L26 209 L38 21 C78 3 149 -13 237 -13 L237 -13 Z " />
<glyph glyph-name="scaron" unicode="&#x161;" horiz-adv-x="422" d="M193 580 L237 580 L360 720 L350 734 L215 671 L80 734 L70 720 L193 580 Z M185 -12 C321 -12 399 61 399 162 C399 239 347 284 239 324 C158 355 132 383 132 424 C132 468 162 494 213 494 C247 494 267 489 290 461 C310 438 326 413 344 378 L367 378 L362 510 C331 522 285 530 229 530 C106 530 27 463 27 369 C27 286 84 242 172 208 C257 175 290 152 290 102 C290 53 251 24 199 24 C152 24 131 36 111 65 C88 96 70 123 51 162 L26 162 L31 10 C72 -3 128 -12 185 -12 L185 -12 Z " />
<glyph glyph-name="Tcommaaccent" unicode="&#x162;" horiz-adv-x="619" d="M235 -248 C334 -236 373 -182 373 -126 C373 -78 340 -50 299 -50 C262 -50 234 -75 234 -104 C234 -134 254 -155 287 -155 C298 -155 307 -151 311 -148 C312 -181 295 -209 229 -227 L235 -248 Z M155 0 L463 0 L463 24 L422 32 C389 38 385 43 385 100 L385 654 L398 654 C477 654 486 650 516 604 C538 570 552 538 576 474 L605 474 L596 693 L23 693 L14 474 L43 474 C67 538 81 570 103 604 C131 649 143 654 220 654 L234 654 L234 100 C234 43 228 38 197 32 L155 24 L155 0 Z " />
<glyph glyph-name="tcommaaccent" unicode="&#x163;" horiz-adv-x="348" d="M110 -248 C209 -236 248 -182 248 -126 C248 -78 215 -50 174 -50 C137 -50 109 -75 109 -104 C109 -134 129 -155 162 -155 C173 -155 182 -151 186 -148 C187 -181 170 -209 104 -227 L110 -248 Z M196 -12 C272 -12 320 23 342 42 L342 67 C323 62 293 56 267 56 C219 56 202 75 202 122 L202 463 L326 463 L338 515 L202 515 L202 643 L159 643 C131 564 75 511 2 485 L2 463 L68 463 L68 112 C68 23 117 -12 196 -12 L196 -12 Z " />
<glyph glyph-name="Tcaron" unicode="&#x164;" horiz-adv-x="619" d="M287 727 L331 727 L454 860 L444 874 L309 818 L174 874 L164 860 L287 727 Z M155 0 L463 0 L463 24 L422 32 C389 38 385 43 385 100 L385 654 L398 654 C477 654 486 650 516 604 C538 570 552 538 576 474 L605 474 L596 693 L23 693 L14 474 L43 474 C67 538 81 570 103 604 C131 649 143 654 220 654 L234 654 L234 100 C234 43 228 38 197 32 L155 24 L155 0 Z " />
<glyph glyph-name="tcaron" unicode="&#x165;" horiz-adv-x="348" d="M282 557 L359 675 C369 688 371 702 371 711 C371 738 349 756 321 756 C286 756 273 733 272 704 L266 562 L282 557 Z M196 -12 C272 -12 320 23 342 42 L342 67 C323 62 293 56 267 56 C219 56 202 75 202 122 L202 463 L326 463 L338 515 L202 515 L202 643 L159 643 C131 564 75 511 2 485 L2 463 L68 463 L68 112 C68 23 117 -12 196 -12 L196 -12 Z " />
<glyph glyph-name="Tbar" unicode="&#x166;" horiz-adv-x="619" d="M82 359 L235 359 L235 100 C235 43 228 38 198 32 L156 24 L156 0 L464 0 L464 24 L422 32 C390 38 385 43 385 100 L385 359 L538 359 L538 398 L385 398 L385 654 L399 654 C478 654 487 650 517 604 C539 570 553 538 577 474 L605 474 L597 693 L23 693 L15 474 L43 474 C68 538 81 570 104 604 C132 649 143 654 221 654 L235 654 L235 398 L82 398 L82 359 Z " />
<glyph glyph-name="tbar" unicode="&#x167;" horiz-adv-x="348" d="M3 327 L68 327 L68 112 C68 23 117 -12 196 -12 C272 -12 320 23 342 42 L342 67 C323 62 293 56 267 56 C219 56 202 75 202 122 L202 327 L333 327 L333 369 L202 369 L202 463 L326 463 L338 515 L202 515 L202 643 L159 643 C131 564 75 511 2 485 L2 463 L68 463 L68 369 L3 369 L3 327 Z " />
<glyph glyph-name="Utilde" unicode="&#x168;" horiz-adv-x="692" d="M361 -12 C534 -12 608 89 608 212 L608 583 C608 650 620 656 649 662 L682 669 L682 693 L473 693 L473 669 L516 662 C554 655 561 650 561 581 L561 219 C561 111 515 46 402 46 C283 46 236 97 236 207 L236 593 C236 650 242 654 272 661 L309 669 L309 693 L11 693 L11 669 L49 661 C77 655 85 650 85 593 L85 223 C85 53 197 -12 361 -12 L361 -12 Z M246 719 C265 750 277 762 298 762 C341 762 416 739 461 739 C508 739 526 784 555 854 L534 865 C515 834 502 822 482 822 C439 822 364 845 319 845 C273 845 254 799 225 730 L246 719 Z " />
<glyph glyph-name="utilde" unicode="&#x169;" horiz-adv-x="604" d="M208 -12 C281 -12 344 23 396 60 L401 60 L399 -5 L408 -12 L594 14 L594 33 L561 48 C534 59 530 65 530 113 L530 520 L519 529 L330 509 L330 491 L367 471 C393 458 396 454 396 415 L396 91 C367 81 327 66 286 66 C235 66 210 92 210 151 L210 520 L199 529 L10 509 L10 491 L47 471 C73 457 76 454 76 415 L76 120 C76 34 127 -12 208 -12 L208 -12 Z M166 572 C185 603 197 615 218 615 C260 615 328 592 373 592 C421 592 439 637 468 707 L446 718 C427 687 414 675 394 675 C351 675 284 698 239 698 C193 698 174 653 144 583 L166 572 Z " />
<glyph glyph-name="Umacron" unicode="&#x16a;" horiz-adv-x="692" d="M361 -12 C534 -12 608 89 608 212 L608 583 C608 650 620 656 649 662 L682 669 L682 693 L473 693 L473 669 L516 662 C554 655 561 650 561 581 L561 219 C561 111 515 46 402 46 C283 46 236 97 236 207 L236 593 C236 650 242 654 272 661 L309 669 L309 693 L11 693 L11 669 L49 661 C77 655 85 650 85 593 L85 223 C85 53 197 -12 361 -12 L361 -12 Z M254 746 L526 746 L526 816 L254 816 L254 746 Z " />
<glyph glyph-name="umacron" unicode="&#x16b;" horiz-adv-x="604" d="M208 -12 C281 -12 344 23 396 60 L401 60 L399 -5 L408 -12 L594 14 L594 33 L561 48 C534 59 530 65 530 113 L530 520 L519 529 L330 509 L330 491 L367 471 C393 458 396 454 396 415 L396 91 C367 81 327 66 286 66 C235 66 210 92 210 151 L210 520 L199 529 L10 509 L10 491 L47 471 C73 457 76 454 76 415 L76 120 C76 34 127 -12 208 -12 L208 -12 Z M181 605 L431 605 L431 675 L181 675 L181 605 Z " />
<glyph glyph-name="Ubreve" unicode="&#x16c;" horiz-adv-x="692" d="M361 -12 C534 -12 608 89 608 212 L608 583 C608 650 620 656 649 662 L682 669 L682 693 L473 693 L473 669 L516 662 C554 655 561 650 561 581 L561 219 C561 111 515 46 402 46 C283 46 236 97 236 207 L236 593 C236 650 242 654 272 661 L309 669 L309 693 L11 693 L11 669 L49 661 C77 655 85 650 85 593 L85 223 C85 53 197 -12 361 -12 L361 -12 Z M390 726 C472 726 521 792 529 866 L507 872 C489 833 453 808 390 808 C324 808 290 836 273 872 L251 866 C260 792 308 726 390 726 L390 726 Z " />
<glyph glyph-name="ubreve" unicode="&#x16d;" horiz-adv-x="604" d="M208 -12 C281 -12 344 23 396 60 L401 60 L399 -5 L408 -12 L594 14 L594 33 L561 48 C534 59 530 65 530 113 L530 520 L519 529 L330 509 L330 491 L367 471 C393 458 396 454 396 415 L396 91 C367 81 327 66 286 66 C235 66 210 92 210 151 L210 520 L199 529 L10 509 L10 491 L47 471 C73 457 76 454 76 415 L76 120 C76 34 127 -12 208 -12 L208 -12 Z M307 576 C379 576 424 642 432 716 L410 722 C392 683 361 658 307 658 C251 658 221 686 203 722 L181 716 C190 642 236 576 307 576 L307 576 Z " />
<glyph glyph-name="Uring" unicode="&#x16e;" horiz-adv-x="692" d="M361 -12 C534 -12 608 89 608 212 L608 583 C608 650 620 656 649 662 L682 669 L682 693 L473 693 L473 669 L516 662 C554 655 561 650 561 581 L561 219 C561 111 515 46 402 46 C283 46 236 97 236 207 L236 593 C236 650 242 654 272 661 L309 669 L309 693 L11 693 L11 669 L49 661 C77 655 85 650 85 593 L85 223 C85 53 197 -12 361 -12 L361 -12 Z M392 698 C447 698 488 738 488 789 C488 842 447 881 392 881 C337 881 296 842 296 789 C296 738 335 698 392 698 L392 698 Z M392 730 C359 730 337 755 337 789 C337 824 360 849 392 849 C425 849 447 824 447 789 C447 755 425 730 392 730 L392 730 Z " />
<glyph glyph-name="uring" unicode="&#x16f;" horiz-adv-x="604" d="M306 573 C361 573 402 613 402 664 C402 717 361 756 306 756 C251 756 210 717 210 664 C210 613 249 573 306 573 L306 573 Z M306 605 C273 605 251 630 251 664 C251 699 274 724 306 724 C339 724 361 699 361 664 C361 630 339 605 306 605 L306 605 Z M208 -12 C281 -12 344 23 396 60 L401 60 L399 -5 L408 -12 L594 14 L594 33 L561 48 C534 59 530 65 530 113 L530 520 L519 529 L330 509 L330 491 L367 471 C393 458 396 454 396 415 L396 91 C367 81 327 66 286 66 C235 66 210 92 210 151 L210 520 L199 529 L10 509 L10 491 L47 471 C73 457 76 454 76 415 L76 120 C76 34 127 -12 208 -12 L208 -12 Z " />
<glyph glyph-name="Uhungarumlaut" unicode="&#x170;" horiz-adv-x="692" d="M293 721 L407 786 C434 801 441 818 441 836 C441 862 411 885 389 885 C374 885 361 875 349 853 L277 737 L293 721 Z M461 721 L578 789 C604 804 610 819 610 835 C610 861 579 885 557 885 C541 885 529 875 516 853 L444 737 L461 721 Z M361 -12 C534 -12 608 89 608 212 L608 583 C608 650 620 656 649 662 L682 669 L682 693 L473 693 L473 669 L516 662 C554 655 561 650 561 581 L561 219 C561 111 515 46 402 46 C283 46 236 97 236 207 L236 593 C236 650 242 654 272 661 L309 669 L309 693 L11 693 L11 669 L49 661 C77 655 85 650 85 593 L85 223 C85 53 197 -12 361 -12 L361 -12 Z " />
<glyph glyph-name="uhungarumlaut" unicode="&#x171;" horiz-adv-x="604" d="M208 -12 C281 -12 344 23 396 60 L401 60 L399 -5 L408 -12 L594 14 L594 33 L561 48 C534 59 530 65 530 113 L530 520 L519 529 L330 509 L330 491 L367 471 C393 458 396 454 396 415 L396 91 C367 81 327 66 286 66 C235 66 210 92 210 151 L210 520 L199 529 L10 509 L10 491 L47 471 C73 457 76 454 76 415 L76 120 C76 34 127 -12 208 -12 L208 -12 Z M205 574 L329 648 C355 663 363 681 363 699 C363 725 333 748 311 748 C296 748 283 738 269 716 L189 590 L205 574 Z M373 574 L500 651 C525 666 532 682 532 698 C532 724 501 748 479 748 C463 748 450 738 437 716 L356 590 L373 574 Z " />
<glyph glyph-name="Uogonek" unicode="&#x172;" horiz-adv-x="692" d="M400 -203 C439 -203 469 -189 484 -179 L484 -158 C454 -158 442 -157 430 -152 C415 -147 405 -135 405 -109 C405 -46 444 -13 503 19 C576 59 608 130 608 212 L608 583 C608 650 620 656 649 662 L682 669 L682 693 L473 693 L473 669 L516 662 C554 655 561 650 561 581 L561 219 C561 111 515 46 402 46 C283 46 236 97 236 207 L236 593 C236 650 242 654 272 661 L309 669 L309 693 L11 693 L11 669 L49 661 C77 655 85 650 85 593 L85 223 C85 53 197 -12 361 -12 C378 -12 398 -10 414 -7 C356 -36 304 -78 304 -126 C304 -175 344 -203 400 -203 L400 -203 Z " />
<glyph glyph-name="uogonek" unicode="&#x173;" horiz-adv-x="604" d="M385 -203 C426 -203 455 -189 470 -179 L470 -158 C440 -158 428 -157 416 -152 C401 -147 391 -135 391 -109 C391 -56 433 -4 540 8 L594 14 L594 33 L561 48 C534 59 530 65 530 113 L530 520 L519 529 L330 509 L330 491 L367 471 C393 458 396 454 396 415 L396 91 C367 81 327 66 286 66 C235 66 210 92 210 151 L210 520 L199 529 L10 509 L10 491 L47 471 C73 457 76 454 76 415 L76 120 C76 34 127 -12 208 -12 C281 -12 344 23 396 60 L401 60 L399 -13 C348 -39 291 -77 291 -126 C291 -175 331 -203 385 -203 L385 -203 Z " />
<glyph glyph-name="Wcircumflex" unicode="&#x174;" horiz-adv-x="977" d="M371 720 L512 773 L653 720 L663 735 L534 864 L489 864 L361 735 L371 720 Z M273 0 L356 0 L497 422 L500 422 L634 0 L718 0 L887 551 C910 627 921 655 953 663 L979 669 L979 693 L783 693 L783 669 L815 663 C838 658 849 645 849 624 C849 605 843 579 836 554 L729 174 L724 174 L605 554 C597 580 591 606 591 623 C591 645 601 657 622 662 L655 669 L655 693 L364 693 L364 669 L389 663 C417 655 429 639 447 581 L475 495 L369 174 L364 174 L245 554 C237 581 229 607 229 625 C229 646 240 657 262 663 L290 669 L290 693 L-2 693 L-2 669 L24 663 C53 656 61 641 84 572 L273 0 Z " />
<glyph glyph-name="wcircumflex" unicode="&#x175;" horiz-adv-x="808" d="M296 573 L431 637 L566 573 L576 588 L453 728 L408 728 L286 588 L296 573 Z M223 0 L292 0 L407 316 L410 316 L520 0 L590 0 L734 401 C756 460 765 478 791 486 L814 492 L814 515 L638 515 L638 492 L665 485 C686 480 694 469 694 451 C694 438 690 422 682 395 L602 144 L597 144 L513 395 C505 418 501 437 501 450 C501 469 507 480 526 485 L553 492 L553 515 L303 515 L303 492 L324 486 C346 479 356 465 375 412 L386 378 L305 144 L300 144 L218 395 C210 421 204 441 204 455 C204 471 209 480 229 486 L253 492 L253 515 L-6 515 L-6 492 L15 486 C42 477 53 464 72 412 L223 0 Z " />
<glyph glyph-name="Ycircumflex" unicode="&#x176;" horiz-adv-x="629" d="M172 0 L480 0 L480 24 L439 32 C406 38 402 43 402 100 L402 290 L532 563 C565 632 581 652 612 663 L633 669 L633 693 L427 693 L427 669 L456 662 C486 655 496 643 496 623 C496 608 493 591 480 564 L377 337 L373 337 L256 568 C243 592 237 611 237 624 C237 645 248 656 276 663 L304 669 L304 693 L-4 693 L-4 669 L18 663 C45 654 56 640 91 576 L251 283 L251 100 C251 43 245 38 214 32 L172 24 L172 0 Z M217 720 L358 773 L499 720 L509 735 L380 864 L335 864 L207 735 L217 720 Z " />
<glyph glyph-name="ycircumflex" unicode="&#x177;" horiz-adv-x="535" d="M111 -207 C209 -207 246 -137 282 -46 L462 401 C487 463 492 477 516 485 L541 492 L541 515 L365 515 L365 492 L393 485 C413 480 423 473 423 454 C423 440 418 420 409 395 L318 148 L314 148 L219 395 C210 418 205 436 205 450 C205 471 214 480 234 485 L261 492 L261 515 L-4 515 L-4 492 L17 486 C40 478 45 471 71 411 L248 -11 L235 -41 C201 -123 176 -150 155 -150 C144 -150 140 -146 136 -131 C127 -101 111 -84 74 -84 C39 -84 16 -104 16 -139 C16 -179 52 -207 111 -207 L111 -207 Z M170 573 L305 637 L440 573 L450 588 L327 728 L282 728 L160 588 L170 573 Z " />
<glyph glyph-name="Ydieresis" unicode="&#x178;" horiz-adv-x="629" d="M172 0 L480 0 L480 24 L439 32 C406 38 402 43 402 100 L402 290 L532 563 C565 632 581 652 612 663 L633 669 L633 693 L427 693 L427 669 L456 662 C486 655 496 643 496 623 C496 608 493 591 480 564 L377 337 L373 337 L256 568 C243 592 237 611 237 624 C237 645 248 656 276 663 L304 669 L304 693 L-4 693 L-4 669 L18 663 C45 654 56 640 91 576 L251 283 L251 100 C251 43 245 38 214 32 L172 24 L172 0 Z M250 728 C289 728 319 757 319 795 C319 833 289 862 250 862 C213 862 182 833 182 795 C182 757 213 728 250 728 L250 728 Z M466 728 C503 728 534 757 534 795 C534 833 503 862 466 862 C427 862 397 833 397 795 C397 757 427 728 466 728 L466 728 Z " />
<glyph glyph-name="Zacute" unicode="&#x179;" horiz-adv-x="567" d="M201 724 L397 765 C431 772 443 792 443 814 C443 843 422 869 394 869 C379 869 365 863 350 852 L195 740 L201 724 Z M21 0 L534 0 L549 229 L520 229 C492 160 475 123 449 88 C418 47 393 39 238 39 L187 39 L187 43 L549 654 L549 693 L61 693 L50 484 L77 484 C104 546 118 575 142 609 C170 650 189 655 337 655 L385 655 L385 651 L21 39 L21 0 Z " />
<glyph glyph-name="zacute" unicode="&#x17a;" horiz-adv-x="476" d="M165 578 L353 628 C384 637 395 660 395 680 C395 707 374 733 346 733 C331 733 316 727 300 713 L158 594 L165 578 Z M15 0 L441 0 L455 177 L431 177 C413 139 393 108 370 76 C346 44 328 37 231 37 L168 37 L168 41 L460 483 L460 515 L51 515 L42 347 L65 347 C91 394 105 419 129 448 C151 473 165 478 240 478 L306 478 L306 474 L15 34 L15 0 Z " />
<glyph glyph-name="Zdotaccent" unicode="&#x17b;" horiz-adv-x="567" d="M21 0 L534 0 L549 229 L520 229 C492 160 475 123 449 88 C418 47 393 39 238 39 L187 39 L187 43 L549 654 L549 693 L61 693 L50 484 L77 484 C104 546 118 575 142 609 C170 650 189 655 337 655 L385 655 L385 651 L21 39 L21 0 Z M304 726 C344 726 376 756 376 794 C376 833 344 862 304 862 C265 862 233 833 233 794 C233 756 265 726 304 726 L304 726 Z " />
<glyph glyph-name="zdotaccent" unicode="&#x17c;" horiz-adv-x="476" d="M15 0 L441 0 L455 177 L431 177 C413 139 393 108 370 76 C346 44 328 37 231 37 L168 37 L168 41 L460 483 L460 515 L51 515 L42 347 L65 347 C91 394 105 419 129 448 C151 473 165 478 240 478 L306 478 L306 474 L15 34 L15 0 Z M253 575 C293 575 325 605 325 643 C325 682 293 711 253 711 C214 711 182 682 182 643 C182 605 214 575 253 575 L253 575 Z " />
<glyph glyph-name="Zcaron" unicode="&#x17d;" horiz-adv-x="567" d="M282 727 L326 727 L449 860 L439 874 L304 818 L169 874 L159 860 L282 727 Z M21 0 L534 0 L549 229 L520 229 C492 160 475 123 449 88 C418 47 393 39 238 39 L187 39 L187 43 L549 654 L549 693 L61 693 L50 484 L77 484 C104 546 118 575 142 609 C170 650 189 655 337 655 L385 655 L385 651 L21 39 L21 0 Z " />
<glyph glyph-name="zcaron" unicode="&#x17e;" horiz-adv-x="476" d="M232 580 L276 580 L399 720 L389 734 L254 671 L119 734 L109 720 L232 580 Z M15 0 L441 0 L455 177 L431 177 C413 139 393 108 370 76 C346 44 328 37 231 37 L168 37 L168 41 L460 483 L460 515 L51 515 L42 347 L65 347 C91 394 105 419 129 448 C151 473 165 478 240 478 L306 478 L306 474 L15 34 L15 0 Z " />
<glyph glyph-name="florin" unicode="&#x192;" horiz-adv-x="463" d="M46 356 L125 356 L62 -84 C53 -146 41 -163 20 -163 C9 -163 5 -159 0 -132 C-8 -86 -22 -72 -54 -72 C-88 -72 -108 -92 -108 -122 C-108 -160 -76 -197 5 -197 C113 -197 187 -133 212 41 L258 356 L380 356 L380 397 L264 397 L289 563 C302 650 323 668 352 668 C371 668 373 665 378 637 C386 583 403 566 440 566 C472 566 496 585 496 621 C496 666 454 704 372 704 C251 704 166 636 144 485 L131 397 L46 397 L46 356 Z " />
<glyph glyph-name="Aringacute" unicode="&#x1fa;" horiz-adv-x="669" d="M-3 0 L199 0 L199 24 L169 31 C141 38 130 47 130 73 C130 88 134 111 144 139 L174 230 L381 230 L413 139 C423 111 431 85 431 68 C431 49 422 38 396 31 L368 24 L368 0 L669 0 L669 24 L645 30 C618 38 606 54 579 126 L372 693 L290 693 L91 133 C60 48 53 39 23 31 L-3 24 L-3 0 Z M330 720 C385 720 426 760 426 811 C426 864 385 903 330 903 C275 903 234 864 234 811 C234 760 273 720 330 720 L330 720 Z M273 529 L278 529 L368 269 L187 269 L273 529 Z M227 914 L423 955 C457 962 469 982 469 1004 C469 1033 448 1059 420 1059 C405 1059 391 1053 376 1042 L221 930 L227 914 Z M330 752 C297 752 275 777 275 811 C275 846 298 871 330 871 C363 871 385 846 385 811 C385 777 363 752 330 752 L330 752 Z " />
<glyph glyph-name="aringacute" unicode="&#x1fb;" horiz-adv-x="515" d="M169 -13 C230 -13 279 15 304 48 L309 48 C318 11 349 -12 404 -12 C452 -12 491 5 508 18 L508 39 C491 39 473 42 461 48 C442 58 436 73 436 106 L436 395 C436 489 372 530 250 530 C134 530 44 499 44 435 C44 402 64 379 105 379 C154 379 168 406 173 457 C176 486 186 494 222 494 C289 494 302 464 302 387 L302 294 L184 265 C91 243 19 205 19 120 C19 35 76 -13 169 -13 L169 -13 Z M230 49 C183 49 152 76 152 138 C152 211 187 236 244 241 L302 247 L302 86 C291 66 266 49 230 49 L230 49 Z M250 573 C305 573 346 613 346 664 C346 717 305 756 250 756 C195 756 154 717 154 664 C154 613 193 573 250 573 L250 573 Z M250 605 C217 605 195 630 195 664 C195 699 218 724 250 724 C283 724 305 699 305 664 C305 630 283 605 250 605 L250 605 Z M145 774 L341 815 C375 822 387 842 387 864 C387 893 366 919 338 919 C323 919 309 913 294 902 L139 790 L145 774 Z " />
<glyph glyph-name="AEacute" unicode="&#x1fc;" horiz-adv-x="917" d="M-4 0 L205 0 L205 24 L176 31 C153 37 144 46 145 62 C145 81 157 108 174 139 L217 219 L425 219 L425 100 C425 43 414 38 387 32 L349 24 L349 0 L881 0 L895 226 L867 226 C844 165 823 119 806 95 C775 49 760 40 676 40 C574 40 569 50 569 147 L569 340 L600 340 C679 340 694 336 707 309 C719 282 727 261 735 229 L761 229 L761 488 L735 488 C727 455 719 434 707 410 C694 386 672 379 600 379 L569 379 L569 644 C586 649 616 653 668 653 C742 653 763 648 793 603 C806 583 822 555 845 502 L872 502 L861 693 L335 693 L335 669 L375 661 C388 658 400 655 408 647 L115 133 C67 48 53 39 22 31 L-4 24 L-4 0 Z M422 593 L425 593 L425 257 L238 257 L422 593 Z M529 724 L725 765 C759 772 771 792 771 814 C771 843 750 869 722 869 C707 869 693 863 678 852 L523 740 L529 724 Z " />
<glyph glyph-name="aeacute" unicode="&#x1fd;" horiz-adv-x="775" d="M543 -12 C639 -12 709 40 740 72 L740 102 C703 84 659 63 592 63 C498 63 434 113 429 271 L753 271 C753 457 673 530 545 530 C483 530 431 505 393 464 C369 505 321 530 242 530 C134 530 42 499 42 436 C42 402 63 379 104 379 C152 379 166 406 171 457 C175 486 185 494 221 494 C288 494 300 460 300 387 L300 296 L184 268 C89 246 19 205 19 119 C19 34 76 -13 172 -13 C247 -13 304 15 349 72 C389 18 453 -12 543 -12 L543 -12 Z M537 495 C602 495 617 441 617 316 L429 306 C432 440 475 495 537 495 L537 495 Z M230 49 C183 49 152 75 152 137 C152 210 187 239 244 244 L300 250 C301 198 309 153 325 116 C304 76 273 49 230 49 L230 49 Z M308 578 L496 628 C527 637 538 660 538 680 C538 707 517 733 489 733 C474 733 459 727 443 713 L301 594 L308 578 Z " />
<glyph glyph-name="Oslashacute" unicode="&#x1fe;" horiz-adv-x="712" d="M72 -64 L120 -64 L181 32 C231 3 290 -12 352 -12 C513 -12 683 90 683 353 C683 486 636 580 564 637 L623 730 L575 730 L531 660 C480 690 421 705 360 705 C199 705 29 599 29 337 C29 207 76 113 148 55 L72 -64 Z M358 27 C295 27 253 52 226 103 L504 542 C519 489 526 420 526 333 C526 106 473 27 358 27 L358 27 Z M186 357 C186 584 241 666 353 666 C416 666 458 640 485 589 L207 150 C192 202 186 271 186 357 L186 357 Z M253 724 L449 765 C483 772 495 792 495 814 C495 843 474 869 446 869 C431 869 417 863 402 852 L247 740 L253 724 Z " />
<glyph glyph-name="oslashacute" unicode="&#x1ff;" horiz-adv-x="569" d="M54 -64 L99 -64 L152 17 C191 -3 236 -13 284 -13 C418 -13 546 78 546 263 C546 364 509 435 451 479 L514 576 L469 576 L419 499 C379 519 333 530 284 530 C152 530 23 442 23 257 C23 155 61 81 120 37 L54 -64 Z M163 256 C162 434 207 494 281 494 C326 494 360 483 380 440 L174 121 C166 154 163 198 163 256 L163 256 Z M288 23 C242 23 210 35 189 75 L395 393 C402 361 405 320 406 266 C407 82 361 23 288 23 L288 23 Z M195 578 L383 628 C414 637 425 660 425 680 C425 707 404 733 376 733 C361 733 346 727 330 713 L188 594 L195 578 Z " />
<glyph glyph-name="Scommaaccent" unicode="&#x218;" horiz-adv-x="519" d="M175 -248 C274 -236 313 -182 313 -126 C313 -78 280 -50 239 -50 C202 -50 174 -75 174 -104 C174 -134 194 -155 227 -155 C238 -155 247 -151 251 -148 C252 -181 235 -209 169 -227 L175 -248 Z M237 -13 C401 -13 490 89 490 214 C490 308 431 366 280 429 C166 476 143 507 143 566 C143 631 184 666 258 666 C317 666 335 654 361 620 C386 588 399 567 424 514 L451 514 L440 682 C406 695 354 706 270 706 C128 706 34 621 34 505 C34 404 83 345 217 290 C336 241 372 205 372 141 C372 73 334 27 247 27 C184 27 154 39 124 83 C98 121 79 158 55 209 L26 209 L38 21 C78 3 149 -13 237 -13 L237 -13 Z " />
<glyph glyph-name="scommaaccent" unicode="&#x219;" horiz-adv-x="422" d="M132 -248 C231 -236 270 -182 270 -126 C270 -78 237 -50 196 -50 C159 -50 131 -75 131 -104 C131 -134 151 -155 184 -155 C195 -155 204 -151 208 -148 C209 -181 192 -209 126 -227 L132 -248 Z M185 -12 C321 -12 399 61 399 162 C399 239 347 284 239 324 C158 355 132 383 132 424 C132 468 162 494 213 494 C247 494 267 489 290 461 C310 438 326 413 344 378 L367 378 L362 510 C331 522 285 530 229 530 C106 530 27 463 27 369 C27 286 84 242 172 208 C257 175 290 152 290 102 C290 53 251 24 199 24 C152 24 131 36 111 65 C88 96 70 123 51 162 L26 162 L31 10 C72 -3 128 -12 185 -12 L185 -12 Z " />
<glyph glyph-name="uni0237" unicode="&#x237;" horiz-adv-x="282" d="M12 -210 C126 -210 213 -143 213 3 L213 417 C213 465 216 505 217 523 L208 529 L13 506 L13 489 L48 468 C74 452 79 449 79 407 L79 -110 C79 -154 63 -174 37 -174 C27 -174 23 -171 20 -144 C15 -97 0 -77 -44 -77 C-78 -77 -102 -97 -102 -130 C-102 -174 -66 -210 12 -210 L12 -210 Z " />
<glyph glyph-name="circumflex" unicode="&#x2c6;" horiz-adv-x="500" d="M115 573 L250 637 L385 573 L395 588 L272 728 L227 728 L105 588 L115 573 Z " />
<glyph glyph-name="caron" unicode="&#x2c7;" horiz-adv-x="500" d="M228 580 L272 580 L395 720 L385 734 L250 671 L115 734 L105 720 L228 580 Z " />
<glyph glyph-name="breve" unicode="&#x2d8;" horiz-adv-x="500" d="M251 576 C323 576 368 642 376 716 L354 722 C336 683 305 658 251 658 C195 658 165 686 147 722 L125 716 C134 642 180 576 251 576 L251 576 Z " />
<glyph glyph-name="dotaccent" unicode="&#x2d9;" horiz-adv-x="434" d="M215 575 C255 575 287 605 287 643 C287 682 255 711 215 711 C176 711 144 682 144 643 C144 605 176 575 215 575 L215 575 Z " />
<glyph glyph-name="ring" unicode="&#x2da;" horiz-adv-x="500" d="M250 573 C305 573 346 613 346 664 C346 717 305 756 250 756 C195 756 154 717 154 664 C154 613 193 573 250 573 L250 573 Z M250 605 C217 605 195 630 195 664 C195 699 218 724 250 724 C283 724 305 699 305 664 C305 630 283 605 250 605 L250 605 Z " />
<glyph glyph-name="ogonek" unicode="&#x2db;" horiz-adv-x="445" d="M224 -203 C264 -203 293 -189 309 -179 L309 -158 C279 -158 266 -157 254 -152 C240 -147 229 -135 229 -109 C229 -67 251 -32 278 0 L249 0 C196 -28 129 -73 129 -126 C129 -175 169 -203 224 -203 L224 -203 Z " />
<glyph glyph-name="tilde" unicode="&#x2dc;" horiz-adv-x="500" d="M110 572 C129 603 141 615 162 615 C204 615 272 592 317 592 C365 592 383 637 412 707 L390 718 C371 687 358 675 338 675 C295 675 228 698 183 698 C137 698 118 653 88 583 L110 572 Z " />
<glyph glyph-name="hungarumlaut" unicode="&#x2dd;" horiz-adv-x="500" d="M133 574 L257 648 C283 663 291 681 291 699 C291 725 261 748 239 748 C224 748 211 738 197 716 L117 590 L133 574 Z M301 574 L428 651 C453 666 460 682 460 698 C460 724 429 748 407 748 C391 748 378 738 365 716 L284 590 L301 574 Z " />
<glyph glyph-name="Wgrave" unicode="&#x1e80;" horiz-adv-x="977" d="M628 740 L473 852 C458 863 444 869 429 869 C401 869 380 843 380 814 C380 792 392 772 426 765 L622 724 L628 740 Z M273 0 L356 0 L497 422 L500 422 L634 0 L718 0 L887 551 C910 627 921 655 953 663 L979 669 L979 693 L783 693 L783 669 L815 663 C838 658 849 645 849 624 C849 605 843 579 836 554 L729 174 L724 174 L605 554 C597 580 591 606 591 623 C591 645 601 657 622 662 L655 669 L655 693 L364 693 L364 669 L389 663 C417 655 429 639 447 581 L475 495 L369 174 L364 174 L245 554 C237 581 229 607 229 625 C229 646 240 657 262 663 L290 669 L290 693 L-2 693 L-2 669 L24 663 C53 656 61 641 84 572 L273 0 Z " />
<glyph glyph-name="wgrave" unicode="&#x1e81;" horiz-adv-x="808" d="M223 0 L292 0 L407 316 L410 316 L520 0 L590 0 L734 401 C756 460 765 478 791 486 L814 492 L814 515 L638 515 L638 492 L665 485 C686 480 694 469 694 451 C694 438 690 422 682 395 L602 144 L597 144 L513 395 C505 418 501 437 501 450 C501 469 507 480 526 485 L553 492 L553 515 L303 515 L303 492 L324 486 C346 479 356 465 375 412 L386 378 L305 144 L300 144 L218 395 C210 421 204 441 204 455 C204 471 209 480 229 486 L253 492 L253 515 L-6 515 L-6 492 L15 486 C42 477 53 464 72 412 L223 0 Z M528 578 L536 594 L394 713 C378 727 362 733 347 733 C319 733 298 707 298 680 C298 660 310 637 341 628 L528 578 Z " />
<glyph glyph-name="Wacute" unicode="&#x1e82;" horiz-adv-x="977" d="M404 724 L600 765 C634 772 646 792 646 814 C646 843 625 869 597 869 C582 869 568 863 553 852 L398 740 L404 724 Z M273 0 L356 0 L497 422 L500 422 L634 0 L718 0 L887 551 C910 627 921 655 953 663 L979 669 L979 693 L783 693 L783 669 L815 663 C838 658 849 645 849 624 C849 605 843 579 836 554 L729 174 L724 174 L605 554 C597 580 591 606 591 623 C591 645 601 657 622 662 L655 669 L655 693 L364 693 L364 669 L389 663 C417 655 429 639 447 581 L475 495 L369 174 L364 174 L245 554 C237 581 229 607 229 625 C229 646 240 657 262 663 L290 669 L290 693 L-2 693 L-2 669 L24 663 C53 656 61 641 84 572 L273 0 Z " />
<glyph glyph-name="wacute" unicode="&#x1e83;" horiz-adv-x="808" d="M342 578 L530 628 C561 637 572 660 572 680 C572 707 551 733 523 733 C508 733 493 727 477 713 L335 594 L342 578 Z M223 0 L292 0 L407 316 L410 316 L520 0 L590 0 L734 401 C756 460 765 478 791 486 L814 492 L814 515 L638 515 L638 492 L665 485 C686 480 694 469 694 451 C694 438 690 422 682 395 L602 144 L597 144 L513 395 C505 418 501 437 501 450 C501 469 507 480 526 485 L553 492 L553 515 L303 515 L303 492 L324 486 C346 479 356 465 375 412 L386 378 L305 144 L300 144 L218 395 C210 421 204 441 204 455 C204 471 209 480 229 486 L253 492 L253 515 L-6 515 L-6 492 L15 486 C42 477 53 464 72 412 L223 0 Z " />
<glyph glyph-name="Wdieresis" unicode="&#x1e84;" horiz-adv-x="977" d="M404 728 C443 728 473 757 473 795 C473 833 443 862 404 862 C367 862 336 833 336 795 C336 757 367 728 404 728 L404 728 Z M620 728 C657 728 688 757 688 795 C688 833 657 862 620 862 C581 862 551 833 551 795 C551 757 581 728 620 728 L620 728 Z M273 0 L356 0 L497 422 L500 422 L634 0 L718 0 L887 551 C910 627 921 655 953 663 L979 669 L979 693 L783 693 L783 669 L815 663 C838 658 849 645 849 624 C849 605 843 579 836 554 L729 174 L724 174 L605 554 C597 580 591 606 591 623 C591 645 601 657 622 662 L655 669 L655 693 L364 693 L364 669 L389 663 C417 655 429 639 447 581 L475 495 L369 174 L364 174 L245 554 C237 581 229 607 229 625 C229 646 240 657 262 663 L290 669 L290 693 L-2 693 L-2 669 L24 663 C53 656 61 641 84 572 L273 0 Z " />
<glyph glyph-name="wdieresis" unicode="&#x1e85;" horiz-adv-x="808" d="M331 581 C370 581 400 610 400 648 C400 687 370 715 331 715 C294 715 263 687 263 648 C263 610 294 581 331 581 L331 581 Z M531 581 C568 581 599 610 599 648 C599 687 568 715 531 715 C492 715 462 687 462 648 C462 610 492 581 531 581 L531 581 Z M223 0 L292 0 L407 316 L410 316 L520 0 L590 0 L734 401 C756 460 765 478 791 486 L814 492 L814 515 L638 515 L638 492 L665 485 C686 480 694 469 694 451 C694 438 690 422 682 395 L602 144 L597 144 L513 395 C505 418 501 437 501 450 C501 469 507 480 526 485 L553 492 L553 515 L303 515 L303 492 L324 486 C346 479 356 465 375 412 L386 378 L305 144 L300 144 L218 395 C210 421 204 441 204 455 C204 471 209 480 229 486 L253 492 L253 515 L-6 515 L-6 492 L15 486 C42 477 53 464 72 412 L223 0 Z " />
<glyph glyph-name="Ygrave" unicode="&#x1ef2;" horiz-adv-x="629" d="M172 0 L480 0 L480 24 L439 32 C406 38 402 43 402 100 L402 290 L532 563 C565 632 581 652 612 663 L633 669 L633 693 L427 693 L427 669 L456 662 C486 655 496 643 496 623 C496 608 493 591 480 564 L377 337 L373 337 L256 568 C243 592 237 611 237 624 C237 645 248 656 276 663 L304 669 L304 693 L-4 693 L-4 669 L18 663 C45 654 56 640 91 576 L251 283 L251 100 C251 43 245 38 214 32 L172 24 L172 0 Z M474 740 L319 852 C304 863 290 869 275 869 C247 869 226 843 226 814 C226 792 238 772 272 765 L468 724 L474 740 Z " />
<glyph glyph-name="ygrave" unicode="&#x1ef3;" horiz-adv-x="535" d="M111 -207 C209 -207 246 -137 282 -46 L462 401 C487 463 492 477 516 485 L541 492 L541 515 L365 515 L365 492 L393 485 C413 480 423 473 423 454 C423 440 418 420 409 395 L318 148 L314 148 L219 395 C210 418 205 436 205 450 C205 471 214 480 234 485 L261 492 L261 515 L-4 515 L-4 492 L17 486 C40 478 45 471 71 411 L248 -11 L235 -41 C201 -123 176 -150 155 -150 C144 -150 140 -146 136 -131 C127 -101 111 -84 74 -84 C39 -84 16 -104 16 -139 C16 -179 52 -207 111 -207 L111 -207 Z M403 578 L411 594 L269 713 C253 727 237 733 222 733 C194 733 173 707 173 680 C173 660 185 637 216 628 L403 578 Z " />
<glyph glyph-name="uni2009" unicode="&#x2009;" horiz-adv-x="100" d="" />
<glyph glyph-name="endash" unicode="&#x2013;" horiz-adv-x="383" d="M40 266 L343 266 L343 312 L40 312 L40 266 Z " />
<glyph glyph-name="emdash" unicode="&#x2014;" horiz-adv-x="610" d="M40 266 L569 266 L569 312 L40 312 L40 266 Z " />
<glyph glyph-name="quoteleft" unicode="&#x2018;" horiz-adv-x="210" d="M109 469 C147 469 178 492 178 529 C178 565 154 589 122 589 C110 589 100 584 95 581 C95 622 120 657 181 685 L174 705 C80 683 30 629 30 554 C30 499 68 469 109 469 L109 469 Z " />
<glyph glyph-name="quoteright" unicode="&#x2019;" horiz-adv-x="210" d="M36 469 C131 491 180 545 180 620 C180 675 142 706 101 706 C64 706 33 682 33 645 C33 609 57 585 88 585 C101 585 111 590 115 593 C116 552 90 517 29 489 L36 469 Z " />
<glyph glyph-name="quotesinglbase" unicode="&#x201a;" horiz-adv-x="210" d="M36 -106 C131 -84 180 -30 180 45 C180 100 142 131 101 131 C64 131 33 107 33 70 C33 34 57 10 88 10 C101 10 111 15 115 19 C116 -23 90 -58 29 -86 L36 -106 Z " />
<glyph glyph-name="quotedblleft" unicode="&#x201c;" horiz-adv-x="401" d="M109 469 C147 469 178 492 178 529 C178 565 154 589 122 589 C110 589 100 584 95 581 C95 622 120 657 181 685 L174 705 C80 683 30 629 30 554 C30 499 68 469 109 469 L109 469 Z M300 469 C337 469 368 492 368 529 C368 565 344 589 312 589 C300 589 290 584 286 581 C285 622 311 657 371 685 L365 705 C270 683 221 629 221 554 C221 499 259 469 300 469 L300 469 Z " />
<glyph glyph-name="quotedblright" unicode="&#x201d;" horiz-adv-x="401" d="M36 469 C131 491 180 545 180 620 C180 675 142 706 101 706 C64 706 33 682 33 645 C33 609 57 585 88 585 C101 585 111 590 115 593 C116 552 90 517 29 489 L36 469 Z M227 469 C321 491 370 545 370 620 C370 675 332 706 291 706 C254 706 223 682 223 645 C223 609 247 585 279 585 C291 585 301 590 305 593 C306 552 280 517 220 489 L227 469 Z " />
<glyph glyph-name="quotedblbase" unicode="&#x201e;" horiz-adv-x="401" d="M36 -106 C131 -84 180 -30 180 45 C180 100 142 131 101 131 C64 131 33 107 33 70 C33 34 57 10 88 10 C101 10 111 15 115 19 C116 -23 90 -58 29 -86 L36 -106 Z M227 -106 C321 -84 370 -30 370 45 C370 100 332 131 291 131 C254 131 223 107 223 70 C223 34 247 10 279 10 C291 10 301 15 305 19 C306 -23 280 -58 220 -86 L227 -106 Z " />
<glyph glyph-name="dagger" unicode="&#x2020;" horiz-adv-x="415" d="M194 -67 L219 -67 L267 364 C246 393 224 445 221 484 C273 479 310 442 343 442 C377 442 396 467 396 496 C396 526 377 551 343 551 C310 551 273 514 221 508 C226 562 268 615 268 644 C268 677 239 702 206 702 C173 702 144 677 144 644 C144 615 187 562 192 508 C141 514 105 551 71 551 C37 551 18 526 18 496 C18 467 37 442 71 442 C105 442 141 479 192 484 C190 445 168 393 146 364 L194 -67 Z " />
<glyph glyph-name="daggerdbl" unicode="&#x2021;" horiz-adv-x="415" d="M206 -98 C239 -98 268 -74 268 -43 C268 -9 226 36 221 83 C273 78 310 41 343 41 C377 41 396 66 396 95 C396 124 377 149 343 149 C310 149 273 113 221 107 C225 139 241 165 265 184 L217 291 L196 291 L148 184 C173 165 189 139 192 107 C141 113 105 149 71 149 C37 149 18 124 18 95 C18 66 37 41 71 41 C105 41 141 78 192 83 C187 36 145 -9 145 -43 C145 -74 173 -98 206 -98 L206 -98 Z M196 313 L217 313 L265 420 C241 439 225 465 221 497 C273 491 310 455 343 455 C377 455 396 480 396 509 C396 538 377 563 343 563 C310 563 273 526 221 521 C226 568 268 615 268 648 C268 680 239 702 206 702 C173 702 145 680 145 648 C145 615 187 568 192 521 C141 527 105 563 71 563 C37 563 18 538 18 509 C18 480 37 455 71 455 C105 455 141 491 192 497 C189 465 173 439 148 420 L196 313 Z " />
<glyph glyph-name="bullet" unicode="&#x2022;" horiz-adv-x="335" d="M166 197 C236 197 298 257 298 328 C298 403 236 459 166 459 C95 459 37 403 37 328 C37 257 95 197 166 197 L166 197 Z " />
<glyph glyph-name="ellipsis" unicode="&#x2026;" horiz-adv-x="648" d="M110 -6 C150 -6 185 27 185 67 C185 109 150 141 110 141 C69 141 36 109 36 67 C36 27 69 -6 110 -6 L110 -6 Z M324 -6 C364 -6 399 27 399 67 C399 109 364 141 324 141 C283 141 250 109 250 67 C250 27 283 -6 324 -6 L324 -6 Z M538 -6 C578 -6 613 27 613 67 C613 109 578 141 538 141 C497 141 463 109 463 67 C463 27 497 -6 538 -6 L538 -6 Z " />
<glyph glyph-name="perthousand" unicode="&#x2030;" horiz-adv-x="1138" d="M197 346 C273 346 371 402 371 527 C371 647 279 704 201 704 C130 704 27 649 27 519 C27 401 115 346 197 346 L197 346 Z M199 376 C153 376 133 413 133 528 C133 642 156 674 199 674 C244 674 266 638 266 519 C266 411 246 376 199 376 L199 376 Z M554 -13 C631 -13 729 44 729 169 C729 288 636 345 558 345 C487 345 385 290 385 161 C385 42 473 -13 554 -13 L554 -13 Z M557 17 C510 17 490 54 490 170 C490 284 513 315 557 315 C601 315 623 279 623 160 C623 53 603 17 557 17 L557 17 Z M936 -13 C1013 -13 1111 44 1111 169 C1111 288 1018 345 940 345 C869 345 766 290 766 161 C766 42 855 -13 936 -13 L936 -13 Z M939 17 C892 17 872 54 872 170 C872 284 895 315 939 315 C983 315 1005 279 1005 160 C1005 53 985 17 939 17 L939 17 Z M82 -50 L137 -50 L655 714 L600 714 L82 -50 Z " />
<glyph glyph-name="uni2032" unicode="&#x2032;" horiz-adv-x="220" d="M79 449 L99 449 L169 613 C193 669 162 705 119 705 C78 705 42 682 53 619 L79 449 Z " />
<glyph glyph-name="uni2033" unicode="&#x2033;" horiz-adv-x="391" d="M250 449 L270 449 L340 613 C364 669 333 705 290 705 C249 705 214 682 224 619 L250 449 Z M80 449 L100 449 L170 613 C194 669 162 705 119 705 C78 705 44 682 54 619 L80 449 Z " />
<glyph glyph-name="guilsinglleft" unicode="&#x2039;" horiz-adv-x="274" d="M207 45 L239 45 L146 253 L239 460 L207 460 L35 262 L35 243 L207 45 Z " />
<glyph glyph-name="guilsinglright" unicode="&#x203a;" horiz-adv-x="274" d="M35 45 L68 45 L240 243 L240 262 L68 460 L35 460 L128 253 L35 45 Z " />
<glyph glyph-name="fraction" unicode="&#x2044;" horiz-adv-x="303" d="M-135 -50 L-80 -50 L438 714 L383 714 L-135 -50 Z " />
<glyph glyph-name="Euro" unicode="&#x20ac;" horiz-adv-x="593" d="M17 383 L77 383 C76 369 76 355 76 340 C76 327 76 315 77 304 L17 304 L17 263 L80 263 C103 77 211 -12 359 -12 C463 -12 531 35 564 71 L564 103 C526 80 482 58 414 58 C303 58 247 109 231 263 L416 263 L423 304 L228 304 C227 322 227 342 227 364 L227 383 L437 383 L444 424 L228 424 C237 605 290 667 371 667 C422 667 430 661 435 621 C444 559 462 534 509 534 C547 534 573 557 573 591 C573 666 492 705 388 705 C250 705 112 621 82 424 L17 424 L17 383 Z " />
<glyph glyph-name="trademark" unicode="&#x2122;" horiz-adv-x="718" d="M309 413 L416 413 L416 432 L395 436 C379 439 376 445 376 476 L376 657 L378 657 L463 419 L495 419 L575 657 L577 657 L577 465 C577 442 575 439 562 436 L542 432 L542 413 L693 413 L693 432 L672 436 C660 438 657 442 657 465 L657 644 C657 664 661 666 673 670 L692 675 L692 693 L559 693 L503 530 L502 530 L445 693 L312 693 L312 674 L330 669 C343 666 346 663 346 643 L346 475 C346 447 342 439 329 436 L309 432 L309 413 Z M76 414 L237 414 L237 432 L212 437 C198 440 196 443 196 466 L196 670 L200 670 C224 670 233 667 242 653 C253 635 260 618 273 588 L289 588 L285 693 L27 693 L23 588 L40 588 C53 620 59 635 71 653 C80 667 88 670 112 670 L116 670 L116 466 C116 443 114 440 100 437 L76 432 L76 414 Z " />
<glyph glyph-name="onethird" unicode="&#x2153;" horiz-adv-x="759" d="M16 315 L227 315 L227 338 L205 342 C182 346 177 348 177 384 L177 694 L157 698 C126 662 75 635 17 625 L17 602 L66 597 L66 384 C66 348 63 346 39 342 L16 338 L16 315 Z M59 -50 L114 -50 L633 714 L578 714 L59 -50 Z M576 -7 C691 -7 741 41 741 105 C741 167 692 197 625 201 L625 203 C698 216 725 254 725 294 C725 353 673 385 590 385 C514 385 463 361 463 321 C463 300 479 284 504 284 C537 284 548 303 552 333 C554 353 560 357 580 357 C608 357 626 337 626 287 C626 232 605 212 558 212 L534 212 L534 181 L562 181 C608 181 635 168 635 104 C635 52 619 20 577 20 C549 20 544 25 539 51 C533 89 516 100 489 100 C465 100 449 87 449 62 C449 20 493 -7 576 -7 L576 -7 Z " />
<glyph glyph-name="twothirds" unicode="&#x2154;" horiz-adv-x="815" d="M17 315 L293 315 L301 440 L279 440 C262 401 258 393 231 393 L99 393 L99 396 C232 464 304 525 304 591 C304 663 243 700 154 700 C72 700 21 665 21 627 C21 603 38 587 64 587 C99 587 112 603 117 643 C120 667 122 672 143 672 C176 672 195 656 195 602 C195 550 174 511 137 471 C101 432 69 405 17 365 L17 315 Z M119 -50 L174 -50 L693 714 L638 714 L119 -50 Z M632 -7 C747 -7 797 41 797 105 C797 167 748 197 681 201 L681 203 C754 216 781 254 781 294 C781 353 729 385 646 385 C570 385 520 361 520 321 C520 300 535 284 560 284 C593 284 604 303 608 333 C610 353 616 357 636 357 C665 357 682 337 682 287 C682 232 661 212 614 212 L590 212 L590 181 L618 181 C664 181 691 168 691 104 C691 52 675 20 633 20 C605 20 600 25 595 51 C589 89 572 100 545 100 C521 100 505 87 505 62 C505 20 549 -7 632 -7 L632 -7 Z " />
<glyph glyph-name="oneeighth" unicode="&#x215b;" horiz-adv-x="758" d="M16 315 L227 315 L227 338 L205 342 C182 346 177 348 177 384 L177 694 L157 698 C126 662 75 635 17 625 L17 602 L66 597 L66 384 C66 348 63 346 39 342 L16 338 L16 315 Z M56 -50 L111 -50 L630 714 L575 714 L56 -50 Z M586 -7 C675 -7 741 46 741 110 C741 160 711 190 653 217 L653 220 C690 235 726 263 726 298 C726 358 661 385 593 385 C520 385 451 344 451 273 C451 232 474 201 516 179 L516 177 C466 157 433 125 433 87 C433 29 495 -7 586 -7 L586 -7 Z M626 230 C553 258 528 275 528 307 C528 338 554 356 589 356 C627 356 649 336 649 293 C649 265 640 244 626 230 L626 230 Z M592 22 C541 22 515 47 515 100 C515 127 525 149 540 165 C631 127 660 113 660 77 C660 40 631 22 592 22 L592 22 Z " />
<glyph glyph-name="threeeighths" unicode="&#x215c;" horiz-adv-x="804" d="M150 309 C265 309 316 356 316 420 C316 482 266 512 199 516 L199 518 C272 531 299 569 299 610 C299 668 247 700 164 700 C89 700 38 676 38 636 C38 616 53 600 78 600 C111 600 122 618 126 648 C129 669 134 673 155 673 C183 673 200 652 200 602 C200 547 179 528 132 528 L108 528 L108 496 L136 496 C182 496 209 483 209 420 C209 367 193 335 151 335 C123 335 118 341 113 367 C107 404 90 415 63 415 C39 415 23 403 23 377 C23 336 67 309 150 309 L150 309 Z M112 -50 L167 -50 L685 714 L630 714 L112 -50 Z M632 -7 C721 -7 787 46 787 110 C787 160 757 190 699 217 L699 220 C736 235 772 263 772 298 C772 358 707 385 639 385 C566 385 497 344 497 273 C497 232 520 201 562 179 L562 177 C512 157 479 125 479 87 C479 29 541 -7 632 -7 L632 -7 Z M672 230 C599 258 574 275 574 307 C574 338 599 356 634 356 C672 356 695 336 695 293 C695 265 685 244 672 230 L672 230 Z M638 22 C587 22 561 47 561 100 C561 127 571 149 586 165 C677 127 706 113 706 77 C706 40 677 22 638 22 L638 22 Z " />
<glyph glyph-name="fiveeighths" unicode="&#x215d;" horiz-adv-x="785" d="M126 309 C231 309 291 369 291 441 C291 523 230 562 141 562 C106 562 86 557 75 553 L82 620 L269 620 L281 726 L260 726 C246 699 243 693 224 693 L60 693 L36 477 L45 472 C58 476 77 481 105 481 C162 481 200 458 200 405 C200 363 178 336 133 336 C109 336 104 342 99 364 C93 397 82 412 51 412 C27 412 10 398 10 376 C10 339 48 309 126 309 L126 309 Z M91 -50 L146 -50 L664 714 L609 714 L91 -50 Z M613 -7 C702 -7 768 46 768 110 C768 160 738 190 680 217 L680 220 C717 235 753 263 753 298 C753 358 688 385 620 385 C547 385 478 344 478 273 C478 232 501 201 543 179 L543 177 C493 157 460 125 460 87 C460 29 522 -7 613 -7 L613 -7 Z M653 230 C580 258 555 275 555 307 C555 338 581 356 615 356 C653 356 676 336 676 293 C676 265 666 244 653 230 L653 230 Z M619 22 C568 22 542 47 542 100 C542 127 552 149 567 165 C658 127 687 113 687 77 C687 40 658 22 619 22 L619 22 Z " />
<glyph glyph-name="seveneighths" unicode="&#x215e;" horiz-adv-x="747" d="M48 315 L164 315 C173 440 203 543 281 646 L281 693 L14 693 L3 571 L25 571 C42 614 45 618 70 618 L230 618 C150 534 76 442 48 315 L48 315 Z M37 -50 L92 -50 L610 714 L555 714 L37 -50 Z M575 -7 C664 -7 730 46 730 110 C730 160 700 190 641 217 L641 220 C679 235 715 263 715 298 C715 358 650 385 582 385 C509 385 439 344 439 273 C439 232 463 201 505 179 L505 177 C455 157 422 125 422 87 C422 29 484 -7 575 -7 L575 -7 Z M615 230 C542 258 517 275 517 307 C517 338 542 356 577 356 C615 356 638 336 638 293 C638 265 628 244 615 230 L615 230 Z M581 22 C529 22 504 47 504 100 C504 127 513 149 529 165 C620 127 649 113 649 77 C649 40 620 22 581 22 L581 22 Z " />
<glyph glyph-name="arrowleft" unicode="&#x2190;" horiz-adv-x="818" d="M697 250 C831 244 831 450 697 444 L358 428 L438 494 C552 588 411 731 315 637 L28 349 L28 345 L314 58 C411 -37 552 106 438 200 L358 266 L697 250 Z " />
<glyph glyph-name="arrowright" unicode="&#x2192;" horiz-adv-x="818" d="M460 266 L380 200 C266 106 407 -37 504 58 L790 345 L790 349 L503 637 C407 731 266 588 380 494 L460 428 L121 444 C-13 450 -13 244 121 250 L460 266 Z " />
<glyph glyph-name="minus" unicode="&#x2212;" horiz-adv-x="464" d="M36 313 L428 313 L428 364 L36 364 L36 313 Z " />
<glyph glyph-name="approxequal" unicode="&#x2248;" horiz-adv-x="505" d="M424 340 C408 305 388 272 355 272 C302 272 211 317 151 317 C91 317 56 272 36 218 L82 198 C94 230 117 263 148 263 C199 263 292 219 353 219 C414 219 443 262 469 319 L424 340 Z M424 493 C408 458 388 425 355 425 C302 425 211 470 151 470 C91 470 56 424 36 371 L82 350 C94 382 117 416 148 416 C199 416 292 371 353 371 C414 371 443 414 469 471 L424 493 Z " />
<glyph glyph-name="notequal" unicode="&#x2260;" horiz-adv-x="505" d="M36 388 L252 388 L196 288 L36 288 L36 238 L168 238 L92 101 L148 101 L225 238 L469 238 L469 288 L253 288 L309 388 L469 388 L469 438 L337 438 L414 575 L357 575 L280 438 L36 438 L36 388 Z " />
<glyph glyph-name="lessequal" unicode="&#x2264;" horiz-adv-x="464" d="M428 146 L428 205 L99 338 L428 470 L428 528 L36 362 L36 312 L428 146 Z M36 0 L428 0 L428 51 L36 51 L36 0 Z " />
<glyph glyph-name="greaterequal" unicode="&#x2265;" horiz-adv-x="464" d="M428 312 L428 362 L36 528 L36 470 L365 338 L36 205 L36 146 L428 312 Z M428 51 L36 51 L36 0 L428 0 L428 51 Z " />
<glyph glyph-name="uni24C5" unicode="&#x24c5;" horiz-adv-x="788" d="M416 166 L395 170 C371 175 367 176 367 218 L367 513 C377 517 391 518 399 518 C445 518 463 491 463 420 C463 359 439 337 399 333 L399 313 C409 309 429 306 449 306 C528 306 575 354 575 427 C575 506 519 545 409 545 L225 545 L225 527 L237 523 C258 517 263 515 263 476 L263 217 C263 178 257 174 237 169 L225 166 L225 147 L416 147 L416 166 Z M393 -16 C594 -16 751 146 751 344 C751 542 594 702 393 702 C191 702 37 542 37 344 C37 146 191 -16 393 -16 L393 -16 Z M393 22 C210 22 81 167 81 344 C81 521 210 665 393 665 C575 665 705 521 705 344 C705 167 575 22 393 22 L393 22 Z " />
<glyph glyph-name="square" unicode="&#x25a0;" horiz-adv-x="926" d="M116 0 L810 0 L810 693 L116 693 L116 0 Z " />
<glyph glyph-name="squareopen" unicode="&#x25a1;" horiz-adv-x="926" d="M116 0 L810 0 L810 693 L116 693 L116 0 Z M162 44 L162 651 L764 651 L764 44 L162 44 Z " />
<glyph glyph-name="triangleup" unicode="&#x25b2;" horiz-adv-x="829" d="M780 0 L780 14 L425 724 L405 724 L51 14 L51 0 L780 0 Z " />
<glyph glyph-name="triangleupopen" unicode="&#x25b3;" horiz-adv-x="860" d="M828 0 L828 14 L468 724 L458 724 L99 14 L99 0 L828 0 Z M764 42 L162 42 L462 639 L764 42 Z " />
<glyph glyph-name="triangleright" unicode="&#x25b6;" horiz-adv-x="860" d="M116 -18 L130 -18 L810 342 L810 352 L130 711 L116 711 L116 -18 Z " />
<glyph glyph-name="trianglerightopen" unicode="&#x25b7;" horiz-adv-x="860" d="M116 -18 L130 -18 L810 342 L810 352 L130 711 L116 711 L116 -18 Z M162 45 L162 649 L731 347 L162 45 Z " />
<glyph glyph-name="triangledown" unicode="&#x25bc;" horiz-adv-x="829" d="M50 693 L50 679 L405 -31 L425 -31 L779 679 L779 693 L50 693 Z " />
<glyph glyph-name="triangledownopen" unicode="&#x25bd;" horiz-adv-x="860" d="M98 693 L98 679 L458 -31 L468 -31 L827 679 L827 693 L98 693 Z M162 651 L764 651 L464 54 L162 651 Z " />
<glyph glyph-name="triangleleft" unicode="&#x25c0;" horiz-adv-x="860" d="M744 711 L730 711 L50 352 L50 342 L730 -18 L744 -18 L744 711 Z " />
<glyph glyph-name="triangleleftopen" unicode="&#x25c1;" horiz-adv-x="860" d="M744 711 L730 711 L50 352 L50 342 L730 -18 L744 -18 L744 711 Z M129 347 L698 649 L698 45 L129 347 Z " />
<glyph glyph-name="circle" unicode="&#x25cb;" horiz-adv-x="806" d="M402 -15 C601 -15 765 148 765 347 C765 547 601 708 402 708 C202 708 41 547 41 347 C41 148 202 -15 402 -15 L402 -15 Z " />
<glyph glyph-name="circleopen" unicode="&#x25cf;" horiz-adv-x="806" d="M402 -15 C601 -15 765 148 765 347 C765 547 601 708 402 708 C202 708 41 547 41 347 C41 148 202 -15 402 -15 L402 -15 Z M402 27 C225 27 88 172 88 347 C88 523 225 666 402 666 C577 666 718 523 718 347 C718 172 577 27 402 27 L402 27 Z " />
<glyph glyph-name="star" unicode="&#x2605;" horiz-adv-x="832" d="M169 -34 L416 144 L663 -32 L670 -28 L575 261 L818 435 L818 443 L515 443 L420 734 L412 734 L318 443 L14 443 L14 435 L258 261 L162 -30 L169 -34 Z " />
<glyph glyph-name="staropen" unicode="&#x2606;" horiz-adv-x="832" d="M169 -34 L416 144 L663 -32 L670 -28 L575 261 L818 435 L818 443 L515 443 L420 734 L412 734 L318 443 L14 443 L14 435 L258 261 L162 -30 L169 -34 Z M229 54 L305 276 L116 406 L344 406 L416 627 L488 406 L717 406 L527 276 L603 54 L417 194 L229 54 Z " />
<glyph glyph-name="f_f" unicode="&#xfb00;" horiz-adv-x="635" d="M320 0 L592 0 L592 23 L548 32 C521 37 517 43 517 90 L517 463 L619 463 L631 515 L517 515 L517 614 C517 699 555 724 593 724 C606 724 610 719 612 697 C616 654 636 636 677 636 C713 636 732 657 732 689 C732 733 693 759 621 759 C528 759 456 726 417 669 C417 672 418 675 418 679 C418 722 378 748 308 748 C173 748 79 669 79 539 L79 516 L9 485 L9 463 L79 463 L79 86 C79 45 74 39 47 31 L15 23 L15 0 L274 0 L274 23 L243 31 C216 38 213 43 213 90 L213 463 L383 463 L383 86 C383 45 377 39 350 31 L320 23 L320 0 Z M213 602 C213 687 245 713 285 713 C298 713 303 708 305 685 C309 646 328 630 367 630 C382 630 393 634 401 641 C389 614 383 584 383 550 L383 515 L213 515 L213 602 Z " />
<glyph glyph-name="f_i" unicode="&#xfb01;" horiz-adv-x="592" d="M15 0 L274 0 L274 23 L243 31 C216 38 213 43 213 90 L213 463 L340 463 C372 463 383 453 383 406 L383 86 C383 43 378 38 353 31 L324 23 L324 0 L581 0 L581 23 L549 31 C522 38 517 43 517 86 L517 417 C517 466 520 505 521 523 L511 529 L393 515 L213 515 L213 600 C213 691 256 723 306 723 C327 723 335 716 337 697 C342 644 364 624 411 624 C451 624 469 649 469 678 C469 727 426 759 335 759 C172 759 79 676 79 537 L79 516 L9 485 L9 463 L79 463 L79 86 C79 45 74 39 47 31 L15 23 L15 0 Z " />
<glyph glyph-name="f_l" unicode="&#xfb02;" horiz-adv-x="594" d="M324 0 L582 0 L582 23 L550 31 C521 39 517 43 517 86 L517 630 C517 697 520 749 520 749 L511 756 L447 719 C430 743 390 759 327 759 C178 759 79 680 79 541 L79 516 L9 485 L9 463 L79 463 L79 86 C79 45 74 39 47 31 L15 23 L15 0 L274 0 L274 23 L243 31 C216 38 213 43 213 90 L213 463 L311 463 L323 515 L213 515 L213 604 C213 699 257 724 305 724 C323 724 329 719 331 699 C334 659 350 639 383 635 L383 86 C383 43 378 38 353 31 L324 23 L324 0 Z " />
<glyph glyph-name="f_f_i" unicode="&#xfb03;" horiz-adv-x="896" d="M15 0 L274 0 L274 23 L243 31 C216 38 213 43 213 90 L213 463 L383 463 L383 86 C383 43 378 38 353 31 L324 23 L324 0 L577 0 L577 23 L546 31 C520 38 517 43 517 90 L517 463 L644 463 C676 463 686 453 686 406 L686 86 C686 43 682 38 657 31 L628 23 L628 0 L885 0 L885 23 L853 31 C825 38 820 43 820 86 L820 417 C820 466 823 505 824 523 L815 529 L696 515 L517 515 L517 600 C517 691 560 723 610 723 C630 723 639 716 641 697 C646 644 667 624 715 624 C755 624 773 649 773 678 C773 727 730 759 639 759 C531 759 454 723 414 659 C417 665 418 672 418 679 C418 722 378 748 308 748 C173 748 79 669 79 539 L79 516 L9 485 L9 463 L79 463 L79 86 C79 45 74 39 47 31 L15 23 L15 0 Z M383 537 L383 515 L213 515 L213 602 C213 687 245 713 285 713 C298 713 303 708 305 685 C309 646 328 630 367 630 C386 630 399 637 408 647 C391 616 383 579 383 537 L383 537 Z " />
<glyph glyph-name="f_f_l" unicode="&#xfb04;" horiz-adv-x="898" d="M322 0 L577 0 L577 23 L546 31 C520 38 517 43 517 90 L517 463 L615 463 L627 515 L517 515 L517 604 C517 699 560 724 609 724 C626 724 633 719 635 699 C638 659 653 640 686 635 L686 86 C686 43 682 38 657 31 L628 23 L628 0 L886 0 L886 23 L854 31 C825 39 820 43 820 86 L820 630 C820 697 824 749 824 749 L815 756 L751 719 C734 743 694 759 631 759 C532 759 455 724 415 661 C417 666 418 673 418 679 C418 722 378 748 308 748 C173 748 79 669 79 539 L79 516 L9 485 L9 463 L79 463 L79 86 C79 45 74 39 47 31 L15 23 L15 0 L274 0 L274 23 L243 31 C216 38 213 43 213 90 L213 463 L383 463 L383 86 C383 43 378 38 353 31 L322 23 L322 0 Z M213 602 C213 687 245 713 285 713 C298 713 303 708 305 685 C309 646 328 630 367 630 C385 630 398 636 406 645 C391 616 383 581 383 541 L383 515 L213 515 L213 602 Z " />
</font>
</svg>
