<?xml version="1.0" encoding="UTF-8"?>
<svg xmlns="http://www.w3.org/2000/svg" xmlns:xlink="http://www.w3.org/1999/xlink" version="1.2" >
<font id="Publico Headline Light">
<font-face  font-family="Publico Headline" units-per-em="1000" ascent="801" descent="-199" font-style="normal" font-weight="300" font-stretch="normal" cap-height="693" x-height="505" underline-position="-75" underline-thickness="50" />
<missing-glyph  horiz-adv-x="498" d="" />
<glyph glyph-name="NULL" d="" />
<glyph glyph-name="CR" unicode="&#xd;" horiz-adv-x="250" d="" />
<glyph glyph-name="space" unicode="&#x20;" horiz-adv-x="207" d="" />
<glyph glyph-name="exclam" unicode="&#x21;" horiz-adv-x="246" d="M127 -4 C154 -4 179 19 179 47 C179 76 154 97 127 97 C98 97 75 76 75 47 C75 19 98 -4 127 -4 L127 -4 Z M115 184 L139 184 L177 644 C180 683 153 702 127 702 C100 702 74 683 77 644 L115 184 Z " />
<glyph glyph-name="quotedbl" unicode="&#x22;" horiz-adv-x="303" d="M73 491 L89 491 L123 640 C131 685 103 703 79 703 C55 703 25 684 35 640 L73 491 Z M213 491 L230 491 L268 640 C278 684 248 703 224 703 C200 703 172 684 180 640 L213 491 Z " />
<glyph glyph-name="numbersign" unicode="&#x23;" horiz-adv-x="518" d="M83 0 L119 0 L161 202 L291 202 L249 0 L286 0 L329 202 L424 202 L436 264 L343 264 L378 432 L474 432 L485 494 L392 494 L434 693 L398 693 L356 494 L225 494 L267 693 L230 693 L188 494 L93 494 L82 432 L174 432 L139 264 L44 264 L33 202 L125 202 L83 0 Z M175 264 L211 432 L342 432 L306 264 L175 264 Z " />
<glyph glyph-name="dollar" unicode="&#x24;" horiz-adv-x="489" d="M258 -104 L258 -12 C351 -4 450 59 450 188 C450 280 391 327 254 393 L254 669 C321 668 338 651 342 616 C346 573 357 556 390 556 C419 556 434 570 434 598 C434 645 376 699 254 700 L254 759 L225 759 L225 698 C116 688 42 616 42 527 C42 428 98 380 225 320 C226 319 227 318 229 318 L229 18 C128 18 121 42 116 89 C113 127 103 146 68 146 C38 146 25 128 25 102 C25 36 80 -11 229 -13 L229 -104 L258 -104 Z M381 154 C381 86 346 29 258 19 L258 303 C348 257 381 221 381 154 L381 154 Z M104 550 C104 608 147 660 225 668 L225 407 C139 450 104 482 104 550 L104 550 Z " />
<glyph glyph-name="percent" unicode="&#x25;" horiz-adv-x="685" d="M181 350 C248 350 333 407 333 530 C333 650 253 703 183 703 C111 703 31 642 31 519 C31 401 113 350 181 350 L181 350 Z M181 372 C130 372 104 426 104 531 C104 630 128 680 181 680 C235 680 260 625 260 519 C260 418 234 372 181 372 L181 372 Z M67 -50 L108 -50 L603 714 L563 714 L67 -50 Z M502 -14 C569 -14 654 43 654 166 C654 286 574 339 504 339 C432 339 352 278 352 155 C352 37 434 -14 502 -14 L502 -14 Z M502 8 C451 8 425 62 425 167 C425 266 449 316 502 316 C556 316 581 261 581 155 C581 54 555 8 502 8 L502 8 Z " />
<glyph glyph-name="ampersand" unicode="&#x26;" horiz-adv-x="636" d="M250 -13 C321 -13 385 20 425 60 C438 43 460 15 473 0 L600 0 L600 17 L572 24 C546 30 539 38 532 46 C520 59 489 95 469 120 C510 177 534 258 550 300 C558 320 561 331 592 338 L620 345 L620 361 L427 361 L427 344 L447 340 C478 335 494 324 494 295 C494 263 490 211 450 144 C384 228 311 332 269 398 C372 449 432 495 432 573 C432 647 375 705 286 705 C196 705 128 633 128 537 C128 481 155 437 189 388 C102 342 24 277 24 174 C24 100 58 -13 250 -13 L250 -13 Z M263 20 C190 20 108 69 108 195 C108 261 138 323 203 367 C257 282 331 176 406 82 C379 54 329 20 263 20 L263 20 Z M254 419 C214 477 196 519 196 566 C196 638 230 677 281 677 C331 677 359 636 359 573 C359 509 327 461 254 419 L254 419 Z " />
<glyph glyph-name="quotesingle" unicode="&#x27;" horiz-adv-x="158" d="M71 491 L87 491 L123 640 C133 684 103 703 79 703 C55 703 25 684 35 640 L71 491 Z " />
<glyph glyph-name="parenleft" unicode="&#x28;" horiz-adv-x="311" d="M295 -125 C201 -27 125 109 125 322 C125 484 201 626 295 729 L279 744 C171 651 56 504 56 303 C56 83 171 -46 279 -139 L295 -125 Z " />
<glyph glyph-name="parenright" unicode="&#x29;" horiz-adv-x="311" d="M16 729 C110 631 186 495 186 282 C186 120 110 -22 16 -125 L32 -140 C140 -47 255 100 255 301 C255 521 140 650 32 743 L16 729 Z " />
<glyph glyph-name="asterisk" unicode="&#x2a;" horiz-adv-x="316" d="M158 556 L192 470 C201 446 225 446 238 455 C257 468 253 492 238 504 L166 563 L251 569 C282 571 289 591 284 608 C278 627 257 636 234 620 L163 572 L187 662 C193 683 179 701 158 701 C137 701 123 683 129 662 L153 572 L82 620 C59 636 38 627 32 608 C27 591 34 571 65 569 L150 563 L78 504 C63 492 59 468 78 455 C91 446 115 446 124 470 L158 556 Z " />
<glyph glyph-name="plus" unicode="&#x2b;" horiz-adv-x="437" d="M194 131 L243 131 L243 317 L404 317 L404 359 L243 359 L243 545 L194 545 L194 359 L33 359 L33 317 L194 317 L194 131 Z " />
<glyph glyph-name="comma" unicode="&#x2c;" horiz-adv-x="185" d="M32 -108 C113 -85 150 -35 150 29 C150 69 124 98 88 98 C58 98 34 77 34 48 C34 21 54 -1 81 -1 C94 -1 100 4 102 6 C100 -41 79 -72 26 -94 L32 -108 Z " />
<glyph glyph-name="hyphen" unicode="&#x2d;" horiz-adv-x="264" d="M30 262 L230 262 L234 322 L35 322 L30 262 Z " />
<glyph glyph-name="period" unicode="&#x2e;" horiz-adv-x="173" d="M87 -4 C115 -4 138 18 138 47 C138 75 115 98 87 98 C58 98 35 75 35 47 C35 18 58 -4 87 -4 L87 -4 Z " />
<glyph glyph-name="slash" unicode="&#x2f;" horiz-adv-x="369" d="M347 734 L306 734 L3 -130 L44 -130 L347 734 Z " />
<glyph glyph-name="zero" unicode="0" horiz-adv-x="588" d="M292 -12 C418 -12 555 92 555 355 C555 612 421 705 298 705 C165 705 33 596 33 334 C33 80 171 -12 292 -12 L292 -12 Z M295 20 C180 20 115 142 115 355 C115 559 177 674 295 674 C412 674 474 548 474 335 C474 127 409 20 295 20 L295 20 Z " />
<glyph glyph-name="one" unicode="1" horiz-adv-x="320" d="M35 0 L294 0 L294 17 L239 25 C211 29 205 41 205 78 L205 698 L193 700 C153 652 120 633 39 619 L39 601 L127 601 L127 78 C127 41 121 29 89 25 L35 17 L35 0 Z " />
<glyph glyph-name="two" unicode="2" horiz-adv-x="478" d="M16 0 L441 0 L458 152 L440 152 C403 74 393 67 339 67 L95 67 L95 70 C305 246 443 359 443 521 C443 651 341 705 233 705 C128 705 46 672 46 610 C46 584 58 564 93 564 C128 564 140 586 144 623 C148 659 160 675 220 675 C291 675 360 635 360 520 C360 390 299 316 215 227 C159 168 102 114 16 40 L16 0 Z " />
<glyph glyph-name="three" unicode="3" horiz-adv-x="477" d="M196 -12 C363 -12 442 91 442 190 C442 283 381 351 257 361 L257 364 C373 387 419 461 419 539 C419 627 359 705 222 705 C143 705 45 674 45 609 C45 589 55 568 89 568 C115 568 133 583 137 618 C143 668 166 677 210 677 C293 677 339 623 339 527 C339 425 298 376 202 376 L156 376 L156 343 L212 343 C327 343 360 283 360 193 C360 101 315 19 195 19 C139 19 128 33 117 74 C109 106 99 124 67 124 C40 124 22 107 22 81 C22 19 91 -12 196 -12 L196 -12 Z " />
<glyph glyph-name="four" unicode="4" horiz-adv-x="525" d="M233 0 L460 0 L460 17 L416 25 C391 30 383 41 383 79 L383 207 L493 207 L499 253 L383 253 L383 693 L351 693 L19 239 L19 207 L308 207 L308 79 C308 41 301 29 273 24 L233 17 L233 0 Z M70 253 L70 254 L305 581 L308 581 L308 253 L70 253 Z " />
<glyph glyph-name="five" unicode="5" horiz-adv-x="469" d="M177 -12 C318 -12 434 89 434 225 C434 379 322 428 212 428 C164 428 129 422 103 413 L127 623 L405 623 L422 742 L405 742 C384 696 378 693 354 693 L101 693 L62 345 L68 340 C95 350 140 359 195 359 C299 359 365 310 365 203 C365 89 296 19 187 19 C142 19 133 31 122 79 C115 113 99 126 71 126 C39 126 22 108 22 80 C22 21 86 -12 177 -12 L177 -12 Z " />
<glyph glyph-name="six" unicode="6" horiz-adv-x="521" d="M279 -12 C378 -12 491 67 491 208 C491 339 411 420 283 420 C214 420 155 389 121 361 C135 595 258 675 347 675 C381 675 393 663 400 630 C407 595 419 584 449 584 C476 584 491 600 491 625 C491 675 444 705 356 705 C225 705 37 590 37 277 C37 104 133 -12 279 -12 L279 -12 Z M280 18 C129 18 119 204 119 299 C119 320 119 316 120 335 C153 360 214 382 263 382 C369 382 411 308 411 194 C411 93 382 18 280 18 L280 18 Z " />
<glyph glyph-name="seven" unicode="7" horiz-adv-x="463" d="M119 0 L198 0 C245 283 327 468 453 659 L453 693 L36 693 L20 559 L37 559 C59 611 63 622 96 622 L393 622 C298 471 181 279 119 0 L119 0 Z " />
<glyph glyph-name="eight" unicode="8" horiz-adv-x="509" d="M259 -13 C391 -13 478 77 478 178 C478 261 411 309 318 366 L318 368 C389 417 456 472 456 546 C456 649 358 705 260 705 C149 705 65 630 65 535 C65 471 93 421 188 366 L188 363 C102 312 31 247 31 167 C31 38 164 -13 259 -13 L259 -13 Z M264 18 C174 18 106 74 106 175 C106 267 167 320 210 351 C292 299 406 244 406 155 C406 80 358 18 264 18 L264 18 Z M299 381 C233 421 133 476 133 556 C133 624 178 674 257 674 C334 674 384 628 384 544 C384 457 340 418 299 381 L299 381 Z " />
<glyph glyph-name="nine" unicode="9" horiz-adv-x="522" d="M175 -12 C334 -12 485 108 485 406 C485 589 389 705 244 705 C145 705 30 625 30 479 C30 347 121 273 237 273 C303 273 360 299 400 332 C389 94 285 18 184 18 C150 18 140 32 133 64 C126 97 115 110 86 110 C55 110 40 94 40 69 C40 20 87 -12 175 -12 L175 -12 Z M255 313 C157 313 110 383 110 493 C110 599 147 675 244 675 C391 675 402 490 402 395 C402 374 402 378 401 360 C364 330 308 313 255 313 L255 313 Z " />
<glyph glyph-name="colon" unicode="&#x3a;" horiz-adv-x="179" d="M90 -4 C118 -4 141 18 141 47 C141 75 118 98 90 98 C61 98 38 75 38 47 C38 18 61 -4 90 -4 L90 -4 Z M90 287 C118 287 141 309 141 338 C141 366 118 389 90 389 C61 389 38 366 38 338 C38 309 61 287 90 287 L90 287 Z " />
<glyph glyph-name="semicolon" unicode="&#x3b;" horiz-adv-x="185" d="M90 287 C118 287 141 309 141 338 C141 366 118 389 90 389 C61 389 38 366 38 338 C38 309 61 287 90 287 L90 287 Z M32 -108 C113 -85 150 -35 150 29 C150 69 124 98 88 98 C58 98 34 77 34 48 C34 21 54 -1 81 -1 C94 -1 100 4 102 6 C100 -41 79 -72 26 -94 L32 -108 Z " />
<glyph glyph-name="less" unicode="&#x3c;" horiz-adv-x="452" d="M409 134 L409 181 L89 328 L409 475 L409 522 L40 348 L40 307 L409 134 Z " />
<glyph glyph-name="equal" unicode="&#x3d;" horiz-adv-x="473" d="M40 231 L433 231 L433 272 L40 272 L40 231 Z M40 383 L433 383 L433 425 L40 425 L40 383 Z " />
<glyph glyph-name="greater" unicode="&#x3e;" horiz-adv-x="452" d="M43 134 L412 307 L412 348 L43 522 L43 474 L363 327 L43 179 L43 134 Z " />
<glyph glyph-name="question" unicode="&#x3f;" horiz-adv-x="409" d="M143 186 L182 186 L182 303 C282 341 367 403 367 514 C367 642 280 705 173 705 C105 705 39 677 39 628 C39 603 52 585 83 585 C114 585 125 599 131 636 C136 671 155 673 173 673 C248 673 310 641 310 547 C310 447 219 395 143 367 L143 186 Z M160 -4 C187 -4 213 19 213 47 C213 76 187 97 160 97 C132 97 108 76 108 47 C108 19 132 -4 160 -4 L160 -4 Z " />
<glyph glyph-name="at" unicode="&#x40;" horiz-adv-x="813" d="M382 -123 C496 -123 581 -89 630 -58 L630 -34 C560 -72 494 -85 408 -85 C196 -85 97 41 97 234 C97 434 237 616 465 616 C645 616 729 485 729 338 C729 146 647 76 582 76 C533 76 524 117 536 188 L568 375 C579 437 594 477 594 477 L582 483 L551 455 L546 455 C520 474 504 485 464 485 C376 485 224 352 224 161 C224 81 256 44 314 44 C367 44 420 94 463 164 L467 164 C459 93 480 41 555 41 C661 41 788 145 788 361 C788 501 679 643 474 643 C228 643 30 449 30 205 C30 7 174 -123 382 -123 L382 -123 Z M337 92 C306 92 295 113 295 164 C295 323 381 456 456 456 C490 456 505 442 512 421 L470 210 C426 145 377 92 337 92 L337 92 Z " />
<glyph glyph-name="A" unicode="A" horiz-adv-x="625" d="M-3 0 L188 0 L188 17 L159 25 C120 36 109 47 132 118 L178 253 L406 253 L452 118 C476 46 473 35 428 23 L406 17 L406 0 L628 0 L628 17 L604 23 C576 30 563 42 538 111 L339 693 L299 693 L91 125 C61 41 53 34 29 27 L-2 17 L-3 0 Z M291 582 L296 582 L396 284 L189 284 L291 582 Z " />
<glyph glyph-name="B" unicode="B" horiz-adv-x="576" d="M305 29 C193 29 182 37 182 112 L182 343 L287 343 C413 343 459 288 459 182 C459 89 404 29 305 29 L305 29 Z M182 373 L182 656 C201 661 235 665 267 665 C376 665 426 619 426 517 C426 427 365 373 271 373 L182 373 Z M27 693 L27 676 L66 668 C96 662 104 657 104 612 L104 81 C104 36 95 31 66 25 L27 17 L27 0 L299 0 C441 0 544 68 544 195 C544 296 477 355 347 364 L347 367 C448 387 506 437 506 531 C506 649 409 693 276 693 L27 693 Z " />
<glyph glyph-name="C" unicode="C" horiz-adv-x="599" d="M330 -12 C422 -12 499 7 547 28 L559 212 L540 212 C525 166 513 124 493 95 C463 52 422 21 335 21 C192 21 118 122 118 360 C118 592 215 672 354 672 C437 672 461 646 488 603 C509 570 521 535 536 492 L556 492 L544 679 C501 692 440 705 365 705 C196 705 35 612 35 341 C35 85 164 -12 330 -12 L330 -12 Z " />
<glyph glyph-name="D" unicode="D" horiz-adv-x="659" d="M27 0 L293 0 C487 0 628 114 628 351 C628 613 478 693 300 693 L27 693 L27 676 L66 668 C96 662 104 657 104 612 L104 81 C104 36 95 31 66 25 L27 17 L27 0 Z M288 30 C192 30 182 45 182 120 L182 655 C201 660 231 664 286 664 C478 664 547 549 547 334 C547 169 493 30 288 30 L288 30 Z " />
<glyph glyph-name="E" unicode="E" horiz-adv-x="566" d="M27 0 L522 0 L537 198 L514 198 C498 147 472 87 459 68 C433 33 417 28 322 28 C185 28 182 30 182 125 L182 345 L237 345 C329 345 352 342 364 310 C374 285 378 271 385 237 L406 237 L406 484 L385 484 C379 452 374 430 364 409 C350 379 315 375 237 375 L182 375 L182 656 C207 662 258 665 307 665 C416 665 424 660 451 620 C460 605 474 572 494 526 L515 526 L502 693 L27 693 L27 676 L66 668 C96 662 104 657 104 612 L104 81 C104 36 95 31 66 25 L27 17 L27 0 Z " />
<glyph glyph-name="F" unicode="F" horiz-adv-x="533" d="M182 332 L217 332 C323 332 340 330 353 297 C360 279 364 254 371 219 L392 219 L392 470 L371 470 C364 438 360 413 353 399 C339 371 323 363 217 363 L182 363 L182 657 C206 661 240 665 298 665 C390 665 410 663 437 620 C447 605 460 574 483 514 L504 514 L494 693 L27 693 L27 676 L66 668 C96 662 104 657 104 612 L104 81 C104 36 95 31 66 25 L27 17 L27 0 L272 0 L272 17 L219 25 C188 30 182 36 182 81 L182 332 Z " />
<glyph glyph-name="G" unicode="G" horiz-adv-x="654" d="M498 51 C469 37 424 21 360 21 C188 21 116 144 116 366 C116 593 212 672 364 672 C452 672 472 653 502 611 C513 596 533 560 552 494 L573 494 L561 679 C508 692 454 705 377 705 C208 705 35 625 35 339 C35 99 160 -12 361 -12 C459 -12 533 11 576 23 L576 207 C576 243 580 246 606 253 L643 262 L643 279 L418 279 L418 262 L461 254 C495 248 498 243 498 198 L498 51 Z " />
<glyph glyph-name="H" unicode="H" horiz-adv-x="692" d="M27 0 L262 0 L262 17 L219 25 C185 31 182 36 182 81 L182 337 L510 337 L510 81 C510 36 507 30 472 24 L430 17 L430 0 L665 0 L665 17 L625 25 C594 31 588 36 588 81 L588 612 C588 657 594 662 625 668 L665 676 L665 693 L430 693 L430 676 L472 668 C506 662 510 657 510 612 L510 369 L182 369 L182 612 C182 657 186 662 219 668 L262 676 L262 693 L27 693 L27 676 L66 668 C96 662 104 657 104 612 L104 81 C104 36 95 31 66 25 L27 17 L27 0 Z " />
<glyph glyph-name="I" unicode="I" horiz-adv-x="292" d="M107 81 C107 36 104 31 70 25 L27 17 L27 0 L265 0 L265 17 L222 25 C188 31 185 36 185 81 L185 612 C185 657 188 662 222 668 L265 676 L265 693 L27 693 L27 676 L70 668 C104 662 107 657 107 612 L107 81 Z " />
<glyph glyph-name="J" unicode="J" horiz-adv-x="288" d="M5 -156 C130 -156 185 -67 185 56 L185 612 C185 657 188 662 220 668 L261 676 L261 693 L27 693 L27 676 L70 668 C104 662 107 657 107 612 L107 33 C107 -92 76 -127 38 -127 C24 -127 20 -121 16 -104 C9 -75 1 -55 -36 -55 C-71 -55 -83 -74 -83 -93 C-83 -132 -49 -156 5 -156 L5 -156 Z " />
<glyph glyph-name="K" unicode="K" horiz-adv-x="599" d="M472 0 L601 0 L601 17 L575 24 C553 29 546 33 525 56 C458 127 344 277 277 390 L463 599 C510 651 522 662 553 670 L579 676 L579 693 L372 693 L372 676 L407 666 C431 659 442 653 442 638 C442 629 438 619 426 605 L217 361 L217 350 C284 232 383 95 472 0 L472 0 Z M182 612 C182 657 186 662 219 668 L262 676 L262 693 L27 693 L27 676 L66 668 C96 662 104 657 104 612 L104 81 C104 36 95 31 66 25 L27 17 L27 0 L262 0 L263 17 L219 25 C185 31 182 36 182 81 L182 612 Z " />
<glyph glyph-name="L" unicode="L" horiz-adv-x="530" d="M504 0 L516 206 L493 206 C476 142 450 89 437 73 C410 36 395 28 299 28 C185 28 182 40 182 108 L182 612 C182 657 186 662 219 668 L262 676 L262 693 L27 693 L27 676 L66 668 C96 662 104 657 104 612 L104 81 C104 36 95 31 66 25 L27 17 L27 0 L504 0 Z " />
<glyph glyph-name="M" unicode="M" horiz-adv-x="819" d="M792 693 L617 693 L416 140 L414 140 L204 693 L27 693 L27 676 L66 668 C96 662 104 657 104 612 L104 97 C104 52 95 36 66 28 L27 17 L27 0 L223 0 L223 17 L180 28 C147 37 143 52 143 97 L143 629 L147 629 L378 20 L411 20 L633 629 L637 629 L637 81 C637 36 631 31 599 24 L557 17 L557 0 L792 0 L792 17 L752 25 C721 31 715 36 715 81 L715 612 C715 657 721 662 752 668 L792 676 L792 693 Z " />
<glyph glyph-name="N" unicode="N" horiz-adv-x="664" d="M143 618 L146 618 L533 -5 L572 -5 L572 597 C572 639 577 658 610 666 L649 676 L649 693 L446 693 L446 676 L496 666 C529 659 533 640 533 596 L533 143 L530 143 L190 693 L27 693 L27 676 L66 668 C96 662 104 657 104 612 L104 97 C104 52 95 36 66 28 L27 17 L27 0 L223 0 L223 17 L180 28 C147 37 143 52 143 97 L143 618 Z " />
<glyph glyph-name="O" unicode="O" horiz-adv-x="671" d="M330 -12 C493 -12 636 89 636 350 C636 577 512 705 341 705 C178 705 35 599 35 337 C35 108 159 -12 330 -12 L330 -12 Z M335 21 C192 21 116 160 116 352 C116 558 182 672 335 672 C489 672 555 516 555 335 C555 129 487 21 335 21 L335 21 Z " />
<glyph glyph-name="P" unicode="P" horiz-adv-x="540" d="M182 656 C199 660 237 665 277 665 C390 665 435 612 435 489 C435 352 362 300 215 309 L215 290 C220 287 239 283 273 283 C422 283 517 370 517 500 C517 621 438 693 286 693 L27 693 L27 676 L66 668 C96 662 104 657 104 612 L104 81 C104 36 95 31 66 25 L27 17 L27 0 L273 0 L273 17 L219 25 C188 30 182 36 182 81 L182 656 Z " />
<glyph glyph-name="Q" unicode="Q" horiz-adv-x="671" d="M585 -165 C656 -165 692 -139 714 -121 L714 -103 C700 -108 675 -118 647 -118 C597 -118 546 -105 490 -72 C467 -60 424 -30 398 -9 L398 -6 C536 24 636 130 636 350 C636 576 512 705 341 705 C178 705 35 599 35 337 C35 135 134 13 282 -9 C340 -54 366 -82 420 -116 C475 -150 520 -165 585 -165 L585 -165 Z M335 21 C192 21 116 160 116 352 C116 558 182 672 335 672 C489 672 555 516 555 335 C555 129 487 21 335 21 L335 21 Z " />
<glyph glyph-name="R" unicode="R" horiz-adv-x="597" d="M182 331 L265 331 C324 219 399 104 478 0 L602 0 L602 17 L580 23 C561 28 553 32 530 59 C477 122 396 250 339 344 L339 347 C438 373 503 437 503 528 C503 634 437 693 296 693 L27 693 L27 676 L66 668 C96 662 104 657 104 612 L104 81 C104 36 95 31 66 25 L27 17 L27 0 L262 0 L263 17 L219 25 C185 31 182 36 182 81 L182 331 Z M243 359 C214 359 182 363 182 363 L182 658 C201 662 233 665 281 665 C366 665 422 631 422 514 C422 410 367 359 243 359 L243 359 Z " />
<glyph glyph-name="S" unicode="S" horiz-adv-x="482" d="M219 -13 C368 -13 441 78 441 189 C441 282 381 326 242 398 C143 449 107 481 107 558 C107 636 155 673 239 673 C306 673 323 654 346 617 C360 593 367 578 387 523 L408 523 L396 680 C368 691 319 706 239 706 C118 706 45 626 45 528 C45 410 127 369 212 325 C332 264 373 228 373 149 C373 83 333 21 240 21 C163 21 128 38 101 83 C80 120 66 156 51 201 L28 201 L39 25 C80 7 147 -13 219 -13 L219 -13 Z " />
<glyph glyph-name="T" unicode="T" horiz-adv-x="562" d="M349 664 C458 664 473 647 488 606 C497 581 508 550 522 500 L546 500 L535 693 L27 693 L16 500 L40 500 C54 550 65 581 74 606 C89 647 104 664 213 664 L242 664 L242 81 C242 36 239 31 205 25 L162 17 L162 0 L400 0 L400 17 L357 25 C323 31 320 36 320 81 L320 664 L349 664 Z " />
<glyph glyph-name="U" unicode="U" horiz-adv-x="676" d="M172 612 C172 657 173 661 206 668 L246 676 L246 693 L17 693 L17 676 L56 668 C86 662 94 657 94 612 L94 226 C94 62 186 -12 338 -12 C515 -12 582 97 582 220 L582 601 C582 643 587 657 620 666 L659 676 L659 693 L453 693 L453 676 L506 666 C539 660 543 645 543 601 L543 229 C543 107 490 34 361 34 C229 34 172 96 172 222 L172 612 Z " />
<glyph glyph-name="V" unicode="V" horiz-adv-x="616" d="M290 0 L331 0 L531 566 C560 648 566 662 600 671 L619 676 L619 693 L434 693 L434 676 L467 668 C493 662 504 653 504 632 C504 617 498 597 490 573 L337 112 L332 112 L171 573 C161 601 154 621 154 636 C154 652 163 662 190 669 L218 676 L218 693 L-3 693 L-3 676 L23 669 C52 660 60 648 84 580 L290 0 Z " />
<glyph glyph-name="W" unicode="W" horiz-adv-x="915" d="M276 0 L311 0 L465 461 L468 461 L623 0 L661 0 L825 560 C846 634 854 659 885 667 L918 676 L918 693 L735 693 L735 676 L769 667 C790 661 798 652 798 632 C798 616 793 593 785 562 L662 123 L657 123 L512 573 C504 599 499 619 499 632 C499 657 511 666 531 670 L561 676 L561 693 L339 693 L339 676 L368 669 C396 662 405 651 432 571 L449 520 L318 123 L313 123 L169 573 C160 600 155 620 155 634 C155 655 166 664 188 669 L222 676 L222 693 L-3 693 L-3 676 L26 669 C54 662 62 652 87 576 L276 0 Z " />
<glyph glyph-name="X" unicode="X" horiz-adv-x="617" d="M14 0 L191 0 L191 17 L164 23 C133 30 127 51 156 98 L283 311 L286 311 L412 99 C429 70 436 53 436 42 C436 27 425 23 407 21 L376 17 L376 0 L598 0 L598 17 L569 23 C540 29 529 53 499 103 L340 369 L471 592 C503 645 515 663 547 671 L569 676 L569 693 L396 693 L396 676 L424 670 C457 662 462 648 432 592 L323 397 L320 397 L206 592 C190 619 184 637 184 648 C184 661 191 667 205 669 L248 676 L248 693 L27 693 L27 676 L53 670 C80 664 85 648 116 597 L267 341 L118 103 C77 37 70 30 35 22 L14 17 L14 0 Z " />
<glyph glyph-name="Y" unicode="Y" horiz-adv-x="582" d="M263 81 C263 36 260 31 226 25 L183 17 L183 0 L421 0 L421 17 L378 25 C344 31 341 36 341 81 L341 288 L477 564 C518 648 530 657 562 668 L586 676 L586 693 L394 693 L394 676 L427 668 C468 658 479 646 450 586 L322 318 L319 318 L170 594 C141 648 151 659 188 668 L222 676 L222 693 L-4 693 L-4 676 L23 669 C49 661 55 655 86 598 L263 278 L263 81 Z " />
<glyph glyph-name="Z" unicode="Z" horiz-adv-x="535" d="M25 0 L488 0 L504 197 L482 197 C458 129 444 96 432 74 C414 41 374 28 185 28 L113 28 L113 32 L506 665 L506 693 L69 693 L57 512 L77 512 C92 556 105 592 120 619 C144 662 175 665 342 665 L422 665 L422 661 L25 29 L25 0 Z " />
<glyph glyph-name="bracketleft" unicode="&#x5b;" horiz-adv-x="300" d="M95 -130 L290 -130 L290 -113 L192 -101 C167 -98 162 -91 162 -43 L162 646 C162 694 167 702 192 705 L290 717 L290 734 L95 734 L95 -130 Z " />
<glyph glyph-name="backslash" unicode="&#x5c;" horiz-adv-x="369" d="M325 -130 L366 -130 L63 734 L22 734 L325 -130 Z " />
<glyph glyph-name="bracketright" unicode="&#x5d;" horiz-adv-x="300" d="M10 -130 L205 -130 L205 734 L10 734 L10 717 L107 705 C132 702 137 694 137 646 L137 -43 C137 -91 132 -98 107 -101 L10 -113 L10 -130 Z " />
<glyph glyph-name="asciicircum" unicode="&#x5e;" horiz-adv-x="370" d="M51 488 L183 612 L319 488 L333 500 L199 706 L171 706 L38 500 L51 488 Z " />
<glyph glyph-name="underscore" unicode="&#x5f;" horiz-adv-x="328" d="M-2 -177 L330 -177 L330 -135 L-2 -135 L-2 -177 Z " />
<glyph glyph-name="grave" unicode="&#x60;" horiz-adv-x="500" d="M351 574 L358 588 L202 702 C189 711 178 714 169 714 C149 714 134 697 134 677 C134 662 141 645 167 635 L351 574 Z " />
<glyph glyph-name="a" unicode="a" horiz-adv-x="467" d="M171 -13 C225 -13 283 12 307 45 L312 45 C316 14 338 -12 385 -12 C410 -12 445 -3 459 7 L459 20 C436 21 418 23 405 32 C393 40 384 53 384 77 L384 395 C384 476 339 522 223 522 C164 522 53 503 53 441 C53 421 64 397 100 397 C140 397 140 427 145 453 C149 483 161 494 209 494 C302 494 310 451 310 390 L310 283 L157 247 C100 234 23 200 23 113 C23 33 80 -13 171 -13 L171 -13 Z M200 29 C136 29 101 66 101 122 C101 196 152 227 236 236 L310 244 L310 83 C294 55 254 29 200 29 L200 29 Z " />
<glyph glyph-name="b" unicode="b" horiz-adv-x="546" d="M233 -12 C404 -12 511 93 511 276 C511 465 409 521 305 521 C243 521 186 495 146 464 L142 464 C142 464 144 503 144 544 L144 630 C144 696 148 749 148 749 L142 755 L-1 741 L-1 725 L32 709 C64 694 70 691 70 655 L70 24 C114 1 172 -12 233 -12 L233 -12 Z M254 19 C202 19 175 32 144 57 L144 438 C169 451 205 473 269 473 C371 473 432 397 432 269 C432 91 372 19 254 19 L254 19 Z " />
<glyph glyph-name="c" unicode="c" horiz-adv-x="452" d="M260 -12 C347 -12 406 27 429 50 L429 79 C397 60 348 37 279 37 C159 37 113 119 113 274 C113 425 190 490 275 490 C319 490 328 483 336 436 C341 409 350 394 382 394 C412 394 430 414 430 441 C430 486 392 521 292 521 C192 521 30 459 30 242 C30 96 109 -12 260 -12 L260 -12 Z " />
<glyph glyph-name="d" unicode="d" horiz-adv-x="559" d="M236 -12 C299 -12 360 14 400 45 L404 45 L402 -7 L408 -12 L544 6 L544 19 L514 33 C482 48 476 51 476 87 L476 630 C476 710 479 749 479 749 L473 755 L332 741 L332 725 L374 706 C395 696 402 694 402 657 L402 508 C383 514 353 521 306 521 C170 521 35 428 35 238 C35 45 139 -12 236 -12 L236 -12 Z M277 36 C178 36 114 104 114 253 C114 424 184 489 298 489 C346 489 378 468 402 447 L402 72 C378 57 338 36 277 36 L277 36 Z " />
<glyph glyph-name="e" unicode="e" horiz-adv-x="485" d="M267 -12 C366 -12 423 31 446 53 L446 81 C412 63 370 38 287 38 C182 38 111 110 111 273 L111 276 L454 276 C456 452 384 521 264 521 C135 521 30 414 30 259 C30 101 107 -12 267 -12 L267 -12 Z M261 492 C342 492 370 436 370 312 L112 300 C119 429 179 492 261 492 L261 492 Z " />
<glyph glyph-name="f" unicode="f" horiz-adv-x="281" d="M23 0 L243 0 L243 16 L191 27 C166 32 163 46 163 79 L163 469 L264 469 L270 505 L163 505 L163 599 C163 696 216 728 255 728 C274 728 276 722 280 705 C287 672 298 662 331 662 C361 662 374 680 374 701 C374 730 350 756 289 756 C179 756 89 683 89 559 L89 506 L21 487 L21 469 L89 469 L89 78 C89 41 85 33 56 25 L23 16 L23 0 Z " />
<glyph glyph-name="g" unicode="g" horiz-adv-x="470" d="M195 -196 C401 -196 453 -83 453 -14 C453 58 405 102 314 102 L163 102 C118 102 99 115 99 145 C99 171 119 190 135 200 C159 190 183 185 214 185 C299 185 399 235 399 354 C399 412 376 460 334 485 L334 488 C358 502 389 508 399 483 C405 469 417 460 435 460 C458 460 472 474 472 499 C472 524 454 541 422 541 C376 541 341 519 314 496 C284 512 250 521 214 521 C129 521 29 466 29 346 C29 284 69 231 109 213 L109 209 C77 187 42 154 42 113 C42 72 69 50 99 38 L99 35 C33 12 -13 -22 -13 -75 C-13 -145 69 -196 195 -196 L195 -196 Z M210 -167 C116 -167 66 -134 66 -61 C66 -2 109 26 144 33 L299 33 C369 33 398 7 398 -43 C398 -135 300 -167 210 -167 L210 -167 Z M214 211 C147 211 109 255 109 359 C109 451 148 494 214 494 C281 494 319 445 319 341 C319 250 280 211 214 211 L214 211 Z " />
<glyph glyph-name="h" unicode="h" horiz-adv-x="562" d="M23 0 L233 0 L233 16 L198 25 C169 32 163 39 163 78 L163 438 C196 450 251 470 318 470 C382 470 405 445 405 371 L405 78 C405 39 399 33 370 25 L336 16 L336 0 L546 0 L546 16 L512 25 C483 33 479 41 479 78 L479 388 C479 478 448 521 346 521 C287 521 213 491 164 460 L161 460 C161 460 163 503 163 544 L163 630 C163 697 167 749 167 749 L161 755 L18 741 L18 725 L51 709 C83 694 89 691 89 655 L89 78 C89 41 85 33 56 25 L23 16 L23 0 Z " />
<glyph glyph-name="i" unicode="i" horiz-adv-x="245" d="M23 0 L229 0 L229 16 L196 25 C168 33 163 39 163 78 L163 410 C163 477 167 516 167 516 L161 519 L24 499 L24 485 L51 472 C83 457 89 454 89 418 L89 78 C89 41 85 33 56 25 L23 16 L23 0 Z M123 604 C150 604 173 630 173 655 C173 682 150 706 123 706 C95 706 72 682 72 655 C72 630 95 604 123 604 L123 604 Z " />
<glyph glyph-name="j" unicode="j" horiz-adv-x="239" d="M1 -201 C88 -201 163 -154 163 0 L163 411 C163 477 167 516 167 516 L161 519 L24 499 L24 485 L51 472 C83 457 89 454 89 418 L89 -99 C89 -149 69 -173 40 -173 C24 -173 20 -170 16 -143 C12 -117 1 -107 -25 -107 C-55 -107 -70 -125 -70 -145 C-70 -174 -49 -201 1 -201 L1 -201 Z M120 604 C148 604 170 630 170 655 C170 682 148 706 120 706 C93 706 70 682 70 655 C70 630 93 604 120 604 L120 604 Z " />
<glyph glyph-name="k" unicode="k" horiz-adv-x="497" d="M391 0 L500 0 L500 16 L478 22 C463 26 457 31 445 43 C376 115 299 208 241 291 L354 416 C391 456 404 467 443 480 L469 489 L469 505 L309 505 L309 490 L326 484 C340 479 345 475 345 467 C345 457 337 439 295 391 L181 259 L181 255 C254 152 309 83 391 0 L391 0 Z M23 0 L234 0 L234 16 L198 25 C169 32 163 39 163 78 L163 630 C163 697 167 749 167 749 L161 755 L18 741 L18 725 L51 709 C83 693 89 691 89 657 L89 78 C89 41 85 33 56 25 L23 16 L23 0 Z " />
<glyph glyph-name="l" unicode="l" horiz-adv-x="245" d="M23 0 L229 0 L229 16 L196 25 C168 33 163 39 163 78 L163 630 C163 697 167 749 167 749 L160 755 L18 741 L18 725 L51 709 C83 693 89 691 89 657 L89 78 C89 41 85 33 56 25 L23 16 L23 0 Z " />
<glyph glyph-name="m" unicode="m" horiz-adv-x="844" d="M23 0 L233 0 L233 16 L198 25 C169 32 163 39 163 78 L163 438 C197 451 260 470 311 470 C372 470 388 440 388 370 L388 78 C388 38 381 33 353 25 L319 16 L319 0 L529 0 L529 16 L495 25 C466 33 462 41 462 78 L462 389 C462 414 461 424 460 435 C493 450 554 470 611 470 C672 470 687 440 687 370 L687 78 C687 38 680 33 652 25 L618 16 L618 0 L828 0 L828 16 L794 25 C765 33 761 41 761 78 L761 387 C761 477 731 521 642 521 C570 521 510 488 456 458 L453 458 C437 497 410 521 336 521 C279 521 213 491 165 461 L162 461 L164 516 L157 519 L24 499 L24 485 L51 472 C83 457 89 454 89 418 L89 78 C89 41 85 33 56 25 L23 16 L23 0 Z " />
<glyph glyph-name="n" unicode="n" horiz-adv-x="562" d="M479 388 C479 478 448 521 346 521 C287 521 213 491 165 461 L162 461 L164 516 L157 519 L24 499 L24 485 L51 472 C83 457 89 454 89 418 L89 78 C89 41 85 33 56 25 L23 16 L23 0 L233 0 L233 16 L198 25 C169 32 163 39 163 78 L163 438 C196 450 251 470 318 470 C382 470 405 445 405 371 L405 78 C405 39 399 33 370 25 L336 16 L336 0 L546 0 L546 16 L512 25 C483 33 479 41 479 78 L479 388 Z " />
<glyph glyph-name="o" unicode="o" horiz-adv-x="537" d="M268 -13 C392 -13 507 92 507 260 C507 435 406 522 268 522 C144 522 30 422 30 254 C30 79 131 -13 268 -13 L268 -13 Z M273 16 C168 16 115 99 115 266 C115 419 167 493 266 493 C372 493 422 413 422 245 C422 100 373 16 273 16 L273 16 Z " />
<glyph glyph-name="p" unicode="p" horiz-adv-x="565" d="M23 -199 L246 -199 L246 -183 L201 -174 C169 -168 163 -160 163 -121 L163 -63 C163 -30 162 2 162 2 C191 -7 224 -12 252 -12 C423 -12 530 93 530 276 C530 465 428 521 324 521 C262 521 207 496 166 466 L162 466 L164 516 L157 519 L24 499 L24 485 L51 472 C83 457 89 454 89 418 L89 -121 C89 -158 85 -166 56 -174 L23 -183 L23 -199 Z M273 19 C221 19 194 32 163 57 L163 438 C189 452 229 473 293 473 C390 473 451 397 451 269 C451 91 391 19 273 19 L273 19 Z " />
<glyph glyph-name="q" unicode="q" horiz-adv-x="548" d="M319 -199 L542 -199 L542 -183 L509 -174 C480 -166 476 -158 476 -121 L476 521 L465 524 L438 488 L435 488 C402 507 366 521 306 521 C170 521 35 428 35 238 C35 45 139 -12 236 -12 C299 -12 360 14 400 45 L403 45 C403 45 402 15 402 -19 L402 -121 C402 -160 396 -168 364 -174 L319 -183 L319 -199 Z M276 36 C178 36 114 104 114 253 C114 424 184 489 298 489 C347 489 378 467 402 444 L402 73 C378 57 338 36 276 36 L276 36 Z " />
<glyph glyph-name="r" unicode="r" horiz-adv-x="377" d="M23 0 L243 0 L243 16 L191 27 C166 32 163 46 163 78 L163 424 C183 447 235 472 256 472 C265 472 267 468 272 453 C276 436 287 419 319 419 C344 419 365 436 365 469 C365 503 344 522 305 522 C260 522 202 492 165 457 L162 457 L164 514 L157 519 L24 499 L24 485 L51 472 C83 457 89 454 89 418 L89 78 C89 41 85 33 56 25 L23 16 L23 0 Z " />
<glyph glyph-name="s" unicode="s" horiz-adv-x="394" d="M183 -12 C290 -12 360 58 360 148 C360 225 298 261 216 294 C136 327 97 356 97 409 C97 457 129 493 198 493 C238 493 261 479 278 455 C293 435 303 407 318 375 L335 375 L332 500 C296 513 258 522 205 522 C112 522 37 472 37 385 C37 300 96 263 179 229 C255 197 293 168 293 112 C293 53 246 17 183 17 C129 17 101 42 81 79 C69 102 60 129 49 158 L29 158 L31 13 C71 -1 122 -12 183 -12 L183 -12 Z " />
<glyph glyph-name="t" unicode="t" horiz-adv-x="304" d="M180 -12 C239 -12 281 17 297 28 L297 47 C276 40 248 32 217 32 C171 32 151 51 151 92 L151 469 L286 469 L290 505 L151 505 L151 619 L137 619 C110 544 69 503 6 485 L6 469 L77 469 L77 83 C77 11 129 -12 180 -12 L180 -12 Z " />
<glyph glyph-name="u" unicode="u" horiz-adv-x="553" d="M214 -12 C282 -12 349 19 398 53 L402 53 L400 -6 L406 -10 L540 8 L540 21 L512 34 C482 48 474 57 474 98 L474 511 L464 519 L334 504 L334 489 L362 479 C395 467 400 459 400 423 L400 76 C361 59 302 39 247 39 C186 39 158 74 158 135 L158 511 L149 519 L19 504 L19 489 L47 478 C78 466 84 458 84 422 L84 118 C84 34 134 -12 214 -12 L214 -12 Z " />
<glyph glyph-name="v" unicode="v" horiz-adv-x="484" d="M227 0 L261 0 L415 408 C434 459 438 474 466 482 L492 489 L492 505 L331 505 L331 489 L357 482 C375 477 385 472 386 459 C387 447 383 428 375 402 L265 105 L261 105 L152 402 C146 421 140 438 140 452 C140 467 143 476 165 482 L192 489 L192 505 L-8 505 L-8 489 L22 479 C44 472 51 465 68 418 L227 0 Z " />
<glyph glyph-name="w" unicode="w" horiz-adv-x="726" d="M215 0 L249 0 L366 337 L368 337 L485 0 L516 0 L658 408 C676 459 680 474 708 482 L734 489 L734 505 L575 505 L575 489 L601 482 C619 477 629 472 630 459 C631 447 627 428 619 402 L522 106 L518 106 L416 402 C408 424 403 441 403 453 C403 467 403 477 422 482 L449 489 L449 505 L267 505 L267 489 L293 481 C315 473 327 455 339 418 L351 385 L254 106 L251 106 L153 402 C146 422 141 438 141 452 C141 467 144 476 166 482 L193 489 L193 505 L-8 505 L-8 489 L22 479 C44 472 51 464 67 418 L215 0 Z " />
<glyph glyph-name="x" unicode="x" horiz-adv-x="513" d="M9 0 L183 0 L183 16 L166 20 C144 25 134 30 134 42 C134 55 144 74 163 105 L236 225 L239 225 L328 92 C340 74 353 54 353 40 C353 30 347 24 331 21 L304 16 L304 0 L504 0 L504 16 L492 19 C463 26 449 41 411 96 L289 271 L375 407 C406 456 416 472 448 481 L479 489 L479 505 L310 505 L310 489 L340 482 C369 475 360 448 342 416 L271 291 L268 291 L187 419 C168 449 160 478 189 484 L213 489 L213 505 L17 505 L17 489 L34 485 C64 478 70 469 110 409 L220 245 L120 97 C90 52 76 36 39 25 L9 16 L9 0 Z " />
<glyph glyph-name="y" unicode="y" horiz-adv-x="478" d="M78 -205 C184 -205 214 -118 245 -34 L409 408 C429 462 433 475 456 481 L486 489 L486 505 L327 505 L327 489 L353 482 C371 477 381 472 382 460 C383 447 379 428 370 402 L264 101 L260 101 L148 403 C141 422 135 439 135 453 C135 468 140 476 161 482 L187 489 L187 505 L-8 505 L-8 489 L18 481 C43 472 49 467 67 418 L222 1 L194 -67 C172 -120 145 -157 118 -157 C109 -157 106 -154 100 -138 C92 -118 83 -103 53 -103 C25 -103 5 -118 5 -149 C5 -178 25 -205 78 -205 L78 -205 Z " />
<glyph glyph-name="z" unicode="z" horiz-adv-x="441" d="M22 0 L404 0 L413 162 L395 162 C385 132 374 106 357 78 C332 36 318 26 206 26 L116 26 L116 30 L424 490 L424 505 L56 505 L51 356 L68 356 C85 397 96 418 107 435 C130 473 138 479 222 479 L328 479 L328 475 L22 18 L22 0 Z " />
<glyph glyph-name="braceleft" unicode="&#x7b;" horiz-adv-x="299" d="M289 -130 L289 -115 C197 -100 172 -94 172 -33 C172 37 209 140 209 200 C209 254 174 289 94 302 L94 306 C159 322 209 357 209 411 C209 470 172 566 172 636 C172 697 197 703 289 718 L289 733 C161 734 98 705 98 635 C98 582 149 433 149 395 C149 352 120 320 24 316 L24 292 C123 288 149 258 149 216 C149 177 98 21 98 -32 C98 -102 161 -131 289 -130 L289 -130 Z " />
<glyph glyph-name="bar" unicode="&#x7c;" horiz-adv-x="222" d="M92 -130 L130 -130 L130 734 L92 734 L92 -130 Z " />
<glyph glyph-name="braceright" unicode="&#x7d;" horiz-adv-x="299" d="M10 -130 C138 -131 201 -102 201 -32 C201 21 150 177 150 216 C150 258 176 288 275 292 L275 316 C179 320 150 352 150 395 C150 433 201 582 201 635 C201 705 138 734 10 733 L10 718 C102 703 127 697 127 636 C127 566 90 470 90 411 C90 357 140 322 205 306 L205 302 C125 289 90 254 90 200 C90 140 127 37 127 -33 C127 -94 102 -100 10 -115 L10 -130 Z " />
<glyph glyph-name="asciitilde" unicode="&#x7e;" horiz-adv-x="358" d="M46 229 C61 255 74 271 100 271 C140 271 195 250 238 250 C282 250 302 295 327 348 L311 355 C296 328 282 313 255 313 C215 313 161 334 120 334 C73 334 53 288 29 235 L46 229 Z " />
<glyph glyph-name="uni00A0" unicode="&#xa0;" horiz-adv-x="207" d="" />
<glyph glyph-name="exclamdown" unicode="&#xa1;" horiz-adv-x="246" d="M127 622 C100 622 75 599 75 571 C75 542 100 521 127 521 C156 521 179 542 179 571 C179 599 156 622 127 622 L127 622 Z M139 434 L115 434 L77 -26 C74 -65 101 -84 127 -84 C154 -84 180 -65 177 -26 L139 434 Z " />
<glyph glyph-name="cent" unicode="&#xa2;" horiz-adv-x="455" d="M238 -104 L275 -104 L275 -11 C354 -7 408 28 430 50 L430 79 C398 60 349 35 280 35 L275 35 L275 492 L276 492 C320 492 329 483 337 436 C342 409 351 394 383 394 C413 394 431 414 431 441 C431 486 393 521 293 521 C287 521 281 521 275 520 L275 596 L238 596 L238 515 C140 496 31 423 31 242 C31 103 102 0 238 -11 L238 -104 Z M114 274 C114 403 166 471 238 488 L238 39 C149 57 114 138 114 274 L114 274 Z " />
<glyph glyph-name="sterling" unicode="&#xa3;" horiz-adv-x="494" d="M53 340 L125 340 C133 297 141 256 141 223 C141 143 96 94 18 56 L18 0 L432 0 L462 151 L445 151 C405 78 400 73 357 73 L96 73 L96 78 C154 116 196 157 196 238 C196 264 193 301 190 340 L364 340 L364 371 L187 371 C182 424 177 477 177 516 C177 636 243 675 308 675 C345 675 354 671 366 628 C375 597 389 585 416 585 C444 585 457 603 457 627 C457 683 395 705 328 705 C207 705 100 633 100 500 C100 464 109 418 118 371 L53 371 L53 340 Z " />
<glyph glyph-name="yen" unicode="&#xa5;" horiz-adv-x="541" d="M435 564 C477 648 487 661 512 669 L535 676 L535 693 L356 693 L356 676 L385 668 C426 657 436 648 407 586 L293 345 L289 345 L160 593 C131 649 140 659 177 668 L212 676 L212 693 L-8 693 L-8 676 L15 670 C40 664 43 657 85 579 L227 320 L53 320 L53 290 L233 290 L233 220 L53 220 L53 190 L233 190 L233 81 C233 36 230 31 196 25 L153 17 L153 0 L391 0 L391 17 L348 25 C314 31 311 36 311 81 L311 190 L492 190 L492 220 L311 220 L311 290 L492 290 L492 320 L314 320 L435 564 Z " />
<glyph glyph-name="brokenbar" unicode="&#xa6;" horiz-adv-x="222" d="M92 -130 L130 -130 L130 253 L92 253 L92 -130 Z M92 329 L130 329 L130 734 L92 734 L92 329 Z " />
<glyph glyph-name="section" unicode="&#xa7;" horiz-adv-x="511" d="M226 -204 C346 -204 408 -136 408 -44 C408 -21 400 5 393 21 C453 61 488 101 488 160 C488 231 450 270 328 373 C219 466 182 502 182 576 C182 627 214 674 279 674 C319 674 328 663 333 632 C339 598 353 584 383 584 C413 584 428 606 428 626 C428 672 374 702 297 702 C181 702 110 636 110 546 C110 517 116 498 125 478 C67 446 23 400 23 343 C23 264 82 214 185 125 C293 33 337 -5 337 -74 C337 -131 305 -176 235 -176 C195 -176 180 -167 175 -123 C172 -95 157 -81 129 -81 C101 -81 84 -99 84 -124 C84 -171 137 -204 226 -204 L226 -204 Z M381 43 C351 91 296 136 235 187 C132 275 89 304 89 368 C89 408 105 438 135 456 C166 408 217 362 279 310 C377 224 423 194 423 130 C423 92 410 63 381 43 L381 43 Z " />
<glyph glyph-name="dieresis" unicode="&#xa8;" horiz-adv-x="482" d="M155 601 C183 601 203 624 203 649 C203 675 183 697 155 697 C127 697 107 675 107 649 C107 624 127 601 155 601 L155 601 Z M327 601 C355 601 375 624 375 649 C375 675 355 697 327 697 C299 697 279 675 279 649 C279 624 299 601 327 601 L327 601 Z " />
<glyph glyph-name="copyright" unicode="&#xa9;" horiz-adv-x="788" d="M393 -14 C593 -14 749 147 749 344 C749 541 593 700 393 700 C192 700 39 541 39 344 C39 147 192 -14 393 -14 L393 -14 Z M393 17 C207 17 76 164 76 344 C76 524 207 670 393 670 C578 670 710 524 710 344 C710 164 578 17 393 17 L393 17 Z M389 136 C445 136 494 149 520 162 L526 272 L509 272 C497 240 490 222 474 197 C460 176 446 162 394 162 C320 162 280 220 280 353 C280 476 324 528 402 528 C443 528 459 517 470 499 C482 480 496 450 506 422 L524 422 L519 539 C494 547 456 554 408 554 C306 554 209 497 209 341 C209 196 291 136 389 136 L389 136 Z " />
<glyph glyph-name="ordfeminine" unicode="&#xaa;" horiz-adv-x="386" d="M129 277 C171 277 207 295 231 324 L236 324 C237 299 252 278 297 278 C323 278 346 287 361 296 L361 310 C342 311 329 313 320 317 C306 324 303 336 303 356 L303 589 C303 660 255 700 166 700 C93 700 34 666 34 627 C34 610 44 593 72 593 C106 593 109 615 112 638 C115 661 118 676 155 676 C228 676 234 638 234 585 L234 509 L120 480 C70 468 13 444 13 374 C13 314 59 277 129 277 L129 277 Z M149 313 C111 313 83 337 83 382 C83 436 118 461 179 468 L234 475 L234 355 C217 330 189 313 149 313 L149 313 Z " />
<glyph glyph-name="guillemotleft" unicode="&#xab;" horiz-adv-x="416" d="M212 45 L243 45 L127 253 L243 460 L212 460 L48 263 L48 242 L212 45 Z M365 45 L396 45 L279 253 L396 460 L365 460 L200 263 L200 242 L365 45 Z " />
<glyph glyph-name="registered" unicode="&#xae;" horiz-adv-x="394" d="M114 428 L194 428 L194 439 L180 442 C173 444 172 446 172 457 L172 506 L197 506 C209 481 223 454 243 428 L292 428 L292 439 L282 441 C276 442 272 445 269 449 C255 468 241 492 229 516 L229 518 C253 525 267 543 267 565 C267 598 246 614 197 614 L115 614 L115 603 L128 600 C135 598 136 596 136 584 L136 457 C136 446 135 444 128 442 L114 439 L114 428 Z M197 336 C297 336 375 418 375 518 C375 619 297 700 197 700 C96 700 20 619 20 518 C20 418 96 336 197 336 L197 336 Z M197 358 C107 358 46 430 46 518 C46 607 107 678 197 678 C286 678 349 607 349 518 C349 430 286 358 197 358 L197 358 Z M172 520 L172 599 L194 599 C219 599 231 587 231 562 C231 537 221 520 192 520 L172 520 Z " />
<glyph glyph-name="macron" unicode="&#xaf;" horiz-adv-x="492" d="M135 600 L357 600 L357 644 L135 644 L135 600 Z " />
<glyph glyph-name="degree" unicode="&#xb0;" horiz-adv-x="296" d="M148 461 C217 461 267 516 267 582 C267 646 217 701 148 701 C79 701 29 646 29 582 C29 516 79 461 148 461 L148 461 Z M148 488 C97 488 63 530 63 582 C63 632 97 674 148 674 C199 674 233 632 233 582 C233 530 199 488 148 488 L148 488 Z " />
<glyph glyph-name="plusminus" unicode="&#xb1;" horiz-adv-x="437" d="M33 0 L404 0 L404 42 L33 42 L33 0 Z M194 141 L243 141 L243 317 L404 317 L404 359 L243 359 L243 535 L194 535 L194 359 L33 359 L33 317 L194 317 L194 141 Z " />
<glyph glyph-name="twosuperior" unicode="&#xb2;" horiz-adv-x="265" d="M13 347 L236 347 L245 442 L232 442 C214 402 208 392 182 392 L66 392 L66 395 C151 460 243 522 243 595 C243 662 187 700 123 700 C60 700 22 668 22 642 C22 625 33 611 52 611 C73 611 83 625 86 654 C89 675 101 679 123 679 C161 679 181 656 181 607 C181 561 166 531 115 473 C91 445 53 412 13 378 L13 347 Z " />
<glyph glyph-name="threesuperior" unicode="&#xb3;" horiz-adv-x="260" d="M104 342 C198 342 238 390 238 442 C238 493 200 520 145 526 L145 528 C202 540 226 579 226 617 C226 664 187 700 120 700 C66 700 21 679 21 644 C21 631 29 616 48 616 C70 616 77 631 81 656 C84 673 93 679 117 679 C149 679 172 661 172 610 C172 564 153 536 106 536 L86 536 L86 515 L104 515 C163 515 179 489 179 442 C179 395 154 361 113 361 C79 361 75 370 68 398 C63 420 53 426 37 426 C18 426 9 413 9 396 C9 363 55 342 104 342 L104 342 Z " />
<glyph glyph-name="acute" unicode="&#xb4;" horiz-adv-x="500" d="M323 635 C349 645 356 662 356 677 C356 697 341 714 321 714 C312 714 301 711 288 702 L132 588 L139 574 L323 635 Z " />
<glyph glyph-name="paragraph" unicode="&#xb6;" horiz-adv-x="511" d="M249 -100 L289 -100 L289 664 L367 664 L367 -100 L407 -100 L407 612 C407 657 413 663 445 669 L484 676 L484 693 L223 693 C92 693 20 631 20 526 C20 416 85 349 221 349 C235 349 240 350 249 351 L249 -100 Z " />
<glyph glyph-name="periodcentered" unicode="&#xb7;" horiz-adv-x="185" d="M92 287 C120 287 145 310 145 338 C145 367 120 389 92 389 C64 389 40 367 40 338 C40 310 64 287 92 287 L92 287 Z " />
<glyph glyph-name="cedilla" unicode="&#xb8;" horiz-adv-x="491" d="M165 -200 C267 -191 312 -160 312 -114 C312 -74 277 -56 234 -52 L265 0 L233 0 L194 -81 L199 -88 C233 -91 254 -105 254 -125 C254 -150 229 -170 165 -185 L165 -200 Z " />
<glyph glyph-name="onesuperior" unicode="&#xb9;" horiz-adv-x="192" d="M19 347 L173 347 L173 362 L148 367 C129 371 126 376 126 400 L126 694 L115 697 C92 670 69 654 18 645 L18 630 L68 630 L68 400 C68 376 65 371 46 367 L19 362 L19 347 Z " />
<glyph glyph-name="ordmasculine" unicode="&#xba;" horiz-adv-x="423" d="M212 279 C312 279 400 362 400 494 C400 631 322 700 212 700 C111 700 23 621 23 488 C23 350 102 279 212 279 L212 279 Z M215 307 C133 307 97 368 97 499 C97 619 131 674 208 674 C292 674 327 614 327 483 C327 369 294 307 215 307 L215 307 Z " />
<glyph glyph-name="guillemotright" unicode="&#xbb;" horiz-adv-x="418" d="M20 45 L51 45 L215 242 L215 263 L51 460 L20 460 L137 252 L20 45 Z M174 45 L205 45 L370 242 L370 263 L205 460 L174 460 L291 252 L174 45 Z " />
<glyph glyph-name="onequarter" unicode="&#xbc;" horiz-adv-x="570" d="M19 347 L173 347 L173 362 L148 367 C129 371 126 376 126 400 L126 694 L115 697 C92 670 69 654 18 645 L18 630 L68 630 L68 400 C68 376 65 371 46 367 L19 362 L19 347 Z M505 99 L549 99 L552 127 L505 127 L505 346 L477 346 L301 120 L301 99 L449 99 L449 53 C449 29 446 24 427 20 L400 15 L400 0 L552 0 L552 15 L527 20 C508 24 505 29 505 53 L505 99 Z M331 127 L331 128 L448 277 L449 277 L449 127 L331 127 Z M17 -50 L58 -50 L553 714 L513 714 L17 -50 Z " />
<glyph glyph-name="onehalf" unicode="&#xbd;" horiz-adv-x="614" d="M19 347 L173 347 L173 362 L148 367 C129 371 126 376 126 400 L126 694 L115 697 C92 670 69 654 18 645 L18 630 L68 630 L68 400 C68 376 65 371 46 367 L19 362 L19 347 Z M362 0 L585 0 L594 95 L581 95 C563 55 557 45 531 45 L415 45 L415 48 C500 113 592 175 592 248 C592 315 536 353 472 353 C409 353 371 321 371 295 C371 278 382 264 401 264 C422 264 432 278 435 307 C438 328 450 332 472 332 C510 332 530 309 530 260 C530 214 515 184 464 126 C440 98 402 65 362 31 L362 0 Z M13 -50 L54 -50 L549 714 L509 714 L13 -50 Z " />
<glyph glyph-name="threequarters" unicode="&#xbe;" horiz-adv-x="601" d="M120 342 C214 342 254 390 254 442 C254 493 216 520 161 526 L161 528 C218 540 242 579 242 617 C242 664 203 700 136 700 C82 700 37 679 37 644 C37 631 45 616 64 616 C86 616 93 631 97 656 C100 673 109 679 133 679 C165 679 188 661 188 610 C188 564 169 536 122 536 L102 536 L102 515 L120 515 C179 515 195 489 195 442 C195 395 170 361 129 361 C95 361 91 370 84 398 C79 420 69 426 53 426 C34 426 25 413 25 396 C25 363 71 342 120 342 L120 342 Z M536 99 L580 99 L583 127 L536 127 L536 346 L508 346 L332 120 L332 99 L480 99 L480 53 C480 29 477 24 458 20 L431 15 L431 0 L583 0 L583 15 L558 20 C539 24 536 29 536 53 L536 99 Z M362 127 L362 128 L479 277 L480 277 L480 127 L362 127 Z M48 -50 L89 -50 L584 714 L544 714 L48 -50 Z " />
<glyph glyph-name="questiondown" unicode="&#xbf;" horiz-adv-x="409" d="M266 432 L227 432 L227 315 C127 277 42 215 42 104 C42 -24 129 -87 236 -87 C304 -87 370 -59 370 -10 C370 15 357 33 326 33 C295 33 284 19 278 -18 C273 -53 254 -55 236 -55 C161 -55 99 -23 99 71 C99 171 190 223 266 251 L266 432 Z M249 622 C222 622 196 599 196 571 C196 542 222 521 249 521 C277 521 301 542 301 571 C301 599 277 622 249 622 L249 622 Z " />
<glyph glyph-name="Agrave" unicode="&#xc0;" horiz-adv-x="625" d="M-3 0 L188 0 L188 17 L159 25 C120 36 109 47 132 118 L178 253 L406 253 L452 118 C476 46 473 35 428 23 L406 17 L406 0 L628 0 L628 17 L604 23 C576 30 563 42 538 111 L339 693 L299 693 L91 125 C61 41 53 34 29 27 L-2 17 L-3 0 Z M291 582 L296 582 L396 284 L189 284 L291 582 Z M416 729 L422 743 L255 846 C244 853 234 856 225 856 C205 856 190 838 190 818 C190 799 198 785 222 779 L416 729 Z " />
<glyph glyph-name="Aacute" unicode="&#xc1;" horiz-adv-x="625" d="M-3 0 L188 0 L188 17 L159 25 C120 36 109 47 132 118 L178 253 L406 253 L452 118 C476 46 473 35 428 23 L406 17 L406 0 L628 0 L628 17 L604 23 C576 30 563 42 538 111 L339 693 L299 693 L91 125 C61 41 53 34 29 27 L-2 17 L-3 0 Z M291 582 L296 582 L396 284 L189 284 L291 582 Z M422 779 C446 785 454 799 454 818 C454 838 439 856 419 856 C410 856 400 853 389 846 L222 743 L228 729 L422 779 Z " />
<glyph glyph-name="Acircumflex" unicode="&#xc2;" horiz-adv-x="625" d="M-3 0 L188 0 L188 17 L159 25 C120 36 109 47 132 118 L178 253 L406 253 L452 118 C476 46 473 35 428 23 L406 17 L406 0 L628 0 L628 17 L604 23 C576 30 563 42 538 111 L339 693 L299 693 L91 125 C61 41 53 34 29 27 L-2 17 L-3 0 Z M291 582 L296 582 L396 284 L189 284 L291 582 Z M189 726 L316 787 L447 726 L453 738 L332 856 L303 856 L183 738 L189 726 Z " />
<glyph glyph-name="Atilde" unicode="&#xc3;" horiz-adv-x="625" d="M-3 0 L188 0 L188 17 L159 25 C120 36 109 47 132 118 L178 253 L406 253 L452 118 C476 46 473 35 428 23 L406 17 L406 0 L628 0 L628 17 L604 23 C576 30 563 42 538 111 L339 693 L299 693 L91 125 C61 41 53 34 29 27 L-2 17 L-3 0 Z M291 582 L296 582 L396 284 L189 284 L291 582 Z M186 726 C201 752 214 770 240 770 C282 770 352 743 397 743 C438 743 458 786 483 839 L467 846 C452 819 438 802 411 802 C372 802 296 829 254 829 C213 829 193 785 169 732 L186 726 Z " />
<glyph glyph-name="Adieresis" unicode="&#xc4;" horiz-adv-x="625" d="M-3 0 L188 0 L188 17 L159 25 C120 36 109 47 132 118 L178 253 L406 253 L452 118 C476 46 473 35 428 23 L406 17 L406 0 L628 0 L628 17 L604 23 C576 30 563 42 538 111 L339 693 L299 693 L91 125 C61 41 53 34 29 27 L-2 17 L-3 0 Z M291 582 L296 582 L396 284 L189 284 L291 582 Z M226 739 C254 739 274 762 274 787 C274 813 254 835 226 835 C198 835 178 813 178 787 C178 762 198 739 226 739 L226 739 Z M410 739 C438 739 458 762 458 787 C458 813 438 835 410 835 C382 835 362 813 362 787 C362 762 382 739 410 739 L410 739 Z " />
<glyph glyph-name="Aring" unicode="&#xc5;" horiz-adv-x="625" d="M-3 0 L188 0 L188 17 L159 25 C120 36 109 47 132 118 L178 253 L406 253 L452 118 C476 46 473 35 428 23 L406 17 L406 0 L628 0 L628 17 L604 23 C576 30 563 42 538 111 L339 693 L299 693 L91 125 C61 41 53 34 29 27 L-2 17 L-3 0 Z M291 582 L296 582 L396 284 L189 284 L291 582 Z M318 725 C367 725 404 760 404 807 C404 854 370 890 318 890 C270 890 233 855 233 807 C233 762 265 725 318 725 L318 725 Z M318 748 C285 748 263 773 263 808 C263 844 285 867 318 867 C351 867 374 844 374 808 C374 773 351 748 318 748 L318 748 Z " />
<glyph glyph-name="AE" unicode="&#xc6;" horiz-adv-x="878" d="M348 0 L834 0 L849 198 L826 198 C810 147 784 87 771 68 C745 33 729 28 634 28 C509 28 503 30 503 125 L503 345 L549 345 C641 345 664 342 676 310 C686 285 690 271 697 237 L718 237 L718 484 L697 484 C691 452 686 430 676 409 C662 379 627 375 549 375 L503 375 L503 656 C525 661 570 665 619 665 C728 665 736 659 763 619 C772 604 786 572 806 526 L827 526 L814 693 L343 693 L343 676 L387 668 C398 665 407 663 413 659 L115 128 C69 46 58 37 16 24 L-7 17 L-7 0 L187 0 L187 17 L159 24 C117 35 116 56 151 120 L215 240 L425 240 L425 81 C425 36 416 31 387 25 L348 17 L348 0 Z M422 621 L425 621 L425 272 L233 272 L422 621 Z " />
<glyph glyph-name="Ccedilla" unicode="&#xc7;" horiz-adv-x="599" d="M212 -200 C314 -191 359 -160 359 -114 C359 -74 324 -56 281 -52 L305 -11 C313 -12 321 -12 330 -12 C422 -12 499 7 547 28 L559 212 L540 212 C525 166 513 124 493 95 C463 52 422 21 335 21 C192 21 118 122 118 360 C118 592 215 672 354 672 C437 672 461 646 488 603 C509 570 521 535 536 492 L556 492 L544 679 C501 692 440 705 365 705 C196 705 35 612 35 341 C35 113 137 11 276 -8 L241 -81 L246 -88 C280 -91 301 -105 301 -125 C301 -150 276 -170 212 -185 L212 -200 Z " />
<glyph glyph-name="Egrave" unicode="&#xc8;" horiz-adv-x="566" d="M27 0 L522 0 L537 198 L514 198 C498 147 472 87 459 68 C433 33 417 28 322 28 C185 28 182 30 182 125 L182 345 L237 345 C329 345 352 342 364 310 C374 285 378 271 385 237 L406 237 L406 484 L385 484 C379 452 374 430 364 409 C350 379 315 375 237 375 L182 375 L182 656 C207 662 258 665 307 665 C416 665 424 660 451 620 C460 605 474 572 494 526 L515 526 L502 693 L27 693 L27 676 L66 668 C96 662 104 657 104 612 L104 81 C104 36 95 31 66 25 L27 17 L27 0 Z M398 729 L404 743 L237 846 C226 853 216 856 207 856 C187 856 172 838 172 818 C172 799 180 785 204 779 L398 729 Z " />
<glyph glyph-name="Eacute" unicode="&#xc9;" horiz-adv-x="566" d="M27 0 L522 0 L537 198 L514 198 C498 147 472 87 459 68 C433 33 417 28 322 28 C185 28 182 30 182 125 L182 345 L237 345 C329 345 352 342 364 310 C374 285 378 271 385 237 L406 237 L406 484 L385 484 C379 452 374 430 364 409 C350 379 315 375 237 375 L182 375 L182 656 C207 662 258 665 307 665 C416 665 424 660 451 620 C460 605 474 572 494 526 L515 526 L502 693 L27 693 L27 676 L66 668 C96 662 104 657 104 612 L104 81 C104 36 95 31 66 25 L27 17 L27 0 Z M404 779 C428 785 436 799 436 818 C436 838 421 856 401 856 C392 856 382 853 371 846 L204 743 L210 729 L404 779 Z " />
<glyph glyph-name="Ecircumflex" unicode="&#xca;" horiz-adv-x="566" d="M27 0 L522 0 L537 198 L514 198 C498 147 472 87 459 68 C433 33 417 28 322 28 C185 28 182 30 182 125 L182 345 L237 345 C329 345 352 342 364 310 C374 285 378 271 385 237 L406 237 L406 484 L385 484 C379 452 374 430 364 409 C350 379 315 375 237 375 L182 375 L182 656 C207 662 258 665 307 665 C416 665 424 660 451 620 C460 605 474 572 494 526 L515 526 L502 693 L27 693 L27 676 L66 668 C96 662 104 657 104 612 L104 81 C104 36 95 31 66 25 L27 17 L27 0 Z M171 726 L298 787 L429 726 L435 738 L314 856 L285 856 L165 738 L171 726 Z " />
<glyph glyph-name="Edieresis" unicode="&#xcb;" horiz-adv-x="566" d="M27 0 L522 0 L537 198 L514 198 C498 147 472 87 459 68 C433 33 417 28 322 28 C185 28 182 30 182 125 L182 345 L237 345 C329 345 352 342 364 310 C374 285 378 271 385 237 L406 237 L406 484 L385 484 C379 452 374 430 364 409 C350 379 315 375 237 375 L182 375 L182 656 C207 662 258 665 307 665 C416 665 424 660 451 620 C460 605 474 572 494 526 L515 526 L502 693 L27 693 L27 676 L66 668 C96 662 104 657 104 612 L104 81 C104 36 95 31 66 25 L27 17 L27 0 Z M208 739 C236 739 256 762 256 787 C256 813 236 835 208 835 C180 835 160 813 160 787 C160 762 180 739 208 739 L208 739 Z M392 739 C420 739 440 762 440 787 C440 813 420 835 392 835 C364 835 344 813 344 787 C344 762 364 739 392 739 L392 739 Z " />
<glyph glyph-name="Igrave" unicode="&#xcc;" horiz-adv-x="292" d="M107 81 C107 36 104 31 70 25 L27 17 L27 0 L265 0 L265 17 L222 25 C188 31 185 36 185 81 L185 612 C185 657 188 662 222 668 L265 676 L265 693 L27 693 L27 676 L70 668 C104 662 107 657 107 612 L107 81 Z M244 729 L250 743 L83 846 C72 853 62 856 53 856 C33 856 18 838 18 818 C18 799 26 785 50 779 L244 729 Z " />
<glyph glyph-name="Iacute" unicode="&#xcd;" horiz-adv-x="292" d="M107 81 C107 36 104 31 70 25 L27 17 L27 0 L265 0 L265 17 L222 25 C188 31 185 36 185 81 L185 612 C185 657 188 662 222 668 L265 676 L265 693 L27 693 L27 676 L70 668 C104 662 107 657 107 612 L107 81 Z M250 779 C274 785 282 799 282 818 C282 838 267 856 247 856 C238 856 228 853 217 846 L50 743 L56 729 L250 779 Z " />
<glyph glyph-name="Icircumflex" unicode="&#xce;" horiz-adv-x="292" d="M107 81 C107 36 104 31 70 25 L27 17 L27 0 L265 0 L265 17 L222 25 C188 31 185 36 185 81 L185 612 C185 657 188 662 222 668 L265 676 L265 693 L27 693 L27 676 L70 668 C104 662 107 657 107 612 L107 81 Z M17 726 L144 787 L275 726 L281 738 L160 856 L131 856 L11 738 L17 726 Z " />
<glyph glyph-name="Idieresis" unicode="&#xcf;" horiz-adv-x="292" d="M107 81 C107 36 104 31 70 25 L27 17 L27 0 L265 0 L265 17 L222 25 C188 31 185 36 185 81 L185 612 C185 657 188 662 222 668 L265 676 L265 693 L27 693 L27 676 L70 668 C104 662 107 657 107 612 L107 81 Z M54 739 C82 739 102 762 102 787 C102 813 82 835 54 835 C26 835 6 813 6 787 C6 762 26 739 54 739 L54 739 Z M238 739 C266 739 286 762 286 787 C286 813 266 835 238 835 C210 835 190 813 190 787 C190 762 210 739 238 739 L238 739 Z " />
<glyph glyph-name="Eth" unicode="&#xd0;" horiz-adv-x="659" d="M27 337 L104 337 L104 81 C104 36 95 31 66 25 L27 17 L27 0 L293 0 C487 0 628 114 628 351 C628 613 478 693 300 693 L27 693 L27 676 L66 668 C96 662 104 657 104 612 L104 366 L27 366 L27 337 Z M288 30 C192 30 182 45 182 120 L182 337 L380 337 L380 366 L182 366 L182 655 C201 660 231 664 286 664 C478 664 547 549 547 334 C547 169 493 30 288 30 L288 30 Z " />
<glyph glyph-name="Ntilde" unicode="&#xd1;" horiz-adv-x="664" d="M143 618 L146 618 L533 -5 L572 -5 L572 597 C572 639 577 658 610 666 L649 676 L649 693 L446 693 L446 676 L496 666 C529 659 533 640 533 596 L533 143 L530 143 L190 693 L27 693 L27 676 L66 668 C96 662 104 657 104 612 L104 97 C104 52 95 36 66 28 L27 17 L27 0 L223 0 L223 17 L180 28 C147 37 143 52 143 97 L143 618 Z M218 726 C233 752 246 770 272 770 C314 770 384 743 429 743 C470 743 490 786 515 839 L499 846 C484 819 470 802 443 802 C404 802 328 829 286 829 C245 829 225 785 201 732 L218 726 Z " />
<glyph glyph-name="Ograve" unicode="&#xd2;" horiz-adv-x="671" d="M330 -12 C493 -12 636 89 636 350 C636 577 512 705 341 705 C178 705 35 599 35 337 C35 108 159 -12 330 -12 L330 -12 Z M335 21 C192 21 116 160 116 352 C116 558 182 672 335 672 C489 672 555 516 555 335 C555 129 487 21 335 21 L335 21 Z M433 729 L439 743 L272 846 C261 853 251 856 242 856 C222 856 207 838 207 818 C207 799 215 785 239 779 L433 729 Z " />
<glyph glyph-name="Oacute" unicode="&#xd3;" horiz-adv-x="671" d="M330 -12 C493 -12 636 89 636 350 C636 577 512 705 341 705 C178 705 35 599 35 337 C35 108 159 -12 330 -12 L330 -12 Z M335 21 C192 21 116 160 116 352 C116 558 182 672 335 672 C489 672 555 516 555 335 C555 129 487 21 335 21 L335 21 Z M439 779 C463 785 471 799 471 818 C471 838 456 856 436 856 C427 856 417 853 406 846 L239 743 L245 729 L439 779 Z " />
<glyph glyph-name="Ocircumflex" unicode="&#xd4;" horiz-adv-x="671" d="M330 -12 C493 -12 636 89 636 350 C636 577 512 705 341 705 C178 705 35 599 35 337 C35 108 159 -12 330 -12 L330 -12 Z M335 21 C192 21 116 160 116 352 C116 558 182 672 335 672 C489 672 555 516 555 335 C555 129 487 21 335 21 L335 21 Z M206 726 L333 787 L464 726 L470 738 L349 856 L320 856 L200 738 L206 726 Z " />
<glyph glyph-name="Otilde" unicode="&#xd5;" horiz-adv-x="671" d="M330 -12 C493 -12 636 89 636 350 C636 577 512 705 341 705 C178 705 35 599 35 337 C35 108 159 -12 330 -12 L330 -12 Z M335 21 C192 21 116 160 116 352 C116 558 182 672 335 672 C489 672 555 516 555 335 C555 129 487 21 335 21 L335 21 Z M203 726 C218 752 231 770 257 770 C299 770 369 743 414 743 C455 743 475 786 500 839 L484 846 C469 819 455 802 428 802 C389 802 313 829 271 829 C230 829 210 785 186 732 L203 726 Z " />
<glyph glyph-name="Odieresis" unicode="&#xd6;" horiz-adv-x="671" d="M330 -12 C493 -12 636 89 636 350 C636 577 512 705 341 705 C178 705 35 599 35 337 C35 108 159 -12 330 -12 L330 -12 Z M335 21 C192 21 116 160 116 352 C116 558 182 672 335 672 C489 672 555 516 555 335 C555 129 487 21 335 21 L335 21 Z M243 739 C271 739 291 762 291 787 C291 813 271 835 243 835 C215 835 195 813 195 787 C195 762 215 739 243 739 L243 739 Z M427 739 C455 739 475 762 475 787 C475 813 455 835 427 835 C399 835 379 813 379 787 C379 762 399 739 427 739 L427 739 Z " />
<glyph glyph-name="multiply" unicode="&#xd7;" horiz-adv-x="426" d="M77 147 L213 293 L352 147 L384 182 L246 328 L386 476 L354 511 L214 363 L75 511 L40 476 L180 328 L42 182 L77 147 Z " />
<glyph glyph-name="Oslash" unicode="&#xd8;" horiz-adv-x="671" d="M330 -12 C493 -12 636 89 636 350 C636 476 597 572 534 632 L592 730 L552 730 L507 654 C460 687 404 705 341 705 C178 705 35 599 35 337 C35 203 77 106 147 49 L80 -64 L120 -64 L175 29 C219 2 272 -12 330 -12 L330 -12 Z M116 352 C116 558 182 672 335 672 C397 672 444 647 479 607 L178 102 C136 161 116 249 116 352 L116 352 Z M335 21 C280 21 236 40 202 73 L501 577 C538 515 555 428 555 335 C555 129 487 21 335 21 L335 21 Z " />
<glyph glyph-name="Ugrave" unicode="&#xd9;" horiz-adv-x="676" d="M172 612 C172 657 173 661 206 668 L246 676 L246 693 L17 693 L17 676 L56 668 C86 662 94 657 94 612 L94 226 C94 62 186 -12 338 -12 C515 -12 582 97 582 220 L582 601 C582 643 587 657 620 666 L659 676 L659 693 L453 693 L453 676 L506 666 C539 660 543 645 543 601 L543 229 C543 107 490 34 361 34 C229 34 172 96 172 222 L172 612 Z M458 729 L464 743 L297 846 C286 853 276 856 267 856 C247 856 232 838 232 818 C232 799 240 785 264 779 L458 729 Z " />
<glyph glyph-name="Uacute" unicode="&#xda;" horiz-adv-x="676" d="M172 612 C172 657 173 661 206 668 L246 676 L246 693 L17 693 L17 676 L56 668 C86 662 94 657 94 612 L94 226 C94 62 186 -12 338 -12 C515 -12 582 97 582 220 L582 601 C582 643 587 657 620 666 L659 676 L659 693 L453 693 L453 676 L506 666 C539 660 543 645 543 601 L543 229 C543 107 490 34 361 34 C229 34 172 96 172 222 L172 612 Z M464 779 C488 785 496 799 496 818 C496 838 481 856 461 856 C452 856 442 853 431 846 L264 743 L270 729 L464 779 Z " />
<glyph glyph-name="Ucircumflex" unicode="&#xdb;" horiz-adv-x="676" d="M172 612 C172 657 173 661 206 668 L246 676 L246 693 L17 693 L17 676 L56 668 C86 662 94 657 94 612 L94 226 C94 62 186 -12 338 -12 C515 -12 582 97 582 220 L582 601 C582 643 587 657 620 666 L659 676 L659 693 L453 693 L453 676 L506 666 C539 660 543 645 543 601 L543 229 C543 107 490 34 361 34 C229 34 172 96 172 222 L172 612 Z M231 726 L358 787 L489 726 L495 738 L374 856 L345 856 L225 738 L231 726 Z " />
<glyph glyph-name="Udieresis" unicode="&#xdc;" horiz-adv-x="676" d="M172 612 C172 657 173 661 206 668 L246 676 L246 693 L17 693 L17 676 L56 668 C86 662 94 657 94 612 L94 226 C94 62 186 -12 338 -12 C515 -12 582 97 582 220 L582 601 C582 643 587 657 620 666 L659 676 L659 693 L453 693 L453 676 L506 666 C539 660 543 645 543 601 L543 229 C543 107 490 34 361 34 C229 34 172 96 172 222 L172 612 Z M268 739 C296 739 316 762 316 787 C316 813 296 835 268 835 C240 835 220 813 220 787 C220 762 240 739 268 739 L268 739 Z M452 739 C480 739 500 762 500 787 C500 813 480 835 452 835 C424 835 404 813 404 787 C404 762 424 739 452 739 L452 739 Z " />
<glyph glyph-name="Yacute" unicode="&#xdd;" horiz-adv-x="582" d="M263 81 C263 36 260 31 226 25 L183 17 L183 0 L421 0 L421 17 L378 25 C344 31 341 36 341 81 L341 288 L477 564 C518 648 530 657 562 668 L586 676 L586 693 L394 693 L394 676 L427 668 C468 658 479 646 450 586 L322 318 L319 318 L170 594 C141 648 151 659 188 668 L222 676 L222 693 L-4 693 L-4 676 L23 669 C49 661 55 655 86 598 L263 278 L263 81 Z M420 779 C444 785 452 799 452 818 C452 838 437 856 417 856 C408 856 398 853 387 846 L220 743 L226 729 L420 779 Z " />
<glyph glyph-name="Thorn" unicode="&#xde;" horiz-adv-x="537" d="M27 693 L27 676 L66 668 C96 662 104 657 104 612 L104 81 C104 36 95 31 66 25 L27 17 L27 0 L262 0 L262 17 L219 25 C185 31 182 36 182 81 L182 514 C199 518 234 523 277 523 C384 523 435 482 435 364 C435 235 361 192 215 199 L215 183 C226 179 250 174 277 174 C418 174 518 250 518 375 C518 492 436 552 283 552 L182 552 L182 612 C182 657 185 662 219 668 L262 676 L262 693 L27 693 Z " />
<glyph glyph-name="germandbls" unicode="&#xdf;" horiz-adv-x="564" d="M368 -6 C472 -6 540 45 540 129 C540 183 505 231 421 288 C326 352 315 374 315 398 C315 454 453 541 453 636 C453 703 397 756 293 756 C212 756 89 712 89 531 L89 506 L21 487 L21 469 L89 469 L89 78 C89 41 85 33 56 25 L23 16 L23 0 L220 0 L220 16 L193 24 C165 32 163 40 163 81 L163 591 C163 674 201 729 280 729 C347 729 383 686 383 624 C383 508 261 438 261 362 C261 313 296 281 377 229 C442 187 476 148 476 102 C476 54 442 19 386 19 C344 19 336 37 331 58 C325 82 320 108 285 108 C255 108 243 88 243 67 C243 32 288 -6 368 -6 L368 -6 Z " />
<glyph glyph-name="agrave" unicode="&#xe0;" horiz-adv-x="467" d="M171 -13 C225 -13 283 12 307 45 L312 45 C316 14 338 -12 385 -12 C410 -12 445 -3 459 7 L459 20 C436 21 418 23 405 32 C393 40 384 53 384 77 L384 395 C384 476 339 522 223 522 C164 522 53 503 53 441 C53 421 64 397 100 397 C140 397 140 427 145 453 C149 483 161 494 209 494 C302 494 310 451 310 390 L310 283 L157 247 C100 234 23 200 23 113 C23 33 80 -13 171 -13 L171 -13 Z M200 29 C136 29 101 66 101 122 C101 196 152 227 236 236 L310 244 L310 83 C294 55 254 29 200 29 L200 29 Z M310 574 L317 588 L161 702 C148 711 137 714 128 714 C108 714 93 697 93 677 C93 662 100 645 126 635 L310 574 Z " />
<glyph glyph-name="aacute" unicode="&#xe1;" horiz-adv-x="467" d="M171 -13 C225 -13 283 12 307 45 L312 45 C316 14 338 -12 385 -12 C410 -12 445 -3 459 7 L459 20 C436 21 418 23 405 32 C393 40 384 53 384 77 L384 395 C384 476 339 522 223 522 C164 522 53 503 53 441 C53 421 64 397 100 397 C140 397 140 427 145 453 C149 483 161 494 209 494 C302 494 310 451 310 390 L310 283 L157 247 C100 234 23 200 23 113 C23 33 80 -13 171 -13 L171 -13 Z M200 29 C136 29 101 66 101 122 C101 196 152 227 236 236 L310 244 L310 83 C294 55 254 29 200 29 L200 29 Z M322 635 C348 645 355 662 355 677 C355 697 340 714 320 714 C311 714 300 711 287 702 L131 588 L138 574 L322 635 Z " />
<glyph glyph-name="acircumflex" unicode="&#xe2;" horiz-adv-x="467" d="M171 -13 C225 -13 283 12 307 45 L312 45 C316 14 338 -12 385 -12 C410 -12 445 -3 459 7 L459 20 C436 21 418 23 405 32 C393 40 384 53 384 77 L384 395 C384 476 339 522 223 522 C164 522 53 503 53 441 C53 421 64 397 100 397 C140 397 140 427 145 453 C149 483 161 494 209 494 C302 494 310 451 310 390 L310 283 L157 247 C100 234 23 200 23 113 C23 33 80 -13 171 -13 L171 -13 Z M200 29 C136 29 101 66 101 122 C101 196 152 227 236 236 L310 244 L310 83 C294 55 254 29 200 29 L200 29 Z M102 575 L219 646 L340 575 L348 586 L235 715 L206 715 L94 586 L102 575 Z " />
<glyph glyph-name="atilde" unicode="&#xe3;" horiz-adv-x="467" d="M171 -13 C225 -13 283 12 307 45 L312 45 C316 14 338 -12 385 -12 C410 -12 445 -3 459 7 L459 20 C436 21 418 23 405 32 C393 40 384 53 384 77 L384 395 C384 476 339 522 223 522 C164 522 53 503 53 441 C53 421 64 397 100 397 C140 397 140 427 145 453 C149 483 161 494 209 494 C302 494 310 451 310 390 L310 283 L157 247 C100 234 23 200 23 113 C23 33 80 -13 171 -13 L171 -13 Z M200 29 C136 29 101 66 101 122 C101 196 152 227 236 236 L310 244 L310 83 C294 55 254 29 200 29 L200 29 Z M91 576 C106 602 119 620 145 620 C181 620 240 593 282 593 C323 593 343 636 368 689 L352 696 C337 669 323 652 296 652 C263 652 199 679 159 679 C118 679 98 635 74 582 L91 576 Z " />
<glyph glyph-name="adieresis" unicode="&#xe4;" horiz-adv-x="467" d="M171 -13 C225 -13 283 12 307 45 L312 45 C316 14 338 -12 385 -12 C410 -12 445 -3 459 7 L459 20 C436 21 418 23 405 32 C393 40 384 53 384 77 L384 395 C384 476 339 522 223 522 C164 522 53 503 53 441 C53 421 64 397 100 397 C140 397 140 427 145 453 C149 483 161 494 209 494 C302 494 310 451 310 390 L310 283 L157 247 C100 234 23 200 23 113 C23 33 80 -13 171 -13 L171 -13 Z M200 29 C136 29 101 66 101 122 C101 196 152 227 236 236 L310 244 L310 83 C294 55 254 29 200 29 L200 29 Z M135 601 C163 601 183 624 183 649 C183 675 163 697 135 697 C107 697 87 675 87 649 C87 624 107 601 135 601 L135 601 Z M307 601 C335 601 355 624 355 649 C355 675 335 697 307 697 C279 697 259 675 259 649 C259 624 279 601 307 601 L307 601 Z " />
<glyph glyph-name="aring" unicode="&#xe5;" horiz-adv-x="467" d="M171 -13 C225 -13 283 12 307 45 L312 45 C316 14 338 -12 385 -12 C410 -12 445 -3 459 7 L459 20 C436 21 418 23 405 32 C393 40 384 53 384 77 L384 395 C384 476 339 522 223 522 C164 522 53 503 53 441 C53 421 64 397 100 397 C140 397 140 427 145 453 C149 483 161 494 209 494 C302 494 310 451 310 390 L310 283 L157 247 C100 234 23 200 23 113 C23 33 80 -13 171 -13 L171 -13 Z M200 29 C136 29 101 66 101 122 C101 196 152 227 236 236 L310 244 L310 83 C294 55 254 29 200 29 L200 29 Z M221 578 C270 578 307 613 307 660 C307 707 273 743 221 743 C173 743 136 708 136 660 C136 615 168 578 221 578 L221 578 Z M221 601 C188 601 166 626 166 661 C166 697 188 720 221 720 C254 720 277 697 277 661 C277 626 254 601 221 601 L221 601 Z " />
<glyph glyph-name="ae" unicode="&#xe6;" horiz-adv-x="745" d="M526 -12 C618 -12 681 37 705 53 L705 81 C668 64 627 38 547 38 C453 38 386 108 385 267 L713 267 C713 453 647 522 526 522 C461 522 407 496 370 448 C355 495 312 522 221 522 C162 522 51 503 51 440 C51 421 62 397 97 397 C138 397 138 427 142 453 C147 483 159 494 207 494 C300 494 308 451 308 390 L308 292 L178 265 C101 248 23 201 23 118 C23 34 80 -13 169 -13 C261 -13 301 34 343 81 L347 81 C380 23 437 -12 526 -12 L526 -12 Z M196 29 C139 29 101 64 101 123 C101 199 153 241 239 250 L308 257 C308 200 316 148 335 105 C290 53 249 29 196 29 L196 29 Z M524 493 C601 493 623 429 623 303 L385 292 C390 427 442 493 524 493 L524 493 Z " />
<glyph glyph-name="ccedilla" unicode="&#xe7;" horiz-adv-x="452" d="M143 -200 C245 -191 290 -160 290 -114 C290 -74 255 -56 212 -52 L236 -11 C244 -11 252 -12 260 -12 C347 -12 406 27 429 50 L429 79 C397 60 348 37 279 37 C159 37 113 119 113 274 C113 425 190 490 275 490 C319 490 328 483 336 436 C341 409 350 394 382 394 C412 394 430 414 430 441 C430 486 392 521 292 521 C192 521 30 459 30 242 C30 114 91 15 207 -7 L172 -81 L177 -88 C211 -91 232 -105 232 -125 C232 -150 207 -170 143 -185 L143 -200 Z " />
<glyph glyph-name="egrave" unicode="&#xe8;" horiz-adv-x="485" d="M267 -12 C366 -12 423 31 446 53 L446 81 C412 63 370 38 287 38 C182 38 111 110 111 273 L111 276 L454 276 C456 452 384 521 264 521 C135 521 30 414 30 259 C30 101 107 -12 267 -12 L267 -12 Z M261 492 C342 492 370 436 370 312 L112 300 C119 429 179 492 261 492 L261 492 Z M352 574 L359 588 L203 702 C190 711 179 714 170 714 C150 714 135 697 135 677 C135 662 142 645 168 635 L352 574 Z " />
<glyph glyph-name="eacute" unicode="&#xe9;" horiz-adv-x="485" d="M267 -12 C366 -12 423 31 446 53 L446 81 C412 63 370 38 287 38 C182 38 111 110 111 273 L111 276 L454 276 C456 452 384 521 264 521 C135 521 30 414 30 259 C30 101 107 -12 267 -12 L267 -12 Z M261 492 C342 492 370 436 370 312 L112 300 C119 429 179 492 261 492 L261 492 Z M364 635 C390 645 397 662 397 677 C397 697 382 714 362 714 C353 714 342 711 329 702 L173 588 L180 574 L364 635 Z " />
<glyph glyph-name="ecircumflex" unicode="&#xea;" horiz-adv-x="485" d="M267 -12 C366 -12 423 31 446 53 L446 81 C412 63 370 38 287 38 C182 38 111 110 111 273 L111 276 L454 276 C456 452 384 521 264 521 C135 521 30 414 30 259 C30 101 107 -12 267 -12 L267 -12 Z M261 492 C342 492 370 436 370 312 L112 300 C119 429 179 492 261 492 L261 492 Z M144 575 L261 646 L382 575 L390 586 L277 715 L248 715 L136 586 L144 575 Z " />
<glyph glyph-name="edieresis" unicode="&#xeb;" horiz-adv-x="485" d="M267 -12 C366 -12 423 31 446 53 L446 81 C412 63 370 38 287 38 C182 38 111 110 111 273 L111 276 L454 276 C456 452 384 521 264 521 C135 521 30 414 30 259 C30 101 107 -12 267 -12 L267 -12 Z M261 492 C342 492 370 436 370 312 L112 300 C119 429 179 492 261 492 L261 492 Z M177 601 C205 601 225 624 225 649 C225 675 205 697 177 697 C149 697 129 675 129 649 C129 624 149 601 177 601 L177 601 Z M349 601 C377 601 397 624 397 649 C397 675 377 697 349 697 C321 697 301 675 301 649 C301 624 321 601 349 601 L349 601 Z " />
<glyph glyph-name="igrave" unicode="&#xec;" horiz-adv-x="245" d="M23 0 L229 0 L229 16 L196 25 C168 33 163 39 163 78 L163 410 C163 477 167 516 167 516 L161 519 L24 499 L24 485 L51 472 C83 457 89 454 89 418 L89 78 C89 41 85 33 56 25 L23 16 L23 0 Z M215 574 L222 588 L66 702 C53 711 42 714 33 714 C13 714 -2 697 -2 677 C-2 662 5 645 31 635 L215 574 Z " />
<glyph glyph-name="iacute" unicode="&#xed;" horiz-adv-x="245" d="M23 0 L229 0 L229 16 L196 25 C168 33 163 39 163 78 L163 410 C163 477 167 516 167 516 L161 519 L24 499 L24 485 L51 472 C83 457 89 454 89 418 L89 78 C89 41 85 33 56 25 L23 16 L23 0 Z M227 635 C253 645 260 662 260 677 C260 697 245 714 225 714 C216 714 205 711 192 702 L36 588 L43 574 L227 635 Z " />
<glyph glyph-name="icircumflex" unicode="&#xee;" horiz-adv-x="245" d="M23 0 L229 0 L229 16 L196 25 C168 33 163 39 163 78 L163 410 C163 477 167 516 167 516 L161 519 L24 499 L24 485 L51 472 C83 457 89 454 89 418 L89 78 C89 41 85 33 56 25 L23 16 L23 0 Z M7 575 L124 646 L245 575 L253 586 L140 715 L111 715 L-1 586 L7 575 Z " />
<glyph glyph-name="idieresis" unicode="&#xef;" horiz-adv-x="245" d="M23 0 L229 0 L229 16 L196 25 C168 33 163 39 163 78 L163 410 C163 477 167 516 167 516 L161 519 L24 499 L24 485 L51 472 C83 457 89 454 89 418 L89 78 C89 41 85 33 56 25 L23 16 L23 0 Z M40 601 C68 601 88 624 88 649 C88 675 68 697 40 697 C12 697 -8 675 -8 649 C-8 624 12 601 40 601 L40 601 Z M212 601 C240 601 260 624 260 649 C260 675 240 697 212 697 C184 697 164 675 164 649 C164 624 184 601 212 601 L212 601 Z " />
<glyph glyph-name="eth" unicode="&#xf0;" horiz-adv-x="538" d="M146 586 L269 641 C332 587 375 527 387 480 C353 513 315 525 267 525 C143 525 30 424 30 255 C30 80 131 -13 269 -13 C386 -13 506 65 506 290 C506 449 442 571 315 662 L422 710 L413 735 L289 679 C240 710 184 737 120 760 L113 743 C162 720 207 692 247 660 L136 611 L146 586 Z M273 16 C168 16 115 101 115 268 C115 421 167 496 266 496 C372 496 423 415 423 246 C423 101 373 16 273 16 L273 16 Z " />
<glyph glyph-name="ntilde" unicode="&#xf1;" horiz-adv-x="562" d="M479 388 C479 478 448 521 346 521 C287 521 213 491 165 461 L162 461 L164 516 L157 519 L24 499 L24 485 L51 472 C83 457 89 454 89 418 L89 78 C89 41 85 33 56 25 L23 16 L23 0 L233 0 L233 16 L198 25 C169 32 163 39 163 78 L163 438 C196 450 251 470 318 470 C382 470 405 445 405 371 L405 78 C405 39 399 33 370 25 L336 16 L336 0 L546 0 L546 16 L512 25 C483 33 479 41 479 78 L479 388 Z M152 576 C167 602 180 620 206 620 C242 620 301 593 343 593 C384 593 404 636 429 689 L413 696 C398 669 384 652 357 652 C324 652 260 679 220 679 C179 679 159 635 135 582 L152 576 Z " />
<glyph glyph-name="ograve" unicode="&#xf2;" horiz-adv-x="537" d="M268 -13 C392 -13 507 92 507 260 C507 435 406 522 268 522 C144 522 30 422 30 254 C30 79 131 -13 268 -13 L268 -13 Z M273 16 C168 16 115 99 115 266 C115 419 167 493 266 493 C372 493 422 413 422 245 C422 100 373 16 273 16 L273 16 Z M357 574 L364 588 L208 702 C195 711 184 714 175 714 C155 714 140 697 140 677 C140 662 147 645 173 635 L357 574 Z " />
<glyph glyph-name="oacute" unicode="&#xf3;" horiz-adv-x="537" d="M268 -13 C392 -13 507 92 507 260 C507 435 406 522 268 522 C144 522 30 422 30 254 C30 79 131 -13 268 -13 L268 -13 Z M273 16 C168 16 115 99 115 266 C115 419 167 493 266 493 C372 493 422 413 422 245 C422 100 373 16 273 16 L273 16 Z M369 635 C395 645 402 662 402 677 C402 697 387 714 367 714 C358 714 347 711 334 702 L178 588 L185 574 L369 635 Z " />
<glyph glyph-name="ocircumflex" unicode="&#xf4;" horiz-adv-x="537" d="M268 -13 C392 -13 507 92 507 260 C507 435 406 522 268 522 C144 522 30 422 30 254 C30 79 131 -13 268 -13 L268 -13 Z M273 16 C168 16 115 99 115 266 C115 419 167 493 266 493 C372 493 422 413 422 245 C422 100 373 16 273 16 L273 16 Z M149 575 L266 646 L387 575 L395 586 L282 715 L253 715 L141 586 L149 575 Z " />
<glyph glyph-name="otilde" unicode="&#xf5;" horiz-adv-x="537" d="M268 -13 C392 -13 507 92 507 260 C507 435 406 522 268 522 C144 522 30 422 30 254 C30 79 131 -13 268 -13 L268 -13 Z M273 16 C168 16 115 99 115 266 C115 419 167 493 266 493 C372 493 422 413 422 245 C422 100 373 16 273 16 L273 16 Z M138 576 C153 602 166 620 192 620 C228 620 287 593 329 593 C370 593 390 636 415 689 L399 696 C384 669 370 652 343 652 C310 652 246 679 206 679 C165 679 145 635 121 582 L138 576 Z " />
<glyph glyph-name="odieresis" unicode="&#xf6;" horiz-adv-x="537" d="M268 -13 C392 -13 507 92 507 260 C507 435 406 522 268 522 C144 522 30 422 30 254 C30 79 131 -13 268 -13 L268 -13 Z M273 16 C168 16 115 99 115 266 C115 419 167 493 266 493 C372 493 422 413 422 245 C422 100 373 16 273 16 L273 16 Z M182 601 C210 601 230 624 230 649 C230 675 210 697 182 697 C154 697 134 675 134 649 C134 624 154 601 182 601 L182 601 Z M354 601 C382 601 402 624 402 649 C402 675 382 697 354 697 C326 697 306 675 306 649 C306 624 326 601 354 601 L354 601 Z " />
<glyph glyph-name="divide" unicode="&#xf7;" horiz-adv-x="437" d="M217 121 C247 121 273 146 273 176 C273 208 247 231 217 231 C186 231 161 208 161 176 C161 146 186 121 217 121 L217 121 Z M217 444 C247 444 273 468 273 498 C273 530 247 553 217 553 C186 553 161 530 161 498 C161 468 186 444 217 444 L217 444 Z M33 317 L404 317 L404 359 L33 359 L33 317 Z " />
<glyph glyph-name="oslash" unicode="&#xf8;" horiz-adv-x="537" d="M68 -64 L104 -64 L149 15 C184 -3 224 -13 268 -13 C392 -13 507 92 507 260 C507 363 471 436 414 478 L463 563 L427 563 L388 495 C353 513 312 522 268 522 C144 522 30 422 30 254 C30 150 65 75 123 32 L68 -64 Z M117 277 C118 422 167 493 266 493 C309 493 343 483 367 459 L150 79 C128 120 117 183 117 277 L117 277 Z M273 16 C229 16 195 26 170 51 L388 431 C410 391 420 329 420 235 C420 94 372 16 273 16 L273 16 Z " />
<glyph glyph-name="ugrave" unicode="&#xf9;" horiz-adv-x="553" d="M214 -12 C282 -12 349 19 398 53 L402 53 L400 -6 L406 -10 L540 8 L540 21 L512 34 C482 48 474 57 474 98 L474 511 L464 519 L334 504 L334 489 L362 479 C395 467 400 459 400 423 L400 76 C361 59 302 39 247 39 C186 39 158 74 158 135 L158 511 L149 519 L19 504 L19 489 L47 478 C78 466 84 458 84 422 L84 118 C84 34 134 -12 214 -12 L214 -12 Z M366 574 L373 588 L217 702 C204 711 193 714 184 714 C164 714 149 697 149 677 C149 662 156 645 182 635 L366 574 Z " />
<glyph glyph-name="uacute" unicode="&#xfa;" horiz-adv-x="553" d="M214 -12 C282 -12 349 19 398 53 L402 53 L400 -6 L406 -10 L540 8 L540 21 L512 34 C482 48 474 57 474 98 L474 511 L464 519 L334 504 L334 489 L362 479 C395 467 400 459 400 423 L400 76 C361 59 302 39 247 39 C186 39 158 74 158 135 L158 511 L149 519 L19 504 L19 489 L47 478 C78 466 84 458 84 422 L84 118 C84 34 134 -12 214 -12 L214 -12 Z M378 635 C404 645 411 662 411 677 C411 697 396 714 376 714 C367 714 356 711 343 702 L187 588 L194 574 L378 635 Z " />
<glyph glyph-name="ucircumflex" unicode="&#xfb;" horiz-adv-x="553" d="M214 -12 C282 -12 349 19 398 53 L402 53 L400 -6 L406 -10 L540 8 L540 21 L512 34 C482 48 474 57 474 98 L474 511 L464 519 L334 504 L334 489 L362 479 C395 467 400 459 400 423 L400 76 C361 59 302 39 247 39 C186 39 158 74 158 135 L158 511 L149 519 L19 504 L19 489 L47 478 C78 466 84 458 84 422 L84 118 C84 34 134 -12 214 -12 L214 -12 Z M158 575 L275 646 L396 575 L404 586 L291 715 L262 715 L150 586 L158 575 Z " />
<glyph glyph-name="udieresis" unicode="&#xfc;" horiz-adv-x="553" d="M214 -12 C282 -12 349 19 398 53 L402 53 L400 -6 L406 -10 L540 8 L540 21 L512 34 C482 48 474 57 474 98 L474 511 L464 519 L334 504 L334 489 L362 479 C395 467 400 459 400 423 L400 76 C361 59 302 39 247 39 C186 39 158 74 158 135 L158 511 L149 519 L19 504 L19 489 L47 478 C78 466 84 458 84 422 L84 118 C84 34 134 -12 214 -12 L214 -12 Z M191 601 C219 601 239 624 239 649 C239 675 219 697 191 697 C163 697 143 675 143 649 C143 624 163 601 191 601 L191 601 Z M363 601 C391 601 411 624 411 649 C411 675 391 697 363 697 C335 697 315 675 315 649 C315 624 335 601 363 601 L363 601 Z " />
<glyph glyph-name="yacute" unicode="&#xfd;" horiz-adv-x="478" d="M78 -205 C184 -205 214 -118 245 -34 L409 408 C429 462 433 475 456 481 L486 489 L486 505 L327 505 L327 489 L353 482 C371 477 381 472 382 460 C383 447 379 428 370 402 L264 101 L260 101 L148 403 C141 422 135 439 135 453 C135 468 140 476 161 482 L187 489 L187 505 L-8 505 L-8 489 L18 481 C43 472 49 467 67 418 L222 1 L194 -67 C172 -120 145 -157 118 -157 C109 -157 106 -154 100 -138 C92 -118 83 -103 53 -103 C25 -103 5 -118 5 -149 C5 -178 25 -205 78 -205 L78 -205 Z M366 635 C392 645 399 662 399 677 C399 697 384 714 364 714 C355 714 344 711 331 702 L175 588 L182 574 L366 635 Z " />
<glyph glyph-name="thorn" unicode="&#xfe;" horiz-adv-x="561" d="M18 -199 L241 -199 L241 -183 L197 -174 C165 -168 159 -160 159 -123 L159 -63 C159 -30 158 2 158 2 C187 -7 220 -12 248 -12 C418 -12 526 93 526 276 C526 465 424 521 320 521 C258 521 201 495 160 464 L157 464 C157 464 159 503 159 544 L159 630 C159 696 163 749 163 749 L157 755 L14 741 L14 725 L48 709 C79 694 85 691 85 655 L85 -123 C85 -158 81 -166 52 -174 L18 -183 L18 -199 Z M269 19 C217 19 190 32 159 57 L159 438 C185 452 225 473 281 473 C386 473 447 397 447 269 C447 91 387 19 269 19 L269 19 Z " />
<glyph glyph-name="ydieresis" unicode="&#xff;" horiz-adv-x="478" d="M78 -205 C184 -205 214 -118 245 -34 L409 408 C429 462 433 475 456 481 L486 489 L486 505 L327 505 L327 489 L353 482 C371 477 381 472 382 460 C383 447 379 428 370 402 L264 101 L260 101 L148 403 C141 422 135 439 135 453 C135 468 140 476 161 482 L187 489 L187 505 L-8 505 L-8 489 L18 481 C43 472 49 467 67 418 L222 1 L194 -67 C172 -120 145 -157 118 -157 C109 -157 106 -154 100 -138 C92 -118 83 -103 53 -103 C25 -103 5 -118 5 -149 C5 -178 25 -205 78 -205 L78 -205 Z M179 601 C207 601 227 624 227 649 C227 675 207 697 179 697 C151 697 131 675 131 649 C131 624 151 601 179 601 L179 601 Z M351 601 C379 601 399 624 399 649 C399 675 379 697 351 697 C323 697 303 675 303 649 C303 624 323 601 351 601 L351 601 Z " />
<glyph glyph-name="Amacron" unicode="&#x100;" horiz-adv-x="625" d="M-3 0 L188 0 L188 17 L159 25 C120 36 109 47 132 118 L178 253 L406 253 L452 118 C476 46 473 35 428 23 L406 17 L406 0 L628 0 L628 17 L604 23 C576 30 563 42 538 111 L339 693 L299 693 L91 125 C61 41 53 34 29 27 L-2 17 L-3 0 Z M291 582 L296 582 L396 284 L189 284 L291 582 Z M193 755 L443 755 L443 799 L193 799 L193 755 Z " />
<glyph glyph-name="amacron" unicode="&#x101;" horiz-adv-x="467" d="M171 -13 C225 -13 283 12 307 45 L312 45 C316 14 338 -12 385 -12 C410 -12 445 -3 459 7 L459 20 C436 21 418 23 405 32 C393 40 384 53 384 77 L384 395 C384 476 339 522 223 522 C164 522 53 503 53 441 C53 421 64 397 100 397 C140 397 140 427 145 453 C149 483 161 494 209 494 C302 494 310 451 310 390 L310 283 L157 247 C100 234 23 200 23 113 C23 33 80 -13 171 -13 L171 -13 Z M200 29 C136 29 101 66 101 122 C101 196 152 227 236 236 L310 244 L310 83 C294 55 254 29 200 29 L200 29 Z M110 600 L332 600 L332 644 L110 644 L110 600 Z " />
<glyph glyph-name="Abreve" unicode="&#x102;" horiz-adv-x="625" d="M-3 0 L188 0 L188 17 L159 25 C120 36 109 47 132 118 L178 253 L406 253 L452 118 C476 46 473 35 428 23 L406 17 L406 0 L628 0 L628 17 L604 23 C576 30 563 42 538 111 L339 693 L299 693 L91 125 C61 41 53 34 29 27 L-2 17 L-3 0 Z M291 582 L296 582 L396 284 L189 284 L291 582 Z M321 731 C393 731 431 794 434 846 L423 849 C411 816 378 783 320 783 C262 783 226 814 214 849 L203 846 C206 794 247 731 321 731 L321 731 Z " />
<glyph glyph-name="abreve" unicode="&#x103;" horiz-adv-x="467" d="M171 -13 C225 -13 283 12 307 45 L312 45 C316 14 338 -12 385 -12 C410 -12 445 -3 459 7 L459 20 C436 21 418 23 405 32 C393 40 384 53 384 77 L384 395 C384 476 339 522 223 522 C164 522 53 503 53 441 C53 421 64 397 100 397 C140 397 140 427 145 453 C149 483 161 494 209 494 C302 494 310 451 310 390 L310 283 L157 247 C100 234 23 200 23 113 C23 33 80 -13 171 -13 L171 -13 Z M200 29 C136 29 101 66 101 122 C101 196 152 227 236 236 L310 244 L310 83 C294 55 254 29 200 29 L200 29 Z M224 576 C287 576 326 639 327 691 L316 694 C304 661 274 628 223 628 C172 628 139 659 127 694 L116 691 C117 639 159 576 224 576 L224 576 Z " />
<glyph glyph-name="Aogonek" unicode="&#x104;" horiz-adv-x="625" d="M449 -200 C474 -200 502 -190 521 -172 L521 -156 C507 -163 492 -167 473 -167 C442 -167 420 -147 420 -116 C420 -72 449 0 538 0 L628 0 L628 17 L604 23 C576 30 563 42 538 111 L339 693 L299 693 L91 125 C61 41 53 34 29 27 L-2 17 L-3 0 L188 0 L188 17 L159 25 C120 36 109 47 132 118 L178 253 L406 253 L487 14 C429 -18 359 -71 359 -130 C359 -173 401 -200 449 -200 L449 -200 Z M291 582 L296 582 L396 284 L189 284 L291 582 Z " />
<glyph glyph-name="aogonek" unicode="&#x105;" horiz-adv-x="467" d="M387 -200 C412 -200 440 -190 459 -172 L459 -156 C445 -163 430 -167 411 -167 C380 -167 358 -147 358 -116 C358 -64 402 -21 459 7 L459 20 C436 21 418 23 405 32 C393 40 384 53 384 77 L384 395 C384 476 339 522 223 522 C164 522 53 503 53 441 C53 421 64 397 100 397 C140 397 140 427 145 453 C149 483 161 494 209 494 C302 494 310 451 310 390 L310 283 L157 247 C100 234 23 200 23 113 C23 33 80 -13 171 -13 C225 -13 283 12 307 45 L312 45 C316 14 337 -9 392 -9 C350 -34 297 -82 297 -130 C297 -173 339 -200 387 -200 L387 -200 Z M200 29 C136 29 101 66 101 122 C101 196 152 227 236 236 L310 244 L310 83 C294 55 254 29 200 29 L200 29 Z " />
<glyph glyph-name="Cacute" unicode="&#x106;" horiz-adv-x="599" d="M330 -12 C422 -12 499 7 547 28 L559 212 L540 212 C525 166 513 124 493 95 C463 52 422 21 335 21 C192 21 118 122 118 360 C118 592 215 672 354 672 C437 672 461 646 488 603 C509 570 521 535 536 492 L556 492 L544 679 C501 692 440 705 365 705 C196 705 35 612 35 341 C35 85 164 -12 330 -12 L330 -12 Z M443 779 C467 785 475 799 475 818 C475 838 460 856 440 856 C431 856 421 853 410 846 L243 743 L249 729 L443 779 Z " />
<glyph glyph-name="cacute" unicode="&#x107;" horiz-adv-x="452" d="M260 -12 C347 -12 406 27 429 50 L429 79 C397 60 348 37 279 37 C159 37 113 119 113 274 C113 425 190 490 275 490 C319 490 328 483 336 436 C341 409 350 394 382 394 C412 394 430 414 430 441 C430 486 392 521 292 521 C192 521 30 459 30 242 C30 96 109 -12 260 -12 L260 -12 Z M361 635 C387 645 394 662 394 677 C394 697 379 714 359 714 C350 714 339 711 326 702 L170 588 L177 574 L361 635 Z " />
<glyph glyph-name="Ccircumflex" unicode="&#x108;" horiz-adv-x="599" d="M330 -12 C422 -12 499 7 547 28 L559 212 L540 212 C525 166 513 124 493 95 C463 52 422 21 335 21 C192 21 118 122 118 360 C118 592 215 672 354 672 C437 672 461 646 488 603 C509 570 521 535 536 492 L556 492 L544 679 C501 692 440 705 365 705 C196 705 35 612 35 341 C35 85 164 -12 330 -12 L330 -12 Z M210 726 L337 787 L468 726 L474 738 L353 856 L324 856 L204 738 L210 726 Z " />
<glyph glyph-name="ccircumflex" unicode="&#x109;" horiz-adv-x="452" d="M260 -12 C347 -12 406 27 429 50 L429 79 C397 60 348 37 279 37 C159 37 113 119 113 274 C113 425 190 490 275 490 C319 490 328 483 336 436 C341 409 350 394 382 394 C412 394 430 414 430 441 C430 486 392 521 292 521 C192 521 30 459 30 242 C30 96 109 -12 260 -12 L260 -12 Z M141 575 L258 646 L379 575 L387 586 L274 715 L245 715 L133 586 L141 575 Z " />
<glyph glyph-name="Cdotaccent" unicode="&#x10a;" horiz-adv-x="599" d="M330 -12 C422 -12 499 7 547 28 L559 212 L540 212 C525 166 513 124 493 95 C463 52 422 21 335 21 C192 21 118 122 118 360 C118 592 215 672 354 672 C437 672 461 646 488 603 C509 570 521 535 536 492 L556 492 L544 679 C501 692 440 705 365 705 C196 705 35 612 35 341 C35 85 164 -12 330 -12 L330 -12 Z M340 739 C367 739 390 765 390 790 C390 817 367 841 340 841 C312 841 289 817 289 790 C289 765 312 739 340 739 L340 739 Z " />
<glyph glyph-name="cdotaccent" unicode="&#x10b;" horiz-adv-x="452" d="M260 -12 C347 -12 406 27 429 50 L429 79 C397 60 348 37 279 37 C159 37 113 119 113 274 C113 425 190 490 275 490 C319 490 328 483 336 436 C341 409 350 394 382 394 C412 394 430 414 430 441 C430 486 392 521 292 521 C192 521 30 459 30 242 C30 96 109 -12 260 -12 L260 -12 Z M261 604 C288 604 311 630 311 655 C311 682 288 706 261 706 C233 706 210 682 210 655 C210 630 233 604 261 604 L261 604 Z " />
<glyph glyph-name="Ccaron" unicode="&#x10c;" horiz-adv-x="599" d="M330 -12 C422 -12 499 7 547 28 L559 212 L540 212 C525 166 513 124 493 95 C463 52 422 21 335 21 C192 21 118 122 118 360 C118 592 215 672 354 672 C437 672 461 646 488 603 C509 570 521 535 536 492 L556 492 L544 679 C501 692 440 705 365 705 C196 705 35 612 35 341 C35 85 164 -12 330 -12 L330 -12 Z M468 860 L341 799 L210 860 L204 848 L325 730 L354 730 L474 848 L468 860 Z " />
<glyph glyph-name="ccaron" unicode="&#x10d;" horiz-adv-x="452" d="M260 -12 C347 -12 406 27 429 50 L429 79 C397 60 348 37 279 37 C159 37 113 119 113 274 C113 425 190 490 275 490 C319 490 328 483 336 436 C341 409 350 394 382 394 C412 394 430 414 430 441 C430 486 392 521 292 521 C192 521 30 459 30 242 C30 96 109 -12 260 -12 L260 -12 Z M246 575 L275 575 L387 705 L379 715 L262 643 L141 715 L133 705 L246 575 Z " />
<glyph glyph-name="Dcaron" unicode="&#x10e;" horiz-adv-x="659" d="M27 0 L293 0 C487 0 628 114 628 351 C628 613 478 693 300 693 L27 693 L27 676 L66 668 C96 662 104 657 104 612 L104 81 C104 36 95 31 66 25 L27 17 L27 0 Z M288 30 C192 30 182 45 182 120 L182 655 C201 660 231 664 286 664 C478 664 547 549 547 334 C547 169 493 30 288 30 L288 30 Z M442 860 L315 799 L184 860 L178 848 L299 730 L328 730 L448 848 L442 860 Z " />
<glyph glyph-name="dcaron" unicode="&#x10f;" horiz-adv-x="559" d="M236 -12 C299 -12 360 14 400 45 L404 45 L402 -7 L408 -12 L544 6 L544 19 L514 33 C482 48 476 51 476 87 L476 630 C476 710 479 749 479 749 L473 755 L332 741 L332 725 L374 706 C395 696 402 694 402 657 L402 508 C383 514 353 521 306 521 C170 521 35 428 35 238 C35 45 139 -12 236 -12 L236 -12 Z M277 36 C178 36 114 104 114 253 C114 424 184 489 298 489 C346 489 378 468 402 447 L402 72 C378 57 338 36 277 36 L277 36 Z M540 571 L599 686 C607 700 610 711 610 720 C610 743 593 755 573 755 C543 755 534 734 533 711 L526 574 L540 571 Z " />
<glyph glyph-name="Dcroat" unicode="&#x110;" horiz-adv-x="659" d="M27 337 L104 337 L104 81 C104 36 95 31 66 25 L27 17 L27 0 L293 0 C487 0 628 114 628 351 C628 613 478 693 300 693 L27 693 L27 676 L66 668 C96 662 104 657 104 612 L104 366 L27 366 L27 337 Z M288 30 C192 30 182 45 182 120 L182 337 L380 337 L380 366 L182 366 L182 655 C201 660 231 664 286 664 C478 664 547 549 547 334 C547 169 493 30 288 30 L288 30 Z " />
<glyph glyph-name="dcroat" unicode="&#x111;" horiz-adv-x="559" d="M233 611 L402 611 L402 508 C383 514 353 521 306 521 C170 521 35 428 35 238 C35 45 139 -12 236 -12 C299 -12 360 14 400 45 L404 45 L402 -7 L408 -12 L544 6 L544 19 L514 33 C482 48 476 51 476 87 L476 611 L544 611 L544 640 L476 640 C476 712 479 749 479 749 L473 755 L332 741 L332 725 L374 706 C395 696 402 694 402 657 L402 640 L233 640 L233 611 Z M277 36 C178 36 114 104 114 253 C114 424 184 489 298 489 C346 489 378 468 402 447 L402 72 C378 57 338 36 277 36 L277 36 Z " />
<glyph glyph-name="Emacron" unicode="&#x112;" horiz-adv-x="566" d="M27 0 L522 0 L537 198 L514 198 C498 147 472 87 459 68 C433 33 417 28 322 28 C185 28 182 30 182 125 L182 345 L237 345 C329 345 352 342 364 310 C374 285 378 271 385 237 L406 237 L406 484 L385 484 C379 452 374 430 364 409 C350 379 315 375 237 375 L182 375 L182 656 C207 662 258 665 307 665 C416 665 424 660 451 620 C460 605 474 572 494 526 L515 526 L502 693 L27 693 L27 676 L66 668 C96 662 104 657 104 612 L104 81 C104 36 95 31 66 25 L27 17 L27 0 Z M175 755 L425 755 L425 799 L175 799 L175 755 Z " />
<glyph glyph-name="emacron" unicode="&#x113;" horiz-adv-x="485" d="M267 -12 C366 -12 423 31 446 53 L446 81 C412 63 370 38 287 38 C182 38 111 110 111 273 L111 276 L454 276 C456 452 384 521 264 521 C135 521 30 414 30 259 C30 101 107 -12 267 -12 L267 -12 Z M261 492 C342 492 370 436 370 312 L112 300 C119 429 179 492 261 492 L261 492 Z M152 600 L374 600 L374 644 L152 644 L152 600 Z " />
<glyph glyph-name="Ebreve" unicode="&#x114;" horiz-adv-x="566" d="M27 0 L522 0 L537 198 L514 198 C498 147 472 87 459 68 C433 33 417 28 322 28 C185 28 182 30 182 125 L182 345 L237 345 C329 345 352 342 364 310 C374 285 378 271 385 237 L406 237 L406 484 L385 484 C379 452 374 430 364 409 C350 379 315 375 237 375 L182 375 L182 656 C207 662 258 665 307 665 C416 665 424 660 451 620 C460 605 474 572 494 526 L515 526 L502 693 L27 693 L27 676 L66 668 C96 662 104 657 104 612 L104 81 C104 36 95 31 66 25 L27 17 L27 0 Z M303 731 C375 731 413 794 416 846 L405 849 C393 816 360 783 302 783 C244 783 208 814 196 849 L185 846 C188 794 229 731 303 731 L303 731 Z " />
<glyph glyph-name="ebreve" unicode="&#x115;" horiz-adv-x="485" d="M267 -12 C366 -12 423 31 446 53 L446 81 C412 63 370 38 287 38 C182 38 111 110 111 273 L111 276 L454 276 C456 452 384 521 264 521 C135 521 30 414 30 259 C30 101 107 -12 267 -12 L267 -12 Z M261 492 C342 492 370 436 370 312 L112 300 C119 429 179 492 261 492 L261 492 Z M266 576 C329 576 368 639 369 691 L358 694 C346 661 316 628 265 628 C214 628 181 659 169 694 L158 691 C159 639 201 576 266 576 L266 576 Z " />
<glyph glyph-name="Edotaccent" unicode="&#x116;" horiz-adv-x="566" d="M27 0 L522 0 L537 198 L514 198 C498 147 472 87 459 68 C433 33 417 28 322 28 C185 28 182 30 182 125 L182 345 L237 345 C329 345 352 342 364 310 C374 285 378 271 385 237 L406 237 L406 484 L385 484 C379 452 374 430 364 409 C350 379 315 375 237 375 L182 375 L182 656 C207 662 258 665 307 665 C416 665 424 660 451 620 C460 605 474 572 494 526 L515 526 L502 693 L27 693 L27 676 L66 668 C96 662 104 657 104 612 L104 81 C104 36 95 31 66 25 L27 17 L27 0 Z M301 739 C328 739 351 765 351 790 C351 817 328 841 301 841 C273 841 250 817 250 790 C250 765 273 739 301 739 L301 739 Z " />
<glyph glyph-name="edotaccent" unicode="&#x117;" horiz-adv-x="485" d="M267 -12 C366 -12 423 31 446 53 L446 81 C412 63 370 38 287 38 C182 38 111 110 111 273 L111 276 L454 276 C456 452 384 521 264 521 C135 521 30 414 30 259 C30 101 107 -12 267 -12 L267 -12 Z M261 492 C342 492 370 436 370 312 L112 300 C119 429 179 492 261 492 L261 492 Z M264 604 C291 604 314 630 314 655 C314 682 291 706 264 706 C236 706 213 682 213 655 C213 630 236 604 264 604 L264 604 Z " />
<glyph glyph-name="Eogonek" unicode="&#x118;" horiz-adv-x="566" d="M27 0 L423 0 C389 -24 325 -75 325 -130 C325 -173 367 -200 415 -200 C440 -200 468 -190 487 -172 L487 -156 C473 -163 458 -167 439 -167 C408 -167 386 -147 386 -116 C386 -72 416 -38 448 0 L522 0 L537 198 L514 198 C498 147 472 87 459 68 C433 33 417 28 322 28 C185 28 182 30 182 125 L182 345 L237 345 C329 345 352 342 364 310 C374 285 378 271 385 237 L406 237 L406 484 L385 484 C379 452 374 430 364 409 C350 379 315 375 237 375 L182 375 L182 656 C207 662 258 665 307 665 C416 665 424 660 451 620 C460 605 474 572 494 526 L515 526 L502 693 L27 693 L27 676 L66 668 C96 662 104 657 104 612 L104 81 C104 36 95 31 66 25 L27 17 L27 0 Z " />
<glyph glyph-name="eogonek" unicode="&#x119;" horiz-adv-x="485" d="M302 -200 C327 -200 355 -190 374 -172 L374 -156 C360 -163 345 -167 326 -167 C295 -167 273 -147 273 -116 C273 -32 396 7 446 53 L446 81 C412 63 370 38 287 38 C182 38 111 110 111 273 L111 276 L454 276 C456 452 384 521 264 521 C135 521 30 414 30 259 C30 101 107 -12 267 -12 C280 -12 301 -11 315 -9 C271 -35 212 -79 212 -130 C212 -173 254 -200 302 -200 L302 -200 Z M261 492 C342 492 370 436 370 312 L112 300 C119 429 179 492 261 492 L261 492 Z " />
<glyph glyph-name="Ecaron" unicode="&#x11a;" horiz-adv-x="566" d="M27 0 L522 0 L537 198 L514 198 C498 147 472 87 459 68 C433 33 417 28 322 28 C185 28 182 30 182 125 L182 345 L237 345 C329 345 352 342 364 310 C374 285 378 271 385 237 L406 237 L406 484 L385 484 C379 452 374 430 364 409 C350 379 315 375 237 375 L182 375 L182 656 C207 662 258 665 307 665 C416 665 424 660 451 620 C460 605 474 572 494 526 L515 526 L502 693 L27 693 L27 676 L66 668 C96 662 104 657 104 612 L104 81 C104 36 95 31 66 25 L27 17 L27 0 Z M429 860 L302 799 L171 860 L165 848 L286 730 L315 730 L435 848 L429 860 Z " />
<glyph glyph-name="ecaron" unicode="&#x11b;" horiz-adv-x="485" d="M267 -12 C366 -12 423 31 446 53 L446 81 C412 63 370 38 287 38 C182 38 111 110 111 273 L111 276 L454 276 C456 452 384 521 264 521 C135 521 30 414 30 259 C30 101 107 -12 267 -12 L267 -12 Z M261 492 C342 492 370 436 370 312 L112 300 C119 429 179 492 261 492 L261 492 Z M249 575 L278 575 L390 705 L382 715 L265 643 L144 715 L136 705 L249 575 Z " />
<glyph glyph-name="Gcircumflex" unicode="&#x11c;" horiz-adv-x="654" d="M498 51 C469 37 424 21 360 21 C188 21 116 144 116 366 C116 593 212 672 364 672 C452 672 472 653 502 611 C513 596 533 560 552 494 L573 494 L561 679 C508 692 454 705 377 705 C208 705 35 625 35 339 C35 99 160 -12 361 -12 C459 -12 533 11 576 23 L576 207 C576 243 580 246 606 253 L643 262 L643 279 L418 279 L418 262 L461 254 C495 248 498 243 498 198 L498 51 Z M224 726 L351 787 L482 726 L488 738 L367 856 L338 856 L218 738 L224 726 Z " />
<glyph glyph-name="gcircumflex" unicode="&#x11d;" horiz-adv-x="470" d="M195 -196 C401 -196 453 -83 453 -14 C453 58 405 102 314 102 L163 102 C118 102 99 115 99 145 C99 171 119 190 135 200 C159 190 183 185 214 185 C299 185 399 235 399 354 C399 412 376 460 334 485 L334 488 C358 502 389 508 399 483 C405 469 417 460 435 460 C458 460 472 474 472 499 C472 524 454 541 422 541 C376 541 341 519 314 496 C284 512 250 521 214 521 C129 521 29 466 29 346 C29 284 69 231 109 213 L109 209 C77 187 42 154 42 113 C42 72 69 50 99 38 L99 35 C33 12 -13 -22 -13 -75 C-13 -145 69 -196 195 -196 L195 -196 Z M210 -167 C116 -167 66 -134 66 -61 C66 -2 109 26 144 33 L299 33 C369 33 398 7 398 -43 C398 -135 300 -167 210 -167 L210 -167 Z M214 211 C147 211 109 255 109 359 C109 451 148 494 214 494 C281 494 319 445 319 341 C319 250 280 211 214 211 L214 211 Z M112 575 L229 646 L350 575 L358 586 L245 715 L216 715 L104 586 L112 575 Z " />
<glyph glyph-name="Gbreve" unicode="&#x11e;" horiz-adv-x="654" d="M498 51 C469 37 424 21 360 21 C188 21 116 144 116 366 C116 593 212 672 364 672 C452 672 472 653 502 611 C513 596 533 560 552 494 L573 494 L561 679 C508 692 454 705 377 705 C208 705 35 625 35 339 C35 99 160 -12 361 -12 C459 -12 533 11 576 23 L576 207 C576 243 580 246 606 253 L643 262 L643 279 L418 279 L418 262 L461 254 C495 248 498 243 498 198 L498 51 Z M356 731 C428 731 466 794 469 846 L458 849 C446 816 413 783 355 783 C297 783 261 814 249 849 L238 846 C241 794 282 731 356 731 L356 731 Z " />
<glyph glyph-name="gbreve" unicode="&#x11f;" horiz-adv-x="470" d="M195 -196 C401 -196 453 -83 453 -14 C453 58 405 102 314 102 L163 102 C118 102 99 115 99 145 C99 171 119 190 135 200 C159 190 183 185 214 185 C299 185 399 235 399 354 C399 412 376 460 334 485 L334 488 C358 502 389 508 399 483 C405 469 417 460 435 460 C458 460 472 474 472 499 C472 524 454 541 422 541 C376 541 341 519 314 496 C284 512 250 521 214 521 C129 521 29 466 29 346 C29 284 69 231 109 213 L109 209 C77 187 42 154 42 113 C42 72 69 50 99 38 L99 35 C33 12 -13 -22 -13 -75 C-13 -145 69 -196 195 -196 L195 -196 Z M210 -167 C116 -167 66 -134 66 -61 C66 -2 109 26 144 33 L299 33 C369 33 398 7 398 -43 C398 -135 300 -167 210 -167 L210 -167 Z M214 211 C147 211 109 255 109 359 C109 451 148 494 214 494 C281 494 319 445 319 341 C319 250 280 211 214 211 L214 211 Z M234 576 C297 576 336 639 337 691 L326 694 C314 661 284 628 233 628 C182 628 149 659 137 694 L126 691 C127 639 169 576 234 576 L234 576 Z " />
<glyph glyph-name="Gdotaccent" unicode="&#x120;" horiz-adv-x="654" d="M498 51 C469 37 424 21 360 21 C188 21 116 144 116 366 C116 593 212 672 364 672 C452 672 472 653 502 611 C513 596 533 560 552 494 L573 494 L561 679 C508 692 454 705 377 705 C208 705 35 625 35 339 C35 99 160 -12 361 -12 C459 -12 533 11 576 23 L576 207 C576 243 580 246 606 253 L643 262 L643 279 L418 279 L418 262 L461 254 C495 248 498 243 498 198 L498 51 Z M354 739 C381 739 404 765 404 790 C404 817 381 841 354 841 C326 841 303 817 303 790 C303 765 326 739 354 739 L354 739 Z " />
<glyph glyph-name="gdotaccent" unicode="&#x121;" horiz-adv-x="470" d="M195 -196 C401 -196 453 -83 453 -14 C453 58 405 102 314 102 L163 102 C118 102 99 115 99 145 C99 171 119 190 135 200 C159 190 183 185 214 185 C299 185 399 235 399 354 C399 412 376 460 334 485 L334 488 C358 502 389 508 399 483 C405 469 417 460 435 460 C458 460 472 474 472 499 C472 524 454 541 422 541 C376 541 341 519 314 496 C284 512 250 521 214 521 C129 521 29 466 29 346 C29 284 69 231 109 213 L109 209 C77 187 42 154 42 113 C42 72 69 50 99 38 L99 35 C33 12 -13 -22 -13 -75 C-13 -145 69 -196 195 -196 L195 -196 Z M210 -167 C116 -167 66 -134 66 -61 C66 -2 109 26 144 33 L299 33 C369 33 398 7 398 -43 C398 -135 300 -167 210 -167 L210 -167 Z M214 211 C147 211 109 255 109 359 C109 451 148 494 214 494 C281 494 319 445 319 341 C319 250 280 211 214 211 L214 211 Z M232 604 C259 604 282 630 282 655 C282 682 259 706 232 706 C204 706 181 682 181 655 C181 630 204 604 232 604 L232 604 Z " />
<glyph glyph-name="Gcommaaccent" unicode="&#x122;" horiz-adv-x="654" d="M498 51 C469 37 424 21 360 21 C188 21 116 144 116 366 C116 593 212 672 364 672 C452 672 472 653 502 611 C513 596 533 560 552 494 L573 494 L561 679 C508 692 454 705 377 705 C208 705 35 625 35 339 C35 99 160 -12 361 -12 C459 -12 533 11 576 23 L576 207 C576 243 580 246 606 253 L643 262 L643 279 L418 279 L418 262 L461 254 C495 248 498 243 498 198 L498 51 Z M289 -211 C358 -196 389 -156 389 -111 C389 -70 366 -49 334 -49 C307 -49 288 -70 288 -91 C288 -113 303 -131 327 -131 C337 -131 344 -127 348 -124 C348 -154 332 -176 283 -197 L289 -211 Z " />
<glyph glyph-name="gcommaaccent" unicode="&#x123;" horiz-adv-x="470" d="M195 -196 C401 -196 453 -83 453 -14 C453 58 405 102 314 102 L163 102 C118 102 99 115 99 145 C99 171 119 190 135 200 C159 190 183 185 214 185 C299 185 399 235 399 354 C399 412 376 460 334 485 L334 488 C358 502 389 508 399 483 C405 469 417 460 435 460 C458 460 472 474 472 499 C472 524 454 541 422 541 C376 541 341 519 314 496 C284 512 250 521 214 521 C129 521 29 466 29 346 C29 284 69 231 109 213 L109 209 C77 187 42 154 42 113 C42 72 69 50 99 38 L99 35 C33 12 -13 -22 -13 -75 C-13 -145 69 -196 195 -196 L195 -196 Z M210 -167 C116 -167 66 -134 66 -61 C66 -2 109 26 144 33 L299 33 C369 33 398 7 398 -43 C398 -135 300 -167 210 -167 L210 -167 Z M214 211 C147 211 109 255 109 359 C109 451 148 494 214 494 C281 494 319 445 319 341 C319 250 280 211 214 211 L214 211 Z M274 763 C205 748 174 708 174 663 C174 622 197 601 229 601 C256 601 275 622 275 643 C275 665 260 683 236 683 C226 683 219 679 215 676 C215 706 231 728 280 749 L274 763 Z " />
<glyph glyph-name="Hcircumflex" unicode="&#x124;" horiz-adv-x="692" d="M27 0 L262 0 L262 17 L219 25 C185 31 182 36 182 81 L182 337 L510 337 L510 81 C510 36 507 30 472 24 L430 17 L430 0 L665 0 L665 17 L625 25 C594 31 588 36 588 81 L588 612 C588 657 594 662 625 668 L665 676 L665 693 L430 693 L430 676 L472 668 C506 662 510 657 510 612 L510 369 L182 369 L182 612 C182 657 186 662 219 668 L262 676 L262 693 L27 693 L27 676 L66 668 C96 662 104 657 104 612 L104 81 C104 36 95 31 66 25 L27 17 L27 0 Z M217 726 L344 787 L475 726 L481 738 L360 856 L331 856 L211 738 L217 726 Z " />
<glyph glyph-name="hcircumflex" unicode="&#x125;" horiz-adv-x="562" d="M23 0 L233 0 L233 16 L198 25 C169 32 163 39 163 78 L163 438 C196 450 251 470 318 470 C382 470 405 445 405 371 L405 78 C405 39 399 33 370 25 L336 16 L336 0 L546 0 L546 16 L512 25 C483 33 479 41 479 78 L479 388 C479 478 448 521 346 521 C287 521 213 491 164 460 L161 460 C161 460 163 503 163 544 L163 630 C163 697 167 749 167 749 L161 755 L18 741 L18 725 L51 709 C83 694 89 691 89 655 L89 78 C89 41 85 33 56 25 L23 16 L23 0 Z M159 776 L286 837 L417 776 L423 788 L302 906 L273 906 L153 788 L159 776 Z " />
<glyph glyph-name="Hbar" unicode="&#x126;" horiz-adv-x="692" d="M19 498 L104 498 L104 81 C104 36 95 31 66 25 L27 17 L27 0 L262 0 L262 17 L219 25 C185 31 182 36 182 81 L182 337 L510 337 L510 81 C510 36 507 30 472 24 L430 17 L430 0 L665 0 L665 17 L625 25 C594 31 588 36 588 81 L588 498 L673 498 L673 527 L588 527 L588 612 C588 657 594 662 625 668 L665 676 L665 693 L430 693 L430 676 L472 668 C506 662 510 657 510 612 L510 527 L182 527 L182 612 C182 657 186 662 219 668 L262 676 L262 693 L27 693 L27 676 L66 668 C96 662 104 657 104 612 L104 527 L19 527 L19 498 Z M182 369 L182 498 L510 498 L510 369 L182 369 Z " />
<glyph glyph-name="hbar" unicode="&#x127;" horiz-adv-x="562" d="M23 0 L233 0 L233 16 L198 25 C169 32 163 39 163 78 L163 438 C196 450 251 470 318 470 C382 470 405 445 405 371 L405 78 C405 39 399 33 370 25 L336 16 L336 0 L546 0 L546 16 L512 25 C483 33 479 41 479 78 L479 388 C479 478 448 521 346 521 C287 521 213 491 164 460 L161 460 C161 460 163 503 163 544 L163 611 L322 611 L322 640 L163 640 C163 702 167 749 167 749 L161 755 L18 741 L18 725 L51 709 C83 694 89 691 89 655 L89 640 L11 640 L11 611 L89 611 L89 78 C89 41 85 33 56 25 L23 16 L23 0 Z " />
<glyph glyph-name="Itilde" unicode="&#x128;" horiz-adv-x="292" d="M107 81 C107 36 104 31 70 25 L27 17 L27 0 L265 0 L265 17 L222 25 C188 31 185 36 185 81 L185 612 C185 657 188 662 222 668 L265 676 L265 693 L27 693 L27 676 L70 668 C104 662 107 657 107 612 L107 81 Z M14 726 C29 752 42 770 68 770 C110 770 180 743 225 743 C266 743 286 786 311 839 L295 846 C280 819 266 802 239 802 C200 802 124 829 82 829 C41 829 21 785 -3 732 L14 726 Z " />
<glyph glyph-name="itilde" unicode="&#x129;" horiz-adv-x="245" d="M23 0 L229 0 L229 16 L196 25 C168 33 163 39 163 78 L163 410 C163 477 167 516 167 516 L161 519 L24 499 L24 485 L51 472 C83 457 89 454 89 418 L89 78 C89 41 85 33 56 25 L23 16 L23 0 Z M-4 576 C11 602 24 620 50 620 C86 620 145 593 187 593 C228 593 248 636 273 689 L257 696 C242 669 228 652 201 652 C168 652 104 679 64 679 C23 679 3 635 -21 582 L-4 576 Z " />
<glyph glyph-name="Imacron" unicode="&#x12a;" horiz-adv-x="292" d="M107 81 C107 36 104 31 70 25 L27 17 L27 0 L265 0 L265 17 L222 25 C188 31 185 36 185 81 L185 612 C185 657 188 662 222 668 L265 676 L265 693 L27 693 L27 676 L70 668 C104 662 107 657 107 612 L107 81 Z M21 755 L271 755 L271 799 L21 799 L21 755 Z " />
<glyph glyph-name="imacron" unicode="&#x12b;" horiz-adv-x="245" d="M23 0 L229 0 L229 16 L196 25 C168 33 163 39 163 78 L163 410 C163 477 167 516 167 516 L161 519 L24 499 L24 485 L51 472 C83 457 89 454 89 418 L89 78 C89 41 85 33 56 25 L23 16 L23 0 Z M15 600 L214 600 L214 644 L15 644 L15 600 Z " />
<glyph glyph-name="Ibreve" unicode="&#x12c;" horiz-adv-x="292" d="M107 81 C107 36 104 31 70 25 L27 17 L27 0 L265 0 L265 17 L222 25 C188 31 185 36 185 81 L185 612 C185 657 188 662 222 668 L265 676 L265 693 L27 693 L27 676 L70 668 C104 662 107 657 107 612 L107 81 Z M149 731 C221 731 259 794 262 846 L251 849 C239 816 206 783 148 783 C90 783 54 814 42 849 L31 846 C34 794 75 731 149 731 L149 731 Z " />
<glyph glyph-name="ibreve" unicode="&#x12d;" horiz-adv-x="245" d="M23 0 L229 0 L229 16 L196 25 C168 33 163 39 163 78 L163 410 C163 477 167 516 167 516 L161 519 L24 499 L24 485 L51 472 C83 457 89 454 89 418 L89 78 C89 41 85 33 56 25 L23 16 L23 0 Z M129 576 C192 576 231 639 232 691 L221 694 C209 661 179 628 128 628 C77 628 44 659 32 694 L21 691 C22 639 64 576 129 576 L129 576 Z " />
<glyph glyph-name="Iogonek" unicode="&#x12e;" horiz-adv-x="292" d="M149 -200 C174 -200 202 -190 221 -172 L221 -156 C207 -163 192 -167 173 -167 C142 -167 120 -147 120 -112 C120 -73 143 -36 173 0 L265 0 L265 17 L222 25 C188 31 185 36 185 81 L185 612 C185 657 188 662 222 668 L265 676 L265 693 L27 693 L27 676 L70 668 C104 662 107 657 107 612 L107 81 C107 36 104 31 70 25 L27 17 L27 0 L149 0 C115 -26 59 -75 59 -123 C59 -173 101 -200 149 -200 L149 -200 Z " />
<glyph glyph-name="iogonek" unicode="&#x12f;" horiz-adv-x="245" d="M23 0 L138 0 C104 -26 48 -75 48 -123 C48 -173 90 -200 138 -200 C163 -200 191 -190 210 -172 L210 -156 C196 -163 181 -167 162 -167 C131 -167 109 -147 109 -112 C109 -73 132 -36 162 0 L229 0 L229 16 L196 25 C168 33 163 39 163 78 L163 410 C163 477 167 516 167 516 L161 519 L24 499 L24 485 L51 472 C83 457 89 454 89 418 L89 78 C89 41 85 33 56 25 L23 16 L23 0 Z M123 604 C150 604 173 630 173 655 C173 682 150 706 123 706 C95 706 72 682 72 655 C72 630 95 604 123 604 L123 604 Z " />
<glyph glyph-name="Idotaccent" unicode="&#x130;" horiz-adv-x="292" d="M107 81 C107 36 104 31 70 25 L27 17 L27 0 L265 0 L265 17 L222 25 C188 31 185 36 185 81 L185 612 C185 657 188 662 222 668 L265 676 L265 693 L27 693 L27 676 L70 668 C104 662 107 657 107 612 L107 81 Z M147 739 C174 739 197 765 197 790 C197 817 174 841 147 841 C119 841 96 817 96 790 C96 765 119 739 147 739 L147 739 Z " />
<glyph glyph-name="dotlessi" unicode="&#x131;" horiz-adv-x="245" d="M23 0 L229 0 L229 16 L196 25 C168 33 163 39 163 78 L163 410 C163 477 167 516 167 516 L161 519 L24 499 L24 485 L51 472 C83 457 89 454 89 418 L89 78 C89 41 85 33 56 25 L23 16 L23 0 Z " />
<glyph glyph-name="IJ" unicode="&#x132;" horiz-adv-x="580" d="M107 81 C107 36 104 31 70 25 L27 17 L27 0 L265 0 L265 17 L222 25 C188 31 185 36 185 81 L185 612 C185 657 188 662 222 668 L265 676 L265 693 L27 693 L27 676 L70 668 C104 662 107 657 107 612 L107 81 Z M297 -156 C422 -156 477 -67 477 56 L477 612 C477 657 480 662 512 668 L553 676 L553 693 L319 693 L319 676 L362 668 C396 662 399 657 399 612 L399 33 C399 -92 368 -127 330 -127 C316 -127 312 -121 308 -104 C301 -75 293 -55 256 -55 C221 -55 209 -74 209 -93 C209 -132 243 -156 297 -156 L297 -156 Z " />
<glyph glyph-name="ij" unicode="&#x133;" horiz-adv-x="478" d="M23 0 L229 0 L229 16 L196 25 C168 33 163 39 163 78 L163 410 C163 477 167 516 167 516 L161 519 L24 499 L24 485 L51 472 C83 457 89 454 89 418 L89 78 C89 41 85 33 56 25 L23 16 L23 0 Z M123 604 C150 604 173 630 173 655 C173 682 150 706 123 706 C95 706 72 682 72 655 C72 630 95 604 123 604 L123 604 Z M240 -201 C327 -201 402 -154 402 0 L402 411 C402 477 406 516 406 516 L400 519 L263 499 L263 485 L290 472 C322 457 328 454 328 418 L328 -99 C328 -149 308 -173 279 -173 C263 -173 259 -170 255 -143 C251 -117 240 -107 214 -107 C184 -107 169 -125 169 -145 C169 -174 190 -201 240 -201 L240 -201 Z M359 604 C387 604 409 630 409 655 C409 682 387 706 359 706 C332 706 309 682 309 655 C309 630 332 604 359 604 L359 604 Z " />
<glyph glyph-name="Jcircumflex" unicode="&#x134;" horiz-adv-x="288" d="M5 -156 C130 -156 185 -67 185 56 L185 612 C185 657 188 662 220 668 L261 676 L261 693 L27 693 L27 676 L70 668 C104 662 107 657 107 612 L107 33 C107 -92 76 -127 38 -127 C24 -127 20 -121 16 -104 C9 -75 1 -55 -36 -55 C-71 -55 -83 -74 -83 -93 C-83 -132 -49 -156 5 -156 L5 -156 Z M17 726 L144 787 L275 726 L281 738 L160 856 L131 856 L11 738 L17 726 Z " />
<glyph glyph-name="jcircumflex" unicode="&#x135;" horiz-adv-x="239" d="M1 -201 C88 -201 163 -154 163 0 L163 411 C163 477 167 516 167 516 L161 519 L24 499 L24 485 L51 472 C83 457 89 454 89 418 L89 -99 C89 -149 69 -173 40 -173 C24 -173 20 -170 16 -143 C12 -117 1 -107 -25 -107 C-55 -107 -70 -125 -70 -145 C-70 -174 -49 -201 1 -201 L1 -201 Z M5 575 L122 646 L243 575 L251 586 L138 715 L109 715 L-3 586 L5 575 Z " />
<glyph glyph-name="Kcommaaccent" unicode="&#x136;" horiz-adv-x="599" d="M472 0 L601 0 L601 17 L575 24 C553 29 546 33 525 56 C458 127 344 277 277 390 L463 599 C510 651 522 662 553 670 L579 676 L579 693 L372 693 L372 676 L407 666 C431 659 442 653 442 638 C442 629 438 619 426 605 L217 361 L217 350 C284 232 383 95 472 0 L472 0 Z M182 612 C182 657 186 662 219 668 L262 676 L262 693 L27 693 L27 676 L66 668 C96 662 104 657 104 612 L104 81 C104 36 95 31 66 25 L27 17 L27 0 L262 0 L263 17 L219 25 C185 31 182 36 182 81 L182 612 Z M272 -211 C341 -196 372 -156 372 -111 C372 -70 349 -49 317 -49 C290 -49 271 -70 271 -91 C271 -113 286 -131 310 -131 C320 -131 327 -127 331 -124 C331 -154 315 -176 266 -197 L272 -211 Z " />
<glyph glyph-name="kcommaaccent" unicode="&#x137;" horiz-adv-x="497" d="M391 0 L500 0 L500 16 L478 22 C463 26 457 31 445 43 C376 115 299 208 241 291 L354 416 C391 456 404 467 443 480 L469 489 L469 505 L309 505 L309 490 L326 484 C340 479 345 475 345 467 C345 457 337 439 295 391 L181 259 L181 255 C254 152 309 83 391 0 L391 0 Z M23 0 L234 0 L234 16 L198 25 C169 32 163 39 163 78 L163 630 C163 697 167 749 167 749 L161 755 L18 741 L18 725 L51 709 C83 693 89 691 89 657 L89 78 C89 41 85 33 56 25 L23 16 L23 0 Z M219 -211 C288 -196 319 -156 319 -111 C319 -70 296 -49 264 -49 C237 -49 218 -70 218 -91 C218 -113 233 -131 257 -131 C267 -131 274 -127 278 -124 C278 -154 262 -176 213 -197 L219 -211 Z " />
<glyph glyph-name="Lacute" unicode="&#x139;" horiz-adv-x="530" d="M504 0 L516 206 L493 206 C476 142 450 89 437 73 C410 36 395 28 299 28 C185 28 182 40 182 108 L182 612 C182 657 186 662 219 668 L262 676 L262 693 L27 693 L27 676 L66 668 C96 662 104 657 104 612 L104 81 C104 36 95 31 66 25 L27 17 L27 0 L504 0 Z M246 779 C270 785 278 799 278 818 C278 838 263 856 243 856 C234 856 224 853 213 846 L46 743 L52 729 L246 779 Z " />
<glyph glyph-name="lacute" unicode="&#x13a;" horiz-adv-x="245" d="M23 0 L229 0 L229 16 L196 25 C168 33 163 39 163 78 L163 630 C163 697 167 749 167 749 L160 755 L18 741 L18 725 L51 709 C83 693 89 691 89 657 L89 78 C89 41 85 33 56 25 L23 16 L23 0 Z M227 829 C251 835 259 849 259 868 C259 888 244 906 224 906 C215 906 205 903 194 896 L27 793 L33 779 L227 829 Z " />
<glyph glyph-name="Lcommaaccent" unicode="&#x13b;" horiz-adv-x="530" d="M504 0 L516 206 L493 206 C476 142 450 89 437 73 C410 36 395 28 299 28 C185 28 182 40 182 108 L182 612 C182 657 186 662 219 668 L262 676 L262 693 L27 693 L27 676 L66 668 C96 662 104 657 104 612 L104 81 C104 36 95 31 66 25 L27 17 L27 0 L504 0 Z M246 -211 C315 -196 346 -156 346 -111 C346 -70 323 -49 291 -49 C264 -49 245 -70 245 -91 C245 -113 260 -131 284 -131 C294 -131 301 -127 305 -124 C305 -154 289 -176 240 -197 L246 -211 Z " />
<glyph glyph-name="lcommaaccent" unicode="&#x13c;" horiz-adv-x="245" d="M23 0 L229 0 L229 16 L196 25 C168 33 163 39 163 78 L163 630 C163 697 167 749 167 749 L160 755 L18 741 L18 725 L51 709 C83 693 89 691 89 657 L89 78 C89 41 85 33 56 25 L23 16 L23 0 Z M75 -211 C144 -196 175 -156 175 -111 C175 -70 152 -49 120 -49 C93 -49 74 -70 74 -91 C74 -113 89 -131 113 -131 C123 -131 130 -127 134 -124 C134 -154 118 -176 69 -197 L75 -211 Z " />
<glyph glyph-name="Lcaron" unicode="&#x13d;" horiz-adv-x="530" d="M335 516 L396 641 C403 655 406 666 406 675 C406 698 389 710 369 710 C339 710 330 689 329 666 L321 519 L335 516 Z M504 0 L516 206 L493 206 C476 142 450 89 437 73 C410 36 395 28 299 28 C185 28 182 40 182 108 L182 612 C182 657 186 662 219 668 L262 676 L262 693 L27 693 L27 676 L66 668 C96 662 104 657 104 612 L104 81 C104 36 95 31 66 25 L27 17 L27 0 L504 0 Z " />
<glyph glyph-name="lcaron" unicode="&#x13e;" horiz-adv-x="245" d="M23 0 L229 0 L229 16 L196 25 C168 33 163 39 163 78 L163 630 C163 697 167 749 167 749 L160 755 L18 741 L18 725 L51 709 C83 693 89 691 89 657 L89 78 C89 41 85 33 56 25 L23 16 L23 0 Z M227 571 L286 686 C294 700 297 711 297 720 C297 743 280 755 260 755 C230 755 221 734 220 711 L213 574 L227 571 Z " />
<glyph glyph-name="Ldot" unicode="&#x13f;" horiz-adv-x="530" d="M504 0 L516 206 L493 206 C476 142 450 89 437 73 C410 36 395 28 299 28 C185 28 182 40 182 108 L182 612 C182 657 186 662 219 668 L262 676 L262 693 L27 693 L27 676 L66 668 C96 662 104 657 104 612 L104 81 C104 36 95 31 66 25 L27 17 L27 0 L504 0 Z M444 320 C472 320 497 343 497 371 C497 400 472 422 444 422 C416 422 392 400 392 371 C392 343 416 320 444 320 L444 320 Z " />
<glyph glyph-name="ldot" unicode="&#x140;" horiz-adv-x="276" d="M23 0 L229 0 L229 16 L196 25 C168 33 163 39 163 78 L163 630 C163 697 167 749 167 749 L160 755 L18 741 L18 725 L51 709 C83 693 89 691 89 657 L89 78 C89 41 85 33 56 25 L23 16 L23 0 Z M264 303 C288 303 309 323 309 347 C309 372 288 391 264 391 C240 391 219 372 219 347 C219 323 240 303 264 303 L264 303 Z " />
<glyph glyph-name="Lslash" unicode="&#x141;" horiz-adv-x="528" d="M13 247 L104 288 L104 81 C104 36 95 31 66 25 L27 17 L27 0 L504 0 L516 206 L493 206 C476 142 450 89 437 73 C410 36 395 29 299 29 C185 29 182 40 182 108 L182 323 L375 410 L375 446 L182 359 L182 612 C182 657 186 662 219 668 L262 676 L262 693 L27 693 L27 676 L66 668 C96 662 104 657 104 612 L104 324 L13 283 L13 247 Z " />
<glyph glyph-name="lslash" unicode="&#x142;" horiz-adv-x="245" d="M10 321 L89 365 L89 78 C89 41 85 33 56 25 L23 16 L23 0 L229 0 L229 16 L196 25 C168 33 163 39 163 78 L163 407 L245 453 L245 488 L163 441 L163 627 C163 694 167 746 167 746 L160 752 L18 738 L18 722 L51 706 C83 690 89 688 89 654 L89 399 L10 355 L10 321 Z " />
<glyph glyph-name="Nacute" unicode="&#x143;" horiz-adv-x="664" d="M143 618 L146 618 L533 -5 L572 -5 L572 597 C572 639 577 658 610 666 L649 676 L649 693 L446 693 L446 676 L496 666 C529 659 533 640 533 596 L533 143 L530 143 L190 693 L27 693 L27 676 L66 668 C96 662 104 657 104 612 L104 97 C104 52 95 36 66 28 L27 17 L27 0 L223 0 L223 17 L180 28 C147 37 143 52 143 97 L143 618 Z M454 779 C478 785 486 799 486 818 C486 838 471 856 451 856 C442 856 432 853 421 846 L254 743 L260 729 L454 779 Z " />
<glyph glyph-name="nacute" unicode="&#x144;" horiz-adv-x="562" d="M479 388 C479 478 448 521 346 521 C287 521 213 491 165 461 L162 461 L164 516 L157 519 L24 499 L24 485 L51 472 C83 457 89 454 89 418 L89 78 C89 41 85 33 56 25 L23 16 L23 0 L233 0 L233 16 L198 25 C169 32 163 39 163 78 L163 438 C196 450 251 470 318 470 C382 470 405 445 405 371 L405 78 C405 39 399 33 370 25 L336 16 L336 0 L546 0 L546 16 L512 25 C483 33 479 41 479 78 L479 388 Z M383 635 C409 645 416 662 416 677 C416 697 401 714 381 714 C372 714 361 711 348 702 L192 588 L199 574 L383 635 Z " />
<glyph glyph-name="Ncommaaccent" unicode="&#x145;" horiz-adv-x="664" d="M143 618 L146 618 L533 -5 L572 -5 L572 597 C572 639 577 658 610 666 L649 676 L649 693 L446 693 L446 676 L496 666 C529 659 533 640 533 596 L533 143 L530 143 L190 693 L27 693 L27 676 L66 668 C96 662 104 657 104 612 L104 97 C104 52 95 36 66 28 L27 17 L27 0 L223 0 L223 17 L180 28 C147 37 143 52 143 97 L143 618 Z M290 -211 C359 -196 390 -156 390 -111 C390 -70 367 -49 335 -49 C308 -49 289 -70 289 -91 C289 -113 304 -131 328 -131 C338 -131 345 -127 349 -124 C349 -154 333 -176 284 -197 L290 -211 Z " />
<glyph glyph-name="ncommaaccent" unicode="&#x146;" horiz-adv-x="562" d="M479 388 C479 478 448 521 346 521 C287 521 213 491 165 461 L162 461 L164 516 L157 519 L24 499 L24 485 L51 472 C83 457 89 454 89 418 L89 78 C89 41 85 33 56 25 L23 16 L23 0 L233 0 L233 16 L198 25 C169 32 163 39 163 78 L163 438 C196 450 251 470 318 470 C382 470 405 445 405 371 L405 78 C405 39 399 33 370 25 L336 16 L336 0 L546 0 L546 16 L512 25 C483 33 479 41 479 78 L479 388 Z M234 -211 C303 -196 334 -156 334 -111 C334 -70 311 -49 279 -49 C252 -49 233 -70 233 -91 C233 -113 248 -131 272 -131 C282 -131 289 -127 293 -124 C293 -154 277 -176 228 -197 L234 -211 Z " />
<glyph glyph-name="Ncaron" unicode="&#x147;" horiz-adv-x="664" d="M143 618 L146 618 L533 -5 L572 -5 L572 597 C572 639 577 658 610 666 L649 676 L649 693 L446 693 L446 676 L496 666 C529 659 533 640 533 596 L533 143 L530 143 L190 693 L27 693 L27 676 L66 668 C96 662 104 657 104 612 L104 97 C104 52 95 36 66 28 L27 17 L27 0 L223 0 L223 17 L180 28 C147 37 143 52 143 97 L143 618 Z M479 860 L352 799 L221 860 L215 848 L336 730 L365 730 L485 848 L479 860 Z " />
<glyph glyph-name="ncaron" unicode="&#x148;" horiz-adv-x="562" d="M479 388 C479 478 448 521 346 521 C287 521 213 491 165 461 L162 461 L164 516 L157 519 L24 499 L24 485 L51 472 C83 457 89 454 89 418 L89 78 C89 41 85 33 56 25 L23 16 L23 0 L233 0 L233 16 L198 25 C169 32 163 39 163 78 L163 438 C196 450 251 470 318 470 C382 470 405 445 405 371 L405 78 C405 39 399 33 370 25 L336 16 L336 0 L546 0 L546 16 L512 25 C483 33 479 41 479 78 L479 388 Z M268 575 L297 575 L409 705 L401 715 L284 643 L163 715 L155 705 L268 575 Z " />
<glyph glyph-name="napostrophe" unicode="&#x149;" horiz-adv-x="602" d="M-19 514 C55 534 90 579 90 640 C90 679 64 706 32 706 C5 706 -17 687 -17 661 C-17 636 2 615 27 615 C38 615 45 620 47 621 C47 580 27 554 -25 529 L-19 514 Z M519 388 C519 478 488 521 386 521 C327 521 253 491 205 461 L202 461 L204 516 L197 519 L64 499 L64 485 L91 472 C123 457 129 454 129 418 L129 78 C129 41 125 33 96 25 L63 16 L63 0 L273 0 L273 16 L238 25 C209 32 203 39 203 78 L203 438 C236 450 291 470 358 470 C422 470 445 445 445 371 L445 78 C445 39 439 33 410 25 L376 16 L376 0 L586 0 L586 16 L552 25 C523 33 519 41 519 78 L519 388 Z " />
<glyph glyph-name="Eng" unicode="&#x14a;" horiz-adv-x="664" d="M143 618 L146 618 L533 -5 C532 -91 499 -126 464 -126 C452 -126 446 -121 442 -106 C433 -73 423 -55 389 -55 C356 -55 342 -72 342 -96 C342 -127 365 -156 429 -156 C529 -156 572 -94 572 4 L572 597 C572 639 577 658 610 666 L649 676 L649 693 L446 693 L446 676 L496 666 C529 659 533 640 533 596 L533 143 L530 143 L190 693 L27 693 L27 676 L66 668 C96 662 104 657 104 612 L104 97 C104 52 95 36 66 28 L27 17 L27 0 L223 0 L223 17 L180 28 C147 37 143 52 143 97 L143 618 Z " />
<glyph glyph-name="eng" unicode="&#x14b;" horiz-adv-x="548" d="M479 0 L479 388 C479 478 448 521 346 521 C287 521 213 491 165 461 L162 461 L164 516 L157 519 L24 499 L24 485 L51 472 C83 457 89 454 89 418 L89 78 C89 41 85 33 56 25 L23 16 L23 0 L233 0 L233 16 L198 25 C169 32 163 39 163 78 L163 438 C196 450 251 470 318 470 C382 470 405 445 405 371 L405 -99 C405 -149 385 -173 356 -173 C340 -173 336 -170 332 -143 C328 -117 317 -107 291 -107 C261 -107 246 -125 246 -145 C246 -174 267 -201 317 -201 C404 -201 479 -154 479 0 L479 0 Z " />
<glyph glyph-name="Omacron" unicode="&#x14c;" horiz-adv-x="671" d="M330 -12 C493 -12 636 89 636 350 C636 577 512 705 341 705 C178 705 35 599 35 337 C35 108 159 -12 330 -12 L330 -12 Z M335 21 C192 21 116 160 116 352 C116 558 182 672 335 672 C489 672 555 516 555 335 C555 129 487 21 335 21 L335 21 Z M210 755 L460 755 L460 799 L210 799 L210 755 Z " />
<glyph glyph-name="omacron" unicode="&#x14d;" horiz-adv-x="537" d="M268 -13 C392 -13 507 92 507 260 C507 435 406 522 268 522 C144 522 30 422 30 254 C30 79 131 -13 268 -13 L268 -13 Z M273 16 C168 16 115 99 115 266 C115 419 167 493 266 493 C372 493 422 413 422 245 C422 100 373 16 273 16 L273 16 Z M157 600 L379 600 L379 644 L157 644 L157 600 Z " />
<glyph glyph-name="Obreve" unicode="&#x14e;" horiz-adv-x="671" d="M330 -12 C493 -12 636 89 636 350 C636 577 512 705 341 705 C178 705 35 599 35 337 C35 108 159 -12 330 -12 L330 -12 Z M335 21 C192 21 116 160 116 352 C116 558 182 672 335 672 C489 672 555 516 555 335 C555 129 487 21 335 21 L335 21 Z M338 731 C410 731 448 794 451 846 L440 849 C428 816 395 783 337 783 C279 783 243 814 231 849 L220 846 C223 794 264 731 338 731 L338 731 Z " />
<glyph glyph-name="obreve" unicode="&#x14f;" horiz-adv-x="537" d="M268 -13 C392 -13 507 92 507 260 C507 435 406 522 268 522 C144 522 30 422 30 254 C30 79 131 -13 268 -13 L268 -13 Z M273 16 C168 16 115 99 115 266 C115 419 167 493 266 493 C372 493 422 413 422 245 C422 100 373 16 273 16 L273 16 Z M271 576 C334 576 373 639 374 691 L363 694 C351 661 321 628 270 628 C219 628 186 659 174 694 L163 691 C164 639 206 576 271 576 L271 576 Z " />
<glyph glyph-name="Ohungarumlaut" unicode="&#x150;" horiz-adv-x="671" d="M330 -12 C493 -12 636 89 636 350 C636 577 512 705 341 705 C178 705 35 599 35 337 C35 108 159 -12 330 -12 L330 -12 Z M335 21 C192 21 116 160 116 352 C116 558 182 672 335 672 C489 672 555 516 555 335 C555 129 487 21 335 21 L335 21 Z M364 801 C384 814 388 830 388 843 C387 864 370 878 350 878 C340 878 325 874 313 856 L232 740 L244 727 L364 801 Z M526 801 C546 814 550 830 550 843 C549 864 532 878 512 878 C502 878 487 874 475 856 L394 740 L406 727 L526 801 Z " />
<glyph glyph-name="ohungarumlaut" unicode="&#x151;" horiz-adv-x="537" d="M268 -13 C392 -13 507 92 507 260 C507 435 406 522 268 522 C144 522 30 422 30 254 C30 79 131 -13 268 -13 L268 -13 Z M273 16 C168 16 115 99 115 266 C115 419 167 493 266 493 C372 493 422 413 422 245 C422 100 373 16 273 16 L273 16 Z M297 652 C316 665 320 680 320 693 C320 714 303 727 283 727 C271 727 259 723 247 706 L156 582 L168 569 L297 652 Z M458 652 C477 665 481 680 481 693 C481 714 464 727 444 727 C432 727 420 723 408 706 L317 582 L329 569 L458 652 Z " />
<glyph glyph-name="OE" unicode="&#x152;" horiz-adv-x="939" d="M367 693 C163 693 35 570 35 341 C35 84 174 0 361 0 L895 0 L910 198 L887 198 C871 147 845 87 832 68 C806 33 790 28 695 28 C558 28 555 30 555 125 L555 345 L610 345 C702 345 725 342 737 310 C747 285 751 271 758 237 L779 237 L779 484 L758 484 C752 452 747 430 737 409 C723 379 688 375 610 375 L555 375 L555 656 C580 662 631 665 680 665 C789 665 797 660 824 620 C833 605 847 572 867 526 L888 526 L875 693 L367 693 Z M379 29 C194 29 116 147 116 358 C116 515 176 665 379 665 C453 665 477 659 477 589 L477 125 C477 36 444 29 379 29 L379 29 Z " />
<glyph glyph-name="oe" unicode="&#x153;" horiz-adv-x="869" d="M266 -13 C348 -13 416 29 452 108 C482 32 544 -12 649 -12 C740 -12 807 37 830 53 L830 81 C794 64 749 38 669 38 C575 38 498 109 498 272 L838 272 C839 454 770 522 647 522 C564 522 496 478 459 402 C426 484 359 522 264 522 C140 522 30 422 30 254 C30 79 127 -13 266 -13 L266 -13 Z M269 16 C164 16 115 99 115 267 C115 419 163 493 261 493 C368 493 413 413 413 245 C413 100 369 16 269 16 L269 16 Z M647 493 C724 493 748 433 748 314 L499 302 C507 430 567 493 647 493 L647 493 Z " />
<glyph glyph-name="Racute" unicode="&#x154;" horiz-adv-x="597" d="M182 331 L265 331 C324 219 399 104 478 0 L602 0 L602 17 L580 23 C561 28 553 32 530 59 C477 122 396 250 339 344 L339 347 C438 373 503 437 503 528 C503 634 437 693 296 693 L27 693 L27 676 L66 668 C96 662 104 657 104 612 L104 81 C104 36 95 31 66 25 L27 17 L27 0 L262 0 L263 17 L219 25 C185 31 182 36 182 81 L182 331 Z M243 359 C214 359 182 363 182 363 L182 658 C201 662 233 665 281 665 C366 665 422 631 422 514 C422 410 367 359 243 359 L243 359 Z M390 779 C414 785 422 799 422 818 C422 838 407 856 387 856 C378 856 368 853 357 846 L190 743 L196 729 L390 779 Z " />
<glyph glyph-name="racute" unicode="&#x155;" horiz-adv-x="377" d="M23 0 L243 0 L243 16 L191 27 C166 32 163 46 163 78 L163 424 C183 447 235 472 256 472 C265 472 267 468 272 453 C276 436 287 419 319 419 C344 419 365 436 365 469 C365 503 344 522 305 522 C260 522 202 492 165 457 L162 457 L164 514 L157 519 L24 499 L24 485 L51 472 C83 457 89 454 89 418 L89 78 C89 41 85 33 56 25 L23 16 L23 0 Z M320 635 C346 645 353 662 353 677 C353 697 338 714 318 714 C309 714 298 711 285 702 L129 588 L136 574 L320 635 Z " />
<glyph glyph-name="Rcommaaccent" unicode="&#x156;" horiz-adv-x="597" d="M182 331 L265 331 C324 219 399 104 478 0 L602 0 L602 17 L580 23 C561 28 553 32 530 59 C477 122 396 250 339 344 L339 347 C438 373 503 437 503 528 C503 634 437 693 296 693 L27 693 L27 676 L66 668 C96 662 104 657 104 612 L104 81 C104 36 95 31 66 25 L27 17 L27 0 L262 0 L263 17 L219 25 C185 31 182 36 182 81 L182 331 Z M243 359 C214 359 182 363 182 363 L182 658 C201 662 233 665 281 665 C366 665 422 631 422 514 C422 410 367 359 243 359 L243 359 Z M272 -211 C341 -196 372 -156 372 -111 C372 -70 349 -49 317 -49 C290 -49 271 -70 271 -91 C271 -113 286 -131 310 -131 C320 -131 327 -127 331 -124 C331 -154 315 -176 266 -197 L272 -211 Z " />
<glyph glyph-name="rcommaaccent" unicode="&#x157;" horiz-adv-x="377" d="M23 0 L243 0 L243 16 L191 27 C166 32 163 46 163 78 L163 424 C183 447 235 472 256 472 C265 472 267 468 272 453 C276 436 287 419 319 419 C344 419 365 436 365 469 C365 503 344 522 305 522 C260 522 202 492 165 457 L162 457 L164 514 L157 519 L24 499 L24 485 L51 472 C83 457 89 454 89 418 L89 78 C89 41 85 33 56 25 L23 16 L23 0 Z M76 -211 C145 -196 176 -156 176 -111 C176 -70 153 -49 121 -49 C94 -49 75 -70 75 -91 C75 -113 90 -131 114 -131 C124 -131 131 -127 135 -124 C135 -154 119 -176 70 -197 L76 -211 Z " />
<glyph glyph-name="Rcaron" unicode="&#x158;" horiz-adv-x="597" d="M182 331 L265 331 C324 219 399 104 478 0 L602 0 L602 17 L580 23 C561 28 553 32 530 59 C477 122 396 250 339 344 L339 347 C438 373 503 437 503 528 C503 634 437 693 296 693 L27 693 L27 676 L66 668 C96 662 104 657 104 612 L104 81 C104 36 95 31 66 25 L27 17 L27 0 L262 0 L263 17 L219 25 C185 31 182 36 182 81 L182 331 Z M243 359 C214 359 182 363 182 363 L182 658 C201 662 233 665 281 665 C366 665 422 631 422 514 C422 410 367 359 243 359 L243 359 Z M415 860 L288 799 L157 860 L151 848 L272 730 L301 730 L421 848 L415 860 Z " />
<glyph glyph-name="rcaron" unicode="&#x159;" horiz-adv-x="377" d="M23 0 L243 0 L243 16 L191 27 C166 32 163 46 163 78 L163 424 C183 447 235 472 256 472 C265 472 267 468 272 453 C276 436 287 419 319 419 C344 419 365 436 365 469 C365 503 344 522 305 522 C260 522 202 492 165 457 L162 457 L164 514 L157 519 L24 499 L24 485 L51 472 C83 457 89 454 89 418 L89 78 C89 41 85 33 56 25 L23 16 L23 0 Z M205 575 L234 575 L346 705 L338 715 L221 643 L100 715 L92 705 L205 575 Z " />
<glyph glyph-name="Sacute" unicode="&#x15a;" horiz-adv-x="482" d="M219 -13 C368 -13 441 78 441 189 C441 282 381 326 242 398 C143 449 107 481 107 558 C107 636 155 673 239 673 C306 673 323 654 346 617 C360 593 367 578 387 523 L408 523 L396 680 C368 691 319 706 239 706 C118 706 45 626 45 528 C45 410 127 369 212 325 C332 264 373 228 373 149 C373 83 333 21 240 21 C163 21 128 38 101 83 C80 120 66 156 51 201 L28 201 L39 25 C80 7 147 -13 219 -13 L219 -13 Z M338 779 C362 785 370 799 370 818 C370 838 355 856 335 856 C326 856 316 853 305 846 L138 743 L144 729 L338 779 Z " />
<glyph glyph-name="sacute" unicode="&#x15b;" horiz-adv-x="394" d="M183 -12 C290 -12 360 58 360 148 C360 225 298 261 216 294 C136 327 97 356 97 409 C97 457 129 493 198 493 C238 493 261 479 278 455 C293 435 303 407 318 375 L335 375 L332 500 C296 513 258 522 205 522 C112 522 37 472 37 385 C37 300 96 263 179 229 C255 197 293 168 293 112 C293 53 246 17 183 17 C129 17 101 42 81 79 C69 102 60 129 49 158 L29 158 L31 13 C71 -1 122 -12 183 -12 L183 -12 Z M301 635 C327 645 334 662 334 677 C334 697 319 714 299 714 C290 714 279 711 266 702 L110 588 L117 574 L301 635 Z " />
<glyph glyph-name="Scircumflex" unicode="&#x15c;" horiz-adv-x="482" d="M219 -13 C368 -13 441 78 441 189 C441 282 381 326 242 398 C143 449 107 481 107 558 C107 636 155 673 239 673 C306 673 323 654 346 617 C360 593 367 578 387 523 L408 523 L396 680 C368 691 319 706 239 706 C118 706 45 626 45 528 C45 410 127 369 212 325 C332 264 373 228 373 149 C373 83 333 21 240 21 C163 21 128 38 101 83 C80 120 66 156 51 201 L28 201 L39 25 C80 7 147 -13 219 -13 L219 -13 Z M105 726 L232 787 L363 726 L369 738 L248 856 L219 856 L99 738 L105 726 Z " />
<glyph glyph-name="scircumflex" unicode="&#x15d;" horiz-adv-x="394" d="M183 -12 C290 -12 360 58 360 148 C360 225 298 261 216 294 C136 327 97 356 97 409 C97 457 129 493 198 493 C238 493 261 479 278 455 C293 435 303 407 318 375 L335 375 L332 500 C296 513 258 522 205 522 C112 522 37 472 37 385 C37 300 96 263 179 229 C255 197 293 168 293 112 C293 53 246 17 183 17 C129 17 101 42 81 79 C69 102 60 129 49 158 L29 158 L31 13 C71 -1 122 -12 183 -12 L183 -12 Z M81 575 L198 646 L319 575 L327 586 L214 715 L185 715 L73 586 L81 575 Z " />
<glyph glyph-name="Scedilla" unicode="&#x15e;" horiz-adv-x="482" d="M133 -200 C235 -191 280 -160 280 -114 C280 -74 245 -56 202 -52 L225 -13 C370 -10 441 79 441 189 C441 282 381 326 242 398 C143 449 107 481 107 558 C107 636 155 673 239 673 C306 673 323 654 346 617 C360 593 367 578 387 523 L408 523 L396 680 C368 691 319 706 239 706 C118 706 45 626 45 528 C45 410 127 369 212 325 C332 264 373 228 373 149 C373 83 333 21 240 21 C163 21 128 38 101 83 C80 120 66 156 51 201 L28 201 L39 25 C75 9 132 -9 195 -12 L162 -81 L167 -88 C201 -91 222 -105 222 -125 C222 -150 197 -170 133 -185 L133 -200 Z " />
<glyph glyph-name="scedilla" unicode="&#x15f;" horiz-adv-x="394" d="M95 -200 C197 -191 242 -160 242 -114 C242 -74 207 -56 164 -52 L188 -12 C292 -10 360 59 360 148 C360 225 298 261 216 294 C136 327 97 356 97 409 C97 457 129 493 198 493 C238 493 261 479 278 455 C293 435 303 407 318 375 L335 375 L332 500 C296 513 258 522 205 522 C112 522 37 472 37 385 C37 300 96 263 179 229 C255 197 293 168 293 112 C293 53 246 17 183 17 C129 17 101 42 81 79 C69 102 60 129 49 158 L29 158 L31 13 C65 1 107 -9 157 -11 L124 -81 L129 -88 C163 -91 184 -105 184 -125 C184 -150 159 -170 95 -185 L95 -200 Z " />
<glyph glyph-name="Scaron" unicode="&#x160;" horiz-adv-x="482" d="M219 -13 C368 -13 441 78 441 189 C441 282 381 326 242 398 C143 449 107 481 107 558 C107 636 155 673 239 673 C306 673 323 654 346 617 C360 593 367 578 387 523 L408 523 L396 680 C368 691 319 706 239 706 C118 706 45 626 45 528 C45 410 127 369 212 325 C332 264 373 228 373 149 C373 83 333 21 240 21 C163 21 128 38 101 83 C80 120 66 156 51 201 L28 201 L39 25 C80 7 147 -13 219 -13 L219 -13 Z M363 860 L236 799 L105 860 L99 848 L220 730 L249 730 L369 848 L363 860 Z " />
<glyph glyph-name="scaron" unicode="&#x161;" horiz-adv-x="394" d="M183 -12 C290 -12 360 58 360 148 C360 225 298 261 216 294 C136 327 97 356 97 409 C97 457 129 493 198 493 C238 493 261 479 278 455 C293 435 303 407 318 375 L335 375 L332 500 C296 513 258 522 205 522 C112 522 37 472 37 385 C37 300 96 263 179 229 C255 197 293 168 293 112 C293 53 246 17 183 17 C129 17 101 42 81 79 C69 102 60 129 49 158 L29 158 L31 13 C71 -1 122 -12 183 -12 L183 -12 Z M186 575 L215 575 L327 705 L319 715 L202 643 L81 715 L73 705 L186 575 Z " />
<glyph glyph-name="Tcommaaccent" unicode="&#x162;" horiz-adv-x="562" d="M349 664 C458 664 473 647 488 606 C497 581 508 550 522 500 L546 500 L535 693 L27 693 L16 500 L40 500 C54 550 65 581 74 606 C89 647 104 664 213 664 L242 664 L242 81 C242 36 239 31 205 25 L162 17 L162 0 L400 0 L400 17 L357 25 C323 31 320 36 320 81 L320 664 L349 664 Z M233 -211 C302 -196 333 -156 333 -111 C333 -70 310 -49 278 -49 C251 -49 232 -70 232 -91 C232 -113 247 -131 271 -131 C281 -131 288 -127 292 -124 C292 -154 276 -176 227 -197 L233 -211 Z " />
<glyph glyph-name="tcommaaccent" unicode="&#x163;" horiz-adv-x="304" d="M180 -12 C239 -12 281 17 297 28 L297 47 C276 40 248 32 217 32 C171 32 151 51 151 92 L151 469 L286 469 L290 505 L151 505 L151 619 L137 619 C110 544 69 503 6 485 L6 469 L77 469 L77 83 C77 11 129 -12 180 -12 L180 -12 Z M113 -211 C182 -196 213 -156 213 -111 C213 -70 190 -49 158 -49 C131 -49 112 -70 112 -91 C112 -113 127 -131 151 -131 C161 -131 168 -127 172 -124 C172 -154 156 -176 107 -197 L113 -211 Z " />
<glyph glyph-name="Tcaron" unicode="&#x164;" horiz-adv-x="562" d="M349 664 C458 664 473 647 488 606 C497 581 508 550 522 500 L546 500 L535 693 L27 693 L16 500 L40 500 C54 550 65 581 74 606 C89 647 104 664 213 664 L242 664 L242 81 C242 36 239 31 205 25 L162 17 L162 0 L400 0 L400 17 L357 25 C323 31 320 36 320 81 L320 664 L349 664 Z M410 860 L283 799 L152 860 L146 848 L267 730 L296 730 L416 848 L410 860 Z " />
<glyph glyph-name="tcaron" unicode="&#x165;" horiz-adv-x="304" d="M180 -12 C239 -12 281 17 297 28 L297 47 C276 40 248 32 217 32 C171 32 151 51 151 92 L151 469 L286 469 L290 505 L151 505 L151 619 L137 619 C110 544 69 503 6 485 L6 469 L77 469 L77 83 C77 11 129 -12 180 -12 L180 -12 Z M236 571 L295 686 C303 700 306 711 306 720 C306 743 289 755 269 755 C239 755 230 734 229 711 L222 574 L236 571 Z " />
<glyph glyph-name="Tbar" unicode="&#x166;" horiz-adv-x="562" d="M349 664 C458 664 473 647 488 606 C497 581 508 550 522 500 L546 500 L535 693 L27 693 L16 500 L40 500 C54 550 65 581 74 606 C89 647 104 664 213 664 L242 664 L242 398 L93 398 L93 369 L242 369 L242 81 C242 36 239 31 205 25 L162 17 L162 0 L400 0 L400 17 L357 25 C323 31 320 36 320 81 L320 369 L469 369 L469 398 L320 398 L320 664 L349 664 Z " />
<glyph glyph-name="tbar" unicode="&#x167;" horiz-adv-x="304" d="M180 -12 C239 -12 281 17 297 28 L297 47 C276 40 248 32 217 32 C171 32 151 51 151 92 L151 331 L290 331 L290 360 L151 360 L151 469 L286 469 L290 505 L151 505 L151 619 L137 619 C110 544 69 503 6 485 L6 469 L77 469 L77 360 L6 360 L6 331 L77 331 L77 83 C77 11 129 -12 180 -12 L180 -12 Z " />
<glyph glyph-name="Utilde" unicode="&#x168;" horiz-adv-x="676" d="M172 612 C172 657 173 661 206 668 L246 676 L246 693 L17 693 L17 676 L56 668 C86 662 94 657 94 612 L94 226 C94 62 186 -12 338 -12 C515 -12 582 97 582 220 L582 601 C582 643 587 657 620 666 L659 676 L659 693 L453 693 L453 676 L506 666 C539 660 543 645 543 601 L543 229 C543 107 490 34 361 34 C229 34 172 96 172 222 L172 612 Z M228 726 C243 752 256 770 282 770 C324 770 394 743 439 743 C480 743 500 786 525 839 L509 846 C494 819 480 802 453 802 C414 802 338 829 296 829 C255 829 235 785 211 732 L228 726 Z " />
<glyph glyph-name="utilde" unicode="&#x169;" horiz-adv-x="553" d="M214 -12 C282 -12 349 19 398 53 L402 53 L400 -6 L406 -10 L540 8 L540 21 L512 34 C482 48 474 57 474 98 L474 511 L464 519 L334 504 L334 489 L362 479 C395 467 400 459 400 423 L400 76 C361 59 302 39 247 39 C186 39 158 74 158 135 L158 511 L149 519 L19 504 L19 489 L47 478 C78 466 84 458 84 422 L84 118 C84 34 134 -12 214 -12 L214 -12 Z M147 576 C162 602 175 620 201 620 C237 620 296 593 338 593 C379 593 399 636 424 689 L408 696 C393 669 379 652 352 652 C319 652 255 679 215 679 C174 679 154 635 130 582 L147 576 Z " />
<glyph glyph-name="Umacron" unicode="&#x16a;" horiz-adv-x="676" d="M172 612 C172 657 173 661 206 668 L246 676 L246 693 L17 693 L17 676 L56 668 C86 662 94 657 94 612 L94 226 C94 62 186 -12 338 -12 C515 -12 582 97 582 220 L582 601 C582 643 587 657 620 666 L659 676 L659 693 L453 693 L453 676 L506 666 C539 660 543 645 543 601 L543 229 C543 107 490 34 361 34 C229 34 172 96 172 222 L172 612 Z M235 755 L485 755 L485 799 L235 799 L235 755 Z " />
<glyph glyph-name="umacron" unicode="&#x16b;" horiz-adv-x="553" d="M214 -12 C282 -12 349 19 398 53 L402 53 L400 -6 L406 -10 L540 8 L540 21 L512 34 C482 48 474 57 474 98 L474 511 L464 519 L334 504 L334 489 L362 479 C395 467 400 459 400 423 L400 76 C361 59 302 39 247 39 C186 39 158 74 158 135 L158 511 L149 519 L19 504 L19 489 L47 478 C78 466 84 458 84 422 L84 118 C84 34 134 -12 214 -12 L214 -12 Z M166 600 L388 600 L388 644 L166 644 L166 600 Z " />
<glyph glyph-name="Ubreve" unicode="&#x16c;" horiz-adv-x="676" d="M172 612 C172 657 173 661 206 668 L246 676 L246 693 L17 693 L17 676 L56 668 C86 662 94 657 94 612 L94 226 C94 62 186 -12 338 -12 C515 -12 582 97 582 220 L582 601 C582 643 587 657 620 666 L659 676 L659 693 L453 693 L453 676 L506 666 C539 660 543 645 543 601 L543 229 C543 107 490 34 361 34 C229 34 172 96 172 222 L172 612 Z M363 731 C435 731 473 794 476 846 L465 849 C453 816 420 783 362 783 C304 783 268 814 256 849 L245 846 C248 794 289 731 363 731 L363 731 Z " />
<glyph glyph-name="ubreve" unicode="&#x16d;" horiz-adv-x="553" d="M214 -12 C282 -12 349 19 398 53 L402 53 L400 -6 L406 -10 L540 8 L540 21 L512 34 C482 48 474 57 474 98 L474 511 L464 519 L334 504 L334 489 L362 479 C395 467 400 459 400 423 L400 76 C361 59 302 39 247 39 C186 39 158 74 158 135 L158 511 L149 519 L19 504 L19 489 L47 478 C78 466 84 458 84 422 L84 118 C84 34 134 -12 214 -12 L214 -12 Z M280 576 C343 576 382 639 383 691 L372 694 C360 661 330 628 279 628 C228 628 195 659 183 694 L172 691 C173 639 215 576 280 576 L280 576 Z " />
<glyph glyph-name="Uring" unicode="&#x16e;" horiz-adv-x="676" d="M172 612 C172 657 173 661 206 668 L246 676 L246 693 L17 693 L17 676 L56 668 C86 662 94 657 94 612 L94 226 C94 62 186 -12 338 -12 C515 -12 582 97 582 220 L582 601 C582 643 587 657 620 666 L659 676 L659 693 L453 693 L453 676 L506 666 C539 660 543 645 543 601 L543 229 C543 107 490 34 361 34 C229 34 172 96 172 222 L172 612 Z M360 705 C409 705 446 740 446 787 C446 834 412 870 360 870 C312 870 275 835 275 787 C275 742 307 705 360 705 L360 705 Z M360 728 C327 728 305 753 305 788 C305 824 327 847 360 847 C393 847 416 824 416 788 C416 753 393 728 360 728 L360 728 Z " />
<glyph glyph-name="uring" unicode="&#x16f;" horiz-adv-x="553" d="M214 -12 C282 -12 349 19 398 53 L402 53 L400 -6 L406 -10 L540 8 L540 21 L512 34 C482 48 474 57 474 98 L474 511 L464 519 L334 504 L334 489 L362 479 C395 467 400 459 400 423 L400 76 C361 59 302 39 247 39 C186 39 158 74 158 135 L158 511 L149 519 L19 504 L19 489 L47 478 C78 466 84 458 84 422 L84 118 C84 34 134 -12 214 -12 L214 -12 Z M277 578 C326 578 363 613 363 660 C363 707 329 743 277 743 C229 743 192 708 192 660 C192 615 224 578 277 578 L277 578 Z M277 601 C244 601 222 626 222 661 C222 697 244 720 277 720 C310 720 333 697 333 661 C333 626 310 601 277 601 L277 601 Z " />
<glyph glyph-name="Uhungarumlaut" unicode="&#x170;" horiz-adv-x="676" d="M172 612 C172 657 173 661 206 668 L246 676 L246 693 L17 693 L17 676 L56 668 C86 662 94 657 94 612 L94 226 C94 62 186 -12 338 -12 C515 -12 582 97 582 220 L582 601 C582 643 587 657 620 666 L659 676 L659 693 L453 693 L453 676 L506 666 C539 660 543 645 543 601 L543 229 C543 107 490 34 361 34 C229 34 172 96 172 222 L172 612 Z M389 801 C409 814 413 830 413 843 C412 864 395 878 375 878 C365 878 350 874 338 856 L257 740 L269 727 L389 801 Z M551 801 C571 814 575 830 575 843 C574 864 557 878 537 878 C527 878 512 874 500 856 L419 740 L431 727 L551 801 Z " />
<glyph glyph-name="uhungarumlaut" unicode="&#x171;" horiz-adv-x="553" d="M214 -12 C282 -12 349 19 398 53 L402 53 L400 -6 L406 -10 L540 8 L540 21 L512 34 C482 48 474 57 474 98 L474 511 L464 519 L334 504 L334 489 L362 479 C395 467 400 459 400 423 L400 76 C361 59 302 39 247 39 C186 39 158 74 158 135 L158 511 L149 519 L19 504 L19 489 L47 478 C78 466 84 458 84 422 L84 118 C84 34 134 -12 214 -12 L214 -12 Z M306 652 C325 665 329 680 329 693 C329 714 312 727 292 727 C280 727 268 723 256 706 L165 582 L177 569 L306 652 Z M467 652 C486 665 490 680 490 693 C490 714 473 727 453 727 C441 727 429 723 417 706 L326 582 L338 569 L467 652 Z " />
<glyph glyph-name="Uogonek" unicode="&#x172;" horiz-adv-x="676" d="M382 -200 C407 -200 435 -190 454 -172 L454 -156 C440 -163 425 -167 406 -167 C375 -167 353 -147 353 -116 C353 -51 412 -15 469 15 C549 55 582 134 582 220 L582 601 C582 643 587 657 620 666 L659 676 L659 693 L453 693 L453 676 L506 666 C539 660 543 645 543 601 L543 229 C543 107 490 34 361 34 C229 34 172 96 172 222 L172 612 C172 657 173 661 206 668 L246 676 L246 693 L17 693 L17 676 L56 668 C86 662 94 657 94 612 L94 226 C94 62 186 -12 338 -12 C355 -12 373 -11 388 -9 C351 -34 292 -76 292 -130 C292 -173 334 -200 382 -200 L382 -200 Z " />
<glyph glyph-name="uogonek" unicode="&#x173;" horiz-adv-x="553" d="M390 -200 C415 -200 443 -190 462 -172 L462 -156 C448 -163 433 -167 414 -167 C383 -167 361 -147 361 -116 C361 -77 381 -13 495 2 L540 8 L540 21 L512 34 C482 48 474 57 474 98 L474 511 L464 519 L334 504 L334 489 L362 479 C395 467 400 459 400 423 L400 76 C361 59 302 39 247 39 C186 39 158 74 158 135 L158 511 L149 519 L19 504 L19 489 L47 478 C78 466 84 458 84 422 L84 118 C84 34 134 -12 214 -12 C282 -12 349 19 398 53 L402 53 L400 -7 C365 -30 300 -77 300 -130 C300 -173 342 -200 390 -200 L390 -200 Z " />
<glyph glyph-name="Wcircumflex" unicode="&#x174;" horiz-adv-x="915" d="M276 0 L311 0 L465 461 L468 461 L623 0 L661 0 L825 560 C846 634 854 659 885 667 L918 676 L918 693 L735 693 L735 676 L769 667 C790 661 798 652 798 632 C798 616 793 593 785 562 L662 123 L657 123 L512 573 C504 599 499 619 499 632 C499 657 511 666 531 670 L561 676 L561 693 L339 693 L339 676 L368 669 C396 662 405 651 432 571 L449 520 L318 123 L313 123 L169 573 C160 600 155 620 155 634 C155 655 166 664 188 669 L222 676 L222 693 L-3 693 L-3 676 L26 669 C54 662 62 652 87 576 L276 0 Z M326 726 L453 787 L584 726 L590 738 L469 856 L440 856 L320 738 L326 726 Z " />
<glyph glyph-name="wcircumflex" unicode="&#x175;" horiz-adv-x="726" d="M215 0 L249 0 L366 337 L368 337 L485 0 L516 0 L658 408 C676 459 680 474 708 482 L734 489 L734 505 L575 505 L575 489 L601 482 C619 477 629 472 630 459 C631 447 627 428 619 402 L522 106 L518 106 L416 402 C408 424 403 441 403 453 C403 467 403 477 422 482 L449 489 L449 505 L267 505 L267 489 L293 481 C315 473 327 455 339 418 L351 385 L254 106 L251 106 L153 402 C146 422 141 438 141 452 C141 467 144 476 166 482 L193 489 L193 505 L-8 505 L-8 489 L22 479 C44 472 51 464 67 418 L215 0 Z M244 575 L361 646 L482 575 L490 586 L377 715 L348 715 L236 586 L244 575 Z " />
<glyph glyph-name="Ycircumflex" unicode="&#x176;" horiz-adv-x="582" d="M263 81 C263 36 260 31 226 25 L183 17 L183 0 L421 0 L421 17 L378 25 C344 31 341 36 341 81 L341 288 L477 564 C518 648 530 657 562 668 L586 676 L586 693 L394 693 L394 676 L427 668 C468 658 479 646 450 586 L322 318 L319 318 L170 594 C141 648 151 659 188 668 L222 676 L222 693 L-4 693 L-4 676 L23 669 C49 661 55 655 86 598 L263 278 L263 81 Z M187 726 L314 787 L445 726 L451 738 L330 856 L301 856 L181 738 L187 726 Z " />
<glyph glyph-name="ycircumflex" unicode="&#x177;" horiz-adv-x="478" d="M78 -205 C184 -205 214 -118 245 -34 L409 408 C429 462 433 475 456 481 L486 489 L486 505 L327 505 L327 489 L353 482 C371 477 381 472 382 460 C383 447 379 428 370 402 L264 101 L260 101 L148 403 C141 422 135 439 135 453 C135 468 140 476 161 482 L187 489 L187 505 L-8 505 L-8 489 L18 481 C43 472 49 467 67 418 L222 1 L194 -67 C172 -120 145 -157 118 -157 C109 -157 106 -154 100 -138 C92 -118 83 -103 53 -103 C25 -103 5 -118 5 -149 C5 -178 25 -205 78 -205 L78 -205 Z M146 575 L263 646 L384 575 L392 586 L279 715 L250 715 L138 586 L146 575 Z " />
<glyph glyph-name="Ydieresis" unicode="&#x178;" horiz-adv-x="582" d="M263 81 C263 36 260 31 226 25 L183 17 L183 0 L421 0 L421 17 L378 25 C344 31 341 36 341 81 L341 288 L477 564 C518 648 530 657 562 668 L586 676 L586 693 L394 693 L394 676 L427 668 C468 658 479 646 450 586 L322 318 L319 318 L170 594 C141 648 151 659 188 668 L222 676 L222 693 L-4 693 L-4 676 L23 669 C49 661 55 655 86 598 L263 278 L263 81 Z M224 739 C252 739 272 762 272 787 C272 813 252 835 224 835 C196 835 176 813 176 787 C176 762 196 739 224 739 L224 739 Z M408 739 C436 739 456 762 456 787 C456 813 436 835 408 835 C380 835 360 813 360 787 C360 762 380 739 408 739 L408 739 Z " />
<glyph glyph-name="Zacute" unicode="&#x179;" horiz-adv-x="535" d="M25 0 L488 0 L504 197 L482 197 C458 129 444 96 432 74 C414 41 374 28 185 28 L113 28 L113 32 L506 665 L506 693 L69 693 L57 512 L77 512 C92 556 105 592 120 619 C144 662 175 665 342 665 L422 665 L422 661 L25 29 L25 0 Z M392 779 C416 785 424 799 424 818 C424 838 409 856 389 856 C380 856 370 853 359 846 L192 743 L198 729 L392 779 Z " />
<glyph glyph-name="zacute" unicode="&#x17a;" horiz-adv-x="441" d="M22 0 L404 0 L413 162 L395 162 C385 132 374 106 357 78 C332 36 318 26 206 26 L116 26 L116 30 L424 490 L424 505 L56 505 L51 356 L68 356 C85 397 96 418 107 435 C130 473 138 479 222 479 L328 479 L328 475 L22 18 L22 0 Z M338 635 C364 645 371 662 371 677 C371 697 356 714 336 714 C327 714 316 711 303 702 L147 588 L154 574 L338 635 Z " />
<glyph glyph-name="Zdotaccent" unicode="&#x17b;" horiz-adv-x="535" d="M25 0 L488 0 L504 197 L482 197 C458 129 444 96 432 74 C414 41 374 28 185 28 L113 28 L113 32 L506 665 L506 693 L69 693 L57 512 L77 512 C92 556 105 592 120 619 C144 662 175 665 342 665 L422 665 L422 661 L25 29 L25 0 Z M289 739 C316 739 339 765 339 790 C339 817 316 841 289 841 C261 841 238 817 238 790 C238 765 261 739 289 739 L289 739 Z " />
<glyph glyph-name="zdotaccent" unicode="&#x17c;" horiz-adv-x="441" d="M22 0 L404 0 L413 162 L395 162 C385 132 374 106 357 78 C332 36 318 26 206 26 L116 26 L116 30 L424 490 L424 505 L56 505 L51 356 L68 356 C85 397 96 418 107 435 C130 473 138 479 222 479 L328 479 L328 475 L22 18 L22 0 Z M238 604 C265 604 288 630 288 655 C288 682 265 706 238 706 C210 706 187 682 187 655 C187 630 210 604 238 604 L238 604 Z " />
<glyph glyph-name="Zcaron" unicode="&#x17d;" horiz-adv-x="535" d="M25 0 L488 0 L504 197 L482 197 C458 129 444 96 432 74 C414 41 374 28 185 28 L113 28 L113 32 L506 665 L506 693 L69 693 L57 512 L77 512 C92 556 105 592 120 619 C144 662 175 665 342 665 L422 665 L422 661 L25 29 L25 0 Z M417 860 L290 799 L159 860 L153 848 L274 730 L303 730 L423 848 L417 860 Z " />
<glyph glyph-name="zcaron" unicode="&#x17e;" horiz-adv-x="441" d="M22 0 L404 0 L413 162 L395 162 C385 132 374 106 357 78 C332 36 318 26 206 26 L116 26 L116 30 L424 490 L424 505 L56 505 L51 356 L68 356 C85 397 96 418 107 435 C130 473 138 479 222 479 L328 479 L328 475 L22 18 L22 0 Z M223 575 L252 575 L364 705 L356 715 L239 643 L118 715 L110 705 L223 575 Z " />
<glyph glyph-name="florin" unicode="&#x192;" horiz-adv-x="375" d="M28 355 L108 355 L43 -94 C33 -162 12 -171 -4 -171 C-21 -171 -23 -166 -31 -135 C-36 -115 -46 -103 -68 -103 C-94 -103 -107 -118 -107 -137 C-107 -170 -75 -195 -20 -195 C40 -195 116 -138 138 11 L188 355 L292 355 L292 385 L192 385 L218 560 C232 656 261 673 294 673 C309 673 317 669 321 642 C326 612 337 596 366 596 C396 596 409 611 409 639 C409 677 369 701 310 701 C233 701 151 648 131 510 L113 385 L28 385 L28 355 Z " />
<glyph glyph-name="Aringacute" unicode="&#x1fa;" horiz-adv-x="625" d="M-3 0 L188 0 L188 17 L159 25 C120 36 109 47 132 118 L178 253 L406 253 L452 118 C476 46 473 35 428 23 L406 17 L406 0 L628 0 L628 17 L604 23 C576 30 563 42 538 111 L339 693 L299 693 L91 125 C61 41 53 34 29 27 L-2 17 L-3 0 Z M291 582 L296 582 L396 284 L189 284 L291 582 Z M318 725 C367 725 404 760 404 807 C404 854 370 890 318 890 C270 890 233 855 233 807 C233 762 265 725 318 725 L318 725 Z M422 949 C446 955 454 969 454 988 C454 1008 439 1026 419 1026 C410 1026 400 1023 389 1016 L222 913 L228 899 L422 949 Z M318 748 C285 748 263 773 263 808 C263 844 285 867 318 867 C351 867 374 844 374 808 C374 773 351 748 318 748 L318 748 Z " />
<glyph glyph-name="aringacute" unicode="&#x1fb;" horiz-adv-x="467" d="M171 -13 C225 -13 283 12 307 45 L312 45 C316 14 338 -12 385 -12 C410 -12 445 -3 459 7 L459 20 C436 21 418 23 405 32 C393 40 384 53 384 77 L384 395 C384 476 339 522 223 522 C164 522 53 503 53 441 C53 421 64 397 100 397 C140 397 140 427 145 453 C149 483 161 494 209 494 C302 494 310 451 310 390 L310 283 L157 247 C100 234 23 200 23 113 C23 33 80 -13 171 -13 L171 -13 Z M200 29 C136 29 101 66 101 122 C101 196 152 227 236 236 L310 244 L310 83 C294 55 254 29 200 29 L200 29 Z M221 578 C270 578 307 613 307 660 C307 707 273 743 221 743 C173 743 136 708 136 660 C136 615 168 578 221 578 L221 578 Z M221 601 C188 601 166 626 166 661 C166 697 188 720 221 720 C254 720 277 697 277 661 C277 626 254 601 221 601 L221 601 Z M325 809 C349 815 357 829 357 848 C357 868 342 886 322 886 C313 886 303 883 292 876 L125 773 L131 759 L325 809 Z " />
<glyph glyph-name="AEacute" unicode="&#x1fc;" horiz-adv-x="878" d="M348 0 L834 0 L849 198 L826 198 C810 147 784 87 771 68 C745 33 729 28 634 28 C509 28 503 30 503 125 L503 345 L549 345 C641 345 664 342 676 310 C686 285 690 271 697 237 L718 237 L718 484 L697 484 C691 452 686 430 676 409 C662 379 627 375 549 375 L503 375 L503 656 C525 661 570 665 619 665 C728 665 736 659 763 619 C772 604 786 572 806 526 L827 526 L814 693 L343 693 L343 676 L387 668 C398 665 407 663 413 659 L115 128 C69 46 58 37 16 24 L-7 17 L-7 0 L187 0 L187 17 L159 24 C117 35 116 56 151 120 L215 240 L425 240 L425 81 C425 36 416 31 387 25 L348 17 L348 0 Z M422 621 L425 621 L425 272 L233 272 L422 621 Z M701 779 C725 785 733 799 733 818 C733 838 718 856 698 856 C689 856 679 853 668 846 L501 743 L507 729 L701 779 Z " />
<glyph glyph-name="aeacute" unicode="&#x1fd;" horiz-adv-x="745" d="M526 -12 C618 -12 681 37 705 53 L705 81 C668 64 627 38 547 38 C453 38 386 108 385 267 L713 267 C713 453 647 522 526 522 C461 522 407 496 370 448 C355 495 312 522 221 522 C162 522 51 503 51 440 C51 421 62 397 97 397 C138 397 138 427 142 453 C147 483 159 494 207 494 C300 494 308 451 308 390 L308 292 L178 265 C101 248 23 201 23 118 C23 34 80 -13 169 -13 C261 -13 301 34 343 81 L347 81 C380 23 437 -12 526 -12 L526 -12 Z M196 29 C139 29 101 64 101 123 C101 199 153 241 239 250 L308 257 C308 200 316 148 335 105 C290 53 249 29 196 29 L196 29 Z M524 493 C601 493 623 429 623 303 L385 292 C390 427 442 493 524 493 L524 493 Z M489 635 C515 645 522 662 522 677 C522 697 507 714 487 714 C478 714 467 711 454 702 L298 588 L305 574 L489 635 Z " />
<glyph glyph-name="Oslashacute" unicode="&#x1fe;" horiz-adv-x="671" d="M330 -12 C493 -12 636 89 636 350 C636 476 597 572 534 632 L592 730 L552 730 L507 654 C460 687 404 705 341 705 C178 705 35 599 35 337 C35 203 77 106 147 49 L80 -64 L120 -64 L175 29 C219 2 272 -12 330 -12 L330 -12 Z M116 352 C116 558 182 672 335 672 C397 672 444 647 479 607 L178 102 C136 161 116 249 116 352 L116 352 Z M335 21 C280 21 236 40 202 73 L501 577 C538 515 555 428 555 335 C555 129 487 21 335 21 L335 21 Z M439 779 C463 785 471 799 471 818 C471 838 456 856 436 856 C427 856 417 853 406 846 L239 743 L245 729 L439 779 Z " />
<glyph glyph-name="oslashacute" unicode="&#x1ff;" horiz-adv-x="537" d="M68 -64 L104 -64 L149 15 C184 -3 224 -13 268 -13 C392 -13 507 92 507 260 C507 363 471 436 414 478 L463 563 L427 563 L388 495 C353 513 312 522 268 522 C144 522 30 422 30 254 C30 150 65 75 123 32 L68 -64 Z M117 277 C118 422 167 493 266 493 C309 493 343 483 367 459 L150 79 C128 120 117 183 117 277 L117 277 Z M273 16 C229 16 195 26 170 51 L388 431 C410 391 420 329 420 235 C420 94 372 16 273 16 L273 16 Z M369 635 C395 645 402 662 402 677 C402 697 387 714 367 714 C358 714 347 711 334 702 L178 588 L185 574 L369 635 Z " />
<glyph glyph-name="Scommaaccent" unicode="&#x218;" horiz-adv-x="482" d="M219 -13 C368 -13 441 78 441 189 C441 282 381 326 242 398 C143 449 107 481 107 558 C107 636 155 673 239 673 C306 673 323 654 346 617 C360 593 367 578 387 523 L408 523 L396 680 C368 691 319 706 239 706 C118 706 45 626 45 528 C45 410 127 369 212 325 C332 264 373 228 373 149 C373 83 333 21 240 21 C163 21 128 38 101 83 C80 120 66 156 51 201 L28 201 L39 25 C80 7 147 -13 219 -13 L219 -13 Z M186 -211 C255 -196 286 -156 286 -111 C286 -70 263 -49 231 -49 C204 -49 185 -70 185 -91 C185 -113 200 -131 224 -131 C234 -131 241 -127 245 -124 C245 -154 229 -176 180 -197 L186 -211 Z " />
<glyph glyph-name="scommaaccent" unicode="&#x219;" horiz-adv-x="394" d="M183 -12 C290 -12 360 58 360 148 C360 225 298 261 216 294 C136 327 97 356 97 409 C97 457 129 493 198 493 C238 493 261 479 278 455 C293 435 303 407 318 375 L335 375 L332 500 C296 513 258 522 205 522 C112 522 37 472 37 385 C37 300 96 263 179 229 C255 197 293 168 293 112 C293 53 246 17 183 17 C129 17 101 42 81 79 C69 102 60 129 49 158 L29 158 L31 13 C71 -1 122 -12 183 -12 L183 -12 Z M133 -211 C202 -196 233 -156 233 -111 C233 -70 210 -49 178 -49 C151 -49 132 -70 132 -91 C132 -113 147 -131 171 -131 C181 -131 188 -127 192 -124 C192 -154 176 -176 127 -197 L133 -211 Z " />
<glyph glyph-name="uni0237" unicode="&#x237;" horiz-adv-x="239" d="M1 -201 C88 -201 163 -154 163 0 L163 411 C163 477 167 516 167 516 L161 519 L24 499 L24 485 L51 472 C83 457 89 454 89 418 L89 -99 C89 -149 69 -173 40 -173 C24 -173 20 -170 16 -143 C12 -117 1 -107 -25 -107 C-55 -107 -70 -125 -70 -145 C-70 -174 -49 -201 1 -201 L1 -201 Z " />
<glyph glyph-name="circumflex" unicode="&#x2c6;" horiz-adv-x="474" d="M118 575 L235 646 L356 575 L364 586 L251 715 L222 715 L110 586 L118 575 Z " />
<glyph glyph-name="caron" unicode="&#x2c7;" horiz-adv-x="474" d="M223 575 L252 575 L364 705 L356 715 L239 643 L118 715 L110 705 L223 575 Z " />
<glyph glyph-name="breve" unicode="&#x2d8;" horiz-adv-x="481" d="M243 576 C306 576 345 639 346 691 L335 694 C323 661 293 628 242 628 C191 628 158 659 146 694 L135 691 C136 639 178 576 243 576 L243 576 Z " />
<glyph glyph-name="dotaccent" unicode="&#x2d9;" horiz-adv-x="541" d="M271 604 C298 604 321 630 321 655 C321 682 298 706 271 706 C243 706 220 682 220 655 C220 630 243 604 271 604 L271 604 Z " />
<glyph glyph-name="ring" unicode="&#x2da;" horiz-adv-x="492" d="M246 578 C295 578 332 613 332 660 C332 707 298 743 246 743 C198 743 161 708 161 660 C161 615 193 578 246 578 L246 578 Z M246 601 C213 601 191 626 191 661 C191 697 213 720 246 720 C279 720 302 697 302 661 C302 626 279 601 246 601 L246 601 Z " />
<glyph glyph-name="ogonek" unicode="&#x2db;" horiz-adv-x="518" d="M283 -200 C308 -200 336 -190 355 -172 L355 -156 C341 -163 326 -167 307 -167 C276 -167 254 -147 254 -116 C254 -72 284 -38 316 0 L300 0 C271 -20 193 -73 193 -130 C193 -173 235 -200 283 -200 L283 -200 Z " />
<glyph glyph-name="tilde" unicode="&#x2dc;" horiz-adv-x="494" d="M117 576 C132 602 145 620 171 620 C207 620 266 593 308 593 C349 593 369 636 394 689 L378 696 C363 669 349 652 322 652 C289 652 225 679 185 679 C144 679 124 635 100 582 L117 576 Z " />
<glyph glyph-name="hungarumlaut" unicode="&#x2dd;" horiz-adv-x="497" d="M241 652 C260 665 264 680 264 693 C264 714 247 727 227 727 C215 727 203 723 191 706 L100 582 L112 569 L241 652 Z M402 652 C421 665 425 680 425 693 C425 714 408 727 388 727 C376 727 364 723 352 706 L261 582 L273 569 L402 652 Z " />
<glyph glyph-name="Wgrave" unicode="&#x1e80;" horiz-adv-x="915" d="M276 0 L311 0 L465 461 L468 461 L623 0 L661 0 L825 560 C846 634 854 659 885 667 L918 676 L918 693 L735 693 L735 676 L769 667 C790 661 798 652 798 632 C798 616 793 593 785 562 L662 123 L657 123 L512 573 C504 599 499 619 499 632 C499 657 511 666 531 670 L561 676 L561 693 L339 693 L339 676 L368 669 C396 662 405 651 432 571 L449 520 L318 123 L313 123 L169 573 C160 600 155 620 155 634 C155 655 166 664 188 669 L222 676 L222 693 L-3 693 L-3 676 L26 669 C54 662 62 652 87 576 L276 0 Z M553 729 L559 743 L392 846 C381 853 371 856 362 856 C342 856 327 838 327 818 C327 799 335 785 359 779 L553 729 Z " />
<glyph glyph-name="wgrave" unicode="&#x1e81;" horiz-adv-x="726" d="M215 0 L249 0 L366 337 L368 337 L485 0 L516 0 L658 408 C676 459 680 474 708 482 L734 489 L734 505 L575 505 L575 489 L601 482 C619 477 629 472 630 459 C631 447 627 428 619 402 L522 106 L518 106 L416 402 C408 424 403 441 403 453 C403 467 403 477 422 482 L449 489 L449 505 L267 505 L267 489 L293 481 C315 473 327 455 339 418 L351 385 L254 106 L251 106 L153 402 C146 422 141 438 141 452 C141 467 144 476 166 482 L193 489 L193 505 L-8 505 L-8 489 L22 479 C44 472 51 464 67 418 L215 0 Z M452 574 L459 588 L303 702 C290 711 279 714 270 714 C250 714 235 697 235 677 C235 662 242 645 268 635 L452 574 Z " />
<glyph glyph-name="Wacute" unicode="&#x1e82;" horiz-adv-x="915" d="M276 0 L311 0 L465 461 L468 461 L623 0 L661 0 L825 560 C846 634 854 659 885 667 L918 676 L918 693 L735 693 L735 676 L769 667 C790 661 798 652 798 632 C798 616 793 593 785 562 L662 123 L657 123 L512 573 C504 599 499 619 499 632 C499 657 511 666 531 670 L561 676 L561 693 L339 693 L339 676 L368 669 C396 662 405 651 432 571 L449 520 L318 123 L313 123 L169 573 C160 600 155 620 155 634 C155 655 166 664 188 669 L222 676 L222 693 L-3 693 L-3 676 L26 669 C54 662 62 652 87 576 L276 0 Z M559 779 C583 785 591 799 591 818 C591 838 576 856 556 856 C547 856 537 853 526 846 L359 743 L365 729 L559 779 Z " />
<glyph glyph-name="wacute" unicode="&#x1e83;" horiz-adv-x="726" d="M215 0 L249 0 L366 337 L368 337 L485 0 L516 0 L658 408 C676 459 680 474 708 482 L734 489 L734 505 L575 505 L575 489 L601 482 C619 477 629 472 630 459 C631 447 627 428 619 402 L522 106 L518 106 L416 402 C408 424 403 441 403 453 C403 467 403 477 422 482 L449 489 L449 505 L267 505 L267 489 L293 481 C315 473 327 455 339 418 L351 385 L254 106 L251 106 L153 402 C146 422 141 438 141 452 C141 467 144 476 166 482 L193 489 L193 505 L-8 505 L-8 489 L22 479 C44 472 51 464 67 418 L215 0 Z M464 635 C490 645 497 662 497 677 C497 697 482 714 462 714 C453 714 442 711 429 702 L273 588 L280 574 L464 635 Z " />
<glyph glyph-name="Wdieresis" unicode="&#x1e84;" horiz-adv-x="915" d="M276 0 L311 0 L465 461 L468 461 L623 0 L661 0 L825 560 C846 634 854 659 885 667 L918 676 L918 693 L735 693 L735 676 L769 667 C790 661 798 652 798 632 C798 616 793 593 785 562 L662 123 L657 123 L512 573 C504 599 499 619 499 632 C499 657 511 666 531 670 L561 676 L561 693 L339 693 L339 676 L368 669 C396 662 405 651 432 571 L449 520 L318 123 L313 123 L169 573 C160 600 155 620 155 634 C155 655 166 664 188 669 L222 676 L222 693 L-3 693 L-3 676 L26 669 C54 662 62 652 87 576 L276 0 Z M363 739 C391 739 411 762 411 787 C411 813 391 835 363 835 C335 835 315 813 315 787 C315 762 335 739 363 739 L363 739 Z M547 739 C575 739 595 762 595 787 C595 813 575 835 547 835 C519 835 499 813 499 787 C499 762 519 739 547 739 L547 739 Z " />
<glyph glyph-name="wdieresis" unicode="&#x1e85;" horiz-adv-x="726" d="M215 0 L249 0 L366 337 L368 337 L485 0 L516 0 L658 408 C676 459 680 474 708 482 L734 489 L734 505 L575 505 L575 489 L601 482 C619 477 629 472 630 459 C631 447 627 428 619 402 L522 106 L518 106 L416 402 C408 424 403 441 403 453 C403 467 403 477 422 482 L449 489 L449 505 L267 505 L267 489 L293 481 C315 473 327 455 339 418 L351 385 L254 106 L251 106 L153 402 C146 422 141 438 141 452 C141 467 144 476 166 482 L193 489 L193 505 L-8 505 L-8 489 L22 479 C44 472 51 464 67 418 L215 0 Z M277 601 C305 601 325 624 325 649 C325 675 305 697 277 697 C249 697 229 675 229 649 C229 624 249 601 277 601 L277 601 Z M449 601 C477 601 497 624 497 649 C497 675 477 697 449 697 C421 697 401 675 401 649 C401 624 421 601 449 601 L449 601 Z " />
<glyph glyph-name="Ygrave" unicode="&#x1ef2;" horiz-adv-x="582" d="M263 81 C263 36 260 31 226 25 L183 17 L183 0 L421 0 L421 17 L378 25 C344 31 341 36 341 81 L341 288 L477 564 C518 648 530 657 562 668 L586 676 L586 693 L394 693 L394 676 L427 668 C468 658 479 646 450 586 L322 318 L319 318 L170 594 C141 648 151 659 188 668 L222 676 L222 693 L-4 693 L-4 676 L23 669 C49 661 55 655 86 598 L263 278 L263 81 Z M414 729 L420 743 L253 846 C242 853 232 856 223 856 C203 856 188 838 188 818 C188 799 196 785 220 779 L414 729 Z " />
<glyph glyph-name="ygrave" unicode="&#x1ef3;" horiz-adv-x="478" d="M78 -205 C184 -205 214 -118 245 -34 L409 408 C429 462 433 475 456 481 L486 489 L486 505 L327 505 L327 489 L353 482 C371 477 381 472 382 460 C383 447 379 428 370 402 L264 101 L260 101 L148 403 C141 422 135 439 135 453 C135 468 140 476 161 482 L187 489 L187 505 L-8 505 L-8 489 L18 481 C43 472 49 467 67 418 L222 1 L194 -67 C172 -120 145 -157 118 -157 C109 -157 106 -154 100 -138 C92 -118 83 -103 53 -103 C25 -103 5 -118 5 -149 C5 -178 25 -205 78 -205 L78 -205 Z M354 574 L361 588 L205 702 C192 711 181 714 172 714 C152 714 137 697 137 677 C137 662 144 645 170 635 L354 574 Z " />
<glyph glyph-name="uni2009" unicode="&#x2009;" horiz-adv-x="100" d="" />
<glyph glyph-name="endash" unicode="&#x2013;" horiz-adv-x="359" d="M40 268 L319 268 L319 304 L40 304 L40 268 Z " />
<glyph glyph-name="emdash" unicode="&#x2014;" horiz-adv-x="562" d="M40 268 L522 268 L522 304 L40 304 L40 268 Z " />
<glyph glyph-name="quoteleft" unicode="&#x2018;" horiz-adv-x="182" d="M144 706 C70 686 35 641 35 580 C35 541 61 514 93 514 C120 514 142 533 142 559 C142 584 123 605 98 605 C87 605 80 600 78 599 C78 640 98 666 150 691 L144 706 Z " />
<glyph glyph-name="quoteright" unicode="&#x2019;" horiz-adv-x="182" d="M38 514 C112 534 147 579 147 640 C147 679 121 706 89 706 C62 706 40 687 40 661 C40 636 59 615 84 615 C95 615 102 620 104 621 C104 580 84 554 32 529 L38 514 Z " />
<glyph glyph-name="quotesinglbase" unicode="&#x201a;" horiz-adv-x="182" d="M38 -93 C112 -73 147 -28 147 33 C147 72 121 99 89 99 C62 99 40 80 40 54 C40 29 59 8 84 8 C95 8 102 13 104 14 C104 -27 84 -53 32 -78 L38 -93 Z " />
<glyph glyph-name="quotedblleft" unicode="&#x201c;" horiz-adv-x="339" d="M301 706 C227 686 192 641 192 580 C192 541 218 514 250 514 C277 514 299 533 299 559 C299 584 280 605 255 605 C244 605 237 600 235 599 C235 640 255 666 307 691 L301 706 Z M144 706 C70 686 35 641 35 580 C35 541 61 514 93 514 C120 514 142 533 142 559 C142 584 123 605 98 605 C87 605 80 600 78 599 C78 640 98 666 150 691 L144 706 Z " />
<glyph glyph-name="quotedblright" unicode="&#x201d;" horiz-adv-x="339" d="M38 514 C112 534 147 579 147 640 C147 679 121 706 89 706 C62 706 40 687 40 661 C40 636 59 615 84 615 C95 615 102 620 104 621 C104 580 84 554 32 529 L38 514 Z M195 514 C269 534 304 579 304 640 C304 679 278 706 246 706 C219 706 197 687 197 661 C197 636 216 615 241 615 C252 615 259 620 261 621 C261 580 241 554 189 529 L195 514 Z " />
<glyph glyph-name="quotedblbase" unicode="&#x201e;" horiz-adv-x="339" d="M38 -93 C112 -73 147 -28 147 33 C147 72 121 99 89 99 C62 99 40 80 40 54 C40 29 59 8 84 8 C95 8 102 13 104 14 C104 -27 84 -53 32 -78 L38 -93 Z M195 -93 C269 -73 304 -28 304 33 C304 72 278 99 246 99 C219 99 197 80 197 54 C197 29 216 8 241 8 C252 8 259 13 261 14 C261 -27 241 -53 189 -78 L195 -93 Z " />
<glyph glyph-name="dagger" unicode="&#x2020;" horiz-adv-x="415" d="M197 -67 L218 -67 L254 371 C236 400 222 454 219 493 C284 492 327 463 351 463 C377 463 390 480 390 503 C390 526 377 543 351 543 C327 543 284 513 219 512 C223 572 254 638 254 653 C254 682 227 702 207 702 C187 702 161 682 161 653 C161 638 193 572 196 512 C131 514 88 543 64 543 C38 543 25 526 25 503 C25 480 38 463 64 463 C88 463 131 492 196 493 C194 454 179 400 161 371 L197 -67 Z " />
<glyph glyph-name="daggerdbl" unicode="&#x2021;" horiz-adv-x="416" d="M200 314 L216 314 L255 413 C239 434 222 462 219 493 C284 492 326 463 350 463 C376 463 390 480 390 502 C390 526 376 543 350 543 C326 543 284 513 219 512 C223 572 254 638 254 653 C254 682 227 702 207 702 C187 702 161 682 161 653 C161 638 193 572 196 512 C133 514 88 543 64 543 C37 543 25 526 25 503 C25 480 37 463 64 463 C88 463 133 492 196 493 C195 462 178 434 161 413 L200 314 Z M216 289 L200 289 L161 190 C177 169 194 141 197 110 C132 111 90 140 66 140 C40 140 26 123 26 101 C26 77 40 60 66 60 C90 60 132 90 197 91 C193 31 162 -35 162 -50 C162 -79 189 -99 209 -99 C229 -99 255 -79 255 -50 C255 -35 223 31 220 91 C283 89 328 60 352 60 C379 60 391 77 391 100 C391 123 379 140 352 140 C328 140 283 111 220 110 C221 141 238 169 255 190 L216 289 Z " />
<glyph glyph-name="bullet" unicode="&#x2022;" horiz-adv-x="325" d="M161 201 C223 201 275 252 275 316 C275 381 223 431 161 431 C99 431 50 381 50 316 C50 252 99 201 161 201 L161 201 Z " />
<glyph glyph-name="ellipsis" unicode="&#x2026;" horiz-adv-x="509" d="M87 -4 C115 -4 138 18 138 47 C138 75 115 98 87 98 C58 98 35 75 35 47 C35 18 58 -4 87 -4 L87 -4 Z M255 -4 C283 -4 306 18 306 47 C306 75 283 98 255 98 C226 98 202 75 202 47 C202 18 226 -4 255 -4 L255 -4 Z M422 -4 C451 -4 474 18 474 47 C474 75 451 98 422 98 C394 98 370 75 370 47 C370 18 394 -4 422 -4 L422 -4 Z " />
<glyph glyph-name="perthousand" unicode="&#x2030;" horiz-adv-x="1029" d="M181 350 C248 350 333 407 333 530 C333 650 253 703 183 703 C111 703 31 642 31 519 C31 401 113 350 181 350 L181 350 Z M181 372 C130 372 104 426 104 531 C104 630 128 680 181 680 C235 680 260 625 260 519 C260 418 234 372 181 372 L181 372 Z M67 -50 L108 -50 L603 714 L563 714 L67 -50 Z M502 -14 C569 -14 654 43 654 166 C654 286 574 339 504 339 C432 339 352 278 352 155 C352 37 434 -14 502 -14 L502 -14 Z M502 8 C451 8 425 62 425 167 C425 266 449 316 502 316 C556 316 581 261 581 155 C581 54 555 8 502 8 L502 8 Z M846 -14 C913 -14 998 43 998 166 C998 286 918 339 848 339 C776 339 696 278 696 155 C696 37 778 -14 846 -14 L846 -14 Z M846 8 C795 8 769 62 769 167 C769 266 793 316 846 316 C900 316 925 261 925 155 C925 54 899 8 846 8 L846 8 Z " />
<glyph glyph-name="uni2032" unicode="&#x2032;" horiz-adv-x="197" d="M71 472 L89 472 L144 633 C158 677 129 700 104 700 C76 700 55 686 56 645 L71 472 Z " />
<glyph glyph-name="uni2033" unicode="&#x2033;" horiz-adv-x="337" d="M227 472 L245 472 L299 633 C314 677 284 700 260 700 C232 700 210 686 212 645 L227 472 Z M72 472 L89 472 L144 633 C158 677 129 700 104 700 C77 700 55 686 56 645 L72 472 Z " />
<glyph glyph-name="guilsinglleft" unicode="&#x2039;" horiz-adv-x="264" d="M214 45 L244 45 L127 253 L244 460 L214 460 L48 263 L48 242 L214 45 Z " />
<glyph glyph-name="guilsinglright" unicode="&#x203a;" horiz-adv-x="265" d="M20 45 L51 45 L217 242 L217 263 L51 460 L20 460 L137 252 L20 45 Z " />
<glyph glyph-name="fraction" unicode="&#x2044;" horiz-adv-x="224" d="M-157 -50 L-116 -50 L379 714 L339 714 L-157 -50 Z " />
<glyph glyph-name="Euro" unicode="&#x20ac;" horiz-adv-x="551" d="M20 390 L81 390 C79 373 79 356 79 338 C79 326 79 316 80 305 L20 305 L20 275 L82 275 C100 81 206 -12 337 -12 C421 -12 476 28 514 62 L514 91 C475 64 430 37 353 37 C248 37 180 106 164 275 L368 275 L373 305 L161 305 C160 323 160 342 160 362 L160 390 L389 390 L394 421 L162 421 C174 597 244 675 351 675 C402 675 421 668 427 620 C432 581 444 565 478 565 C499 565 523 574 523 609 C523 663 458 705 356 705 C231 705 110 619 84 421 L20 421 L20 390 Z " />
<glyph glyph-name="trademark" unicode="&#x2122;" horiz-adv-x="660" d="M296 424 L391 424 L391 438 L378 442 C359 448 355 454 355 483 L355 665 L357 665 L445 432 L470 432 L551 665 L554 665 L554 470 C554 450 553 448 544 445 L521 438 L521 424 L633 424 L633 438 L611 444 C601 447 600 450 600 470 L600 653 C600 665 602 669 613 672 L633 678 L633 693 L537 693 L470 492 L466 492 L395 693 L296 693 L296 679 L318 672 C329 668 331 666 331 654 L331 484 C331 453 326 446 307 441 L296 438 L296 424 Z M82 423 L209 423 L209 438 L182 444 C173 446 171 450 171 469 L171 677 L174 677 C206 677 216 674 227 657 C237 641 241 628 253 599 L267 599 L263 693 L28 693 L24 599 L38 599 C51 631 55 641 64 657 C74 674 85 677 117 677 L120 677 L120 469 C120 450 118 446 108 444 L82 438 L82 423 Z " />
<glyph glyph-name="onethird" unicode="&#x2153;" horiz-adv-x="609" d="M19 347 L173 347 L173 362 L148 367 C129 371 126 376 126 400 L126 694 L115 697 C92 670 69 654 18 645 L18 630 L68 630 L68 400 C68 376 65 371 46 367 L19 362 L19 347 Z M453 -5 C547 -5 587 43 587 95 C587 146 549 173 494 179 L494 181 C551 193 575 232 575 270 C575 317 536 353 469 353 C415 353 370 332 370 297 C370 284 378 269 397 269 C419 269 426 284 430 309 C433 326 442 332 466 332 C498 332 521 314 521 263 C521 217 502 189 455 189 L435 189 L435 168 L453 168 C512 168 528 142 528 95 C528 48 503 14 462 14 C428 14 424 23 417 51 C412 73 402 79 386 79 C367 79 358 66 358 49 C358 16 404 -5 453 -5 L453 -5 Z M13 -50 L54 -50 L549 714 L509 714 L13 -50 Z " />
<glyph glyph-name="twothirds" unicode="&#x2154;" horiz-adv-x="661" d="M13 347 L236 347 L245 442 L232 442 C214 402 208 392 182 392 L66 392 L66 395 C151 460 243 522 243 595 C243 662 187 700 123 700 C60 700 22 668 22 642 C22 625 33 611 52 611 C73 611 83 625 86 654 C89 675 101 679 123 679 C161 679 181 656 181 607 C181 561 166 531 115 473 C91 445 53 412 13 378 L13 347 Z M505 -5 C599 -5 639 43 639 95 C639 146 601 173 546 179 L546 181 C603 193 627 232 627 270 C627 317 588 353 521 353 C467 353 422 332 422 297 C422 284 430 269 449 269 C471 269 478 284 482 309 C485 326 494 332 518 332 C550 332 573 314 573 263 C573 217 554 189 507 189 L487 189 L487 168 L505 168 C564 168 580 142 580 95 C580 48 555 14 514 14 C480 14 476 23 469 51 C464 73 454 79 438 79 C419 79 410 66 410 49 C410 16 456 -5 505 -5 L505 -5 Z M65 -50 L106 -50 L601 714 L561 714 L65 -50 Z " />
<glyph glyph-name="oneeighth" unicode="&#x215b;" horiz-adv-x="620" d="M19 347 L173 347 L173 362 L148 367 C129 371 126 376 126 400 L126 694 L115 697 C92 670 69 654 18 645 L18 630 L68 630 L68 400 C68 376 65 371 46 367 L19 362 L19 347 Z M474 -6 C550 -6 597 41 597 97 C597 145 565 166 524 186 L524 189 C559 210 587 234 587 271 C587 324 538 353 479 353 C422 353 368 320 368 255 C368 221 390 190 427 173 L427 170 C384 150 352 124 352 81 C352 27 414 -6 474 -6 L474 -6 Z M481 15 C431 15 402 41 402 91 C402 126 416 145 444 163 C515 133 554 114 554 73 C554 43 528 15 481 15 L481 15 Z M507 195 C440 224 410 243 410 278 C410 316 438 334 474 334 C514 334 540 309 540 268 C540 230 527 211 507 195 L507 195 Z M13 -50 L54 -50 L549 714 L509 714 L13 -50 Z " />
<glyph glyph-name="threeeighths" unicode="&#x215c;" horiz-adv-x="655" d="M120 342 C214 342 254 390 254 442 C254 493 216 520 161 526 L161 528 C218 540 242 579 242 617 C242 664 203 700 136 700 C82 700 37 679 37 644 C37 631 45 616 64 616 C86 616 93 631 97 656 C100 673 109 679 133 679 C165 679 188 661 188 610 C188 564 169 536 122 536 L102 536 L102 515 L120 515 C179 515 195 489 195 442 C195 395 170 361 129 361 C95 361 91 370 84 398 C79 420 69 426 53 426 C34 426 25 413 25 396 C25 363 71 342 120 342 L120 342 Z M509 -6 C585 -6 632 41 632 97 C632 145 600 166 559 186 L559 189 C594 210 622 234 622 271 C622 324 573 353 514 353 C457 353 403 320 403 255 C403 221 425 190 462 173 L462 170 C419 150 387 124 387 81 C387 27 449 -6 509 -6 L509 -6 Z M516 15 C466 15 437 41 437 91 C437 126 451 145 479 163 C550 133 589 114 589 73 C589 43 563 15 516 15 L516 15 Z M542 195 C475 224 445 243 445 278 C445 316 473 334 509 334 C549 334 575 309 575 268 C575 230 562 211 542 195 L542 195 Z M48 -50 L89 -50 L584 714 L544 714 L48 -50 Z " />
<glyph glyph-name="fiveeighths" unicode="&#x215d;" horiz-adv-x="648" d="M105 342 C177 342 237 389 237 460 C237 536 179 567 115 567 C94 567 75 563 65 559 L74 644 L221 644 L231 720 L218 720 C206 694 203 693 190 693 L55 693 L37 523 L45 516 C58 519 72 525 105 525 C158 525 189 496 189 446 C189 394 163 363 112 363 C85 363 79 371 76 391 C72 414 61 422 46 422 C27 422 16 411 16 394 C16 363 50 342 105 342 L105 342 Z M502 -6 C578 -6 625 41 625 97 C625 145 593 166 552 186 L552 189 C587 210 615 234 615 271 C615 324 566 353 507 353 C450 353 396 320 396 255 C396 221 418 190 455 173 L455 170 C412 150 380 124 380 81 C380 27 442 -6 502 -6 L502 -6 Z M509 15 C459 15 430 41 430 91 C430 126 444 145 472 163 C543 133 582 114 582 73 C582 43 556 15 509 15 L509 15 Z M535 195 C468 224 438 243 438 278 C438 316 466 334 502 334 C542 334 568 309 568 268 C568 230 555 211 535 195 L535 195 Z M41 -50 L82 -50 L577 714 L537 714 L41 -50 Z " />
<glyph glyph-name="seveneighths" unicode="&#x215e;" horiz-adv-x="617" d="M82 347 L138 347 C152 482 203 575 262 669 L262 693 L45 693 L32 600 L47 600 C61 635 63 645 80 645 L223 645 C177 575 95 455 82 347 L82 347 Z M471 -6 C547 -6 594 41 594 97 C594 145 562 166 521 186 L521 189 C556 210 584 234 584 271 C584 324 535 353 476 353 C419 353 365 320 365 255 C365 221 387 190 424 173 L424 170 C381 150 349 124 349 81 C349 27 411 -6 471 -6 L471 -6 Z M478 15 C428 15 399 41 399 91 C399 126 413 145 441 163 C512 133 551 114 551 73 C551 43 525 15 478 15 L478 15 Z M504 195 C437 224 407 243 407 278 C407 316 435 334 471 334 C511 334 537 309 537 268 C537 230 524 211 504 195 L504 195 Z M10 -50 L51 -50 L546 714 L506 714 L10 -50 Z " />
<glyph glyph-name="arrowleft" unicode="&#x2190;" horiz-adv-x="818" d="M697 250 C831 244 831 450 697 444 L358 428 L438 494 C552 588 411 731 315 637 L28 349 L28 345 L314 58 C411 -37 552 106 438 200 L358 266 L697 250 Z " />
<glyph glyph-name="arrowright" unicode="&#x2192;" horiz-adv-x="818" d="M460 266 L380 200 C266 106 407 -37 504 58 L790 345 L790 349 L503 637 C407 731 266 588 380 494 L460 428 L121 444 C-13 450 -13 244 121 250 L460 266 Z " />
<glyph glyph-name="minus" unicode="&#x2212;" horiz-adv-x="437" d="M33 317 L404 317 L404 359 L33 359 L33 317 Z " />
<glyph glyph-name="approxequal" unicode="&#x2248;" horiz-adv-x="473" d="M399 324 C383 290 363 255 332 255 C282 255 200 299 144 299 C87 299 55 254 37 205 L76 191 C88 222 111 257 141 257 C188 257 272 213 329 213 C387 213 412 255 436 307 L399 324 Z M399 470 C383 436 363 401 332 401 C282 401 200 445 144 445 C87 445 55 400 37 351 L76 337 C88 368 111 403 141 403 C188 403 272 359 329 359 C387 359 412 401 436 453 L399 470 Z " />
<glyph glyph-name="notequal" unicode="&#x2260;" horiz-adv-x="473" d="M40 383 L242 383 L181 272 L40 272 L40 231 L159 231 L88 101 L137 101 L208 231 L433 231 L433 272 L230 272 L291 383 L433 383 L433 425 L314 425 L385 555 L336 555 L265 425 L40 425 L40 383 Z " />
<glyph glyph-name="lessequal" unicode="&#x2264;" horiz-adv-x="437" d="M33 0 L404 0 L404 42 L33 42 L33 0 Z M404 144 L404 191 L82 328 L404 465 L404 512 L33 348 L33 307 L404 144 Z " />
<glyph glyph-name="greaterequal" unicode="&#x2265;" horiz-adv-x="437" d="M404 42 L33 42 L33 0 L404 0 L404 42 Z M404 307 L404 348 L33 512 L33 465 L355 328 L33 191 L33 144 L404 307 Z " />
<glyph glyph-name="uni24C5" unicode="&#x24c5;" horiz-adv-x="788" d="M401 172 L378 176 C354 180 352 182 352 224 L352 507 C362 511 386 513 400 513 C452 513 478 490 478 421 C478 349 444 334 398 330 L398 315 C407 312 420 311 432 311 C505 311 552 353 552 426 C552 503 499 538 408 538 L246 538 L246 521 L257 519 C281 514 284 509 284 470 L284 223 C284 184 280 179 260 175 L246 172 L246 155 L401 155 L401 172 Z M394 -14 C594 -14 749 147 749 344 C749 541 594 700 394 700 C193 700 39 541 39 344 C39 147 193 -14 394 -14 L394 -14 Z M394 16 C208 16 77 164 77 344 C77 524 208 670 394 670 C579 670 711 524 711 344 C711 164 579 16 394 16 L394 16 Z " />
<glyph glyph-name="square" unicode="&#x25a0;" horiz-adv-x="926" d="M116 0 L810 0 L810 693 L116 693 L116 0 Z " />
<glyph glyph-name="squareopen" unicode="&#x25a1;" horiz-adv-x="926" d="M116 0 L810 0 L810 693 L116 693 L116 0 Z M162 44 L162 651 L764 651 L764 44 L162 44 Z " />
<glyph glyph-name="triangleup" unicode="&#x25b2;" horiz-adv-x="829" d="M780 0 L780 14 L425 724 L405 724 L51 14 L51 0 L780 0 Z " />
<glyph glyph-name="triangleupopen" unicode="&#x25b3;" horiz-adv-x="860" d="M828 0 L828 14 L468 724 L458 724 L99 14 L99 0 L828 0 Z M764 42 L162 42 L462 639 L764 42 Z " />
<glyph glyph-name="triangleright" unicode="&#x25b6;" horiz-adv-x="860" d="M116 -18 L130 -18 L810 342 L810 352 L130 711 L116 711 L116 -18 Z " />
<glyph glyph-name="trianglerightopen" unicode="&#x25b7;" horiz-adv-x="860" d="M116 -18 L130 -18 L810 342 L810 352 L130 711 L116 711 L116 -18 Z M162 45 L162 649 L731 347 L162 45 Z " />
<glyph glyph-name="triangledown" unicode="&#x25bc;" horiz-adv-x="829" d="M50 693 L50 679 L405 -31 L425 -31 L779 679 L779 693 L50 693 Z " />
<glyph glyph-name="triangledownopen" unicode="&#x25bd;" horiz-adv-x="860" d="M98 693 L98 679 L458 -31 L468 -31 L827 679 L827 693 L98 693 Z M162 651 L764 651 L464 54 L162 651 Z " />
<glyph glyph-name="triangleleft" unicode="&#x25c0;" horiz-adv-x="860" d="M744 711 L730 711 L50 352 L50 342 L730 -18 L744 -18 L744 711 Z " />
<glyph glyph-name="triangleleftopen" unicode="&#x25c1;" horiz-adv-x="860" d="M744 711 L730 711 L50 352 L50 342 L730 -18 L744 -18 L744 711 Z M129 347 L698 649 L698 45 L129 347 Z " />
<glyph glyph-name="circle" unicode="&#x25cb;" horiz-adv-x="806" d="M402 -15 C601 -15 765 148 765 347 C765 547 601 708 402 708 C202 708 41 547 41 347 C41 148 202 -15 402 -15 L402 -15 Z " />
<glyph glyph-name="circleopen" unicode="&#x25cf;" horiz-adv-x="806" d="M402 -15 C601 -15 765 148 765 347 C765 547 601 708 402 708 C202 708 41 547 41 347 C41 148 202 -15 402 -15 L402 -15 Z M402 27 C225 27 88 172 88 347 C88 523 225 666 402 666 C577 666 718 523 718 347 C718 172 577 27 402 27 L402 27 Z " />
<glyph glyph-name="star" unicode="&#x2605;" horiz-adv-x="832" d="M169 -34 L416 144 L663 -32 L670 -28 L575 261 L818 435 L818 443 L515 443 L420 734 L412 734 L318 443 L14 443 L14 435 L258 261 L162 -30 L169 -34 Z " />
<glyph glyph-name="staropen" unicode="&#x2606;" horiz-adv-x="832" d="M169 -34 L416 144 L663 -32 L670 -28 L575 261 L818 435 L818 443 L515 443 L420 734 L412 734 L318 443 L14 443 L14 435 L258 261 L162 -30 L169 -34 Z M229 54 L305 276 L116 406 L344 406 L416 627 L488 406 L717 406 L527 276 L603 54 L417 194 L229 54 Z " />
<glyph glyph-name="f_f" unicode="&#xfb00;" horiz-adv-x="555" d="M300 0 L517 0 L517 16 L465 27 C440 32 437 46 437 79 L437 469 L538 469 L544 505 L437 505 L437 599 C437 696 490 728 529 728 C548 728 550 722 554 705 C561 672 572 662 605 662 C635 662 648 680 648 701 C648 730 624 756 563 756 C453 756 363 683 363 559 L363 505 L163 505 L163 595 C163 687 205 718 248 718 C257 718 262 712 265 694 C269 671 281 657 310 657 C337 657 355 674 355 697 C355 721 337 746 281 746 C178 746 89 669 89 549 L89 506 L21 487 L21 469 L89 469 L89 78 C89 41 85 33 56 25 L23 16 L23 0 L233 0 L233 16 L194 26 C164 34 163 46 163 79 L163 469 L363 469 L363 78 C363 41 359 34 330 25 L300 16 L300 0 Z " />
<glyph glyph-name="f_i" unicode="&#xfb01;" horiz-adv-x="518" d="M23 0 L233 0 L233 16 L193 27 C165 35 163 46 163 79 L163 469 L326 469 C348 469 362 454 362 419 L362 78 C362 41 358 33 329 25 L297 16 L297 0 L502 0 L502 16 L469 25 C441 33 436 39 436 78 L436 410 C436 477 440 516 440 516 L434 519 L338 505 L163 505 L163 584 C163 697 221 729 284 729 C302 729 308 723 311 699 C315 668 332 657 360 657 C393 657 407 675 407 696 C407 726 380 756 311 756 C186 756 89 682 89 543 L89 506 L21 487 L21 469 L89 469 L89 78 C89 41 85 33 56 25 L23 16 L23 0 Z " />
<glyph glyph-name="f_l" unicode="&#xfb02;" horiz-adv-x="519" d="M300 0 L503 0 L503 16 L469 25 C441 33 436 39 436 78 L436 630 C436 697 440 749 440 749 L433 755 L400 725 C387 742 356 756 304 756 C175 756 89 683 89 546 L89 506 L21 487 L21 469 L89 469 L89 78 C89 41 86 33 56 25 L23 16 L23 0 L233 0 L233 16 L196 26 C166 35 163 46 163 79 L163 469 L266 469 L276 505 L163 505 L163 587 C163 697 215 728 276 728 C297 728 304 721 306 708 C310 682 319 658 358 658 L362 658 L362 78 C362 41 357 34 329 25 L300 16 L300 0 Z " />
<glyph glyph-name="f_f_i" unicode="&#xfb03;" horiz-adv-x="792" d="M23 0 L233 0 L233 16 L194 26 C164 34 163 46 163 79 L163 469 L363 469 L363 78 C363 41 358 33 330 25 L300 16 L300 0 L507 0 L507 16 L461 29 C439 35 437 46 437 79 L437 469 L600 469 C622 469 636 454 636 419 L636 78 C636 41 632 33 603 25 L571 16 L571 0 L776 0 L776 16 L743 25 C715 33 710 39 710 78 L710 410 C710 477 714 516 714 516 L708 519 L612 505 L437 505 L437 584 C437 697 495 729 558 729 C576 729 582 723 585 699 C589 668 606 657 634 657 C667 657 681 675 681 696 C681 726 654 756 585 756 C460 756 363 682 363 543 L363 505 L163 505 L163 595 C163 687 205 718 248 718 C257 718 262 712 265 694 C269 671 281 657 310 657 C337 657 355 674 355 697 C355 721 337 746 281 746 C178 746 89 669 89 549 L89 506 L21 487 L21 469 L89 469 L89 78 C89 41 85 33 56 25 L23 16 L23 0 Z " />
<glyph glyph-name="f_f_l" unicode="&#xfb04;" horiz-adv-x="793" d="M571 0 L777 0 L777 16 L743 25 C715 33 710 39 710 78 L710 630 C710 697 714 749 714 749 L707 755 L674 724 C660 742 630 756 577 756 C452 756 363 683 363 546 L363 505 L163 505 L163 595 C163 687 205 718 248 718 C257 718 262 712 265 694 C269 671 281 657 310 657 C337 657 355 674 355 697 C355 721 337 746 281 746 C178 746 89 669 89 549 L89 506 L21 487 L21 469 L89 469 L89 78 C89 41 85 33 56 25 L23 16 L23 0 L233 0 L233 16 L194 26 C164 34 163 46 163 79 L163 469 L363 469 L363 78 C363 41 359 34 330 25 L300 16 L300 0 L507 0 L507 16 L470 26 C440 35 437 46 437 79 L437 469 L540 469 L547 505 L437 505 L437 587 C437 697 488 728 549 728 C570 728 577 721 579 708 C583 682 592 658 631 658 L636 658 L636 78 C636 41 632 34 603 25 L571 16 L571 0 Z " />
</font>
</svg>
